<svg version="1" xmlns="http://www.w3.org/2000/svg" width="18" height="18" viewBox="0 0 18 18"><path fill="none" stroke="#00FB71" stroke-miterlimit="10" d="M9.89 16.42H8.11c-3.59 0-6.53-2.94-6.53-6.53V8.11c0-3.59 2.94-6.53 6.53-6.53H9.9c3.59 0 6.53 2.94 6.53 6.53V9.9c-.01 3.58-2.95 6.52-6.54 6.52z"/><path fill="#00FB71" d="M9.6 8.2v5.82H8.26V8.2H6.99V7.14h1.26V6.4c0-.75.21-1.35.63-1.78.42-.43 1.01-.65 1.76-.65.28 0 .55.03.8.08.25.06.42.11.53.16l.16.08-.41 1.05c-.28-.14-.62-.21-1-.21-.35 0-.63.11-.83.32-.19.22-.29.52-.29.9v.79h1.98V8.2H9.6z"/></svg>