<svg xmlns="http://www.w3.org/2000/svg" width="100" height="100" viewBox="0 0 100 100"><path d="M29.04 35.06c5.31-6.33 13.26-10.35 22.16-10.35 15.96 0 28.9 12.94 28.9 28.9S67.16 82.5 51.2 82.5 22.31 69.57 22.31 53.62c0-7.06 2.53-13.54 6.73-18.56zm-9.145-9.134l8.428-8.429 6.018 6.017-8.43 8.43z" fill="#FCFCFC"/><g fill="none" stroke="#000" stroke-width="2" stroke-miterlimit="10"><path stroke-linecap="round" stroke-linejoin="round" d="M60.77 69.5c-.38-1.22-2.28-1.78-4.24-1.24-1.95.53-3.23 1.95-2.85 3.17s2.27 1.77 4.23 1.24m.29-36.18c-1.14-2.54-6.28-2.86-11.47-.71-5.2 2.14-8.48 5.94-7.34 8.48 1.14 2.54 6.28 2.86 11.47.71M37.49 65.5c-1.68.75-3.91-1.28-4.98-4.52-1.08-3.24-.58-6.47 1.1-7.21 1.68-.74 3.92 1.28 4.99 4.52m30.75-2.39c-1.12.6-2.61-1.02-3.32-3.61-.72-2.59-.39-5.18.74-5.77 1.12-.6 2.6 1.02 3.32 3.61"/><path d="M22.31 53.62c0-7.06 2.53-13.54 6.73-18.55 5.31-6.33 13.26-10.35 22.16-10.35 15.96 0 28.9 12.94 28.9 28.9S67.16 82.5 51.2 82.5 22.31 69.57 22.31 53.62z"/><path stroke-linecap="round" stroke-linejoin="round" d="M28.33 17.497l6.018 6.017-8.429 8.429-6.017-6.018z"/><path stroke-linecap="round" stroke-linejoin="round" d="M31.94 37.97l-2.9-2.91-3.12-3.12"/></g></svg>