<svg xmlns="http://www.w3.org/2000/svg" width="100" height="100" viewBox="0 0 100 100"><path fill="#FCFCFC" d="M50 24.3c14.19 0 25.7 11.51 25.7 25.7S64.19 75.7 50 75.7 24.3 64.19 24.3 50 35.81 24.3 50 24.3zm4.19 21.11l1.58-2.38-.47-.38c-.33-.25-.93-.53-1.81-.82-.88-.29-1.87-.48-2.97-.56v-3.05h-1.73v3.05c-1.79.14-3.18.65-4.15 1.53-.96.88-1.45 2.03-1.45 3.46 0 1.31.44 2.35 1.32 3.12.88.77 2.31 1.46 4.28 2.07v5.45c-1.66-.19-3.05-.75-4.16-1.67l-1.58 2.2.58.5c.37.31 1.04.65 2 1.01.95.36 2.01.58 3.16.66v2.76h1.73V59.6c1.86-.13 3.28-.69 4.26-1.65.97-.97 1.46-2.19 1.46-3.66 0-1.33-.44-2.41-1.33-3.25s-2.35-1.56-4.39-2.14V44c1.55.16 2.77.63 3.67 1.41z"/><path d="M55.77 43.03l-1.58 2.38c-.9-.78-2.12-1.25-3.67-1.41v4.9c2.04.58 3.5 1.3 4.39 2.14s1.33 1.92 1.33 3.25c0 1.47-.49 2.69-1.46 3.66-.98.96-2.4 1.52-4.26 1.65v2.76h-1.73V59.6c-1.15-.08-2.21-.3-3.16-.66-.96-.36-1.63-.7-2-1.01l-.58-.5 1.58-2.2c1.11.92 2.5 1.48 4.16 1.67v-5.45c-1.97-.61-3.4-1.3-4.28-2.07-.88-.77-1.32-1.81-1.32-3.12 0-1.43.49-2.58 1.45-3.46.97-.88 2.36-1.39 4.15-1.53v-3.05h1.73v3.05c1.1.08 2.09.27 2.97.56.88.29 1.48.57 1.81.82l.47.38zM53.02 54.5c0-.57-.18-1.04-.55-1.41-.36-.37-1.01-.73-1.95-1.08v4.87c1.67-.24 2.5-1.03 2.5-2.38zm-4.23-6.16V44c-1.6.22-2.4.93-2.4 2.14 0 .49.18.9.54 1.23.36.34.98.66 1.86.97z"/><path fill="#FCFCFC" d="M52.47 53.09c.37.37.55.84.55 1.41 0 1.35-.83 2.14-2.5 2.38v-4.87c.94.35 1.59.71 1.95 1.08zM48.79 44v4.34c-.88-.31-1.5-.63-1.86-.97a1.6 1.6 0 0 1-.54-1.23c0-1.21.8-1.92 2.4-2.14z"/><path fill="none" stroke="#000" stroke-width="2" stroke-linejoin="round" stroke-miterlimit="10" d="M75.7 50c0 14.19-11.51 25.7-25.7 25.7S24.3 64.19 24.3 50 35.81 24.3 50 24.3 75.7 35.81 75.7 50z"/></svg>