<svg xmlns="http://www.w3.org/2000/svg" width="100" height="100" viewBox="0 0 100 100"><g fill="#FCFCFC"><path d="M79.33 26.14c3.97 3.97 4.07 10.28.26 14.09 0 0-.29-4.18-5.58-9.48-5.29-5.29-8.78-4.88-8.78-4.88 3.81-3.81 10.13-3.7 14.1.27z"/><path d="M60.72 35.67c.12-2.66 1.2-5.37 2.67-7.54.57-.85 1.19-1.61 1.84-2.26 0 0 3.49-.41 8.78 4.88 5.29 5.3 5.58 9.48 5.58 9.48-.65.65-1.41 1.27-2.25 1.84-2.17 1.46-4.89 2.55-7.55 2.67-2.39.11-4.73-.57-6.62-2.45-1.88-1.88-2.56-4.23-2.45-6.62z"/><path d="M78.03 42.76a3.615 3.615 0 0 1 0 5.11l-3.84 3.84c-1.55-4.16-4.4-6.97-4.4-6.97 2.66-.12 5.38-1.21 7.55-2.67l.69.69zm-2.88 21.26v4.82c0 2.19-1.71 4.81-4.81 4.81-3.1 0-4.82-2.62-4.82-4.81v-4.82h9.63z"/><path d="M53.75 31.28c4 1.48 6.76 4.18 6.97 4.39-.11 2.39.57 4.74 2.45 6.62 1.89 1.88 4.23 2.56 6.62 2.45 0 0 2.85 2.81 4.4 6.97.57 1.54.96 3.26.96 5.09v7.22h-9.63V56.8l-21.5 21.65-6.8-6.8 6.81-6.81c.94-.94.94-2.46 0-3.4s-2.47-.94-3.41 0l-6.81 6.81-6.8-6.8 21.66-21.51h-7.23v-9.63h7.23c1.83 0 3.55.39 5.08.97zm2.14 25.52l7.22-7.23-7.22-7.22-7.22 7.22 7.22 7.23z"/><path d="M62.7 27.44l.69.69c-1.47 2.17-2.55 4.88-2.67 7.54-.21-.21-2.97-2.91-6.97-4.39l3.84-3.84a3.615 3.615 0 0 1 5.11 0zm.41 22.13l-7.22 7.23-7.22-7.23 7.22-7.22zM44.02 78.45l-3.4 3.42c-.83.82-2.08 1.39-3.41 1.41-1.16.02-2.38-.39-3.4-1.41-2.19-2.19-1.55-5.26 0-6.81l3.41-3.41 6.8 6.8zm-2.58-48.14v9.63h-4.81c-2.2 0-4.82-1.72-4.82-4.82 0-3.1 2.62-4.81 4.82-4.81h4.81zm-7.63 37.94l-3.41 3.4c-1.55 1.55-4.61 2.19-6.81 0-1.02-1.03-1.43-2.24-1.41-3.41.02-1.32.59-2.57 1.41-3.4l3.42-3.39 6.8 6.8z"/></g><g fill="none" stroke="#000" stroke-width="2" stroke-linejoin="round" stroke-miterlimit="10"><path d="M44.03 78.46l-.01-.01-6.8-6.8M27 61.44l.01.01 6.8 6.8"/><path stroke-linecap="round" d="M55.89 56.8l-7.22-7.23 7.22-7.22 7.22 7.22zm23.7-16.57c-.65.65-1.41 1.27-2.25 1.84-2.17 1.46-4.89 2.55-7.55 2.67-2.39.11-4.73-.57-6.62-2.45-1.88-1.88-2.56-4.23-2.45-6.62.12-2.66 1.2-5.37 2.67-7.54.57-.85 1.19-1.61 1.84-2.26 3.81-3.81 10.13-3.7 14.1.27s4.07 10.28.26 14.09z"/><path stroke-linecap="round" d="M65.23 25.87s3.49-.41 8.78 4.88c5.29 5.3 5.58 9.48 5.58 9.48m-38.15-9.92v9.63m19.29-4.26l-.01-.01c-.21-.21-2.97-2.91-6.97-4.39-1.53-.58-3.25-.97-5.08-.97H36.63c-2.2 0-4.82 1.71-4.82 4.81 0 3.1 2.62 4.82 4.82 4.82h12.04L27.01 61.45l-3.42 3.39c-.82.83-1.39 2.08-1.41 3.4-.02 1.17.39 2.38 1.41 3.41 2.2 2.19 5.26 1.55 6.81 0l3.41-3.4 6.81-6.81c.94-.94 2.47-.94 3.41 0s.94 2.46 0 3.4l-6.81 6.81-3.41 3.41c-1.55 1.55-2.19 4.62 0 6.81 1.02 1.02 2.24 1.43 3.4 1.41 1.33-.02 2.58-.59 3.41-1.41l3.4-3.42 21.5-21.65m9.63 7.22h-9.63"/><path stroke-linecap="round" d="M69.79 44.74s2.85 2.81 4.4 6.97c.57 1.54.96 3.26.96 5.09v12.04c0 2.19-1.71 4.81-4.81 4.81-3.1 0-4.82-2.62-4.82-4.81V56.8m-11.8-25.49l.03-.03 3.84-3.84a3.615 3.615 0 0 1 5.11 0l.69.69"/><path stroke-linecap="round" d="M74.15 51.75l.04-.04 3.84-3.84a3.615 3.615 0 0 0 0-5.11l-.69-.69m-59.98-23.8s3.38 7.22 10.84 7.22c8.57 0 9.63-4.81 16.85-4.81 6.02 0 10.84 8.43 10.84 8.43"/></g></svg>