<svg version="1" xmlns="http://www.w3.org/2000/svg" width="18" height="18" viewBox="0 0 18 18"><g fill="none" stroke="#00FB71" stroke-miterlimit="10"><path d="M9.89 16.42H8.11c-3.59 0-6.53-2.94-6.53-6.53V8.11c0-3.59 2.94-6.53 6.53-6.53H9.9c3.59 0 6.53 2.94 6.53 6.53V9.9c-.01 3.58-2.95 6.52-6.54 6.52z"/><path d="M9.24 11.73h-.48c-1.37 0-2.49-1.12-2.49-2.49v-.48c0-1.37 1.12-2.49 2.49-2.49h.47c1.37 0 2.49 1.12 2.49 2.49v.47c.01 1.38-1.11 2.5-2.48 2.5zm3.25-6.97h.08c.23 0 .42.19.42.42v.08c0 .23-.19.42-.42.42h-.08c-.23 0-.42-.19-.42-.42v-.08c0-.23.19-.42.42-.42z"/></g></svg>