<svg xmlns="http://www.w3.org/2000/svg" width="100" height="100" viewBox="0 0 100 100"><path fill="#FCFCFC" d="M50 24.3c14.19 0 25.7 11.51 25.7 25.7S64.19 75.7 50 75.7 24.3 64.19 24.3 50 35.81 24.3 50 24.3z"/><g fill="none" stroke="#000" stroke-width="2" stroke-linejoin="round" stroke-miterlimit="10"><path d="M75.7 50c0 14.19-11.51 25.7-25.7 25.7S24.3 64.19 24.3 50 35.81 24.3 50 24.3 75.7 35.81 75.7 50z"/><path d="M65.84 50c0 8.75-7.09 15.84-15.84 15.84S34.16 58.75 34.16 50"/><path stroke-linecap="round" d="M43.46 42.58v3.51m12.14-3.51v3.51"/></g></svg>