<svg xmlns="http://www.w3.org/2000/svg" width="650" height="500" viewBox="0 0 650 500"><g opacity=".8" fill="#F3F3F4"><path d="M134.87 117.34v.34c.34.17.34-.17.34-.51h-.17c0 .17 0 .17-.17.17zm-75.19 104.9v-.17c-.17 0-.17.17 0 .17zm3.73-2.54v-.17c-.17 0-.17.17 0 .17zm22.58-66.72v.17c.17 0 .17-.17 0-.17zM67.82 216.3v-.17c-.17 0-.17.17 0 .17zm-51.43 4.08h-.17c0 .16.17.16.17 0zm96.59-89.12h.34c0-.17-.34-.17-.34 0zm20.19 49.22v.34c.34.34.51-.51.17-.51 0 .17 0 .17-.17.17zm8.49 3.91c.51.17 1.02.17 1.02-.51-.34-.34-1.02 0-1.02.51zm2.72-.34c-.51.17-.68.34-1.02.51.51.51.85 0 1.02-.51zm-13.75-4.75c.17 0 .51 0 .51-.17-.17 0-.51 0-.51.17zm2.21.67c.17 0 .17.34.34.34 0-.17.17-.34.17-.51-.18 0-.51 0-.51.17zm-2.55-27.16c.17-.17.17-.68-.17-.68 0 .34-.17.68.17.68zm0 .51c0-.17-.34-.17-.34 0 .17 0 .34.34.34 0zm10.86 26.99c.17 0 .17 0 .17-.17-.17 0-.17 0-.17.17zm-5.26.85c-.51 0-.85.34-.85-.34h-1.02c-.17 1.02 1.87 1.02 1.87.34zm41.42-29.02c.17 11.2.68 21.56 8.15 25.63 3.57.51 6.45.68 9.17 2.04.17-.34-.51-.85-.17-1.02 1.7.51 3.39-1.02 5.09-.51 2.38-1.19 4.75-2.38 7.13-3.4 2.21-2.72 5.26-4.75 7.81-7.13 0 1.53.17 2.89.17 4.24 2.21 4.24 4.75 8.15 9.34 10.01 4.07-.17 6.62-1.36 9.51-3.06 3.98-4.51 7.51-9.45 10.84-14.61.25 1.11.49 2.27.88 3.57.85 1.53 1.7 3.06 2.38 4.75 1.87 2.38 3.9 5.43 6.96 5.94-.17.51.34.34.34.68 2.72.51 6.11 1.36 7.98 2.21-.17-.17-.68-.85-.34-.85 5.43.51 9.34-1.7 12.9-2.89 2.72-3.06 6.79-4.75 9.68-7.81.34 0 .34.17.68.17v-1.02c2.55-1.7 4.92-3.4 6.45-6.11.17.17.17.34.51.34.68-1.53 3.06-2.38 2.89-4.24.34 0 .17.51.51.51.17-.51.68-.51.51-1.36 1.87-.51 1.7-2.89 3.06-3.9.68.17 1.7-.68 1.87-1.7 1.19-.17 1.36-1.36 1.7-2.21 0-.34-.34-.68-.17-1.19 1.02.51 1.87-1.36 2.72-1.87.17-.51-.51-.17-.51-.68.85-.17.85-1.02 1.87-1.02.79-1.05 1.68-2.01 2.28-3.25-1.71 5.84-3.46 11.41-4.99 16.83-1.19 6.96-2.89 15.28-.17 23.43-.34.68.51 1.19 0 1.87 2.72 2.89 6.45 5.77 11.71 4.41 12.86-6.75 21.52-17.69 30.53-28.43.58 7.72 2.29 14.2 7.83 17.22 3.57.51 6.45.68 9.17 2.04.17-.34-.51-.85-.17-1.02 1.7.51 3.39-1.02 5.09-.51 2.38-1.19 4.75-2.38 7.13-3.4 2.21-2.72 5.26-4.75 7.81-7.13 0 1.53.17 2.89.17 4.24 2.21 4.24 4.75 8.15 9.34 10.01 4.07-.17 6.62-1.36 9.51-3.06 7.4-8.39 13.28-18.3 19.13-28.23-.16.59-.32 1.17-.45 1.75a175.35 175.35 0 0 0-3.23 15.28c-.34 2.21-1.19 4.07-1.53 6.62-.17 1.7.17 3.73-.51 5.6.17 6.45-1.02 12.05 2.21 17.82-.34.17-.51-.51-.68 0 .17 1.02 1.87 1.87 1.02 2.72 3.4 3.4 7.3 7.3 13.75 6.28 2.89-1.02 4.92-2.89 7.47-4.41 0-.68.68-.51.51-1.19-.17 0-.17-.17 0-.17v.17c.34 0 .34.17.51.17 3.73-3.9 7.64-8.15 10.86-12.39 1.36-1.19 2.89-2.55 3.56-4.58.51.17.51-.34.85-.34.85-1.87 1.7-3.57 3.23-4.58 1.02-2.72 2.55-5.09 4.07-7.47-.17 0-.34-.17-.34-.51 1.87-2.04 3.06-4.92 4.07-7.81 1.87-2.04 3.06-4.75 4.24-7.64.34 0 .17-.51.68-.34.34-1.36 1.36-2.04 1.53-3.56.17 0 .17.17.34.17v-1.02c1.02-.68 1.19-2.21 1.7-3.23-.17 0-.17-.17 0 0 1.36-2.72 3.57-5.94 4.75-9.51.51.51.17-.34.68-.34.85-2.21 2.21-4.07 3.06-6.45 1.53-1.7 2.55-3.57 3.23-5.94.85-.34 1.36-1.53 1.19-2.72.17 0 .34.34.51.34.34-1.87 1.53-2.55 1.87-4.75-.17.17-.51.34-.68.51.17 0 .17.34 0 0-.85.68-.85.85-1.19 1.87.17 0 .17.34 0 0-.34 0-.34.17-.51.17-1.02 2.38-2.38 3.23-3.06 5.77-1.19.51-1.53 1.7-2.04 2.72-.17-.17-.51-.34-.51 0 .17 0 .17.34.17.51h-.51c-.85 2.04-2.04 3.9-3.57 5.26-.51 2.04-1.87 3.4-3.06 4.75.17 2.04-1.87 2.72-1.53 4.24-.51-.17-.51.34-.85.34-1.7 3.23-3.23 5.94-5.43 8.66-.17.85-.17 1.87-.85 2.21-.17 0-.17-.34-.34-.34-1.19 3.9-4.07 6.28-5.94 10.36 0-.17 0-.34-.17-.34-3.9 4.92-7.81 10.52-11.88 14.6.17.34-.68.51-.17 1.19-.68-.51-.85.68-1.53.51-2.38 3.06-4.58 6.28-7.81 8.49-3.73 2.89-6.11 7.13-11.71 8.15-.68-.17-.85-.51-1.19 0-.85-1.19-2.89-2.21-2.55-3.9-1.02-2.38.68-5.43-1.19-7.47.68-1.02 1.7-3.23.68-4.24 0 .17 0 .34-.34.34 0-.17.17-.34.34-.34.34-.17.51-.68.85-.85-1.19-1.36.51-2.55-.51-3.73.51 0 .51-.51 1.19-.68-.17-1.02.51-1.7.68-2.89-.34-.17-.51.51-.68 0 1.36-1.7.85-3.4 2.04-4.92 0 .17 0 .34.17.34.17-.68 0-.68.17-1.19 1.53-.85 1.36-3.06 1.53-3.9.17-1.02-.17-2.04.85-2.55-.34-.51-.17-1.36-.51-1.87.34-2.38 3.06-4.24 2.38-7.13.34 0 .68.17.68-.17-.51-2.21 2.04-4.07 2.04-6.79h.51c.68-2.89.85-4.41 1.87-6.79.17-.51-.51-.34-.34-.85.85-4.24 3.39-7.98 4.75-12.39.17-.34-.34-.17-.34-.51.68 0 0-1.36 1.02-1.19-.17-.68.17-1.53.51-1.02-.51-1.36 1.19-2.21.68-4.07.34 0 .51-.17.68-.17 1.02-2.89 2.21-5.77 3.06-8.49 0-.17-.17-.34-.17-.68s1.19-.85.51-1.7c1.02-.34.68-1.87.85-2.89.17-.17.68-.17.85-.34 3.56-10.36 9.84-22.92 14.09-32.76 0-.34-.17-.51-.17-.68.34-.34.68-.85 1.02-1.19 1.19-4.41 3.73-7.47 5.09-12.56 1.7.17.34-2.21 1.7-2.21 0-1.87 1.53-2.38 1.36-4.41 2.21-2.21 3.06-5.94 6.28-7.47-.34-.34.51-.68.68-1.02.34.34.34 0 .85 0 2.38-3.57-.85-7.3-4.24-7.81-.34-.51-.85-.85-.85-1.7-.34-.17-.85-.17-1.02-.51-4.07.17-4.41-2.38-8.49-3.23-1.02.34-1.7 1.19-1.87 2.21 0 .34.17.51.34.68-2.38 6.79-4.41 11.2-7.13 17.31-1.36 4.92-3.57 10.69-5.6 14.94-1.7 5.6-3.73 10.35-5.94 15.62-1.02 3.73-2.89 8.66-4.75 12.73-4.84 14.83-9.81 28.52-13.88 42.64-3.55 5.56-6.93 11.25-10.39 16.94-4.92 7.47-9.17 15.96-17.48 20.2-.34-.34-1.36-.17-1.87-.51-.17-.68-.17-1.87-.34-2.72 1.53-6.62 3.39-14.94 6.79-20.71 2.04-6.96 4.58-11.71 6.62-18.67 3.57-2.72 0-5.26-2.04-7.3-1.53-1.7-3.06-2.89-4.24-3.73-.85-.17-1.7-.17-2.72-.17-1.53 1.02-2.55 3.4-2.72 5.09-.17.34-.85.17-.85.85-1.36 3.06-2.21 6.62-3.57 9.85-.34.68-1.19.85-1.36 1.87.34 3.57-2.55 5.26-2.72 9-.17.68-.51.34-.68.85-4.07 9.17-10.69 17.14-20.71 21.05-10.36 2.72-9.68-11.54-7.13-17.65v-1.36c.85-.68.51-2.55 1.7-2.89.17-2.38 2.04-4.41 2.72-7.3 1.19-.85 1.36-2.55 1.87-3.9 1.02-.51 1.36-1.36 1.53-2.38.34-.34 1.19 0 1.02-.68.85-1.19 1.87-2.21 2.21-3.9 2.89-2.04 3.9-5.77 6.96-7.47.34-1.36 1.7-1.87 2.21-2.89 3.23-2.04 4.92-5.26 8.66-6.62.85-1.53 2.89-1.87 3.73-3.23 1.7-.51 3.06-1.36 4.41-2.04.85 0 1.36-.34 2.21-.17.68 0 1.02.51 1.7.51 2.21 0 3.73-.68 4.07-2.38 0-3.06-3.06-3.23-3.56-5.94-3.06-2.38-4.92-6.11-8.49-7.98-3.06-.68-4.07 2.55-7.13 3.06-12.39 11.71-24.61 23.6-33.44 39.04-2.85 5.71-5.7 11.25-6.26 19.25-.06.09-.13.18-.19.27h-.51c.17.51-.17.51-.17.85-.51.34-.85 1.02-1.53 1.19.34 1.02-1.02.51-.68 1.53-.68-.17-.34.51-.85.51-4.58 6.62-9.85 12.73-16.47 17.31-4.07 4.07-8.32 7.81-14.77 9.34-1.02-1.53 1.87-2.72.68-4.24.17-.34.85-.17.85-.68.17-2.89 1.53-5.43 2.04-9.17.34 0 .34-.51.85-.34.51-2.38.85-5.09 2.38-6.62.51-2.21 1.02-3.57 2.04-5.09-.34-2.04 1.53-3.23 1.36-5.43.17-.17.68-.17.85-.51 0-.34-.34-.68-.17-1.19.34 0 .51 0 .51-.34 2.04-3.4 2.38-7.13 4.24-10.52 0-2.21 1.7-3.57 2.38-4.92.51-.85.51-1.87 1.02-2.55.85-1.19 2.04-1.87 2.72-3.06.51-.85.51-1.87 1.02-2.72 1.02-1.7 2.72-3.23 3.22-5.43.68-.68 2.04-1.36 2.04-2.21-.17-.51-1.02-.51-1.7-.51-1.19-2.89-3.9-3.4-6.11-5.09-3.73-.17-6.11-2.38-10.52-1.53-1.36 1.7-1.87 3.4-.85 5.26-1.9 5.22-4.21 10.85-6.65 16.43-1.12.74-2.2 2.3-2.52 3.26 0-.17.34-.17.34 0-.34.17-.17.85-.68.85v-.51c-.85.51-.85 2.04-2.21 2.21 0 1.02-1.19.85-1.02 2.04-2.38 1.7-3.06 4.75-5.77 5.94 0 .51-.34.68-.34 1.19-.68 0-.68.68-1.19.68-1.87 3.23-4.75 5.94-7.81 8.66-4.58 4.07-9 7.3-14.43 9.68-.34 0-.34-.17-.68-.17-5.43 3.23-12.05 6.62-19.01 5.94-3.23-2.04-3.56-7.98-3.73-11.54.85-.17.17-1.02.51-2.21 1.53-2.21 1.02-4.24 2.21-6.62 0-.34-.17-.68-.34-1.02.85-.68.34-2.72 1.7-2.89-.51-1.36 1.36-2.38.85-3.57.68-1.02 1.53-2.55 1.53-3.73 1.36-1.02 1.53-2.89 1.87-4.24 1.53-.17 1.02-1.53 1.7-2.38.51-.17.51.34.85 0 .51-1.7 1.87-2.38 2.21-4.41 2.89-2.04 3.9-5.77 7.13-7.47.85-1.7 2.04-3.06 3.9-3.73 1.19-1.36 2.55-3.4 4.24-3.73 1.87-1.53 3.73-3.06 6.11-4.07.51-.51.85-1.36 1.87-1.36-.68 8.32-2.21 14.43-1.87 22.07.51.51.51-1.02 1.36-.68.68-3.06 3.06-4.92 3.06-8.15 1.53-1.87 2.21-4.58 3.56-6.62.51.17.85-.17 1.19-.17 0-.68.34-.85.51-1.53 1.19-.34 1.19-1.87 1.53-3.23 1.36-1.19 1.36-3.57 2.21-5.26 1.02-1.02 2.21-1.87 2.55-3.57.51-.17.85-.85 1.36-1.02.51 0 .51.51 1.19.34 1.19-1.02 2.72-5.26 1.53-6.62-.17-.17-.68-.51-1.02-.85-.34-.34-.68-.85-.68-1.02-1.19-1.19-3.4-1.53-5.26-2.55-.34-.17-.51-.68-.85-.85-1.36-.68-3.23-.51-4.24-.85-.85.68-1.19 1.87-1.02 3.4-1.36 2.04-1.19 5.43-2.89 7.13-2.21-2.04-2.21-6.79-6.28-6.28-2.72 2.38-6.45 3.73-9 6.28-7.3 5.09-12.05 12.73-18.16 19.01 0 1.19-1.02 1.36-1.19 2.21-6.28 7.47-11.37 15.96-14.09 26.99-.34 1.87-.51 3.23-1.02 4.58-.27 2.53-.32 4.97-.34 7.46-3.68 5.78-7.64 11.41-13.92 14.61-.34-.34-1.36-.17-1.87-.51-.17-.68-.17-1.87-.34-2.72 1.53-6.62 3.39-14.94 6.79-20.71 2.04-6.96 4.58-11.71 6.62-18.67 3.57-2.72 0-5.26-2.04-7.3-1.53-1.7-3.06-2.89-4.24-3.73-.85-.17-1.7-.17-2.72-.17-1.53 1.02-2.55 3.4-2.72 5.09-.17.34-.85.17-.85.85-1.36 3.06-2.21 6.62-3.57 9.85-.34.68-1.19.85-1.36 1.87.34 3.57-2.55 5.26-2.72 9-.17.68-.51.34-.68.85-4.07 9.17-10.69 17.14-20.71 21.05-10.36 2.72-9.68-11.54-7.13-17.65v-1.36c.85-.68.51-2.55 1.7-2.89.17-2.38 2.04-4.41 2.72-7.3 1.19-.85 1.36-2.55 1.87-3.9 1.02-.51 1.36-1.36 1.53-2.38.34-.34 1.19 0 1.02-.68.85-1.19 1.87-2.21 2.21-3.9 2.89-2.04 3.9-5.77 6.96-7.47.34-1.36 1.7-1.87 2.21-2.89 3.23-2.04 4.92-5.26 8.66-6.62.85-1.53 2.89-1.87 3.73-3.23 1.7-.51 3.06-1.36 4.41-2.04.85 0 1.36-.34 2.21-.17.68 0 1.02.51 1.7.51 2.21 0 3.73-.68 4.07-2.38 0-3.06-3.06-3.23-3.56-5.94-3.06-2.38-4.92-6.11-8.49-7.98-3.06-.68-4.07 2.55-7.13 3.06-12.39 11.71-24.61 23.6-33.44 39.04-2.89 5.77-5.77 11.37-6.28 19.52.07.74-.61.4-.61 1.08zm260.9-26.15c0 .17-.17.17-.34.17 0-.17.17-.17.34-.17zm-15.62 58.91c.17 0 .17.34.34.34 0 .51-.51 0-.34-.34zm0-5.77c0-.17.17-.17.34-.17 0 .17-.17.17-.34.17zm2.38-8.15c0-.17.17-.17.34-.17 0 .17-.17.17-.34.17z"/><path d="M305.3 148.4v.34h.34v-.34h-.34zm33.1-54.32c.85-.17 2.55-.68 3.4-1.53 0-.51 0-1.02-.17-1.36.51-.17.51-.68 1.02-.85.85-3.73 2.55-5.43 4.75-7.98-.17-1.02.51-1.36 1.19-1.7-.17-.51.17-.51.17-.85 2.38-1.87 3.23-5.43 5.26-7.81.68-.51 1.53-1.19 2.04-1.87l1.02-.51c0-.51.51-.85.68-1.36-.68.17.17-.34-.34-.68 1.02-.85 1.02-1.87 1.53-3.06-1.19-.34-.34-1.02-.17-1.7-.85.17-1.19-.17-2.04-.17-2.04-1.53-4.07-2.89-6.96-3.57-1.7-1.53-5.26-2.72-7.64-2.04-1.19 1.19-1.36 2.55-2.21 3.9 0 .34.68 0 .68.51-1.53 4.75-3.73 10.01-4.41 15.11-.68 0 .17.68-.68.68-.01 6.66-1.87 13.45 2.88 16.84zm86.91 102.7c0-.34-.17-.51-.34-.51 0 .34.17.51.34.51zm66.2-79.27c-.51 0-.51.17-.51.68.51.17.17-.51.51-.68zm-65.52 79.95c0-.17 0-.17-.17-.17 0 .17 0 .17.17.17zm-1.53-1.87c0-.34-.34-.51-.51-.68 0 .51.17.51.51.68zm-262.38 153.6c.17 0 .51 0 .51-.17-.17 0-.51 0-.51.17zm-18.5-99.65c0-.17.17-.34.17-.51h-.17c-.17.17-.34.51 0 .51zm103.04-14.26c.34.34.51-.17.85.17.16-.68-.68-.51-.85-.17zm25.5.88c-.07-.01-.14-.01-.21-.02.1.02.16.02.21.02zm-8.7 2.01c.34 0 .51-.17.68-.34-.17-.17-.85-.68-1.02-.17.17 0 .34.17.34.51zm-10.86.34c0 .34.17.34.17.51.51.17.51-.34.68-.68-.51 0-.34.34-.68 0 0 .17 0 .17-.17.17zm5.77-.68c-.51 0-.85 0-1.02-.17-.17.51.51.51.17.85.68 0 .34-.17.85-.68zm.51-.34v.51c.51.34.51-.68 0-.51zm-5.43-.51c-.17.68.51 1.02.68.68-.17 0-.17-.17 0-.34-.34 0-.51-.17-.68-.34zm3.9-.85c.17 0 .17 0 .17-.17-.17 0-.17 0-.17.17zm-4.58 2.21V238c-.17 0-.17.34 0 .34zm3.05-.51c-.34.17-.34.51-.51.68-.17 0-.17-.17-.17-.34-.34 0-.68.17-.85.51.85-.34.34 0 .68.34.68-.51 1.87.17 2.38-.85-.51-.51-1.36.34-1.53-.34zm-37.34-2.55c-.34 0-.51.17-.51.34.34 0 .51-.17.51-.34zm-79.79 88.78v.17c.17 0 .17-.17 0-.17zm125.79-87.08c0 .17-.34.34-.34.51.17 0 .68 0 .68-.17-.17 0-.17-.34-.34-.34zm-.68-.85c-.34 0-.68 0-.68.34.34 0 .68 0 .68-.34zm-2.72 2.21c.51-.34.85.17 1.02-.34-.34-.34-.85 0-1.02.34zm-.67.17c0-.34.51-.17.34-.51h-.51c0 .17 0 .51.17.51zm-9.51.51c.51 0 .68.68.85 0-.17-.17-.85-.34-.85 0zm-12.22.17c.34-.34.85-.51 1.19-.85-.34.17-.85.17-1.36.17 0 .34.17.34.17.68zm-.85-.51c.17 0 .34 0 .34-.17-.17 0-.34 0-.34.17zm6.62.17c-.51.17-.68.17-1.02-.17v-.17c-.17 0-.17-.17-.34-.17-.51.51.34.17.17.85.34-.17 1.36.34 1.19-.34zm-2.38.34c0-.17.34-.17.34-.34-.34-.17-.85.34-.34.34zm-16.97 1.36c-.17.68 1.02 1.02 1.19.51-.34-.18-.51-.68-1.19-.51zm2.2-.34c-.17.34-.68.34-1.02.68.34.17.51.51 1.02.34 0-.51.85.17 1.19-.51-.51 0-.85-.17-1.02-.34 0-.17 0-.17-.17-.17zm22.58-1.7v-.17c-.17 0-.17.17 0 .17zm-2.72-.34c-.17 0-.34 0-.34.17.17 0 .34 0 .34-.17zm3.4 1.02v-.34h-.34v.34h.34zm.85-2.04c0 .34 0 .68.34.51 0-.34-.17-.51-.34-.51zm-6.11 1.02c0-.17-.34-.17-.34 0 .17 0 .34.34.34 0zm-.68 1.02c.68-.68 1.19 0 1.87 0-.17-.68-1.7-1.02-1.87 0z"/><path d="M347.44 299.62c-.17 0-.17-.17 0 0 1.19-2.04 3.23-4.58 3.9-7.64.34-.17.34-.51 1.02-.85 1.36-4.24 5.09-6.96 6.11-11.54.17-.17 1.36-1.36 1.7-1.87.17-.17-.17-.85 0-1.02.17-.17.51-.17.68-.34.34-.51.17-1.53.51-2.38.68-1.87 2.04-3.56 1.7-4.92 0 .17 0 .17-.17.17 0 .17-.34.17 0 0 0-1.36 1.53-2.04.68-2.89 0 .17 0 .51-.17.51-.34-.34 0-.68.17-1.02-2.04-1.02-1.7-3.23-3.9-4.41.17-.85-1.02-.85-.51-1.53-1.7-1.02-3.06-2.38-4.75-3.39-1.02.34-1.53-.34-2.55 0-.85 1.19-1.53 2.55-2.55 3.39.34 1.02 1.19 1.53 1.53 2.55-.51.68-.68 1.7-.85 2.21-4.92 2.55-8.83 6.11-13.41 9 0 .34-.17.51-.17.68-8.15 5.94-14.94 13.24-22.41 19.69-2.21 2.38-4.24 4.92-7.13 6.62.17-1.87 1.19-2.38 1.36-4.24 1.87-2.04 2.55-4.92 4.58-6.79-.85 0 .34-.34 0-.85.85-.68 1.36-2.04 2.38-2.55 0-2.38 2.04-3.73 2.38-5.94.34-.17.34-.68 1.02-.51 0-.34-.34-.34-.17-.85 2.38-3.4 4.58-6.79 4.41-11.71-.85-1.53-1.36-3.4-2.38-4.75-.51-.17-1.02-.34-1.36-.51-.68 0-.85.51-1.53.68-2.38-1.7-3.73-5.09-6.96-5.43-1.02.51-1.7 1.87-2.55 2.04-1.53 3.06-2.21 6.62-4.24 9.51 0 1.19-1.19 1.7-.85 2.72-6.28 11.88-12.05 28.35-16.81 42.78.51 1.19-.85 2.04-.34 3.57-.19.44-.36.9-.53 1.36h-.48c.17.51-.17.51-.17.85-.51.34-.85 1.02-1.53 1.19.34 1.02-1.02.51-.68 1.53-.68-.17-.34.51-.85.51-4.58 6.62-9.85 12.73-16.47 17.31-4.07 4.07-8.32 7.81-14.77 9.34-1.02-1.53 1.87-2.72.68-4.24.17-.34.85-.17.85-.68.17-2.89 1.53-5.43 2.04-9.17.34 0 .34-.51.85-.34.51-2.38.85-5.09 2.38-6.62.51-2.21 1.02-3.57 2.04-5.09-.34-2.04 1.53-3.23 1.36-5.43.17-.17.68-.17.85-.51 0-.34-.34-.68-.17-1.19.34 0 .51 0 .51-.34 2.04-3.4 2.38-7.13 4.24-10.52 0-2.21 1.7-3.57 2.38-4.92.51-.85.51-1.87 1.02-2.55.85-1.19 2.04-1.87 2.72-3.06.51-.85.51-1.87 1.02-2.72 1.02-1.7 2.72-3.23 3.22-5.43.68-.68 2.04-1.36 2.04-2.21-.17-.51-1.02-.51-1.7-.51-1.19-2.89-3.9-3.4-6.11-5.09-3.73-.17-6.11-2.38-10.52-1.53-1.36 1.7-1.87 3.4-.85 5.26-1.45 3.99-3.14 8.21-4.95 12.48-.09-.42-.19-.84-.31-1.27-.03.91-.13 1.77-.25 2.59-1.41 3.29-2.87 6.59-4.34 9.8-.36 1.29-.73 2.54-1.09 3.8-.13.16-.27.31-.43.45 0 .17-.17.17-.17.34.85-.17-.17.85 0 0h-.17c-1.36 5.26-5.09 8.15-7.13 12.73-.51.51-1.19.85-1.53 1.36-.34.51-.17.68-.34 1.36-1.02.34-2.04 1.87-2.55 3.23-.34.17-.51.34-.85.51-1.19 2.55-3.4 4.07-4.58 6.62-3.73 4.24-7.81 8.83-12.56 12.56-2.21 1.7-4.24 3.23-7.3 3.23.17-2.38-1.02-4.07 0-6.62-.17-.34-.51-.68-.51-1.19.51-.68.68-1.7 1.19-2.38-.68-2.55 1.87-4.24.68-6.11 1.36-.85.34-2.38 1.53-3.4-.34-1.87 0-2.89.51-5.09.85-.34 1.02-1.19 1.02-2.21 1.36-1.02 1.87-2.72 1.87-4.58.51-.68.85-1.36 1.36-1.87.17-1.36 1.02-3.23 2.38-3.9 1.19-4.75 4.58-8.66 6.11-13.41 2.55-3.06 3.73-7.64 6.62-11.03 1.19-3.39 2.04-6.11 4.24-8.66 2.21-6.79 7.13-12.05 9-18.67.85-.68 1.36-1.7 1.7-3.06-.85-1.87.17-5.09-2.89-4.92.17-.51-.34-.51-.34-.85-2.04-.51-3.73-1.19-5.6-1.7-1.53.34-3.57.68-4.92.17-1.36.85-1.7 2.38-1.87 3.9-2.38 1.53-4.58 3.4-6.79 5.09-1.02 2.55-4.75 2.55-5.6 5.26-5.09 3.4-8.49 8.32-13.41 11.88-2.21 2.72-4.24 5.43-7.13 7.3 0 .51-.51.51-.34 1.19-3.73 2.55-6.28 7.47-9.85 9.68 1.19-3.73 2.21-8.66 4.07-12.22 0-2.04 1.36-4.24 2.04-6.11-.17-.17-.17-.51-.17-.85.17-.51.51-1.02.68-1.53 1.36-4.75 3.73-9 5.6-13.24.17-.51.17-1.02.34-1.53.51-1.19 1.36-1.87 1.36-3.23.17-.17.34-.17.51-.34-.34-1.19.17-1.87-.17-3.06 1.87-1.53 1.19-4.75 3.23-5.94.17-.68-.68-.34-.51-1.02 0-.85.34-1.36.85-2.04.1-1.28.32-2.62.71-3.89.04-.01.09-.01.14-.02 0-.17 0-.51.17-.51.68 0 1.36-.17 1.87.51 1.87-.34 4.07-.34 5.77-.34 2.21-.34 3.57-1.53 5.43-.34 1.19-.51 2.72-.51 3.4-1.53-.51 0-.85 0-.85-.34.68 0 1.19-.34 2.04-.17.17-.17.17-.68.51-.68 0-.17.17-.34.34-.34 0 .85.85.68 1.36.51-.68.17-.34-.68.17-.51 0-.17.34-.17.34 0 .17 0 .17.34 0 0h-.34c.34.34 0 .17-.17.51 1.02.17 3.06.51 3.73-.51 0 .51 1.02.34 1.19-.17-.17 0-.17-.17 0-.17v.17c.51.34.68.34 1.19 0v.51c.68.17 1.19-1.02.85 0 .51-.17 1.19-.51 1.53 0-.68-1.19 1.19-1.19 1.36-2.21.51 0 .85 0 .85.51.68-.51 1.02-.34 1.36 0 .68.17.34-.68.85-.68.51.34.68.85 1.02.85 1.02-.51 1.7-.51 2.72-.17.34-1.02 1.87.17 2.38-.85 0 .34-.17.34-.17.51.85-.17 1.19-.34 2.04-.34 0 .34-.17.34-.17.51.51-.34 1.53-.34 1.7-.85-.17 0-.34 0-.34-.17.17 0 .34 0 .34.17.51-.17 1.02.51 1.36 0-.17 0-.17-.34 0-.34s.17.17 0 .34c.85-.34 1.36.34 2.04-.34 0 .51.34.34.51.68-.17-.51 1.19-.85 1.19-.17.17 0 .17 0 .17.17-.17 0-.17 0-.17-.17-.17.17-.51.17-.51.34 1.7.34 2.38-1.02 4.07-.34 0-.34.17-.51.34-.51 1.36.51 2.89.34 4.24-.51.17 1.19 1.02.17 2.04 0-.68.51 0 .34.17.85-.34.34-.51-.17-1.19 0 0 .51.68.51 1.19.51 1.19-.68 3.23.34 4.58-1.02.17.17.68.17 1.19.17 0-.44.49 0 .21.02.78.11 1.56-.02 2.34-.02-.34 0 0-.17.17-.17 0-.34-.34-.51 0-.51.51-.17.51.34.34.51.34 0 .51-.17.51 0s-.51.17-.51 0h-.34v.34c.98 0 1.73 0 2.46-.07-.92 2.77-1.75 5.6-2.12 8.38-.68 0 .17.68-.68.68 0 6.62-1.87 13.41 2.89 16.81.85-.17 2.55-.68 3.4-1.53 0-.51 0-1.02-.17-1.36.51-.17.51-.68 1.02-.85.85-3.73 2.55-5.43 4.75-7.98-.17-1.02.51-1.36 1.19-1.7-.17-.51.17-.51.17-.85 2.38-1.87 3.23-5.43 5.26-7.81.68-.51 1.53-1.19 2.04-1.87l1.02-.51c0-.51.51-.85.68-1.36-.68.17.17-.34-.34-.68 1.02-.85 1.02-1.87 1.53-3.06-1.19-.34-.34-1.02-.17-1.7-.85.17-1.19-.17-2.04-.17-2.04-1.53-4.07-2.89-6.96-3.57-1.7-1.53-5.26-2.72-7.64-2.04-1.19 1.19-1.36 2.55-2.21 3.9 0 .34.68 0 .68.51-.52 1.62-1.12 3.31-1.72 5.03-.93.01-1.84.03-2.69.07.17 0 .34.34.17.34-2.38-1.02-4.75 0-8.15-.34-.34.68.68 0 .51.68-.51 0-1.02 0-.85-.68-2.89 0-3.4.51-6.45 0-.34 0 .17.85-.51.51-.68.34-.17-.51-.51-.51-.34.17 0 .85-.51.68.51-.85-.68-.34-1.02-.85-1.36 1.02-3.57-.51-4.75.85v-.68h-1.19c0 .51 0 .85-.51.85-.17-.51 0-.51-.85-.34 0-.17.17-.34.17-.51-.68.34-1.19-.17-1.36.51-.34-.51-.85-.17-1.53-.17-.17.51.51.17.34.68-.85 0-1.87.68-2.38 0 0-.51 1.02.17.68-.51-1.7-.51-3.57-.68-5.43.34 0-.51.34-.34 0-.68-6.28.34-11.2.51-17.31.68-.68 0 .34.51-.17.51-.68 0 .17-.85-.51-.68-.34-.17-.17.34-.51.34-1.87-1.19-3.56.85-5.26.34.34-.68.34.34.68-.34-.68-.68-2.38.51-3.4-.17.51-.51-.51-.68-.85-.85-.51.17.34.51-.17.68 0 .17 0 .34-.34.34 0-.17 0-.34.34-.34v-.17c-.51-.34-1.36.51-1.53-.34-.07.03-.23.09-.45.15.51-1.32 1.06-2.62 2.15-3.38.34-.68-.17-.34-.17-.85 1.36-2.04 2.21-4.41 3.23-6.79.34-.17.68-.51 1.02-.68 1.7-3.9 3.23-7.81 5.94-10.69.34-2.89 3.9-2.55 4.41-5.26-.51-1.53-2.04-2.04-3.23-3.06-2.04-.17-3.9-.68-6.62-.51-2.21 1.53-5.77.85-8.49.17-1.53.85-2.38 2.38-3.22 3.9.17.68.85.85 1.02 1.53-1.36 2.89-1.7 7.47-4.07 8.66.34 0 .51.34.68.51-.34.51-1.02.68-1.36 1.19.68-.17.34.51-.17.34-.17.68.17.85.17 1.36-1.75 4.57-4 9.04-6.12 13.61-6.43.08-13.61.08-20.7.31 1.19-3.73 4.41-5.26 5.09-9.68-2.89-1.7-4.92-4.92-8.66-5.26-2.55-1.02-4.24-3.06-7.13-4.41-2.38.51-4.58 2.72-3.23 5.43-.34.17-.17.68-.85.51 0 .34.34.51.17 1.02-1.87 3.4-3.4 9-5.77 12.9-3.39.51-9.51-.68-12.56.34-6.79-1.02-16.13.34-24.1.17-.34 0-.17.51-.51.51-5.77-.68-12.9 1.02-17.82.34-.6.42-1.09 1.01-1.49 1.69.25-1.6.57-3.15 1.27-4.54-.68-2.55.85-4.75.51-7.47 1.02-2.21.17-6.11 1.87-7.98 0-5.26 1.36-10.53 3.06-15.11-.34 0-.34-.17-.34-.34 0-1.02.68-2.04.51-2.89 2.72-4.41 2.21-11.37 6.11-14.94.34-2.38 1.7-3.73 2.38-5.77.68-.17 1.02-.85 1.02-1.7.51 0 .34-.68 1.02-.51.17-1.53 2.21-2.72 1.53-4.07 1.02-.68 2.04-2.38 1.87-3.57 2.55-1.19 1.87-5.43 4.58-6.79.17-.51-.34-.51-.17-1.02h.68c0-1.53 1.02-2.38.34-3.57.51-.17.51-1.19 1.02-1.53.17 0 .34.34.51.34 0-.51.68.17 0 0 0 .51-.85 1.19-.51 1.7.34-.68 1.36-1.19 1.02-2.04 1.02.17.85-1.02 1.19-1.53-.34-.34-.85-.51-.68-1.36.85.17.51-.85 1.36-.34-.34-.85.68-.34.68-.85-.17-.17-.68 0-.68-.34.17-.51.51-1.19 1.02-.51 0-.17 0-.17.17-.17.17-.34-.34-.17-.34-.51.34-.34.34 0 .85 0 .17-.68-.34-.51-.51-.85.17 0 .34-.34.51-.34.17.17.17.34.51.34 1.02-1.36 1.36-3.22 2.89-4.07l-.51-.51c.51 0 .85-.17 1.02-.51-.34 0-.51-.17-.51-.51.34.34.85-1.19 1.36-.17 0-1.87 2.55-2.55 1.87-3.9 1.19-.85 2.89-2.72 3.06-4.41 1.19-.34 1.7-.85 1.87-1.87-.34 0-.68 0-.68-.34.34 0 .68 0 .68.34h.17c.51-.85 1.53-1.7 1.53-2.55.17.17.34.17.51.17 1.02-1.7 2.38-2.89 2.89-4.75.51.34.51-.17 1.02-.34.17-.51-.17-.51-.17-.85.34-.34 1.53-.68.85-1.02.68-.17 1.19-.51 1.02-1.53 1.7-.17 2.55-1.7 3.06-2.72.68-.17.68-.85 1.36-1.02.85-2.72 4.07-3.9 4.75-6.11 1.19-1.19 2.21-2.38 2.89-4.07 1.19 0 1.36-.85 1.19-1.87.85-.17.85-1.19 1.53-1.53-.17 0-.34-.17-.34-.51.51-.34.51 0 1.02-.17-.17-.51-.17-.51 0-1.02.51 0 .34.34.68 0 0-1.02.85-1.19 1.36-1.7-1.19 9.68-3.57 16.97-5.09 25.12-.34 0-.51.34-.85.34 0 1.19.17 2.89-.85 3.56.17 1.87-.85 3.9-1.7 6.28.34 0 .34.17.34.34-.85 1.53-1.36 3.23-2.55 4.41.17.68 0 .68 0 1.53-.68.68-.85 1.87-1.7 2.38-1.53 5.77-5.6 9.84-8.15 14.77-2.55 2.55-5.09 6.11-8.66 7.13-.51.17.34.51-.17.68-.34 0-.51 0-.51-.34-.17.85-2.04.68-1.7 1.53-2.89-2.04-4.24-4.92-3.57-9.84-.34 0-.85-.51-1.02-.17-.34 2.38-1.87 4.75-1.7 7.13-.17 0-.51 0-.51.17.34 1.19-.51 2.04 0 3.57-1.53 1.36-.51 2.55-.51 4.92.34.17.34-.85.68-.17.34.68-1.02 0-.68.68.68-.17 1.02 0 1.19.51.17-.51.34 0 .85-.17-.17 1.36.85 1.36 1.7 1.7.68-.17.85.17.85.68 1.19 0 0 .17.68.68.51.17.17-.51.68-.34-.17.51.34.34.34.68h.17c.17-.17 0-.68.34-.68 0-.17.17-.17 0 0 0 .51 0 .85.34.85 0-.17 0-.51.17-.51 0 .17.34.34.34.51.68-1.02 1.7.17 2.55 0 .17-.68-.85-.34-.68-1.19.51 0 .51.34 1.02.34 0-.17.34-.17.34 0h-.34c.17.68.68 0 1.19.34 0-.68.34-1.02.85-1.19 0 .17.34.17.34.34-.17.17-.34.17-.34.51.85.34.68-.51 1.19-.68v.51c.51-.34 1.7-.34 2.21.51.51.17.17-.51.68-.34.34.51.85.85 1.53 1.02-.34.34-.51 0-.85 0 0 .68 0 1.19-.34 1.53.68 0 1.19.17 1.19.85-.34 0-1.53 0-1.7.34 1.36 1.02 3.06-.17 3.4-1.36.17.34.34.68.85.68.51-.51 1.19-.85 1.7-1.36-.34.17-.85-.51-.51-.51.34.17 1.36.51 1.53.17-.17-.17.17-.51-.34-.68.34-.34.51.17.68-.34-.34 0-.34-.17-.17-.34.17 0 .17.17.17.34.68.17.68-.68 1.19-.17 0-.34-.17-.34-.17-.68 1.02-.17 1.36-1.53 2.38-1.36 1.53-1.19 1.87-3.73 3.73-4.75 1.19-1.7 1.53-4.24 3.4-5.26v-1.19c1.02-.68 1.53-1.87 1.87-3.23h.68c.68-2.72 1.53-4.24 2.89-6.11 0-.34-.17-.68-.34-1.02 1.19-2.04 2.55-3.9 3.23-6.45.34 0 .34.17.51.17 0-4.41 3.57-7.13 3.4-11.37.85-.68 1.36-2.72 1.36-3.73 0 .17-.17.17-.17 0h.17c.17-.51-.34-.34-.68-.34 2.89-6.62 4.58-13.92 6.62-20.71-.68-1.7 1.02-4.75.17-6.45.34-.17.51-.51.51-.85.17-2.55-.17-7.13-1.19-9.34.17-.68.51-1.36 1.19-1.7-2.89 0-4.07-1.53-6.28-2.21-.51-.85.51-1.19.68-1.87-.85-.34-1.87.51-2.72.34-.34-1.87-2.38-2.38-4.58-1.87-2.38-1.7-4.92 0-5.6 2.72.34.51 1.7 1.02 1.02 1.53.85.51 1.7 1.02 1.87 2.38-2.38 1.53-3.4 4.07-5.94 4.92 0 .34.17.34.17.68-.34 0-.34-.34-.85-.17-.17.34-.68.51-.51 1.19-1.19.51-2.21 1.36-2.55 2.72-1.53 1.7-3.9 2.89-4.41 4.92-.51 0-.34-.34-.68 0 0 .34 0 .68-.17.85-1.36.85-2.55 1.87-3.23 3.4-2.04 1.36-2.72 4.07-4.75 5.43 0 .34-.34.51-.17 1.02-1.87.34-1.53 2.72-2.89 3.4.34.68-.51.34-.51.68.17 0 .17.51.17.68-3.4 2.38-4.41 6.28-7.98 9 .34 1.53-1.36 1.7-1.02 2.72-.51 0-.34.34-.68 0 .34 1.36-.68 2.21-1.7 3.06.17 0 .17.34 0 0-.17 2.89-3.06 3.9-3.4 5.94-1.19.34-1.53 1.7-1.7 2.38-.17 0-.34-.17-.51-.17-1.53 3.4-3.9 6.79-6.45 9.51.34-.68.34-.68-.17-1.19.17-.17.68-.34.85-.51-.68-.85.51-2.89 1.02-3.73-.34 0-.51-.17-.51-.34 1.02-1.36 1.53-3.4 2.38-4.92-.51-2.21 1.87-3.73 1.7-6.79.51-.85 1.53-1.87 1.19-2.89 2.04-1.87 1.36-5.43 3.56-6.96-.34-3.06 2.72-5.09 2.55-7.98 1.54-.93 2.11-2.83 2.96-4.57.18-.17.36-.34.53-.52h.42c.08-.31.18-.6.27-.9.02-.04.06-.07.08-.12-.02.01-.03.01-.05.02 1.23-4.04 3.13-7.03 3.44-11.74.34-.34.51-.68.85-1.02.17-2.72-.68-3.4-1.02-5.6-4.58-.68-7.13-3.23-12.39-2.21-.17.68-.68 1.19-1.02 2.21.17.51.85.51.85 1.19-1.36 1.87-.85 4.58-2.55 5.94.17 2.89-1.87 4.41-2.21 7.64-2.57 4.86-3.71 10.44-5.73 15.42-.32.18-.44.48-.55.7.17 0 .17.17 0 .17v-.17c-.34.34-.17 0-.68 0 .34.51 0 .68-.34 1.02 0 .17-.34.17-.34 0-.68.34-1.19 1.02-2.04 1.19-.17.51.17.51.17.85-1.87.17-3.23 2.72-5.6 2.55.17.68-.34.68-.17 1.19-1.53.34-1.87.85-3.06 1.02-3.06 1.36-7.64 3.06-10.86 4.24-.34-.68-1.19 0-1.7 0-1.02-1.02-4.07-.17-4.92-1.19 0 .17-.17.34-.51.34-.34-.17-.34-.51-.68-.51-.17.17-.85.17-1.53.17-5.43-1.02-12.39-.68-17.48-.85-6.45.68-12.22 2.55-18.5.51-.34-3.23 1.02-7.3 3.4-9 .85-3.06 3.73-4.24 4.92-7.13 6.79-5.77 12.56-12.56 21.05-16.64.68-1.36 1.87-1.36 2.55-2.55 3.23-.85 4.41-3.73 7.81-3.9 1.02-1.53 4.92-2.21 6.62-2.55.17.34 1.02 0 1.02.51-.17 1.19-.68 1.7-.51 3.06-2.72 3.57-4.75 7.81-8.15 10.53-.34 1.19-1.19 1.7-1.53 2.72-1.19.17-.85 1.7-2.21 1.7-.68 2.04-2.38 3.23-3.73 4.58-.34 0-.17-.51-.51-.51-.17 2.55-2.38 2.89-2.55 5.43 2.04 3.56 5.77 5.43 8.83 8.15 0 .17-.17.17-.17.34 1.87.51 3.57 1.53 5.94 1.02.51-1.36.51-3.4 1.87-4.07-.68-.68.34-1.36.17-2.55.34 0 .51-.34 1.02-.17.51-1.53 1.53-2.72 2.89-3.4.17-.51-.34-.51-.17-1.02 2.38-2.21 3.4-4.24 5.26-7.13.34 0 .68 0 .68-.34-.34 0-.17-.51-.34-.68 1.19-1.53 1.53-4.92 3.23-6.45-.34-.68.51-1.36.17-2.21 2.04-2.89 2.38-6.79 3.9-10.53-.17-1.02-.17-1.19-.17-2.38-.34-.17-.68-.34-.85-.85.17-1.02-.17-2.72-1.02-3.22-1.87-3.57-4.07-6.79-7.64-8.66-1.87 0-2.55 1.36-4.41 1.36-3.23 2.21-7.3 3.4-10.36 5.77-5.6 2.55-9.84 6.45-15.11 9.17-3.73 3.56-7.81 6.79-11.71 10.01-.51.68-.68 1.53-1.19 2.21-.17 0-.34-.17-.51-.17-.68 3.06-3.9 2.55-4.58 5.43-1.87 0-2.38 2.89-4.24 3.4-1.02 3.4-3.73 4.92-4.58 8.49-1.7 0-.85 2.38-2.21 2.55.17.51.17 2.55-.51 2.21-.68 7.81 3.4 13.41 7.64 17.65 1.53.17 2.55.85 3.73 1.19.17-.17.51-.34.68-.51 1.19.85 1.87 0 3.9.51 2.04-1.19 4.41-1.19 7.13-1.87.34-.17-.34-.85.17-1.02.34.17.51.51 1.19.34 5.26-1.87 13.07-3.06 19.01-2.04-.51.34-1.02-.17-1.19.85.68-.34 1.02-.68 1.87-.85-.51.68-.51 1.53-1.53 1.7-.34 0 0-.17 0-.34-1.36.17-2.21 1.36-3.06.68-.85.85-1.7 1.87-2.72 1.87 0 1.53-3.06.68-3.9 2.21-.17 0-.34-.17-.51-.17.17.34-.34.17-.34.51.17 0 .17.34 0 0-.51-.17-.51.17-.85.17 0 .34.34.51 0 .51-.51-.34-.85.51-1.36.68v-.51c-4.24 2.89-8.49 5.94-13.24 8.32 0 .51-.17.85-.51 1.02.17 0 .17.34 0 0-1.53.68-2.72 1.7-4.24 2.55-1.7 1.02-2.21 2.55-4.24 2.38-3.9 3.56-7.81 6.96-12.05 10.18.17 0 .17.17.17.34-3.57 2.21-5.6 5.77-8.83 8.32-.85 2.38-3.56 4.58-5.09 6.96.17.68 0 1.53-1.02 1.53 0 .85-.34 1.53-1.19 1.53-.34 2.72-2.38 4.24-3.06 6.96.17 1.19-.17 2.89-.85 3.73 1.02 2.21-.17 3.4-.68 5.09v.17c.34.34.51.68 1.02.85-.17 1.7 1.02 3.57 1.7 4.92-.34 0-.51 1.19 0 .68 0-.17.17-.17.17 0 .17.17.68.17.68.51-.17 1.87 1.87 3.57 2.38 5.77 1.02.68 1.02 1.36 2.04 2.21 2.38 4.75 7.98 7.64 12.73 9 .51-.17 1.36-.17 1.7.34 4.75-.51 8.49.34 12.39-1.53 1.36.34 2.55-1.02 4.41-.85 1.7-.51 2.89-2.38 4.58-2.04 2.89-3.9 8.66-4.07 12.05-7.13 1.87-.34 2.38-1.87 4.24-2.21.51-1.7 2.72-1.7 3.73-2.89 4.07-1.36 6.79-4.24 9.85-6.79.99-.69 1.9-1.46 2.77-2.28-.9 3.61-1.72 6.96-3.11 10.43-.34 4.07-1.87 8.49-3.06 12.39-.51 3.57-1.19 8.15-2.55 11.37-.17 1.53-.51 1.87 0 2.89 4.92.68 9.51 2.89 13.41 4.24 1.7-.17 3.4-.68 5.09-.51.08-.33.19-.61.31-.86.36.58.87 1.03 1.61 1.17.17.51.68 1.02.85 1.53 2.72-.34 5.94-.34 7.81-1.36 0 .34.34.34.68.34.17-.17.17-.34.51-.34 2.55.51 7.13-1.7 10.52-1.02.17-.34.68-.34 1.02-.51 2.38.17 5.43.34 7.47-.85.34 0 .34.34.85.34.17-1.02 1.53-.17 1.7-1.02.17.34.17.51.68.51 2.89-1.02 5.09-1.19 8.83-1.7-.17-.51.34-.34.34-.68-.34-.17-1.02.17-1.36-.34.68 0 .85-.51 1.36-.68.17.17.68 0 .68.34s-.51.34-.51.68c.34 0 .68 0 .68.17 2.38-.34 4.75 0 6.79-.34-2.21 5.6-3.06 11.88-5.94 16.13.34 0 .34.17.34.34-1.36 2.89-1.87 7.3-4.07 9.85.34 2.04-1.02 4.92-2.04 6.79.17 1.87-1.02 2.38-1.02 4.07l-.51.51c.17.34.34 1.19-.34 1.19-.85 3.73-2.04 7.81-3.06 10.52-1.02 6.45-4.24 13.07-5.77 20.2-.17.17-.34.17-.51.17-.34 2.72-1.36 4.58-1.87 7.47-.34 1.7-1.19 3.23-1.36 4.75-.51 2.89-2.55 7.47-2.89 9.84-.51 2.89-1.87 7.13-1.87 10.19-1.02 5.77-2.21 12.39-1.19 18.5-.34.68-.85.17-1.36.85.51.51.34.68.51 1.36-.34.17-.17.34-.34.51.85 1.7 1.36 3.4 2.89 4.41 1.19.85 2.89 1.02 4.24 1.53 1.19.51 2.04 1.19 3.4 1.36 1.87.17 3.57-.85 5.26-.34.34-.68 1.87-.85 2.38-.85v-.68c1.87-.85 2.72-2.72 3.73-4.58-.17 0-.34 0-.34-.17.17 0 .34 0 .34.17.34 0 .34-.51.68-.51-.34-1.53 1.36-1.53.85-2.89 1.87 0 .68-2.04 2.04-2.38.17-.51-.17-.51-.17-.85.17 0 .34.34.51.34 1.19-3.06 4.58-3.73 5.77-6.62.17 0 .17.34.34.34 0-.17-.17-.85.17-.85-.34.68 1.02-.34 1.7-.85.68-.68 1.53-1.19 1.53-2.38.34 0 .51-.17.68-.17 0-.51-.34-.34 0-.68.34-.17.68-.51 1.19-.68 2.35-4 5.32-7.33 8.36-10.58.55 1.02 1.15 2.06 2.33 2.77 1.53.17 2.89.51 4.41.68 1.87-.68 2.38-2.55 4.07-3.4 1.36-2.72 2.21-6.79 2.55-9.85.51-.34 1.02-.68.68-1.53 2.04-1.53 2.21-5.09 4.24-6.62-.17 0-.17-.34-.17-.68 4.07-5.94 7.81-12.39 11.71-18.5.85-2.72 3.73-4.92 4.92-7.98.51-.34 1.19-.68 1.19-1.53 9.17-9.84 17.99-20.03 28.86-28.18-4.24 8.66-9 16.64-12.9 25.63-.51.68-1.19 1.19-1.19 2.21-.51.34-.68 1.02-1.02 1.36-4.24 11.88-11.37 23.09-12.73 37.85-.51 1.02-.68 1.87-.34 3.06-1.36 7.13.51 15.62 5.94 20.03h.85c.68 1.19 2.04 1.53 3.06 2.21 5.43 2.38 13.58-2.21 16.64-7.3 1.7-1.02 3.4-2.38 4.24-4.24 1.19-1.02 2.55-1.7 2.72-3.73 2.04-2.21 4.07-4.41 5.26-7.3 0 .17 0 .51.17.51 1.02-1.02 0-2.21 1.02-3.06.17.51-.51.85 0 1.02.68-1.02 1.02-1.53.85-2.72.17.17.34.17.51.17.43-1.97 1.24-3.73 2.17-5.46-1.11 6.48-2.23 13.93.21 21.24-.34.68.51 1.19 0 1.87 2.72 2.89 6.45 5.77 11.71 4.41 11.23-5.89 19.25-14.98 27.1-24.33-.9 3.74-1.77 7.68-.62 11.94 1.02 1.02 1.87 2.04 3.06 2.89 1.19.17 1.53.17 2.72 0 1.7-1.87 1.7-4.24 3.9-5.6 0-.34-.17-.34-.17-.68 1.7-1.7 2.21-3.73 3.9-5.6 2.04-5.09 5.77-8.66 7.98-13.24 2.04-2.55 3.9-5.26 5.26-7.98 1.02-.68 2.21-2.21 2.21-3.4 1.53-.68 1.87-3.39 3.73-4.41 0-.85.85-2.21 1.87-2.72-.17-.51.17-.68.17-1.02 2.04-1.87 3.23-3.57 4.58-5.94 1.53-1.02 2.72-2.38 3.56-4.07 1.53-.68 1.7-2.72 3.57-3.06.51-1.87 2.38-2.38 3.23-4.07 1.87-1.19 2.38-3.23 4.41-4.07 3.23-3.9 7.3-6.79 11.2-10.18-1.53 3.57-3.57 6.45-4.75 9.34-2.21 2.72-2.21 6.11-4.41 8.83 0 .34.17.34.17.68-1.19 1.36-1.36 3.56-2.55 4.75-2.72 7.98-5.94 16.13-8.49 24.78-2.55 8.66-3.73 17.99-6.45 26.31.51.85.51 1.19.68 2.21-.17.51-.85.34-.85 1.02-3.73 16.81-1.7 42.61 14.77 45.49.34-.34.34-.68.68-1.02v-.17c-2.04-2.38-3.23-5.77-4.75-8.83-1.7-5.26-3.06-11.37-2.72-19.01.68-16.3 7.13-31.4 11.54-44.13 1.53-2.21 2.04-5.43 3.39-7.81.17-.51-.17-.85-.17-1.19.85.34.17-.85.85-.68.17-1.87 1.19-3.06 1.53-4.75.17-.51-.51-.17-.34-.85 1.04-1.48 2.57-4.2 2.74-6.74zm14.43-29.88c0-.17.17-.17 0 0 0 .17-.34.17 0 0zm-89.45-34.29c0 .17-.17.17-.34.17 0-.17.17-.17.34-.17zm-1.87-.51c0 .17-.17.17-.34.17 0-.17.17-.17.34-.17zm-1.7.17c0 .17 0 .34.17.34 0-.17.17-.17 0 0 0 .17.17.17.34.17-.17.17-.34.34-.68.34.34-.34 0-.51-.51-.51.17-.17.34-.34.68-.34zm-.68 1.02c.17 0 .17.34 0 0-.68.17 0-.51 0 0zm-.68-.17c0 .17-.17.17-.34.17 0-.17.17-.17.34-.17zm-1.35-1.19c0 .17-.17.17-.34.17 0-.17.17-.17.34-.17zm-1.19.51c0 .17-.17.17-.34.17 0-.17.17-.17.34-.17zm-2.38.17c0 .17-.17.17-.34.17 0-.17.17-.17.34-.17zm-2.2-.34c0-.51.67.17 0 0 0 .17-.34.17 0 0zm-.17.68c-.34 0-.51-.17-.51-.51.34 0 .51.17.51.51zm-2.72.17c.51 0-.17.68-.17.17-.51 0 .17-.68.17-.17zm-.34-.68c0 .17-.17.17-.34.17 0-.17.17-.17.34-.17zm-1.19 0c0 .51-.34.51-.85.51 0-.51.51-.34.85-.51zm-3.56.51h.34v.34h-.34v-.34zm-2.38-.34c0 .17-.17.17-.34.17 0-.17.17-.17.34-.17zm-6.79 1.19c0-.17.17-.17.34-.17 0 .17-.17.17-.34.17zm.17-.85c-.17 0-.34-.17-.34-.51.17 0 .34.17.34.51zm-.68.17c.34.17-.17.51.17 1.02-.51 0-.34-.51-.51-.85.17 0 .34 0 .34-.17zm-.68.17c0-.17.17-.17 0 0 .17.68-.51 0 0 0zm-1.53-.34c-.51-.17-.51.34-1.02.17-.16-.68 1.02-.85 1.02-.17zm-1.69 0c0 .34-.17 0-.34 0 0-.17.34-.17.34 0zm-.34-.68c0 .34-.34.34-.68.34.17-.17.34-.34.68-.34zm-2.55 2.72c.34 0 .17.51.51.34 0-.17.17-.17 0 0-.17.51-.68.34-.51-.34zm-3.05-.17h.34v.34h-.34v-.34zm-2.55 1.02c0 .34-.17.51-.51.51.17-.17 0-.68.51-.51zm-.51-2.38c0 .17-.17.17-.34.17 0-.17.17-.17.34-.17zm-.51-.17c-.17.51-.51.34-1.02.17.17-.17.85-.34 1.02-.17zm-3.39 3.06c0 .17-.17.17-.34.17 0-.17.17-.17.34-.17zm-1.19-.51c.17 0 .17 0 .17-.17h.34v.51h-.51v-.34zm-1.53.17c0 .17-.17.17-.34.17 0-.17.17-.17.34-.17zm-.17-.34c0 .17-.17.17-.34.17 0-.17.17-.17.34-.17zm-1.53 1.53c.17 0 .17.51.17.68-.34-.01-.34-.51-.17-.68zm.34-.51c-.17.34-.51.34-.85.34-.17-.51.51-.34.85-.34zm-1.36-3.23c0 .17-.17.34-.51.34 0-.17.17-.34.51-.34zm-2.2 4.75c0 .34-.17 0-.34 0 0-.17.34-.17.34 0zm-87.81-64.64c0-.17.34-.17.34 0 0 .34-.17 0-.34 0zm.34-1.36c0-.34.17-.34.17-.68.17.17.17.51.34.85-.17 0-.34-.17-.51-.17zm1.87 1.36c-.17 0-.51 0-.51.17-.51-.34.68-1.19.51-.17zm1.01 1.53h-.34v-.34h.34v.34zm1.02-.85c.17-.51.34.17.68 0-.17.51-.34.17-.68 0zm3.57-7.13c0-.17.17-.17.34-.17 0 .17-.17.17-.34.17zm.85.85c0-.17.17-.17.17-.34.17 0 .34.17.34.51-.34 0-.34-.17-.51-.17zm1.86 7.47h-.34v-.34h.34v.34zm4.25 0v-.34h.34v.34h-.34zm.68 1.36h-.34v-.34h.34v.34zm.17-.68c0-.17.17-.17.34-.17-.01.17-.17.17-.34.17zm1.01-.17h.34v.34h-.34v-.34zm.51 4.75c-.17-.34-.51-.51-.51-1.02.51 0 .85.68.51 1.02zm-.17-1.19c-.17-.17-.34-.17-.34 0-.34 0 .17-.85-.51-.51.17-.34.68-.34.68-1.02.85 0 .51 1.19.17 1.53zm1.36-3.22c0 .17-.17.17-.34.17 0-.17.17-.17.34-.17zm-.34 2.54v-.51c.34 0 .51.17.68.17-.17.17-.34.34-.68.34zm1.02 1.19h-.34c0-.17 0-.17-.17-.17 0-.34.85-.17.51.17zm0-2.72c0 .17-.34.17 0 0 .17-.5.85.17 0 0zm6.11-63.48h.85c.17.51-.51.34-.85.34v-.34zm-5.26-1.19c0 .17-.34.34-.34.51-.68-.17-.17-1.02.34-.51zm-2.72 11.2c0 .17-.17.17-.34.17 0-.17.17-.17.34-.17zm-4.41-2.2c0 .17-.17.17-.34.17 0-.17.17-.17.34-.17zm-1.7 11.2c0 .17-.17.17-.34.17 0-.17.17-.17.34-.17zm-1.69 1.87c0 .17-.17.34-.51.34 0-.17.17-.34.51-.34zm-1.19-.51c0 .17-.17.17-.34.17 0-.17.17-.17.34-.17zm-1.02-4.93c0 .34-.17 0-.34 0 0-.16.34-.16.34 0zm-1.7 9.51c0 .34-.17 0-.34 0 0-.17.34-.17.34 0zm-1.7 3.06c0 .17-.17.17-.34.17 0-.17.17-.17.34-.17zm-1.69 2.03h.34v.34h-.34v-.34zm-1.19 1.53h.85c-.34.34.17 1.02-.51 1.19.34-.85-.17-.17-.51-.51 0-.34.17-.34.17-.68zm-.51-.17c0 .17-.17.34-.51.34 0-.17.17-.34.51-.34zm-.51 1.53c0 .17-.17.17-.34.17 0-.17.17-.17.34-.17zm-2.55 5.6c.17.68-.34.68-.17 1.36-.68 0-.85-.68-.85-1.36.51-.17.51-.17 1.02 0zm-27.62 94.18c0 .3-.14.46-.41.5-.02-.02-.04-.03-.06-.05.1-.21.02-.6.47-.45zm14.32-118.79c-.03.08-.07.16-.11.23v-.23h.11zm-.45.97c-.01.01-.01.03-.02.04h-.14c0 .17-.34.17 0 0 0-.17-.17-.17-.17-.51.16.01.31.17.33.47zm-.67.05c0 .17-.17.34-.51.34 0-.17.17-.34.51-.34zm-.17.5c0 .17-.17.17-.34.17 0-.17.17-.17.34-.17zm-10.87 11.72c.68-2.04 2.21-3.06 4.24-3.73 1.55-2.06 3.97-3.34 6.24-4.8-1.16 3.92-2.27 7.56-4.03 11.08 0 .34.34.51.17 1.02-.67 1.64-1.33 3.41-1.97 5.23-.08-.1-.16-.21-.23-.3-.17-.17-.17-.51-.17-.85-1.19-1.02-3.23-2.72-4.75-3.9-.51-.51-1.02-1.36-1.19-2.38.5-.52.67-1.37 1.69-1.37zm-21.56 12.56c.68 0 .34 1.19-.34.85-.16-.51.51-.34.34-.85zm-2.71 1.7c1.02 0 1.02 0 1.7-.34-.34.34-.34 1.02-.85 1.02 0-.17.17-.34.17-.51-.85.68-1.36 1.53-2.72 1.53.34-.85 1.53-.68 1.7-1.7zm-2.72-.17c.51 1.19-.34 3.56-2.21 3.9.34-1.7 2.04-2.04 2.21-3.9zm-2.54 1.02c.17 0 .51 0 .51-.17.17.17.34.34.34.68-.34.33-1.02.16-.85-.51zm-11.04 1.01c0 .17-.17.17-.34.17 0-.17.17-.17.34-.17zm5.27 58.23c-.17-.68.34-.68.85-.68-.01.51-.52.51-.85.68zm1.01-1.53c.17 0 .34.17.34.51-.17 0-.34-.17-.34-.51zm21.39-19.18c-5.09 4.92-9.85 10.19-15.79 14.09-.34.17-.34.68-.51 1.02-.51-.17-.34-.17-.85 0-1.02 1.7-2.55 2.38-3.57 3.56-.34-.51-.51-.17-.85.17 0 .34-.34.51-.34.85.17 0 .17.34 0 0-.34 0-.68 0-.51.34-.17-.51-.51 0-.85-.34-.17.51-.34 1.02-1.02 1.02 0 .34.34.34.17.85-.68.17-1.36.34-1.87.68-.34.85-1.53.68-1.7 1.53.17 0 .17-.17.51-.17 0 .17-.17.34-.51.34v-.17c-.34-.34-.85.51-1.19 0v.85c-.17 0-.17-.34-.34-.51-.51.17.17.51 0 .85-.17 0-.17-.17-.51-.17 0 .34-.17.34-.17.68-.68.17-2.21.17-2.38 1.53-.17 0-.34-.17-.34-.34-1.7 1.36-4.24 1.7-6.28 2.72-2.89.34-5.43 1.19-8.32.85-.17 0-.17.34-.17.51-.17 0-.17-.17-.51-.17 0 .51-.68 0-.51-.34-6.79.51-11.37-2.55-14.09-6.62-.34-.17-.68-.34-1.02-.34-1.02-1.36-.51-4.07-.51-5.6-.51 0-.17.68-.68.51-.68-6.96 3.06-12.56 4.58-18.16.85-.51 1.02-1.7 1.19-2.72 1.02-1.02 1.87-2.38 2.55-3.9 1.7-1.02 2.72-2.89 4.41-4.07 0-.85.85-.85.68-1.7.68-.17 1.19-.51 1.36-1.36 2.04-.68 2.72-2.89 4.58-3.73 3.06-4.24 8.66-6.28 13.58-9.17 1.19-1.02 2.55-1.53 4.07-1.87 3.23-2.38 7.3-4.07 10.69-6.28.17 0 .17-.34.17-.51 2.38-1.19 6.11-1.19 7.3-3.57 2.04-.34 2.89-1.87 4.58-2.55-.17-1.02.51-1.36.85-2.04-.17-.17-.34 0-.51-.34-.51 1.53-1.36 2.89-3.06 3.22 0-1.36 1.7-2.55 3.06-3.22 0-.51.68-.34 1.19-.34v-.17c-.68.17-.51-.51 0-.17-.17-.17-.17-.51-.17-.85.85.34 2.04.17 3.06-1.02-.17 0-.17-.17 0 0 .17-.51.85 0 .85-.85-.17 0-.17-.17 0 0 .68-.17 1.02-.51 1.53-.85.34.51 1.36.34 1.53.85 3.23.17 5.26 1.53 7.3 3.23 2.22 1.02 3.93 2.54 5 4.73-.75 2.44-1.42 4.88-1.95 7.15-.17.34-.68.51-.85.85-.17 5.09-2.72 9.34-3.23 14.09-.34.51-.85.85-1.02 1.36.17 0 .34.17.34.51-.34 0-.17.51-.51.51 0 .34.34.51.17 1.02-.48 1.15-.77 2.23-1 3.28-2.15 3.15-4.41 6.17-6.63 9.28-.17.17-.51.17-.85.17.21.5-.13.67-.13 1.01zm8.66 50.41c-.17-.68-.17-1.02-.51-2.04.15-.37.27-.75.38-1.13.14 1.21.48 2.36 1.02 3.31.14.58-.2.67-.2.99-.3-.29-.55-.64-.69-1.13zm1.01 1.42c.19.02.39.03.39.25v.08l-.39-.33zm5.15 5c0-.17.34-.17.34 0-.01.34-.18 0-.34 0zm13.24-2.2c0-.17.17-.17.34-.17 0 .17-.17.17-.34.17zm31.91-4.42c-.17-.51.34-.34.68-.34-.17.17-.34.34-.68.34zm43.12-4.24c.51.17.34-.51.68-.51.01.01.02.01.03.02-.16.45-.32.9-.47 1.35-.38.05-.24-.55-.24-.86zm-5.27.85c.17-.34 1.02-.17.85.34-.34 0-1.02.17-.85-.34zm-47.53 72.65c0 .17-.17.17-.34.17 0-.17.17-.17.34-.17zm-4.75 16.81c0 .17-.17.17-.34.17 0-.17.17-.17.34-.17zm-3.22 9.16c0 .17-.17.17-.34.17 0-.17.17-.17.34-.17zm-.34 1.19c0 .17-.17.17-.34.17 0-.17.17-.17.34-.17zm-4.42 14.77c.34-.17.17.34.51.34 0 .51-.68 0-.51-.34zm10.53 15.79c0 .68-.68 0 0 0 0-.17.17-.17 0 0zm1.69-15.11c-3.4 2.38-6.28 5.09-9.34 7.64-1.02.51-1.87 1.19-2.89 1.7-.85-4.07 0-6.79 1.02-9.68.34-2.55 1.02-3.56.85-6.11.85-1.53 1.02-3.9 2.21-5.77-.34-.51 0-.68-.17-1.02-.17 0-.17-.17 0 0 .17 0 .34-.34.51-.34.34-3.4 2.38-5.77 2.55-8.66.34 0 .51-.34.85-.34.17-.85.17-.85 0-1.7.85-.68 1.19-2.72.85-3.57 1.19-.68 1.7-2.21 1.36-3.57 1.19-.17 0-1.87 1.19-2.21-.85-.34.34-1.19.51-1.7-.34 0-.51-.17 0-.17-.34-1.53 1.36-2.55.68-3.9h.51c-.17-1.87.85-2.38 1.02-4.24.51.17.34-.34.68-.34.85-2.89 2.38-5.6 3.4-7.81-.68-.17.17-1.36.51-1.7-.34-.51 0-.85 0-1.53.34 0 .34-.17.51-.17 1.02-2.38 1.02-5.77 3.06-7.81 1.7-5.09 3.06-10.36 5.6-14.6 2.04-7.47 5.26-15.96 8.15-23.77h.51c1.53-2.72 2.04-6.45 4.41-8.32-.34 0 .17-.51-.17-.68.51-.34 1.02-.68 1.02-1.7 6.28-2.38 15.79-1.53 23.26-2.89-1.36-.34-2.38.51-3.23-.68 1.36.17 2.89 0 3.73.51-.34 0-.51.51 0 .34l.36-.36c-.12.35-.25.69-.36 1.04-.51.17-.51.68-.85.85-.51 2.04-1.19 3.9-2.04 5.43-3.9 13.07-7.81 24.95-11.54 37.68-2.89 6.45-3.9 13.41-6.45 19.69-1.02 4.58-2.55 9.34-3.9 14.09-.68 2.38-1.36 4.75-2.04 6.96-.48 1.76-1.03 3.55-1.5 5.3-7.5 8.8-15.79 16.83-24.83 24.11zm80.63-44.3c.17 0 .17 0 .17-.17.34.17.34.34.17.51h-.34v-.34zm-7.47 19.69c0 .17-.17.17-.34.17 0-.17.17-.17.34-.17zm123.07-4.42h-.34v-.34h.34v.34zm145.77 62.47c.17 0 .34 0 .34-.17-.17 0-.34 0-.34.17zm-.85 9.51c.17 0 .51 0 .51-.17-.34.17-.51-.51-.51.17zm5.09-2.55c-.17 0-.34-.17-.34-.34h-.17c0 .34-.51.34-.51.68.34 0 .34.17.68.17-.17-.34.34-.17.34-.51zm2.55-1.53c-.51 0-1.19.51-.68.85.17-.17.51-.51.68-.85zm-6.29-5.6c.17 0 .34 0 .34-.17-.17 0-.34 0-.34.17zm7.13 4.92c.85.34.68-.17 1.02-.68-.17.17-.34.17-.68.17.17.34-.34.17-.34.51zm-21.21 7.98h.17c0-.17-.17-.17-.17 0zm8.65-173.14c-1.19-.34-.34-1.02-.17-1.7-.85.17-1.19-.17-2.04-.17-2.04-1.53-4.07-2.89-6.96-3.57-1.7-1.53-5.26-2.72-7.64-2.04-1.19 1.19-1.36 2.55-2.21 3.9 0 .34.68 0 .68.51-1.53 4.75-3.73 10.01-4.41 15.11-.68 0 .17.68-.68.68 0 6.62-1.87 13.41 2.89 16.81.85-.17 2.55-.68 3.4-1.53 0-.51 0-1.02-.17-1.36.51-.17.51-.68 1.02-.85.85-3.73 2.55-5.43 4.75-7.98-.17-1.02.51-1.36 1.19-1.7-.17-.51.17-.51.17-.85 2.38-1.87 3.23-5.43 5.26-7.81.68-.51 1.53-1.19 2.04-1.87l1.02-.51c0-.51.51-.85.68-1.36-.68.17.17-.34-.34-.68 1.01-.83 1.01-1.85 1.52-3.03zM579.1 361.92c-.17 0-.17 0-.17.17.17 0 .17 0 .17-.17z"/><path d="M623.23 263.63c-2.55-1.02-3.06-3.73-4.58-5.77-.51-.17-.85-.17-1.53-.17-3.4 2.21-5.94 5.26-8.49 8.32-1.7 3.06-4.07 5.77-6.11 8.49 0 1.7-1.87 2.89-2.21 4.58-.85.17-.68 1.19-1.53 1.36-2.04 4.75-5.09 8.49-6.79 13.58-1.02.85-1.53 2.38-2.04 3.9h-.51c0 1.87-1.36 2.38-1.36 4.24-.34.17-.34.68-.68.68-1.02 2.89-2.38 5.6-3.9 8.15-1.53 4.75-3.23 9.17-5.6 13.07-.34.17-.51.51-1.02.51 0 1.53-1.36 1.7-2.04 2.38-2.38 0-2.21 2.72-3.9 3.4-.17 0-.34-.34-.51-.34-.51 1.36-2.38 1.36-3.06 2.38-1.87.51-2.89 1.87-4.58 2.55h-1.02c-1.19 1.02-3.06 1.19-4.41 2.04-.17-.17-.17-.34-.51-.34-3.4 1.19-6.62 1.7-11.03 1.53-.34-.17-.51-.51-1.19-.34-4.92-2.21-6.62-9.17-5.09-16.3 2.55-6.79 5.43-13.07 8.66-19.01 3.73-5.43 7.98-10.52 11.71-15.96l1.02-.51c.34-1.19 1.53-2.21 2.89-1.87 1.87-1.7 3.23-4.58 6.28-4.58 1.02-1.36 2.89-.85 4.41-1.36 1.7 1.53 4.41 1.87 7.64 1.87 1.36-1.19 2.72-2.21 2.89-4.58-1.02-1.53-1.36-3.73-3.4-4.24v-.68c-2.04-1.02-3.06-3.22-5.26-4.07v-.68c-.85.17-1.53-.51-1.87-1.7-.68-.17-1.19.17-1.36-.68 0 .17-.34.17 0 0 0-.17-.34-.34-.34-.51-.51.68-1.36 0-2.21.68-.85-1.53-2.38-.51-3.57-1.19-.17.51-1.02.34-1.53.51v-.85c-3.56 1.19-6.45 3.23-9.17 5.43h-.85c-.85 1.02-1.7 2.04-3.23 2.55-2.21 2.55-4.07 5.43-7.3 6.96-.85 4.07-5.26 5.94-6.28 10.36-.51-.17-.34-.17-.68.17s.34 1.02-.34 1.36c-.17.17-.51.34-.68.51-5.26 10.53-9.85 21.56-9.34 37.85.34 1.19.68 2.38.85 3.73.34.17.17-.34.51-.34v.51c.34.17.51.51.51.85-.34 0-.51 0-.51.34 1.02 5.26 4.41 9.34 7.81 12.73.68-.17.68.34 1.36.17-.17.85.85.34.51 1.19 2.89.85 4.92 1.7 8.49 2.04.68-.34 1.53-1.02 2.38-.34 1.36-.85 4.07-1.19 5.6-1.53.17-.17 0-.85.51-.85 4.24-1.7 7.47-4.41 10.69-7.13 3.4-1.53 5.43-4.41 8.49-6.28-1.02 4.24-3.23 7.13-4.07 11.37-.34 0-.51 0-.51.34 0 .68-.17.68 0 1.19-.85 1.02-1.36 2.38-1.87 3.57-3.06 10.86-6.28 22.58-8.15 34.46-1.7 5.94-2.38 11.54-4.41 17.48.34.51 0 1.53 0 2.55-.17.17-.34.17-.68.17-3.4 12.73-9.17 25.12-15.79 35.65.68.85-.85 2.89-1.87 2.38-.34 1.19-1.53 1.53-1.19 3.06-1.53 1.02-2.04 3.06-3.06 4.58-5.6 6.28-10.52 13.24-18.67 16.81-.85.17-1.36.51-2.21.68-.51.51-.85 1.19-1.7 1.36-1.19.34-3.73-.34-5.09.51-2.38-.85-3.4-1.36-6.45-1.53-.51-.68-1.36-.68-1.7-1.53-.51.17-.68-.34-1.19-.17-5.77-4.41-9-10.35-10.86-17.82 0-.68-.17-1.19-.17-1.87 0-.17-.51 0-.51-.34-1.02-5.77-1.36-14.09.17-19.52-.17-.34-.51-.68-.51-1.19.85-3.73 1.87-6.79 3.23-9.51.85-3.56 3.06-6.62 4.75-9.84.68-.51 1.02-1.19 1.87-1.53v-1.36c1.7-2.38 3.4-4.58 4.58-7.47 1.88-1.6 3.3-3.62 4.67-5.74 2.42 2.96 5.58 5.04 9.59 5.74.34-.34.34-.68.68-1.02v-.17c-2.04-2.38-3.23-5.77-4.75-8.83-.38-1.17-.73-2.4-1.06-3.66 1.51-2.88 4.12-4.72 5.31-7.88 1.19-.17 1.53-1.36 2.04-2.21.17-.51-.17-.51-.17-.85.34 0 .51-.17.51-.51.34-1.87 1.53-2.72 2.55-3.9.34-3.06 2.72-5.77 3.4-9.17-2.04 2.04-3.4 4.75-5.77 6.62.17 1.36-1.36 1.53-1.02 2.55-1.19.17-2.55 1.7-2.55 3.06-1.36.51-1.36 2.38-3.06 2.72-.17.85-1.02 1.19-1.02 2.21-.51 0-.34-.34-.68 0-.27.31-.53.64-.79.95-.36-2.74-.54-5.69-.39-8.93.68-16.3 7.13-31.4 11.54-44.13 1.53-2.21 2.04-5.43 3.39-7.81.17-.51-.17-.85-.17-1.19.85.34.17-.85.85-.68.17-1.87 1.19-3.06 1.53-4.75.17-.51-.51-.17-.34-.85 1.19-1.53 2.72-4.24 2.89-6.79-.17 0-.17-.17 0 0 1.19-2.04 3.23-4.58 3.9-7.64.34-.17.34-.51 1.02-.85 1.36-4.24 5.09-6.96 6.11-11.54.17-.17 1.36-1.36 1.7-1.87.17-.17-.17-.85 0-1.02.17-.17.51-.17.68-.34.34-.51.17-1.53.51-2.38.68-1.87 2.04-3.56 1.7-4.92 0 .17 0 .17-.17.17 0 .17-.34.17 0 0 0-1.36 1.53-2.04.68-2.89 0 .17 0 .51-.17.51-.34-.34 0-.68.17-1.02-2.04-1.02-1.7-3.23-3.9-4.41.17-.85-1.02-.85-.51-1.53-1.7-1.02-3.06-2.38-4.75-3.39-1.02.34-1.53-.34-2.55 0-.85 1.19-1.53 2.55-2.55 3.39.34 1.02 1.19 1.53 1.53 2.55-.51.68-.68 1.7-.85 2.21-4.92 2.55-8.83 6.11-13.41 9 0 .34-.17.51-.17.68-8.15 5.94-14.94 13.24-22.41 19.69-2.21 2.38-4.24 4.92-7.13 6.62.17-1.87 1.19-2.38 1.36-4.24 1.87-2.04 2.55-4.92 4.58-6.79-.85 0 .34-.34 0-.85.85-.68 1.36-2.04 2.38-2.55 0-2.38 2.04-3.73 2.38-5.94.34-.17.34-.68 1.02-.51 0-.34-.34-.34-.17-.85 2.38-3.4 4.58-6.79 4.41-11.71-.85-1.53-1.36-3.4-2.38-4.75-.51-.17-1.02-.34-1.36-.51-.68 0-.85.51-1.53.68-2.38-1.7-3.73-5.09-6.96-5.43-1.02.51-1.7 1.87-2.55 2.04-1.53 3.06-2.21 6.62-4.24 9.51 0 1.19-1.19 1.7-.85 2.72-6.28 11.88-12.05 28.35-16.81 42.78.51 1.19-.85 2.04-.34 3.57-.19.44-.36.9-.53 1.36h-.48c.17.51-.17.51-.17.85-.51.34-.85 1.02-1.53 1.19.34 1.02-1.02.51-.68 1.53-.68-.17-.34.51-.85.51-4.58 6.62-9.85 12.73-16.47 17.31-4.07 4.07-8.32 7.81-14.77 9.34-1.02-1.53 1.87-2.72.68-4.24.17-.34.85-.17.85-.68.17-2.89 1.53-5.43 2.04-9.17.34 0 .34-.51.85-.34.51-2.38.85-5.09 2.38-6.62.51-2.21 1.02-3.57 2.04-5.09-.34-2.04 1.53-3.23 1.36-5.43.17-.17.68-.17.85-.51 0-.34-.34-.68-.17-1.19.34 0 .51 0 .51-.34 2.04-3.4 2.38-7.13 4.24-10.52 0-2.21 1.7-3.57 2.38-4.92.51-.85.51-1.87 1.02-2.55.85-1.19 2.04-1.87 2.72-3.06.51-.85.51-1.87 1.02-2.72 1.02-1.7 2.72-3.23 3.22-5.43.68-.68 2.04-1.36 2.04-2.21-.17-.51-1.02-.51-1.7-.51-1.19-2.89-3.9-3.4-6.11-5.09-3.73-.17-6.11-2.38-10.52-1.53-1.36 1.7-1.87 3.4-.85 5.26-2.72 7.47-6.28 15.79-9.84 23.6-2.04 7.3-4.24 14.09-6.11 20.71-1.19 6.96-2.89 15.28-.17 23.43-.34.68.51 1.19 0 1.87 2.72 2.89 6.45 5.77 11.71 4.41 11.23-5.89 19.25-14.98 27.1-24.33-.9 3.74-1.77 7.68-.62 11.94 1.02 1.02 1.87 2.04 3.06 2.89 1.19.17 1.53.17 2.72 0 1.7-1.87 1.7-4.24 3.9-5.6 0-.34-.17-.34-.17-.68 1.7-1.7 2.21-3.73 3.9-5.6 2.04-5.09 5.77-8.66 7.98-13.24 2.04-2.55 3.9-5.26 5.26-7.98 1.02-.68 2.21-2.21 2.21-3.4 1.53-.68 1.87-3.39 3.73-4.41 0-.85.85-2.21 1.87-2.72-.17-.51.17-.68.17-1.02 2.04-1.87 3.23-3.57 4.58-5.94 1.53-1.02 2.72-2.38 3.56-4.07 1.53-.68 1.7-2.72 3.57-3.06.51-1.87 2.38-2.38 3.23-4.07 1.87-1.19 2.38-3.23 4.41-4.07 3.23-3.9 7.3-6.79 11.2-10.18-1.53 3.57-3.57 6.45-4.75 9.34-2.21 2.72-2.21 6.11-4.41 8.83 0 .34.17.34.17.68-1.19 1.36-1.36 3.56-2.55 4.75-2.72 7.98-5.94 16.13-8.49 24.78-2.55 8.66-3.73 17.99-6.45 26.31.51.85.51 1.19.68 2.21-.17.51-.85.34-.85 1.02-2.31 10.38-2.41 24.18 1.73 33.91l-.03.18c-.59.22-1.39.68-1.02 1.05-6.28 2.89-12.05 7.3-19.52 9.85 0-.17-.51 0-.51-.34.68-.34 1.36-.51 2.04-.85-2.89.34-5.6 2.04-8.32 2.38-.17 0-.17.34-.34.34-4.58.68-8.15 2.55-12.05 1.36-3.23.68-6.45-1.36-8.66-2.04.34.17.17.34-.17.34-.51 0 .17-.34 0-.68-.51.17-.51-.34-1.02-.17 0 .17-.34.17 0 0-2.72-1.87-4.41-3.22-7.13-4.92-.51-.85-1.19-1.53-2.21-1.87.17-.51-1.02-1.53-1.7-1.36-.17-1.19-1.02-1.7-2.21-2.04.34-.34-.17-.34.17-.68-.68 0-.68-.68-1.36-.51-.51-1.7-2.21-3.4-3.57-4.75.17.34-.34.68-.34.34 0-.17.17-.34.34-.34v-.51c-3.9-4.07-7.64-11.2-9.68-15.96-1.7-1.87-2.04-5.43-4.58-7.3-.17-1.53-.68-2.89-1.7-4.07-.51-1.7-1.7-4.24-2.89-5.94-.17-2.04-1.36-3.4-2.04-4.92v-1.02c-.17-.17-.34 0-.51-.34-.17-.51 0-1.19-.51-1.36.34 0 0-.51.17-.85-3.57-4.75-4.07-11.54-7.3-16.64 0-.34.51-.34.51-.85-.17 0-.51 0-.51-.17 0-1.87-.85-3.06-1.19-4.58-.17-.34.34-.17.34-.51-2.21-3.57-2.04-9.34-3.73-13.24 0-.34.51-.34.51-.85-.34-.17-.51-.51-.51-1.02h-1.19c1.19-1.7 3.06-2.55 3.4-4.92 3.9-2.21 5.09-6.45 8.66-8.66v-.68c2.89-1.87 4.58-4.75 7.3-6.79.17-1.36 1.53-1.36 1.7-2.55 1.02 0 .85-.85 1.87-.85 1.36-2.21 3.39-3.73 5.26-5.43.17-.34.17-.85.85-.68-.51 3.9.17 8.66 0 12.39 3.73-.85 3.73-6.28 6.11-7.81.51-3.56 2.21-5.77 3.9-8.15h1.53c1.19-1.87 1.7-4.58 5.09-4.24 0-.85.17-1.7.85-1.87-.51-1.53-2.21-1.87-2.89-3.23-3.56-1.02-6.11-3.22-10.35-3.56-.34-.51-1.19-.51-2.04-.68-1.36.68-2.38 2.04-2.55 3.9.85.17.68 1.36 1.7 1.53.17 1.02-.17 1.87-.17 2.72-.51.34-.68.68-1.36.85 0 .85-.68 1.02-1.02 1.53-2.89 1.19-4.24 3.73-7.3 4.58-1.53 2.04-3.4 3.73-5.94 4.75.17.51.17.34 0 .85-2.55 1.19-3.9 4.58-6.62 6.11.17 1.02-1.19 1.02-1.53 2.04h-1.19c-.68 2.38-3.23 2.89-4.24 4.92-1.36.34-1.7 2.55-2.89 3.23-.17-.17 0-.34 0-.51-.85.68-1.7 1.53-2.21 2.55-2.55 1.36-3.57 4.07-5.94 5.6 0 .51.34.51 0 .85-.85-.34-.85.68-1.53.85-.17.51.51.34.34.85-2.72 2.38-4.58 5.43-6.96 7.81-.17-.34-.34-.34-.51-.17-1.02.68-1.53 1.7-2.38 2.55.17 0 .34 0 .34.17-.85-.17-.51.85-.85 1.19-.17 0 0-.51-.34-.51-2.21 2.55-3.73 5.43-6.45 7.3-.17-1.19.85-2.72.85-4.75.34 0 .51-.17.68-.17 0-1.02.34-1.7.17-2.72.34 0 .34.17.68.17.17-2.21 2.04-3.23 1.87-5.6.85-.68 1.19-1.87 1.36-3.22 1.36-.85 1.19-3.4 2.21-4.58-.17 0-.34-.17-.34-.34h.51c.17-2.89 1.7-4.41 2.04-7.13 1.87-2.89 2.21-7.3 3.9-9.84.34-2.72 1.19-4.75 2.04-6.45v-1.02c.68-1.7 1.53-2.38 1.7-4.41 1.7-3.06 2.72-7.64 4.58-10.35v-1.7c.51 0 .51-.51.85-.68.34-2.72 2.55-4.41 2.72-6.96 2.21-2.04 3.23-4.75 4.58-7.3 2.21-1.53 2.55-4.92 4.58-6.79.34-1.7.34-2.89 1.7-3.57.68-3.73 3.73-5.09 4.92-8.49.68 0 .34-.85 1.36-.68.34-1.7 2.55-2.38 2.72-3.73.68-.51 2.21-.34 3.06 0 .68-.34 1.02-.51 2.04-.34 0-.51.34-.68.85-.85v-1.7c-1.36-2.21-3.06-4.41-5.26-6.11-.85-.51-1.87-.51-3.06-.51-4.24.17-6.96-2.72-10.86-3.57-1.19 1.36-2.38 2.55-2.72 4.75 0 .17.51 0 .51.34-.17 1.19-.51 2.04-1.36 2.38-2.04 5.43-4.58 9.85-6.62 15.45-.17.17-.68.17-.68.51.17.85-1.02 3.4-1.7 4.41-.17 1.02-.34 2.04-1.02 2.55-3.06 8.83-6.11 15.11-8.66 23.26-.17.17-.34.17-.51.17-2.04 6.96-4.92 11.54-6.45 18.16-.85-.34-.34.85-1.02.68-1.7 5.26-2.72 9.17-4.92 13.75.51.34-.17 1.87-1.02 2.21-.17.68.17.68.34 1.02-1.02 1.53-.85 3.4-2.04 5.26-1.19 5.09-2.55 10.35-4.41 15.28 0 2.89-1.7 5.09-1.53 7.64-1.19 3.9-2.38 8.32-3.23 12.22-.34 1.87-.51 3.57-1.02 5.09-.85 2.04-2.38 3.23-2.89 5.26-1.36.85-1.87 1.53-1.87 3.39.17.34.51.51.51 1.19 4.07 3.39 9.17 6.45 16.3 6.28 1.19-2.38 2.21-4.75 3.4-7.3.17-.51-.51-.34-.34-.85 1.53-2.38 2.04-6.28 1.87-8.49 1.02.17.51-1.19.68-2.04h.51c1.87-6.28 6.45-9.51 9.85-14.94.34 0 .51-.17.68-.17.34-.34.34-1.7 1.19-1.87v-1.02c1.53-.85 1.53-3.06 3.23-3.73 3.4 11.2 8.15 21.05 12.73 31.06.85.34 1.19 1.36.85 2.04 2.38 3.4 3.56 7.81 6.11 10.86-.51.17.17.51 0 1.02 1.53 2.21 2.89 5.43 4.58 7.98 1.87 4.41 5.6 7.47 7.13 11.71.51-.17.51.34.85.51 3.06 4.24 6.45 8.15 9.51 12.22.68 0 1.02.34 1.36.68 0 .85.68 1.02.85 1.7 3.9 1.87 5.94 5.6 9.68 7.64 0-.17.17-.17 0 0 2.21 1.19 4.92 1.87 6.79 2.89 0-.17.17-.17 0 0 1.19 1.53 4.24 1.19 6.28 2.38 0-.17 0-.51.17-.51 1.7 1.36 5.6.51 7.98 1.19 0-.17 0-.51.17-.51 0 1.02.85.17 1.53.51.17-.51-.34-.51 0-.85.51 0 1.02 0 1.36-.17v.68c1.02-.51 2.72.51 2.89-1.02-.34 0-.85.17-.85-.17.17-.34 1.7-.68 2.55-.34 0 1.02-1.19 0-1.53.51.68 1.02 3.23-.17 4.58-.51-.51-.34-1.02.34-1.36 0 0-.85.85-.68 1.19-1.19.17.34.34.34.85.34 0 .34-.51.34-.34.85 2.38-1.02 4.41-.85 6.11-2.38 0 .68.51.17.85.17.17-.68-.68-.34-.51-.85.68-.51 1.87-1.36 2.89-.85 0 .34-.85.51-.34.85.51-.68 1.7-.68 2.04-1.53-.34 0-.85.17-.85-.17 2.63-1.48 5.26-2.96 7.73-4.59-.23.37-.45.75-.67 1.14-.03.02-.06.04-.1.06h.06c-.74 1.29-1.48 2.61-2.44 3.73-.17 2.72-1.87 2.72-2.04 5.43-.17 0-.17.17-.17.34-.34.34-.51.17-.85.34-1.53 3.39-3.23 6.62-4.75 10.52-.51 4.58-2.55 7.47-2.89 12.22-.17.34-.51.51-.51 1.02-.17 1.87 0 3.9-.51 5.26-.17 3.57-.34 6.79.51 9.17 0 3.4.68 6.11 1.87 8.66 1.87 5.43 4.58 10.86 7.81 14.94 3.23 4.07 7.98 7.3 14.26 8.32 1.53 1.19 3.9 1.02 6.62.85 6.11-.51 12.56-3.06 17.82-5.94 2.72-1.53 5.09-2.89 7.3-4.58 2.89-2.21 4.92-4.24 7.47-6.79-.34-1.36 1.36-.68 1.02-2.04.68.17.51-.51 1.19-.51.17-1.19 1.02-1.53.85-2.89.34-.34.68.17 1.02-.17.34-1.36 1.02-2.55 2.21-3.06.85-2.04 2.04-3.9 3.4-5.43.17-2.21 2.04-2.55 2.04-4.92 1.19-.17 1.36-1.53 2.38-2.04 1.53-3.4 3.23-6.79 5.09-9.85 0-1.19.34-.85 0-1.87 1.19-.51 1.7-2.55 1.19-3.73.17-.34 1.02 0 1.02-.51 0-1.36 1.02-3.06.85-4.92 1.53-1.87 2.38-3.9 1.87-6.79.17-.68 1.02-1.19.68-2.38.17-.34.85 0 .68-.51.34-2.38.85-3.9 2.04-5.6-.17-2.21.51-3.57 1.19-5.26.17-.85 0-.68-.17-1.53 2.04-3.23 2.89-7.3 3.73-11.37h.51c1.36-5.09 2.72-9.34 4.41-14.26-.51-2.04 1.02-3.73.34-4.92.51-.34.85-.85 1.36-1.19-1.02-1.19 1.02-1.7.68-2.72-.68 0 .17-.68-.34-1.19 3.06-4.75 4.07-12.73 7.47-18.5 0-.34-.34-.34-.17-.85 1.7-2.21 2.21-4.41 3.23-7.13.68-.34 1.19-1.19 1.02-2.38 3.56-4.41 4.58-10.35 7.64-14.43 0-2.04 1.53-2.72 1.7-4.58 2.21-2.72 2.72-5.43 3.9-8.66.85-1.19 1.7-1.87 2.04-3.9 1.02-1.02 1.53-2.55 2.72-3.4.85-1.87 1.53-4.07 3.23-5.26.85-3.4 3.9-4.41 4.92-7.64 2.38-2.72 5.6-4.41 6.96-8.15 1.53-1.53 2.04-3.9 2.72-6.28-.89-2.45-1.74-4.15-2.76-6.19zm-82.83 6.11c0-.17.17-.17 0 0 0 .17-.34.17 0 0zm-26.83 60.43h.34v.34h-.34v-.34zm-144.45 7.98c0-.17.17-.17.34-.17 0 .17-.17.17-.34.17zm1.7-4.92c0-.17.17-.17.34-.17 0 .17-.17.17-.34.17zm65.35 51.26h-.51v-.51h.51v.51zm1.36 1.87c0-.34.51-.34.68-.17 0 .17-.51.17-.68.17zm29.54 19.52c.34.17 0 .34 0 .51-.34-.17 0-.34 0-.51zm2.37-.85c0-.17.17-.17.34-.17 0 .17-.17.17-.34.17zm.17-2.2c-.51-.34.51-.51.85-.51-.17.51-.85.34-.85.51zm1.02 1.01c-.17-.68.85-.34 1.02-.68.34.35-.68 1.02-1.02.68zm4.58-1.18c-.17-.17-.51-.34-.51 0-.51-.34.34-.51.68-.51-.17.17-.17.34-.17.51zm.34-.17c-.17-.68.85-.51 1.19-.85.51.51-.85.68-1.19.85zm1.53.68c-.17-.68 1.36-1.02 1.19-.17-.51-.17-.85.17-1.19.17zm19.52-16.47c.17 0 .17.34 0 0-.17 0-.17-.17 0 0zm-4.58 7.13c0 .02-.02.03-.02.05-.13.15-.24.3-.36.45-.42-.04.05-.66.38-.5z"/><path d="M528.51 331.53c.34.17.68.17.34-.17-.17 0-.34 0-.34.17z"/><path d="M528.85 331.36c.17 0 .17 0 .17-.17-.17 0-.17 0-.17.17z"/></g><path fill="none" stroke="#434040" stroke-width=".25" stroke-miterlimit="10" d="M478.61 42.99l138.51 214.7-185.02-50.9 68.06 270.22 88.95-142.59-148.52-208.6"/><circle fill="#434040" cx="478.61" cy="42.99" r="1.51"/><circle fill="#434040" cx="440.59" cy="125.82" r="1.51"/><circle fill="#434040" cx="617.12" cy="257.69" r="1.51"/><circle fill="#434040" cx="589.11" cy="334.42" r="1.51"/><circle fill="#434040" cx="432.1" cy="206.79" r="1.51"/><circle fill="#434040" cx="514.35" cy="229.42" r="1.51"/><path fill="none" stroke="#434040" stroke-width=".25" stroke-miterlimit="10" d="M432.1 206.79l8.49-80.97-99.83 90.4m173.59 13.2l-14.19 247.59M478.61 42.99l-38.02 82.83 176.53 131.87"/><g fill="#00FB71"><path d="M350.27 206.45c.06-.07.13-.14.2-.2.85-.71 2.1-.61 2.82.22.64.76.62 1.87-.01 2.59.27.49.52 1 .73 1.51 2.19 5.31 1.06 11.62-3.15 15.83-5.3 5.3-13.68 5.64-19.38 1.03.09-.06.17-.13.25-.19.19-.16.37-.35.51-.55 5.28 4.2 12.99 3.84 17.86-1.03 3.87-3.87 4.92-9.66 2.97-14.55-.2-.49-.43-.97-.68-1.45-.74.25-1.6.04-2.14-.59-.65-.79-.64-1.9.02-2.62zm-19.95-.59c5.29-5.29 13.69-5.63 19.38-1.02-.09.06-.17.13-.25.19-.19.16-.37.35-.51.55-5.27-4.19-12.99-3.86-17.86 1.02-3.88 3.88-4.92 9.67-2.95 14.57.19.49.42.97.67 1.44a1.98 1.98 0 0 1 2.13.6c.64.76.63 1.87-.02 2.59l-.21.21c-.84.72-2.09.62-2.81-.22-.64-.76-.63-1.87.02-2.59-.27-.49-.51-.99-.71-1.51-2.22-5.29-1.11-11.6 3.12-15.83z"/><path d="M350.27 206.45c.06-.07.13-.14.2-.2.85-.71 2.1-.61 2.82.22.64.76.62 1.87-.01 2.59.27.49.52 1 .73 1.51 2.19 5.31 1.06 11.62-3.15 15.83-5.3 5.3-13.68 5.64-19.38 1.03.09-.06.17-.13.25-.19.19-.16.37-.35.51-.55 5.28 4.2 12.99 3.84 17.86-1.03 3.87-3.87 4.92-9.66 2.97-14.55-.2-.49-.43-.97-.68-1.45-.74.25-1.6.04-2.14-.59-.65-.79-.64-1.9.02-2.62zm-19.95-.59c5.29-5.29 13.69-5.63 19.38-1.02-.09.06-.17.13-.25.19-.19.16-.37.35-.51.55-5.27-4.19-12.99-3.86-17.86 1.02-3.88 3.88-4.92 9.67-2.95 14.57.19.49.42.97.67 1.44a1.98 1.98 0 0 1 2.13.6c.64.76.63 1.87-.02 2.59l-.21.21c-.84.72-2.09.62-2.81-.22-.64-.76-.63-1.87.02-2.59-.27-.49-.51-.99-.71-1.51-2.22-5.29-1.11-11.6 3.12-15.83z"/></g><circle fill="#00FB71" cx="340.76" cy="216.22" r="2.01"/></svg>