<svg xmlns="http://www.w3.org/2000/svg" width="130" height="10" viewBox="0 0 130 10"><path d="M121.35 1.82c1.76 0 3.18 1.43 3.18 3.18 0 1.76-1.42 3.18-3.18 3.18-1.75 0-3.18-1.42-3.18-3.18 0-1.75 1.43-3.18 3.18-3.18zm-112.71 0c1.76 0 3.18 1.43 3.18 3.18 0 1.76-1.42 3.18-3.18 3.18-1.75 0-3.18-1.42-3.18-3.18 0-1.75 1.43-3.18 3.18-3.18z" fill="#FCFCFC"/><path d="M11.82 5h106.35M11.82 5c0 1.76-1.42 3.18-3.18 3.18-1.75 0-3.18-1.42-3.18-3.18 0-1.75 1.43-3.18 3.18-3.18 1.76 0 3.18 1.43 3.18 3.18zm112.71 0c0 1.76-1.42 3.18-3.18 3.18-1.75 0-3.18-1.42-3.18-3.18 0-1.75 1.43-3.18 3.18-3.18 1.76 0 3.18 1.43 3.18 3.18z" fill="none" stroke="#000" stroke-width=".75" stroke-linecap="round" stroke-linejoin="round" stroke-miterlimit="10"/></svg>