<svg xmlns="http://www.w3.org/2000/svg" width="80" height="80" viewBox="0 0 80 80"><g fill="#00FB71"><path d="M40 15c-13.79 0-25 11.21-25 25s11.21 25 25 25 25-11.21 25-25-11.21-25-25-25zm0 48.66c-13.05 0-23.66-10.61-23.66-23.66S26.95 16.34 40 16.34 63.66 26.95 63.66 40 53.05 63.66 40 63.66z"/><path d="M31.71 49.23L40 40.94l8.28 8.29c.25.25.7.25.95 0 .13-.13.2-.3.2-.48s-.07-.35-.2-.47L40.94 40l8.29-8.29a.65.65 0 0 0 0-.94.65.65 0 0 0-.94 0L40 39.05l-8.29-8.28a.664.664 0 1 0-.94.94L39.05 40l-8.28 8.28a.65.65 0 0 0 0 .94c.25.26.69.27.94.01z"/></g></svg>