<svg id="Capa_1" xmlns="http://www.w3.org/2000/svg" viewBox="0 0 735 230"><style>.st0{fill:none;stroke:#434040;stroke-width:.5;stroke-miterlimit:10}.st1{fill:#6d23fb}</style><path class="st0" d="M10.4 138.7L373.3 5.1l356.6 62.4"/><path class="st0" d="M161 83.3L98.3 222.1l275-217 258.5 129-30.2-89-192.2 31.2"/><path class="st0" d="M431.4 119.7L373.3 5.1l-69.5 97.4L161 83.3l73.7 89.8"/><path class="st0" d="M373.3 5.1l-3.2 144.3 39.3-73.1"/><circle class="st1" cx="601.6" cy="45.1" r="2.9"/><circle class="st1" cx="631.8" cy="134.3" r="2.9"/><circle class="st1" cx="489.4" cy="63.5" r="2.9"/><circle class="st1" cx="409.4" cy="76.3" r="2.9"/><circle class="st1" cx="431.4" cy="119.7" r="2.9"/><circle class="st1" cx="370.1" cy="149.4" r="2.9"/><circle class="st1" cx="303.8" cy="102.5" r="2.9"/><circle class="st1" cx="257.8" cy="96.7" r="2.9"/><circle class="st1" cx="161" cy="83.9" r="2.9"/><circle class="st1" cx="205.4" cy="137.6" r="2.9"/><circle class="st1" cx="234.8" cy="173.1" r="2.9"/><circle class="st1" cx="10.4" cy="138.7" r="2.9"/></svg>