<svg id="Capa_1" xmlns="http://www.w3.org/2000/svg" viewBox="0 0 125.6 97.3"><style>.st0{fill:#323864}.st1{fill:#60b748}.st2{fill:#5d6fd4}</style><g id="XMLID_4738_"><g id="XMLID_4739_"><path id="XMLID_4740_" class="st0" d="M18.4 65.3h8.3l-6.5 21.3h-11L2.8 65.3h8.3l3.5 16.3h.4l3.4-16.3z"/><path id="XMLID_4742_" class="st0" d="M48.5 67c1.3 1.5 2 4 2 7.7 0 2.7-.3 4.9-.8 6.6-.5 1.7-1.1 2.8-1.8 3.4-.7.6-1.9 1-3.5 1.3-1.7.3-3.4.5-5.2.5-.5 0-1.4 0-2.6-.1V93l-7.9.3v-28h6.5l.8 3.3c.8-1.1 1.8-2.1 3.1-2.7 1.2-.7 2.7-1 4.3-1 2-.1 3.8.7 5.1 2.1zm-6.4 11.8c.2-1.2.2-2.3.2-3.3 0-1.7-.2-3-.6-3.8-.4-.8-1.3-1.2-2.6-1.2-.9 0-1.8.1-2.6.3V81l1.3.1h1.7c1 0 1.7-.1 1.9-.2.3-.2.5-.9.7-2.1z"/><path id="XMLID_4745_" class="st0" d="M69.2 65.2c1.6.2 3.4.5 5.5.8v18.4c0 4.4-1.5 7.8-4.4 10.3-.4.3-1.2.6-2.5.8-1.3.2-2.8.3-4.4.3-3.5 0-6.4-.5-8.4-1.4 0-.7 0-1.6.2-2.7.1-1.1.3-2 .4-2.6 2.2.3 4.4.5 6.5.5 1.1 0 2-.1 2.8-.2.8-.1 1.2-.3 1.4-.5.2-.2.4-1.2.6-2.8V83c-.8 1.1-1.8 2-3 2.5s-2.3.7-3.2.7c-2.6 0-4.6-.8-5.9-2.5-1.3-1.7-2-4.2-2-7.5 0-2.2.3-4.2.9-6.1.6-1.9 1.4-3.2 2.5-4 .7-.5 1.8-.8 3.3-1 1.5-.2 3.2-.3 5.2-.3 1.4.1 2.9.2 4.5.4zM66.8 80v-9.7c-.3-.1-.8-.1-1.5-.2h-1.4c-1 0-1.6.1-1.8.3-.3.2-.6.9-.8 2.1-.2 1.1-.3 2.2-.3 3.5 0 1.7.2 2.9.6 3.6.4.7 1.1 1 2.2 1s2.1-.2 3-.6z"/></g><g id="XMLID_4748_"><path id="XMLID_4749_" class="st1" d="M84.3 65.8c.4.1.7.3 1 .7.2.3.3.8.3 1.4 0 .7-.1 1.2-.4 1.5-.2.3-.6.6-1 .7-.4.1-.9.2-1.5.2h-1.6v-4.7h1.6c.7 0 1.2 0 1.6.2zm-.3 2.8v-.8c0-.3 0-.5-.1-.7 0-.2-.1-.3-.2-.4-.2-.2-.4-.3-.8-.3h-.3v2.7h.9c.2 0 .3 0 .3-.1.1.1.2-.1.2-.4z"/><path id="XMLID_4752_" class="st1" d="M89.3 69.2h.3l.1.8c-.4.2-1 .3-1.6.3-.6 0-1.1-.2-1.5-.5-.3-.3-.5-.8-.5-1.4 0-.3 0-.6.1-1 .1-.3.2-.5.3-.6.1-.1.3-.2.6-.3.3-.1.6-.1.9-.1.5 0 .9.1 1.1.3.2.2.4.4.5.7.1.3.1.7.1 1.2h-2.3c0 .2 0 .3.1.4.1.1.2.1.3.2s.3 0 .6 0c.3.1.5.1.9 0zm-1.8-1.6v.4h1c0-.3 0-.4-.1-.6-.1-.1-.2-.2-.4-.2-.1 0-.3 0-.4.1 0 .1-.1.2-.1.3z"/><path id="XMLID_4755_" class="st1" d="M92.9 70c-.3.2-.7.3-1.3.3-.4 0-.9-.1-1.4-.2 0-.1 0-.3.1-.5 0-.2.1-.4.1-.5.2 0 .4.1.7.1h.9v-.1c0-.1-.1-.2-.2-.2 0 0-.2-.1-.5-.1-.3-.1-.5-.2-.7-.4-.2-.2-.3-.5-.3-.8 0-.2 0-.4.1-.6.1-.2.2-.3.2-.4.1 0 .2-.1.5-.1s.5-.1.7-.1c.5 0 .9 0 1.4.1v.5c0 .2-.1.4-.1.4-.5-.1-.8-.1-1.1-.1h-.3v.1c0 .1 0 .1.1.2 0 0 .2.1.4.1.2.1.5.1.6.2.2.1.3.2.5.3.1.2.2.4.2.6-.2.7-.3 1-.6 1.2z"/><path id="XMLID_4757_" class="st1" d="M96 70.3l-.1-.5c-.3.4-.6.6-1.1.6-.4 0-.7-.1-.9-.3-.2-.2-.3-.5-.3-.9 0-.2.1-.4.2-.6.1-.2.3-.3.6-.4.3-.1.8-.1 1.4-.1v-.6h-.7c-.3 0-.6 0-1.1.1 0-.3-.1-.6-.1-1 .3-.1.6-.1.9-.2s.6-.1.9-.1c.4 0 .8.1 1 .2.2.1.4.3.4.6.1.2.1.5.1.9v2.2H96zm-.2-.9v-.6h-.1c-.4 0-.6 0-.7.1 0 0 0 .1-.1.1v.2c0 .1 0 .2.1.3.1 0 .2.1.3.1.2-.2.3-.2.5-.2z"/><path id="XMLID_4760_" class="st1" d="M100.4 66.4c.1 0 .1 0 .2.1v.6c0 .3-.1.5-.1.6h-.3c-.3 0-.7 0-.9.1v2.5h-1.4v-3.8H99l.2.6c.2-.2.3-.4.5-.5.2-.1.3-.2.5-.2h.2z"/><path id="XMLID_4762_" class="st1" d="M103.5 66.4c.1 0 .1 0 .2.1v.6c0 .3-.1.5-.1.6h-.3c-.3 0-.7 0-.9.1v2.5H101v-3.8h1.2l.2.6c.2-.2.3-.4.5-.5.2-.1.3-.2.5-.2h.1z"/><path id="XMLID_4764_" class="st1" d="M104.4 69.9c-.3-.3-.5-.8-.5-1.5 0-.4 0-.7.1-1 .1-.3.2-.5.3-.6.1-.1.4-.3.7-.4.3-.1.7-.1.9-.1.7 0 1.2.2 1.5.5.3.3.5.8.5 1.4 0 .7-.2 1.2-.5 1.6-.3.3-.8.5-1.5.5-.7.1-1.2-.1-1.5-.4zm1.9-.7c.1-.2.1-.4.1-.8v-.6c0-.1-.1-.3-.2-.3-.1-.1-.2-.1-.3-.1-.2 0-.3 0-.4.1 0 0-.1.2-.1.4v.6c0 .4 0 .6.1.8.1.2.2.2.4.2.2-.1.4-.2.4-.3z"/><path id="XMLID_4767_" class="st1" d="M108.4 65.3l1.4-.1v5h-1.4v-4.9z"/><path id="XMLID_4769_" class="st1" d="M110.6 65.3l1.4-.1v5h-1.4v-4.9z"/><path id="XMLID_4771_" class="st1" d="M113 69.9c-.3-.3-.5-.8-.5-1.5 0-.4 0-.7.1-1 .1-.3.2-.5.3-.6.1-.1.4-.3.7-.4.3-.1.7-.1.9-.1.7 0 1.2.2 1.5.5.3.3.5.8.5 1.4 0 .7-.2 1.2-.5 1.6-.3.3-.8.5-1.5.5-.7.1-1.1-.1-1.5-.4zm1.9-.7c.1-.2.1-.4.1-.8v-.6c0-.1-.1-.3-.2-.3-.1-.1-.2-.1-.3-.1-.2 0-.3 0-.4.1 0 0-.1.2-.1.4v.6c0 .4 0 .6.1.8.1.2.2.2.4.2.2-.1.4-.2.4-.3z"/><path id="XMLID_4774_" class="st1" d="M81.1 72.7h1.5v4.7h-1.5v-4.7z"/><path id="XMLID_4776_" class="st1" d="M87.1 74.3v3.1h-1.4v-2.6c0-.1-.1-.1-.3-.1h-.2c-.2 0-.3 0-.5.1v2.6h-1.4v-3.8h1.1l.2.6c.4-.5.9-.7 1.4-.7.2 0 .4 0 .6.1.2.1.3.1.4.2.1.1.1.3.1.5z"/><path id="XMLID_4778_" class="st1" d="M93.9 75.4v2h-1.4v-2.2c0-.2 0-.3-.1-.4 0 0-.1-.1-.3-.1H92c-.2 0-.3 0-.5.1v2.6h-1.4v-2.3c0-.2 0-.3-.1-.3 0 0-.1-.1-.3-.1h-.1c-.2 0-.3 0-.5.1v2.6h-1.4v-3.8H89l.1.6c.2-.2.4-.4.6-.5.2-.1.5-.2.7-.2.2 0 .4 0 .6.1.2.1.3.1.4.3 0 0 .1.1.1.3.2-.2.4-.4.6-.5.2-.1.4-.1.7-.1.2 0 .4 0 .6.1.2.1.3.1.4.3 0 0 .1.6.1 1.4z"/><path id="XMLID_4780_" class="st1" d="M94.9 77.1c-.3-.3-.5-.8-.5-1.5 0-.4 0-.7.1-1 .1-.3.2-.5.3-.6.1-.1.4-.3.7-.4.3-.1.7-.1.9-.1.7 0 1.2.2 1.5.5.3.3.5.8.5 1.4 0 .7-.2 1.2-.5 1.6-.3.3-.8.5-1.5.5s-1.2-.1-1.5-.4zm1.9-.8c.1-.2.1-.4.1-.8v-.6c0-.1-.1-.3-.2-.3-.1-.1-.2-.1-.3-.1-.2 0-.3 0-.4.1 0 0-.1.2-.1.4v.6c0 .4 0 .6.1.8.1.2.2.2.4.2s.3-.1.4-.3z"/><path id="XMLID_4783_" class="st1" d="M102.4 74c.2.3.3.7.3 1.4 0 .5 0 .9-.1 1.2-.1.3-.2.6-.3.6-.1.1-.4.2-.6.3-.3.1-.6.1-1 .1-.3 0-.6 0-.9-.1-.3 0-.6-.1-.9-.2v-4.8l1.4-.1v1.8c.1-.2.3-.3.5-.5.2-.1.4-.2.7-.2.3.1.7.2.9.5zm-1.1 2.1V75c0-.1-.1-.2-.1-.3-.1-.1-.2-.1-.3-.1-.1 0-.3 0-.5.1v1.9h.6c.2 0 .3 0 .3-.1-.1 0-.1-.1 0-.4z"/><path id="XMLID_4786_" class="st1" d="M103.3 73.6h1.4v3.8h-1.4v-3.8zm.2-.6c-.1-.1-.2-.3-.2-.5s.1-.3.2-.5c.1-.1.3-.2.5-.2s.3.1.5.2c.1.1.2.3.2.5s-.1.3-.2.5c-.1.1-.3.2-.5.2s-.3-.1-.5-.2z"/><path id="XMLID_4789_" class="st1" d="M105.5 72.5l1.4-.1v5h-1.4v-4.9z"/><path id="XMLID_4791_" class="st1" d="M107.6 73.6h1.4v3.8h-1.4v-3.8zm.2-.6c-.1-.1-.2-.3-.2-.5s.1-.3.2-.5c.1-.1.3-.2.5-.2s.3.1.5.2c.1.1.2.3.2.5s-.1.3-.2.5c-.1.1-.3.2-.5.2s-.4-.1-.5-.2z"/><path id="XMLID_4794_" class="st1" d="M111.9 77.4l-.1-.5c-.3.4-.6.6-1.1.6-.4 0-.7-.1-.9-.3-.2-.2-.3-.5-.3-.9 0-.2.1-.4.2-.6.1-.2.3-.3.6-.4.3-.1.8-.1 1.4-.1v-.6h-.7c-.3 0-.6 0-1.1.1 0-.3-.1-.6-.1-1 .3-.1.6-.1.9-.2.3 0 .6-.1.9-.1.4 0 .8.1 1 .2.2.1.4.3.4.6.1.2.1.5.1.9v2.2h-1.2zm-.2-.9v-.6h-.1c-.4 0-.6 0-.7.1 0 0 0 .1-.1.1v.2c0 .1 0 .2.1.3.1 0 .2.1.3.1.2-.1.3-.1.5-.2z"/><path id="XMLID_4797_" class="st1" d="M116.3 73.6c.1 0 .1 0 .2.1v.6c0 .3-.1.5-.1.6h-.3c-.3 0-.7 0-.9.1v2.5h-1.4v-3.8h1.2l.2.6c.2-.2.3-.4.5-.5.2-.1.3-.2.5-.2h.1z"/><path id="XMLID_4799_" class="st1" d="M116.9 73.6h1.4v3.8h-1.4v-3.8zm.2-.6c-.1-.1-.2-.3-.2-.5s.1-.3.2-.5c.1-.1.3-.2.5-.2s.3.1.5.2c.1.1.2.3.2.5s-.1.3-.2.5c-.1.1-.3.2-.5.2s-.4-.1-.5-.2z"/><path id="XMLID_4802_" class="st1" d="M119.3 77.1c-.3-.3-.5-.8-.5-1.5 0-.4 0-.7.1-1 .1-.3.2-.5.3-.6.1-.1.4-.3.7-.4.3-.1.7-.1.9-.1.7 0 1.2.2 1.5.5.3.3.5.8.5 1.4 0 .7-.2 1.2-.5 1.6-.3.3-.8.5-1.5.5s-1.2-.1-1.5-.4zm1.9-.8c.1-.2.1-.4.1-.8v-.6c0-.1-.1-.3-.2-.3-.1-.1-.2-.1-.3-.1-.2 0-.3 0-.4.1 0 0-.1.2-.1.4v.6c0 .4 0 .6.1.8.1.2.2.2.4.2s.4-.1.4-.3z"/></g><g id="XMLID_4805_"><g id="XMLID_4817_"><g id="XMLID_124_"><path id="XMLID_125_" class="st1" d="M74.6 29.8L96 38.3l2.8-1.3-24.2-9.7v2.5zm0-4.3L96 34l2.8-1.3L74.6 23v2.5zm0-4.3L96 29.7l2.8-1.3-24.2-9.7v2.5zm0-4.3L96 25.4l2.8-1.3-24.2-9.7v2.5zm0-4.3L96 21.1l2.8-1.3-24.2-9.7v2.5zm0-4.3L96 16.8l2.8-1.3-24.2-9.7v2.5zm24.1 2.9L74.6 1.5V4L96 12.5l2.7-1.3z"/></g></g><g id="XMLID_4843_"><g id="XMLID_128_"><path id="XMLID_129_" class="st2" d="M50.5 10.9l1.7.4 22.4-8.6V1.5l-24.1 9.4zm1.7 4.7L74.6 7V5.8l-24.1 9.4 1.7.4zm0 4.3l22.4-8.6v-1.2l-24.1 9.4 1.7.4zm0 4.3l22.4-8.6v-1.2l-24.1 9.4 1.7.4zm0 4.3l22.4-8.6v-1.2l-24.1 9.4 1.7.4zm0 4.3l22.4-8.6V23l-24.1 9.4 1.7.4zm0 4.3l22.4-8.6v-1.2l-24.1 9.4 1.7.4z"/></g></g><path id="XMLID_4851_" class="st0" d="M98.7 41.6l-19.5-7.8-3.2-1.3-1.4-.5-24.1 9.4 2.1 1 4.5 2.2 21.2-8.7.5.2-20.4 8.6L63 47l21.1-8.7.5.2L64.2 47l4.6 2.3 21.1-8.7.5.2L70 49.4l4.6 2.2 24.1-9.9z"/></g></g></svg>