<svg id="Capa_1" xmlns="http://www.w3.org/2000/svg" viewBox="0 0 221.6 116"><style>.st0{fill:#5c1dbf}.st1{fill:#fff}</style><g id="XMLID_4862_"><path id="XMLID_4863_" class="st0" d="M121.6 45.5L113.5 33l10.8-16.6c2.9-4.5 10-8.2 15.8-8.2h6.5c5.8 0 8.1 3.7 5.2 8.2l-22.1 34.1 2.5 3.8 33.1-51.1h-37.4l-16.9 26-2.5 3.8-13.7 21.2-24.6-37.8c-2.9-4.5-.6-8.2 5.2-8.2h6.5c5.8 0 12.9 3.7 15.8 8.2l8.3 12.8 2.5-3.8L93.9 3.2H56.5l33.4 51.1 9.1 14 9.6 14.8-10.8 16.6c-2.9 4.5-10 8.2-15.8 8.2h-6.5c-5.8 0-8.1-3.7-5.2-8.2l22.1-34-2.5-3.8-33.9 52h37.4l17-26 3.1-4.8 13.8-21.2 24.5 37.8c2.9 4.5.6 8.2-5.2 8.2h-6.5c-5.8 0-12.9-3.7-15.8-8.2L116 86.9l-2.5 3.8 14.7 23.2h37.4L129.7 58l-8.1-12.5zM111 79.2L97.3 58 111 36.8 124.8 58 111 79.2z"/></g><g id="XMLID_4866_"><g id="XMLID_4867_"><g id="XMLID_4868_"><path id="XMLID_4869_" class="st1" d="M35 53.7l.6-1.5c0-.1.1-.1.1-.1h3c.1 0 .1 0 .1.1l.5 1.3.6 1.6.1.3h1.2l-.7-1.9c-.9-2.2-2.8-6.8-3-7.3-.1-.3-.2-.5-.3-.5-.1 0-.1.1-.3.5l-2.8 7.3-.7 1.9h.8l.8-1.7zm.8-2.3l1.2-3.5c.1-.2.1-.2.2 0l1.3 3.5v.1l-2.7-.1c0 .1 0 .1 0 0z"/><path id="XMLID_4872_" class="st1" d="M182.5 46v9.4h1.2V46"/><path id="XMLID_4873_" class="st1" d="M208 53.7l.6-1.5c0-.1.1-.1.1-.1h3c.1 0 .1 0 .1.1l.5 1.3.6 1.6.1.3h1.2l-.7-1.9c-.9-2.2-2.8-6.8-3-7.3-.1-.3-.2-.5-.3-.5-.1 0-.1.1-.3.5l-2.8 7.3-.7 1.9h.8l.8-1.7zm.9-2.3l1.2-3.5c.1-.2.1-.2.2 0l1.3 3.5v.1l-2.7-.1c0 .1 0 .1 0 0z"/><path id="XMLID_4876_" class="st1" d="M127.8 55.1c-1.1 0-1.3-.2-1.3-1v-3.4h2.5v-.5h-2.4c-.1 0-.1 0-.1-.1v-3.5h2.5V46h-3.7v9.4h3.7v-.3h-1.2z"/><g id="XMLID_4877_"><path id="XMLID_4878_" class="st1" d="M158.7 54.4c-.8-.8-1.7-1.9-2.8-3.3 1.2-1 1.6-2 1.6-2.9 0-.9-.6-1.5-.9-1.7-.5-.4-1.2-.5-1.9-.5h-.9v.4h.2c1.4 0 2.3.9 2.3 2.5 0 1-.3 1.6-.8 1.9-.3.2-.7.2-1 .2H153v.5h1.8c.1 0 .1 0 .2.1.3.3.9 1.2 1.4 1.9.7 1 1.2 1.6 1.8 1.9 0 0 .1 0 .1.1h1.3c0-.2-.8-1-.9-1.1z"/><path id="XMLID_4879_" class="st1" d="M151.9 46h1.1v9.4h-1.1z"/><path id="XMLID_4880_" class="st1" d="M153 46h1v.4h-1z"/></g><path id="XMLID_4881_" class="st1" d="M72.3 55.6c.1 0 .1 0 .1-.3h-.6c.3.3.4.3.5.3z"/><path id="XMLID_4882_" class="st1" d="M71.7 46v7.8c-.4-.4-1.8-1.9-3.1-3.3-2-2.1-4-4.1-4.2-4.3-.1-.1-.4-.4-.5-.4-.1 0-.2.1-.2.6v9h.7v-7.6c.4.4 1.9 2 3.4 3.6 1.4 1.5 3.3 3.3 3.4 3.4l.5.5h.6V46h-.6z"/><path id="XMLID_4883_" class="st1" d="M98 46h1.2v9.4H98z"/><path id="XMLID_4884_" class="st1" d="M94.6 50.4h7.8v.6h-7.8z"/><path id="XMLID_4885_" class="st1" d="M185.6 43.8l-2.5-1.1-2.5 1.1.3.5 2.2-1 2.3 1z"/><path id="XMLID_4886_" class="st1" d="M10.1 54c-.2-.3-.5-.8-.8-1.2-.7-1.1-1.4-2.3-1.5-2.5l1.5-2.2 1.4-2.1h-.8l-1.2 1.9c-.5.7-1 1.6-1.2 1.9-.5-.7-.8-1.3-1.2-1.8l-.1-.2c-.1-.2-.3-.5-.4-.7L5.2 46H3.9l1.2 2 1.6 2.6-1.3 2.1-1 1.6c-.1.1-.1.2-.2.2l-.6.9h.9L5.9 53 7 51.1l1.5 2.4 1.1 1.8H11l-.9-1.3z"/></g><g id="XMLID_4887_"><g id="XMLID_4888_"><path id="XMLID_4889_" class="st1" d="M65 74.4c-.4 0-.7-.1-.9-.4-.3-.3-.3-.7-.3-1.5s0-1.1.3-1.5c.2-.2.6-.4.9-.4.7 0 1.1.4 1.3 1.1h-.4c-.2-.4-.5-.7-.9-.7-.2 0-.5.1-.6.3-.2.2-.3.5-.3 1.2s0 1 .3 1.2c.2.2.4.3.6.3.5 0 .8-.3.9-.7h.4c-.2.7-.7 1.1-1.3 1.1z"/><path id="XMLID_4891_" class="st1" d="M77.1 74c-.2.2-.6.4-.9.4-.4 0-.7-.1-.9-.4-.3-.3-.3-.7-.3-1.5s0-1.1.3-1.5c.2-.2.6-.4.9-.4.4 0 .7.1.9.4.3.3.3.7.3 1.5.1.8.1 1.2-.3 1.5zm-.3-2.7c-.2-.2-.4-.3-.6-.3-.2 0-.5.1-.6.3-.2.2-.3.5-.3 1.2s0 1 .3 1.2c.2.2.4.3.6.3.2 0 .5-.1.6-.3.2-.2.3-.5.3-1.2s-.1-1-.3-1.2z"/><path id="XMLID_4894_" class="st1" d="M87.3 74.4c-.5 0-.9-.1-1.2-.5l.3-.3c.3.3.6.4 1 .4.5 0 .9-.3.9-.7 0-.2-.1-.4-.2-.5-.1-.1-.2-.1-.5-.2l-.4-.1c-.3 0-.5-.1-.7-.3-.2-.2-.3-.4-.3-.7 0-.6.4-1 1.2-1 .5 0 .8.1 1.1.4l-.3.3c-.2-.2-.5-.3-.8-.3-.5 0-.8.3-.8.7 0 .2.1.3.2.4.1.1.3.2.5.2l.4.1c.3.1.5.1.7.3.2.2.3.4.3.7-.2.7-.7 1.1-1.4 1.1z"/><path id="XMLID_4896_" class="st1" d="M100 74.4v-2.8l-1 2.2h-.3l-1-2.2v2.8h-.4v-3.6h.4l1.2 2.6 1.2-2.6h.4v3.6h-.5z"/><path id="XMLID_4898_" class="st1" d="M109.4 74.4v-3.6h2.3v.3h-1.9v1.3h1.6v.3h-1.6V74h1.9v.3h-2.3z"/><path id="XMLID_4900_" class="st1" d="M121.5 71.1v3.3h-.4v-3.3H120v-.3h2.5v.3h-1z"/><path id="XMLID_4902_" class="st1" d="M131.2 74.4v-3.6h.4v3.6h-.4z"/><path id="XMLID_4904_" class="st1" d="M141.8 74.4c-.4 0-.7-.1-.9-.4-.3-.3-.3-.7-.3-1.5s0-1.1.3-1.5c.2-.2.6-.4.9-.4.7 0 1.1.4 1.3 1.1h-.4c-.1-.4-.4-.7-.9-.7-.2 0-.5.1-.6.3-.2.2-.3.5-.3 1.2s0 1 .3 1.2c.2.2.4.3.6.3.5 0 .8-.3.9-.7h.4c-.2.7-.7 1.1-1.3 1.1z"/><path id="XMLID_4906_" class="st1" d="M153.9 74.4l-.3-.8H152l-.3.8h-.4l1.3-3.6h.3l1.3 3.6h-.3zm-1.1-3.1l-.7 1.9h1.4l-.7-1.9z"/></g><path id="XMLID_4909_" class="st1" d="M111.5 69.5l-.9-.6-1 .6.2.3.8-.5.7.5z"/></g></g><g id="XMLID_4910_"><path id="XMLID_4911_" class="st1" d="M216.1 47.5v-1.4l-.5 1.1h-.2l-.5-1.1v1.4h-.2v-1.8h.2l.6 1.3.6-1.3h.2v1.8h-.2z"/><path id="XMLID_4913_" class="st1" d="M217.9 47.5l-.4-.8h-.5v.8h-.2v-1.8h.7c.3 0 .5.2.5.5s-.2.4-.4.5l.4.8h-.1zm-.4-1.6h-.5v.7h.5c.2 0 .4-.1.4-.3 0-.3-.2-.4-.4-.4z"/></g></g></svg>