<svg id="Capa_1" xmlns="http://www.w3.org/2000/svg" viewBox="0 0 132.2 115.7"><style>.st0{fill:#fff}.st1{fill:#211915}</style><g id="XMLID_20_"><g id="XMLID_341_"><path id="XMLID_17200_" class="st0" d="M28.1 69.6l-5.3-13.2h4.4l2.2 6.8c.2.6.3 1.1.4 1.5.1.5.2.9.2 1.4.1-.7.2-1.3.3-1.8.1-.5.2-.9.4-1.3l2.2-6.7h4.3l-5.4 13.2h-3.7z"/><path id="XMLID_17197_" class="st0" d="M51.8 64h-9.9c.2.9.5 1.7 1 2.1.5.5 1.3.7 2.2.7.7 0 1.3-.1 1.8-.4.5-.3.9-.7 1.3-1.2l3.1 1.5c-.7 1.2-1.6 2-2.6 2.6-1 .6-2.2.8-3.6.8-2.1 0-3.8-.6-5.1-1.9-1.2-1.3-1.9-3-1.9-5.1 0-2.1.7-3.8 2-5.1 1.3-1.3 3-2 5-2 2.1 0 3.7.6 5 1.9 1.2 1.2 1.8 2.9 1.8 5.1v.4c0 .1 0 .3-.1.6zM48 61.6c-.1-.8-.4-1.5-.9-1.9-.5-.4-1.2-.6-2-.6-.9 0-1.5.2-2.1.6-.5.4-.8 1.1-1 1.9h6z"/><path id="XMLID_17195_" class="st0" d="M54.7 69.6V56.4h3.7v2.1c.7-.9 1.4-1.5 2.2-1.9.8-.4 1.7-.6 2.6-.6 1 0 1.9.2 2.6.5.7.3 1.2.9 1.6 1.6.2.4.3.8.4 1.2.1.5.1 1.2.1 2.2v8.1h-3.8v-6.5c0-1.6-.2-2.7-.6-3.2-.4-.5-1-.8-1.9-.8-.5 0-1 .1-1.5.3-.4.2-.8.5-1.1.9-.2.3-.4.7-.5 1.1-.1.4-.2 1-.2 1.8v6.3h-3.6z"/><path id="XMLID_17193_" class="st0" d="M72.2 69.6V59.4h-1.8v-3h1.8V52H76v4.4h1.8v3H76v10.2h-3.8z"/><path id="XMLID_17190_" class="st0" d="M93.4 69.6h-3.7l.1-1.9c-.5.8-1.1 1.4-1.9 1.8-.7.4-1.6.6-2.7.6-1.7 0-3.1-.6-4.2-1.9-1.1-1.3-1.6-3-1.6-5.1 0-2.2.5-3.9 1.6-5.2 1.1-1.2 2.5-1.9 4.4-1.9 1 0 1.8.2 2.6.7.7.4 1.4 1.1 1.9 2v-2.2h3.6v13.1zM89.9 63c0-1.2-.3-2.1-.9-2.8-.6-.7-1.4-1-2.4-1s-1.9.3-2.4 1c-.6.7-.9 1.6-.9 2.8 0 1.2.3 2.1.9 2.8.6.7 1.4 1 2.4 1 1.1 0 1.9-.3 2.5-1 .5-.7.8-1.6.8-2.8z"/><path id="XMLID_17188_" class="st1" d="M100.2 68.6l-5.3-12.1h4.4l2.3 6c.2.4.3.8.4 1.3.1.5.2 1 .2 1.6l.3-1.5c.1-.5.3-1 .5-1.6l2-5.9h4.4l-7.8 19.1h-4.2l2.8-6.9z"/></g><g id="XMLID_4_"><path id="XMLID_17166_" class="st1" d="M4.8 111.5v-5.8h.9v5h2.1v.8h-3z"/><path id="XMLID_17163_" class="st1" d="M12.1 111.5h-.9v-.5c-.2.2-.3.4-.5.5-.2.1-.4.2-.7.2-.5 0-.9-.2-1.3-.5-.3-.4-.5-.9-.5-1.5s.2-1.1.5-1.5c.3-.4.7-.6 1.2-.6.3 0 .6.1.8.2.2.1.4.3.5.6v-.6h.9v3.7zm-.8-1.9c0-.4-.1-.7-.3-.9-.2-.2-.4-.3-.8-.3-.3 0-.6.1-.8.3-.2.2-.3.5-.3.9s.1.7.3.9c.2.2.4.3.8.3.3 0 .6-.1.8-.4.2-.1.3-.4.3-.8z"/><path id="XMLID_17161_" class="st1" d="M16.6 108.4c.1-.2.2-.4.4-.6.2-.1.3-.2.6-.2h.4c.1 0 .2.1.3.1l-.3.7c-.1-.1-.2-.1-.2-.1h-.3c-.3 0-.5.1-.6.3-.1.2-.2.6-.2 1.2v1.6h-.9v-3.8h.9v.8z"/><path id="XMLID_17158_" class="st1" d="M22.3 109.8h-3c0 .4.1.6.3.8.2.2.4.3.7.3.3 0 .5-.1.7-.2.2-.1.3-.3.5-.6l.7.4c-.2.4-.5.7-.8.8-.3.2-.7.3-1.1.3-.6 0-1.1-.2-1.4-.6-.4-.4-.5-.9-.5-1.5s.2-1.1.6-1.5c.4-.4.8-.6 1.4-.6.6 0 1.1.2 1.4.5.3.3.5.8.5 1.5v.4zm-.9-.6c0-.3-.1-.5-.3-.6-.2-.1-.4-.2-.7-.2-.3 0-.5.1-.7.2-.2.1-.3.3-.4.6h2.1z"/><path id="XMLID_17155_" class="st1" d="M25.9 105.4h.9v6.1h-.9v-.5c-.2.2-.3.4-.5.5-.2.1-.4.2-.7.2-.5 0-.9-.2-1.3-.5-.3-.4-.5-.9-.5-1.5s.2-1.1.5-1.5c.3-.4.7-.6 1.2-.6.3 0 .6.1.8.2.2.1.4.3.5.6v-3zm0 4.2c0-.4-.1-.7-.3-.9-.2-.2-.4-.3-.8-.3-.3 0-.6.1-.8.3-.2.2-.3.5-.3.9s.1.7.3.9c.2.2.4.3.8.3.3 0 .6-.1.8-.4.2-.1.3-.4.3-.8z"/><path id="XMLID_17152_" class="st1" d="M30.3 106.1c0-.1.1-.3.2-.4.1-.1.2-.2.4-.2s.3.1.4.2.2.2.2.4-.1.3-.2.4c-.1.1-.2.2-.4.2-.1 0-.3-.1-.4-.2-.1-.1-.2-.2-.2-.4zm.1 5.4v-3.8h.9v3.8h-.9z"/><path id="XMLID_17150_" class="st1" d="M32.5 111.5v-3.8h.8v.6c.2-.3.4-.4.6-.6.2-.1.5-.2.8-.2.3 0 .5 0 .7.1.2.1.4.2.5.4.1.1.1.2.1.4v3h-.9v-1.9c0-.5-.1-.8-.2-1-.1-.2-.3-.2-.6-.2-.2 0-.4 0-.5.1-.2.1-.3.2-.4.3-.1.1-.1.2-.1.3v2.4h-.8z"/><path id="XMLID_17148_" class="st1" d="M38.1 111.5h-.9v-3.8h.8v.6c.2-.3.4-.5.6-.6.2-.1.5-.2.8-.2.3 0 .5.1.7.2.2.1.3.3.4.6.2-.3.4-.4.6-.6.2-.1.5-.2.8-.2.2 0 .5 0 .6.1.2.1.3.2.4.4 0 .1.1.2.1.3v3.1h-.9v-1.9c0-.5-.1-.8-.2-1-.1-.2-.3-.2-.6-.2s-.6.1-.7.3c-.1.2-.2.6-.2 1.1v1.7h-.9v-1.9c0-.5-.1-.8-.2-1-.1-.2-.3-.3-.6-.3-.2 0-.3 0-.5.1-.1.1-.3.2-.3.3-.1.1-.1.2-.1.3v2.6z"/><path id="XMLID_17145_" class="st1" d="M44.1 109.7c0-.3.1-.5.2-.8.1-.2.3-.5.4-.7.2-.2.4-.3.7-.4.3-.1.5-.2.8-.2.3 0 .5.1.8.2.2.1.5.2.7.4.2.2.3.4.5.7.1.2.2.5.2.8 0 .3-.1.5-.2.8-.1.2-.3.5-.4.6-.2.2-.4.3-.7.4-.3.1-.5.2-.8.2-.3 0-.5-.1-.8-.2-.3-.1-.5-.2-.7-.4-.2-.2-.3-.4-.5-.7-.2-.2-.2-.5-.2-.7zm3.2 0c0-.3-.1-.6-.3-.9-.2-.2-.5-.4-.8-.4-.3 0-.6.1-.8.4-.2.2-.3.5-.3.9 0 .3.1.6.3.9.2.2.5.4.8.4.3 0 .6-.1.8-.4.2-.3.3-.6.3-.9z"/><path id="XMLID_17142_" class="st1" d="M50 105.4v3c.1-.2.3-.4.5-.6.2-.1.5-.2.8-.2.5 0 .9.2 1.2.6.3.4.5.9.5 1.5s-.2 1.1-.5 1.5c-.3.4-.7.5-1.3.5-.3 0-.5-.1-.7-.2-.2-.1-.4-.3-.5-.5v.5h-.9v-6.1h.9zm0 4.2c0 .4.1.7.3.9.2.2.5.4.8.4.3 0 .6-.1.8-.3.2-.2.3-.5.3-.9s-.1-.7-.3-.9c-.2-.2-.4-.3-.8-.3-.3 0-.6.1-.8.3-.2.1-.3.4-.3.8z"/><path id="XMLID_17139_" class="st1" d="M53.8 106.1c0-.1.1-.3.2-.4.1-.1.2-.2.4-.2s.3.1.4.2c.1.1.2.2.2.4s-.1.3-.2.4c-.1.1-.2.2-.4.2-.1 0-.3-.1-.4-.2-.2-.1-.2-.2-.2-.4zm.1 5.4v-3.8h.9v3.8h-.9z"/><path id="XMLID_17137_" class="st1" d="M56 111.5v-6.1h.9v6.1H56z"/><path id="XMLID_17134_" class="st1" d="M58 106.1c0-.1.1-.3.2-.4.1-.1.2-.2.4-.2s.3.1.4.2c.1.1.2.2.2.4s-.1.3-.2.4c-.1.1-.2.2-.4.2-.1 0-.3-.1-.4-.2-.1-.1-.2-.2-.2-.4zm.1 5.4v-3.8h.9v3.8h-.9z"/><path id="XMLID_17131_" class="st1" d="M63.8 111.5h-.9v-.5c-.2.2-.3.4-.5.5-.2.1-.4.2-.7.2-.5 0-.9-.2-1.3-.5-.3-.4-.5-.9-.5-1.5s.2-1.1.5-1.5c.3-.4.7-.6 1.2-.6.3 0 .6.1.8.2.2.1.4.3.5.6v-.6h.9v3.7zm-.9-1.9c0-.4-.1-.7-.3-.9-.2-.2-.4-.3-.8-.3-.3 0-.6.1-.8.3-.2.2-.3.5-.3.9s.1.7.3.9c.2.2.4.3.8.3.3 0 .6-.1.8-.4.2-.1.3-.4.3-.8z"/><path id="XMLID_17129_" class="st1" d="M65.8 108.4c.1-.2.2-.4.4-.6.2-.1.3-.2.6-.2h.4c.1 0 .2.1.3.1l-.3.7c-.1-.1-.2-.1-.2-.1h-.3c-.3 0-.5.1-.6.3-.1.2-.2.6-.2 1.2v1.6H65v-3.8h.9v.8z"/><path id="XMLID_17126_" class="st1" d="M67.9 106.1c0-.1.1-.3.2-.4.1-.1.2-.2.4-.2s.3.1.4.2.2.2.2.4-.1.3-.2.4c-.1.1-.2.2-.4.2-.1 0-.3-.1-.4-.2-.2-.1-.2-.2-.2-.4zm.1 5.4v-3.8h.9v3.8H68z"/><path id="XMLID_17123_" class="st1" d="M73.6 111.5h-.9v-.5c-.2.2-.3.4-.5.5-.2.1-.4.2-.7.2-.5 0-.9-.2-1.3-.5-.3-.4-.5-.9-.5-1.5s.2-1.1.5-1.5c.3-.4.7-.6 1.2-.6.3 0 .6.1.8.2.2.1.4.3.5.6v-.6h.9v3.7zm-.8-1.9c0-.4-.1-.7-.3-.9-.2-.2-.4-.3-.8-.3-.3 0-.6.1-.8.3-.2.2-.3.5-.3.9s.1.7.3.9c.2.2.4.3.8.3.3 0 .6-.1.8-.4.2-.1.3-.4.3-.8z"/><path id="XMLID_17120_" class="st1" d="M79.5 105.7h.8l-.6 1.7h1l.6-1.7h.8l-.6 1.7h1.2l-.2.7h-1.2l-.4 1h1.2l-.2.7h-1.2l-.6 1.7h-.8l.6-1.7h-1l-.6 1.7h-.8l.6-1.7h-1.2l.2-.7h1.2l.4-1h-1.2l.2-.7H79l.5-1.7zm-.1 2.5l-.4 1h1l.4-1h-1z"/><path id="XMLID_17118_" class="st1" d="M85 111.5v-5h-1.2l.4-.7h1.7v5.7H85z"/><path id="XMLID_17115_" class="st1" d="M93.5 105.4h.9v6.1h-.9v-.5c-.2.2-.3.4-.5.5-.2.1-.4.2-.7.2-.5 0-.9-.2-1.3-.5-.3-.4-.5-.9-.5-1.5s.2-1.1.5-1.5c.3-.4.7-.6 1.2-.6.3 0 .6.1.8.2.2.1.4.3.5.6v-3zm0 4.2c0-.4-.1-.7-.3-.9-.2-.2-.4-.3-.8-.3-.3 0-.6.1-.8.3-.2.2-.3.5-.3.9s.1.7.3.9c.2.2.4.3.8.3.3 0 .6-.1.8-.4.2-.1.3-.4.3-.8z"/><path id="XMLID_17112_" class="st1" d="M99.1 109.8h-3c0 .4.1.6.3.8.2.2.4.3.7.3.3 0 .5-.1.7-.2.2-.1.3-.3.5-.6l.7.4c-.2.4-.5.7-.8.8-.3.2-.7.3-1.1.3-.6 0-1.1-.2-1.4-.6-.4-.4-.5-.9-.5-1.5s.2-1.1.6-1.5c.4-.4.8-.6 1.4-.6.6 0 1.1.2 1.4.5.3.3.5.8.5 1.5v.4zm-.8-.6c0-.3-.1-.5-.3-.6-.2-.1-.4-.2-.7-.2-.3 0-.5.1-.7.2-.2.1-.3.3-.4.6h2.1z"/><path id="XMLID_17110_" class="st1" d="M107.3 108.7s0-.2-.1-.4c0-.2 0-.3-.1-.4 0 .1-.1.3-.1.4 0 .1-.1.3-.2.4l-1.5 3.1-1.5-3.2c-.1-.1-.1-.3-.2-.4 0-.1-.1-.2-.1-.4v.4c0 .1 0 .3-.1.4l-.6 2.9h-.8l1.4-6 1.7 3.7c0 .1.1.2.1.3.1.1.1.3.2.5.1-.2.1-.4.3-.6 0-.1.1-.1.1-.2l1.7-3.7 1.4 6h-.9l-.7-2.8z"/><path id="XMLID_7576_" class="st1" d="M113.1 109.8h-3c0 .4.1.6.3.8.2.2.4.3.7.3.3 0 .5-.1.7-.2.2-.1.3-.3.5-.6l.7.4c-.2.4-.5.7-.8.8-.3.2-.7.3-1.1.3-.6 0-1.1-.2-1.4-.6-.4-.4-.5-.9-.5-1.5s.2-1.1.6-1.5c.4-.4.8-.6 1.4-.6.6 0 1.1.2 1.4.5.3.3.5.8.5 1.5v.4zm-.9-.6c0-.3-.1-.5-.3-.6-.2-.1-.4-.2-.7-.2-.3 0-.5.1-.7.2-.2.1-.3.3-.4.6h2.1zm-1.6-2l.8-1.1h.9l-1.2 1.1h-.5z"/><path id="XMLID_4279_" class="st1" d="M114.2 111.5h-.9l1.4-2-1.2-1.7h.9l.5.8c.1.1.1.2.1.2 0 .1.1.1.1.2 0-.1.1-.1.1-.2s.1-.2.2-.3l.5-.8h.9l-1.2 1.7 1.4 2h-.9l-.7-1c-.1-.2-.2-.4-.3-.5-.1.1-.1.2-.2.3 0 .1-.1.2-.1.2l-.6 1.1z"/><path id="XMLID_1494_" class="st1" d="M117.6 106.1c0-.1.1-.3.2-.4.1-.1.2-.2.4-.2s.3.1.4.2.2.2.2.4-.1.3-.2.4c-.1.1-.2.2-.4.2-.1 0-.3-.1-.4-.2-.2-.1-.2-.2-.2-.4zm.1 5.4v-3.8h.9v3.8h-.9z"/><path id="XMLID_1491_" class="st1" d="M122.6 108.8c-.1-.1-.3-.3-.5-.3-.2-.1-.4-.1-.6-.1-.4 0-.6.1-.8.3-.2.2-.3.5-.3.9s.1.7.3.9c.2.2.5.3.9.3.2 0 .4 0 .6-.1.2-.1.3-.2.4-.4v1c-.2.1-.3.2-.5.2s-.4.1-.6.1c-.6 0-1.1-.2-1.4-.6-.4-.4-.6-.9-.6-1.5s.2-1.1.6-1.5c.4-.4.9-.6 1.5-.6.2 0 .4 0 .5.1.2 0 .3.1.5.2v1.1z"/><path id="XMLID_374_" class="st1" d="M123.2 109.7c0-.3.1-.5.2-.8.1-.2.3-.5.4-.7.2-.2.4-.3.7-.4.3-.1.5-.2.8-.2.3 0 .5.1.8.2.2.1.5.2.7.4.2.2.3.4.5.7.1.2.2.5.2.8 0 .3-.1.5-.2.8-.1.2-.2.5-.4.6-.2.2-.4.3-.7.4-.3.1-.5.2-.8.2-.3 0-.5-.1-.8-.2-.3-.1-.5-.2-.7-.4-.2-.2-.3-.4-.5-.7-.2-.2-.2-.5-.2-.7zm3.2 0c0-.3-.1-.6-.3-.9-.2-.2-.5-.4-.8-.4-.3 0-.6.1-.8.4-.2.2-.3.5-.3.9 0 .3.1.6.3.9.2.2.5.4.8.4.3 0 .6-.1.8-.4.2-.3.3-.6.3-.9z"/></g><path id="XMLID_5_" class="st1" d="M80.6 12.6L66.1 3.9l-14.8 9.2.1 25.7 10-8.9 19.5.1-.3-17.4zM60.8 27.3l-7 6.3.1-19 12.2-7.4L77.7 14l.1 13.2-17 .1z"/><g id="XMLID_1_"><path id="XMLID_17186_" class="st0" d="M6.2 81.1c.4-1.3.9-2.2 1.7-2.9.7-.6 1.6-1 2.7-1 .2 0 .6 0 1.2.1h.2l-.6 4.1-.9-.3c-.3-.1-.6-.1-.9-.1-1.2 0-2 .3-2.5.9-.5.6-.8 1.6-.8 3v5.8H2.5v-13h3.8l-.1 3.4z"/><path id="XMLID_17183_" class="st0" d="M26.5 85.2h-9.9c.2.9.5 1.7 1 2.1.5.5 1.3.7 2.2.7.7 0 1.3-.1 1.8-.4.5-.3.9-.7 1.3-1.2L26 88c-.7 1.2-1.6 2-2.6 2.6-1 .6-2.2.8-3.6.8-2.1 0-3.8-.6-5.1-1.9-1.2-1.3-1.9-3-1.9-5.1 0-2.1.7-3.8 2-5.1 1.3-1.3 3-2 5-2 2.1 0 3.7.6 5 1.9 1.2 1.2 1.8 2.9 1.8 5.1v.4c0 .1 0 .3-.1.5zm-3.7-2.3c-.1-.8-.4-1.5-.9-1.9-.5-.4-1.2-.6-2-.6-.9 0-1.5.2-2.1.6-.5.4-.8 1.1-1 1.9h6z"/><path id="XMLID_17181_" class="st0" d="M29.4 90.9V77.7h3.7v2.1c.7-.9 1.4-1.5 2.2-1.9.8-.4 1.7-.6 2.6-.6 1 0 1.9.2 2.6.5.7.3 1.2.9 1.6 1.6.2.4.3.8.4 1.2.1.5.1 1.2.1 2.2v8.1H39v-6.5c0-1.6-.2-2.7-.6-3.2-.4-.5-1-.8-1.9-.8-.5 0-1 .1-1.5.3-.4.2-.8.5-1.1.9-.2.3-.4.7-.5 1.1-.1.4-.2 1-.2 1.8v6.3h-3.8z"/><path id="XMLID_17179_" class="st0" d="M46.9 90.9V80.7H45v-3h1.8v-4.4h3.8v4.4h1.8v3h-1.8v10.2h-3.7z"/><path id="XMLID_17176_" class="st0" d="M68.1 90.9h-3.7l.1-1.9c-.5.8-1.1 1.4-1.9 1.8-.7.4-1.6.6-2.7.6-1.7 0-3.1-.6-4.2-1.9-1.1-1.3-1.6-3-1.6-5.1 0-2.2.5-3.9 1.6-5.2 1.1-1.2 2.5-1.9 4.4-1.9 1 0 1.8.2 2.6.7.7.4 1.4 1.1 1.9 2v-2.2h3.6v13.1zm-3.5-6.6c0-1.2-.3-2.1-.9-2.8-.6-.7-1.4-1-2.4-1s-1.9.3-2.4 1c-.6.7-.9 1.6-.9 2.8 0 1.2.3 2.1.9 2.8.6.7 1.4 1 2.4 1 1.1 0 1.9-.3 2.5-1 .5-.7.8-1.6.8-2.8z"/><path id="XMLID_17174_" class="st0" d="M70.4 88.6l2.9-1.5c.1.5.4.9.8 1.2.4.3 1 .4 1.6.4.6 0 1.1-.1 1.5-.3.4-.2.5-.5.5-.9 0-.6-.6-1.2-1.9-1.6-.4-.1-.7-.2-.9-.3-1.5-.6-2.6-1.2-3.2-1.8-.6-.6-.9-1.3-.9-2.2 0-1.3.5-2.3 1.5-3.1 1-.8 2.3-1.2 4-1.2 1.2 0 2.2.2 3.1.7.9.5 1.5 1.1 1.9 2l-2.8 1.4c-.2-.5-.4-.9-.8-1.1-.4-.3-.8-.4-1.4-.4-.6 0-1 .1-1.4.3-.3.2-.5.5-.5.9 0 .7.9 1.3 2.6 1.8.2.1.4.1.5.1 1.4.5 2.5 1 3.1 1.7.6.6.9 1.4.9 2.4 0 1.3-.5 2.3-1.5 3.1-1 .8-2.4 1.2-4.1 1.2-1.4 0-2.5-.3-3.5-.8-1.1-.5-1.7-1.2-2-2z"/><path id="XMLID_17170_" class="st1" d="M96.4 90.9h-3.8V77.7h3.8v2.1c.6-.9 1.3-1.5 2-1.9.7-.4 1.5-.6 2.4-.6 1.1 0 2 .2 2.7.7.7.4 1.2 1.1 1.5 2 .6-.9 1.3-1.6 2.1-2 .8-.5 1.6-.7 2.5-.7.9 0 1.7.2 2.4.5.6.3 1.2.9 1.5 1.5.2.4.3.8.4 1.3.1.5.1 1.2.1 2.2v8.1h-3.8v-6.5c0-1.6-.2-2.7-.5-3.2s-.9-.8-1.7-.8c-1 0-1.7.4-2.1 1.1-.4.7-.7 1.9-.7 3.6v5.8h-3.8v-6.5c0-1.5-.2-2.6-.5-3.1s-.8-.8-1.6-.8c-1 0-1.7.4-2.2 1.1-.5.7-.7 1.9-.7 3.6v5.7z"/><path id="XMLID_17168_" class="st1" d="M120 90.9h-4.5l4.7-6.7-4.4-6.5h4.8l1.3 2.4c.2.3.3.6.4 1 .1.3.2.7.4 1 .1-.3.2-.7.4-1 .1-.3.3-.7.5-1l1.4-2.4h4.5l-4.5 6.4 4.7 6.8H125l-1.5-2.7c-.2-.3-.3-.7-.5-1-.1-.3-.3-.7-.3-1-.1.3-.2.7-.3 1-.1.3-.3.7-.6 1l-1.8 2.7z"/><g id="XMLID_342_"><path id="XMLID_351_" d="M83.4 88.1H87v3.2h-3.6v-3.2z"/></g></g></g></svg>