<svg id="Capa_1" xmlns="http://www.w3.org/2000/svg" viewBox="0 0 115.1 115"><style>.st0{fill:#1c2735}.st1{fill:#fff}</style><g id="XMLID_2766_"><g id="XMLID_2767_"><path id="XMLID_2768_" class="st0" d="M0 0h115.1v115H0z"/></g><g id="XMLID_2769_"><path id="XMLID_2770_" class="st1" d="M50 40.1v10.2h-1.9v-11c.7.3 1.3.6 1.9.8zm-5.3-2.6v12.8h1.9V38.6c-.7-.3-1.3-.7-1.9-1.1zm6.9 3v9.8h1.9v-9.4c-.7-.1-1.3-.2-1.9-.4zm3.4.7v9.2h1.9v-9c-.6-.1-1.3-.2-1.9-.2zM37.8 30.3v20h1.9V33.1c-.7-.9-1.3-1.8-1.9-2.8zm3.5 4.5v15.5h1.9V36.4c-.7-.5-1.3-1-1.9-1.6zm30.9 1.6v13.9h1.9V34.8c-.6.6-1.2 1.1-1.9 1.6zm3.4-3.3v17.2h1.9v-20c-.5 1-1.1 1.9-1.9 2.8zm-6.8 5.5v11.7h1.9V37.5c-.6.4-1.3.8-1.9 1.1zm-6.9 2.3v9.4h1.9v-9.8c-.6.2-1.3.3-1.9.4zm3.4-.8v10.2h1.9v-11c-.6.3-1.2.6-1.9.8zm-6.8 1.2v9h1.9v-9.2c-.7.1-1.3.2-1.9.2zm10.3 15.2v-5.4H67v5c.6.1 1.2.2 1.8.4zm-3.4-.7v-4.7h-1.9v4.5c.6 0 1.3.1 1.9.2zm10.3 3v-7.7h-1.9V58c.7.2 1.3.5 1.9.8zm3.5 1.7v-9.4h-1.9v8.4c.6.3 1.3.6 1.9 1zm-6.9-3v-6.4h-1.9v5.8c.6.2 1.3.4 1.9.6zm-14.7-2.3h.9v-4.1h-1.9v4.1h1zm4.4.2v-4.3h-1.9v4.2c.6 0 1.2 0 1.9.1zm-17.3 1.5v-5.8h-1.9v6.4c.6-.2 1.3-.4 1.9-.6zM41.3 58v-6.9h-1.9v7.7c.6-.3 1.2-.6 1.9-.8zm-3.5 1.5v-8.4h-1.9v9.4c.6-.4 1.3-.7 1.9-1zm10.4-3.4v-5h-1.9v5.4c.6-.2 1.2-.3 1.9-.4zm3.4-.6V51h-1.9v4.7c.6 0 1.3-.1 1.9-.2zm3.5-.2v-4.2h-1.9v4.3c.6-.1 1.2-.1 1.9-.1z"/><g id="XMLID_2798_"><path id="XMLID_2799_" class="st1" d="M34.7 63.7l5.1 12.8h-2.2l-.6-1.6h-4.9l-.6 1.5h-1.9l5.1-12.7zM32.8 73h3.5l-1.7-4.5-1.8 4.5z"/><path id="XMLID_2802_" class="st1" d="M80.5 63.7l5.1 12.8h-2.2l-.6-1.5h-4.9l-.6 1.5h-1.9l5.1-12.8zM78.7 73h3.5l-1.7-4.5-1.8 4.5z"/><path id="XMLID_2805_" class="st1" d="M42.4 63.7h2.4v10.7h4.8v2.2h-7.2V63.7z"/><path id="XMLID_2807_" class="st1" d="M52.3 63.7h4.4c2.7 0 4.6 2 4.6 4.6 0 2.5-2 4.6-4.6 4.6h-1.9v3.7h-2.4V63.7zm2.4 2.2v4.6h1.8c1.4 0 2.3-1 2.3-2.3 0-1.3-.9-2.3-2.3-2.3h-1.8z"/><path id="XMLID_2810_" class="st1" d="M70.5 72.8H66v3.7h-2.3V63.7H66v6.8h4.5v-6.8h2.3v12.8h-2.3v-3.7z"/></g><path id="XMLID_2812_" class="st1" d="M44 84.6c-.3-.4-.7-1-.8-1.2h-.7v1.2H42v-3.4h1.3c.6 0 1.1.5 1.1 1.1 0 .5-.3.9-.8 1l.9 1.3H44zm-.6-1.7c.3 0 .6-.3.6-.6s-.3-.6-.6-.6h-.9v1.2h.9z"/><path id="XMLID_2815_" class="st1" d="M45.4 84.6v-3.4h2.2v.5h-1.7v.9H47v.5h-1.2v1.1h1.7v.5h-2.1z"/><path id="XMLID_2817_" class="st1" d="M52.5 81.2v3.4H52v-3.4h.5z"/><path id="XMLID_2819_" class="st1" d="M53.3 84.6v-3.4h1.2c.5 0 .9.2 1.3.5.3.3.5.7.5 1.2 0 .4-.2.9-.5 1.2-.3.3-.8.5-1.3.5h-1.2zm1.2-.4c.4 0 .7-.1.9-.4.2-.2.4-.5.4-.9 0-.3-.1-.6-.4-.9-.3-.2-.5-.4-.9-.4h-.7V84h.7z"/><path id="XMLID_2822_" class="st1" d="M57.1 84.6v-3.4h2.2v.5h-1.7v.9h1.2v.5h-1.2v1.1h1.7v.5h-2.2z"/><path id="XMLID_2824_" class="st1" d="M60.5 82.4v2.3H60v-3.5s1.6 1.8 2.2 2.4v-2.3h.5v3.5c0-.1-1.6-1.8-2.2-2.4z"/><path id="XMLID_2826_" class="st1" d="M64.1 84.2c-.3-.3-.5-.8-.5-1.2 0-.5.2-.9.5-1.2.3-.3.8-.5 1.3-.5.4 0 .8.1 1.2.4l.2.1-.3.4-.2-.1c-.2-.2-.5-.3-.9-.3s-.7.1-1 .4c-.3.2-.4.6-.4.9 0 .3.1.7.4.9.2.2.6.4 1 .4.3 0 .6-.1.8-.3l.2-.1.3.4-.2.1c-.3.2-.7.4-1.1.4-.5-.2-1-.4-1.3-.7z"/><path id="XMLID_2828_" class="st1" d="M67.5 84.6v-3.4h2.2v.5H68v.9h1.2v.5H68v1.1h1.7v.5h-2.2z"/><path id="XMLID_2830_" class="st1" d="M70.3 84.3l.2-.4c.5.2.8.3 1.2.3.3 0 .6-.1.7-.3.2-.3.1-.6-.1-.8-.2-.1-.4-.1-.6-.1-.2 0-.5 0-.7-.1-.3-.1-.5-.4-.5-.8 0-.2.1-.4.3-.6.2-.2.6-.4.9-.4.4 0 .7.1 1.1.3l.2.1-.3.5c-.5-.2-.8-.3-1.1-.3-.2 0-.4.1-.5.2-.1.1-.2.3-.1.5 0 0 .1.1.2.1.2.1.4.1.6.1.2 0 .5 0 .7.2.4.2.6.6.5 1.1 0 .1-.1.3-.2.4-.3.3-.7.5-1.1.5-.4-.1-.8-.3-1.4-.5z"/><path id="XMLID_2832_" class="st1" d="M48.5 84.3l.2-.4c.5.2.8.3 1.2.3.3 0 .6-.1.7-.3.2-.3.1-.6-.1-.8-.2-.1-.4-.1-.6-.1-.2 0-.5 0-.7-.1-.3-.1-.5-.4-.5-.8 0-.2.1-.4.3-.6.2-.2.6-.4.9-.4.4 0 .7.1 1.1.3l.2.1-.3.5c-.5-.2-.8-.3-1.1-.3-.2 0-.4.1-.5.2-.1.1-.2.3-.1.5 0 0 .1.1.2.1.2.1.4.1.6.1.2 0 .5 0 .7.2.4.2.6.6.5 1.1 0 .1-.1.3-.2.4-.3.3-.7.5-1.1.5-.4-.1-.8-.3-1.4-.5z"/></g></g></svg>