<svg id="Capa_1" xmlns="http://www.w3.org/2000/svg" viewBox="0 0 137.9 48.1"><style>.st0{fill:#fff}</style><g id="XMLID_4684_"><g id="XMLID_4685_"><g id="XMLID_4690_"><path id="XMLID_92_" class="st0" d="M5 44.1c-.5 0-.8 0-1-.1-.2-.1-.2-.2-.2-.5l.9-5.5h2.5V27.5H4.7L3.8 22c0-.2.1-.4.2-.5.2-.1.5-.1 1-.1h10.5c1.6 0 3.1.1 4.4.4 1.3.3 2.4.7 3.3 1.3.9.6 1.6 1.4 2.1 2.4s.7 2.3.7 3.8-.3 2.7-.8 3.7c-.5.9-1.3 1.7-2.2 2.2-.9.5-2 .9-3.3 1.1-1.3.2-2.6.3-4.1.3h-1.2v1.6h2.9l.9 5.5c0 .2-.1.4-.2.5-.2.1-.5.1-1 .1H5zm9.2-12.7h1.6c.9 0 1.6-.1 2.2-.4.6-.3.9-.8.9-1.6s-.3-1.3-.9-1.6c-.6-.3-1.3-.4-2.2-.4h-1.6v4z"/></g><g id="XMLID_4696_"><path id="XMLID_76_" class="st0" d="M28.3 38.2h2v-14h-2l-.9-5.2c0-.2.1-.4.3-.5.2-.1.5-.1 1-.1h7.2c.5 0 .8 0 1 .1.2.1.3.3.3.5v19.2h1.6l.9 5.2c0 .2-.1.4-.3.5-.2.1-.5.1-1 .1h-9.7c-.5 0-.8 0-1-.1-.2-.1-.3-.3-.3-.5l.9-5.2z"/></g><g id="XMLID_4702_"><path id="XMLID_97_" class="st0" d="M53.8 44.1l-.3-1.6c-.6.5-1.4.9-2.3 1.3s-1.9.6-2.9.6c-.9 0-1.8-.1-2.7-.2-.9-.2-1.6-.5-2.3-.9-.7-.4-1.2-1-1.6-1.7-.4-.7-.6-1.6-.6-2.7 0-.8.2-1.5.5-2.1.3-.7.8-1.2 1.5-1.7s1.5-.8 2.5-1.1c1-.3 2.2-.4 3.5-.4h2v-.5c0-.5-.2-1-.6-1.2-.4-.3-.9-.4-1.6-.4-.8 0-1.6.1-2.4.3-.8.2-1.7.6-2.6 1-.1 0-.2.1-.2.1h-.2c-.2 0-.3-.1-.3-.2l-1.1-4.6c.6-.4 1.3-.7 2.1-1l2.4-.6c.8-.1 1.5-.2 2.2-.3.7-.1 1.2-.1 1.6-.1 1.4 0 2.5.2 3.5.6.9.4 1.7.9 2.3 1.6.6.7 1 1.4 1.2 2.3.2.9.4 1.9.4 2.9v4.7h1.6l.9 5.2c0 .2-.1.4-.3.5-.2.1-.5.1-1 .1h-5.2zM49 37.2c-.8 0-1.4.1-1.6.4-.3.3-.4.6-.4.9 0 .3.1.5.2.7.1.2.3.3.4.4.2.1.4.2.6.2.2 0 .4.1.5.1.4 0 .8-.1 1.2-.2.4-.1.8-.3 1.1-.5V37h-2z"/></g><g id="XMLID_4708_"><path id="XMLID_88_" class="st0" d="M61.5 39.7l9.4-8.4h-4l-.5 2.3h-3.7c-.2 0-.4-.1-.5-.3-.1-.2-.1-.5-.1-1v-5.2c0-.2.1-.4.3-.5.2-.1.5-.1 1-.1h13.5c.5 0 .8 0 1 .1.2.1.3.2.3.5V31L70 39.3h3.9l.5-2.3h3.7c.2 0 .4.1.5.3.1.2.1.5.1 1v5.2c0 .2-.1.4-.3.5-.2.1-.5.1-1 .1H63.1c-.3 0-.5-.1-.6-.2-.1-.1-.2-.3-.3-.5l-.7-3.7z"/></g><g id="XMLID_4714_"><path id="XMLID_100_" class="st0" d="M93.2 44.1l-.2-1.5c-.6.5-1.4.9-2.3 1.3s-1.9.6-2.9.6c-.9 0-1.8-.1-2.7-.2-.9-.2-1.6-.5-2.3-.9-.7-.4-1.2-1-1.6-1.7-.4-.7-.6-1.6-.6-2.7 0-.8.2-1.5.5-2.1.3-.7.8-1.2 1.5-1.7s1.5-.8 2.5-1.1c1-.3 2.2-.4 3.5-.4h2v-.5c0-.5-.2-1-.6-1.2-.4-.3-.9-.4-1.6-.4-.8 0-1.6.1-2.4.3-.8.2-1.7.6-2.6 1-.1 0-.2.1-.2.1H83c-.2 0-.3-.1-.3-.2l-1.1-4.6c.6-.4 1.3-.7 2.1-1l2.4-.6c.8-.1 1.5-.2 2.2-.3.7-.1 1.2-.1 1.6-.1 1.4 0 2.5.2 3.5.6.9.4 1.7.9 2.3 1.6.6.7 1 1.4 1.2 2.3.2.9.4 1.9.4 2.9v4.7h1.6l.9 5.2c0 .2-.1.4-.3.5-.2.1-.5.1-1 .1h-5.3zm-4.7-6.9c-.8 0-1.4.1-1.6.4-.3.3-.4.6-.4.9 0 .3.1.5.2.7.1.2.3.3.4.4.2.1.4.2.6.2.2 0 .4.1.5.1.4 0 .8-.1 1.2-.2.4-.1.8-.3 1.1-.5V37h-2z"/></g></g><g id="XMLID_4717_"><g id="XMLID_4721_"><path id="XMLID_80_" class="st0" d="M100.7 19.9h3.9V9.7h-3.2c-.5 0-.8 0-1-.1-.2-.1-.2-.2-.2-.5l.9-5.5h9.1c.5 0 .8 0 1 .1.2.1.3.2.3.5v15.7h3.9l.9 5.5c0 .2-.1.4-.3.5-.2.1-.5.1-1 .1h-14c-.5 0-.8 0-1-.1-.2-.1-.2-.2-.2-.5l.9-5.5z"/></g><g id="XMLID_4726_"><path id="XMLID_78_" class="st0" d="M118.5 19.9h3.9V9.7h-3.2c-.5 0-.8 0-1-.1-.2-.1-.2-.2-.2-.5l.9-5.5h9.1c.5 0 .8 0 1 .1.2.1.3.2.3.5v15.7h3.9l.9 5.5c0 .2-.1.4-.2.5-.2.1-.5.1-1 .1h-14c-.5 0-.8 0-1-.1-.2-.1-.2-.2-.2-.5l.8-5.5z"/></g></g></g></svg>