<svg xmlns="http://www.w3.org/2000/svg" width="149.06" height="31.6" viewBox="0 0 149.06 31.6"><path d="M6.1 25.82c-1.5-1.51-2.25-3.53-2.25-6.07 0-2.56.75-4.63 2.25-6.2s3.36-2.36 5.59-2.36c.92 0 1.79.12 2.59.36.81.24 1.39.48 1.75.71l.54.38-.31.65c-1.2-.92-2.74-1.38-4.61-1.38-1.89 0-3.53.72-4.91 2.17-1.38 1.45-2.07 3.33-2.07 5.66 0 2.3.69 4.15 2.07 5.53s3.02 2.07 4.91 2.07c.82 0 1.61-.11 2.38-.35.77-.23 1.33-.46 1.69-.69l.54-.35.31.65c-1.2.97-2.83 1.46-4.88 1.46-2.23.03-4.09-.73-5.59-2.24zm33.95-14.24h.58l.19 3.38h.04l.04-.08c.03-.08.08-.19.17-.35.09-.15.19-.32.31-.5.11-.18.27-.38.46-.59.19-.22.4-.43.61-.63.22-.2.49-.4.81-.59.32-.19.66-.36 1.02-.52.36-.15.77-.28 1.25-.36.47-.1.96-.14 1.47-.14 2.1 0 3.73.71 4.89 2.13 1.16 1.42 1.75 3.26 1.75 5.51v8.87h-.77v-8.83c0-2.07-.51-3.75-1.54-5.03-1.02-1.28-2.5-1.92-4.41-1.92-1.33 0-2.48.34-3.44 1.02-.96.68-1.64 1.43-2.03 2.27-.4.83-.61 1.64-.63 2.44v10.06h-.77V11.58zm31.44 14.78c-.15.13-.38.29-.67.48-.29.19-.93.45-1.9.77-.97.32-1.97.48-2.99.48-2.23 0-4.06-.75-5.49-2.26-1.43-1.51-2.15-3.53-2.15-6.07 0-2.69.68-4.79 2.05-6.3 1.37-1.51 3.1-2.27 5.2-2.27 2.15 0 3.83.7 5.05 2.09 1.22 1.39 1.82 3.28 1.82 5.66v.23H59.1v.58c0 2.3.66 4.15 1.98 5.53 1.32 1.38 2.94 2.07 4.86 2.07 1 0 1.93-.13 2.78-.4s1.47-.54 1.82-.83l.58-.42.37.66zM61.3 13.64c-1.19 1.14-1.9 2.73-2.13 4.78h12.44c-.05-1.79-.61-3.32-1.67-4.59s-2.53-1.9-4.4-1.9c-1.63 0-3.05.57-4.24 1.71zm4.09-5.01h-.58l2.23-5.45 1.19.15-2.84 5.3zm12.77 17.19c-1.5-1.51-2.25-3.53-2.25-6.07 0-2.56.75-4.63 2.25-6.2s3.36-2.36 5.59-2.36c.92 0 1.78.12 2.59.36.81.24 1.39.48 1.75.71l.54.38-.31.65c-1.2-.92-2.74-1.38-4.61-1.38-1.89 0-3.53.72-4.91 2.17-1.38 1.45-2.07 3.33-2.07 5.66 0 2.3.69 4.15 2.07 5.53s3.02 2.07 4.91 2.07c.82 0 1.61-.11 2.38-.35.77-.23 1.33-.46 1.69-.69l.54-.35.31.65c-1.2.97-2.83 1.46-4.88 1.46-2.23.03-4.1-.73-5.59-2.24zm16.06-14.24V6.67h.77v4.91h5.07v.73h-5.07v11.67c0 2.25 1 3.38 2.99 3.38.44 0 .85-.06 1.25-.17.4-.12.68-.22.86-.33l.27-.15.27.65c-.59.49-1.5.73-2.73.73-1.18 0-2.09-.36-2.73-1.07s-.96-1.68-.96-2.88V12.31H91v-.73h3.22zm21.88 16.13h-.58l-.11-3.42h-.08c-.54 1.02-1.42 1.91-2.65 2.67-1.23.75-2.61 1.13-4.15 1.13-1.97 0-3.47-.46-4.49-1.38-1.02-.92-1.54-2.09-1.54-3.49 0-1.41.56-2.58 1.69-3.53 1.13-.95 2.89-1.42 5.3-1.42 2.3 0 4.25.44 5.84 1.31v-1.34c0-4.2-2.03-6.3-6.1-6.3-.79 0-1.61.11-2.46.35-.84.23-1.48.46-1.92.69l-.69.35-.35-.69c1.64-.95 3.49-1.42 5.57-1.42 2.25 0 3.94.64 5.05 1.92 1.11 1.28 1.67 2.99 1.67 5.14v9.43zm-2.86-2c1.29-1.1 1.99-2.12 2.09-3.07v-2.27c-1.61-.92-3.53-1.38-5.76-1.38-2.18 0-3.77.4-4.78 1.19-1.01.79-1.52 1.8-1.52 3.03 0 1.18.45 2.16 1.36 2.96.91.79 2.25 1.19 4.01 1.19s3.31-.55 4.6-1.65zm9.31-14.13V6.67h.77v4.91h5.07v.73h-5.07v11.67c0 2.25 1 3.38 2.99 3.38.43 0 .85-.06 1.25-.17.4-.12.68-.22.86-.33l.27-.15.27.65c-.59.49-1.5.73-2.73.73-1.18 0-2.09-.36-2.73-1.07s-.96-1.68-.96-2.88V12.31h-3.22v-.73h3.23zm21.73 14.78c-.15.13-.38.29-.67.48-.29.19-.93.45-1.9.77-.97.32-1.97.48-2.99.48-2.23 0-4.06-.75-5.49-2.26-1.43-1.51-2.15-3.53-2.15-6.07 0-2.69.68-4.79 2.05-6.3 1.37-1.51 3.1-2.27 5.2-2.27 2.15 0 3.83.7 5.05 2.09 1.22 1.39 1.82 3.28 1.82 5.66v.23h-13.32v.58c0 2.3.66 4.15 1.98 5.53 1.32 1.38 2.94 2.07 4.86 2.07 1 0 1.93-.13 2.78-.4.86-.27 1.47-.54 1.82-.83l.58-.42.38.66zm-10.19-12.72c-1.19 1.14-1.9 2.73-2.13 4.78h12.44c-.05-1.79-.61-3.32-1.67-4.59s-2.53-1.9-4.4-1.9c-1.64 0-3.05.57-4.24 1.71z"/><path d="M21.64 25.52a1.205 1.205 0 0 1-1.82-.02 1.2 1.2 0 0 1 .01-1.57c-.16-.3-.31-.6-.44-.91-1.32-3.2-.64-7.01 1.9-9.56 3.2-3.2 8.26-3.4 11.7-.62l-.15.12c-.12.1-.22.21-.31.33a8.138 8.138 0 0 0-10.79.62c-2.34 2.34-2.97 5.83-1.79 8.79.12.29.26.59.41.87.45-.15.96-.02 1.29.36.39.48.38 1.15-.01 1.59zm12.04.35c-3.19 3.19-8.27 3.4-11.7.62l.15-.12c.12-.1.22-.21.31-.33 3.18 2.53 7.84 2.33 10.79-.62 2.34-2.34 2.97-5.84 1.78-8.8-.12-.3-.25-.59-.41-.87a1.2 1.2 0 0 1-1.27-1.93l.13-.13c.51-.43 1.26-.38 1.7.13a1.2 1.2 0 0 1-.01 1.57c.16.3.31.6.43.91 1.33 3.2.65 7.02-1.9 9.57z" fill="#00FB71"/></svg>