<svg id="Capa_1" xmlns="http://www.w3.org/2000/svg" viewBox="0 0 94 100.3"><style>.st0{fill:#fff}.st1{fill:#e5cf8b}</style><g id="XMLID_4578_"><g id="XMLID_4579_"><g id="XMLID_4580_"><g id="XMLID_4581_"><path id="XMLID_4582_" class="st0" d="M56.5 84.9c-1-1.1-2.1-2.2-3.1-3.3-1.3-1.4-2.6-2.8-3.9-4.1-.2-.2-.3-.5-.7-.4-.3.1-.2.5-.2.8v6.2c0 .5 0 .9-.7.9-.6 0-.8-.3-.8-.9V73.7c0-.1.1-.2.3-.4 1.8 2 3.6 4 5.4 5.9.5.5 1 1.1 1.5 1.6.2.2.4.6.8.4.3-.1.2-.5.2-.8v-6.2c0-.8.3-1 1.1-.9.5.1.5.5.5.9v10.4c-.2.2-.3.2-.4.3z"/><path id="XMLID_4583_" class="st0" d="M64.1 79.1v-4.7c0-.8.2-1 1-1 1.5.1 3.1-.1 4.6.3 1.3.3 2.3.9 2.9 2.1 1.2 2.1 1.2 4.4.2 6.5-.6 1.3-1.8 2.1-3.3 2.4-1.5.3-3 .2-4.4.3-.8 0-1-.4-1-1.1v-4.8zm1.4 0v3.6c0 .4 0 .8.6.9 3.8.9 6.6-1.7 5.9-5.5-.3-1.7-1.4-3-2.9-3.2-.9-.1-1.7-.1-2.6-.2-.8-.1-1.1.2-1.1 1.1.1 1 .1 2.2.1 3.3z"/><path id="XMLID_4586_" class="st0" d="M5.8 79v-4.7c0-.7.2-1 .9-1 1.1.1 2.3-.1 3.4.2 2 .6 2.8 2.8 1.5 4.4-.4.6-.3.8.1 1.3 1.8 1.8 1 4.7-1.5 5.4-1.2.4-2.4.3-3.7.3-.7 0-.7-.5-.7-1V79zm1.3 2.6c.2.8-.6 2.2 1.3 2.1 2-.1 3-.7 3-2s-1.1-2-2.9-2.1c-2-.2-1.2 1.1-1.4 2zm1.1-3.3c1.8 0 2.6-.6 2.6-1.8 0-1.3-.9-2-2.7-1.9-1.9.1-.7 1.6-.9 2.5-.3 1 .2 1.4 1 1.2z"/><path id="XMLID_4590_" class="st0" d="M26.7 84.8c-1.2.4-1.8 0-2.3-.8L22 80.7c-.2-.3-.4-.9-.8-.8-.6.2-.3.8-.3 1.2v2.8c0 .5 0 .9-.7.9s-.7-.5-.7-1V74c0-.7.3-.9.9-.8h2.5c1.8.1 2.8 1 3 2.7.2 1.5-.5 2.6-2.1 3.2-.8.3-.8.6-.3 1.2 1 1.5 2 3 3.2 4.5zm-6-8.5c.1.8-.4 1.9 1.1 1.8 1.8-.1 2.5-.4 2.5-1.7 0-1.3-.8-1.8-2.6-1.8-1.5 0-.8 1.1-1 1.7z"/><path id="XMLID_4593_" class="st0" d="M83.3 73.3c.8-.1 1.6.2 2.2.9.2.3.8.6.3 1-.4.4-.8.6-1.3.1-.3-.3-.6-.5-1-.6-.9-.2-1.6 0-2 .8-.4.8-.1 1.6.6 2 .8.5 1.7.8 2.6 1.2 1.4.7 2.2 2 2 3.4-.2 1.5-1.2 2.6-2.5 2.9-1.8.4-3.5-.1-4.3-1.4-.2-.3-.6-.8-.2-1.2.5-.4.9-.6 1.3.3.5 1.1 1.6 1.5 2.7 1.1 1-.3 1.6-1.2 1.4-2.3-.1-.7-.6-1.2-1.2-1.5-.7-.4-1.5-.7-2.2-1-1.5-.8-2.2-2.1-1.8-3.5.4-1.5 1.5-2.2 3.4-2.2z"/><path id="XMLID_4594_" class="st0" d="M36 73.6c.7.8.9 1.6 1.3 2.4 1.2 2.6 2.4 5.2 3.6 7.9.1.3.5.7.1 1-.4.2-1 .2-1.3-.4-.2-.5-.5-1-.7-1.6-.2-.3-.2-.8-.5-1-1.2-.9-2.6-.2-3.9-.4-.6-.1-.8.4-1 .9l-.9 2.1c-.3.6-.8.6-1.2.4-.5-.2-.2-.6-.1-1 1.5-3.4 3-6.8 4.6-10.3zm.1 2.9c-.5 1.1-.9 2-1.3 2.9-.1.3-.3.7 0 .8.9.3 1.8.1 2.7.1.2 0 .4-.1.4-.4 0-.1 0-.2-.1-.4-.7-.9-.9-2-1.7-3z"/></g><g id="XMLID_4597_"><path id="XMLID_4598_" class="st0" d="M2 95.9v-4.3h.2v4.2h1.6v.2H2z"/><path id="XMLID_4600_" class="st0" d="M9.7 95v.3c0 .1 0 .2-.1.2 0 .1-.1.2-.2.2-.1.1-.2.1-.3.2-.1 0-.3.1-.4.1-.1 0-.3 0-.4-.1-.1 0-.3-.1-.3-.2-.1-.1-.1-.2-.2-.2 0-.1-.1-.2-.1-.2v-2.7c0-.2 0-.3.1-.4 0-.1.1-.2.2-.3l.1-.1c.1 0 .1-.1.2-.1h.8c.1 0 .1 0 .2.1.1 0 .1.1.1.1.2.2.3.4.3.8V95zm-.1-2.5c0-.1 0-.3-.1-.4 0-.1-.1-.2-.1-.3l-.1-.1c-.1 0-.1-.1-.2-.1h-.7c-.1 0-.2.1-.3.1 0 .2-.1.2-.1.3-.1.1-.1.3-.1.4v2.7c0 .1 0 .1.1.2 0 .1.1.2.1.2.1.1.2.1.3.2.1 0 .2.1.4.1h.4c.1 0 .1 0 .2-.1.1 0 .1-.1.1-.1.1-.1.1-.1.1-.2s0-.1.1-.2V95l-.1-2.5z"/><path id="XMLID_4603_" class="st0" d="M20.7 95.9h-.3c-.1 0-.3 0-.4-.1-.1 0-.3-.1-.3-.2-.1-.1-.1-.2-.2-.2 0-.1-.1-.2-.1-.2v-2.7c0-.2 0-.3.1-.4s.1-.2.2-.3l.1-.1c.1 0 .1-.1.2-.1h.8c.1 0 .1 0 .2.1.1 0 .1.1.1.1.2.2.3.4.3.8v2.7c0 .1 0 .2-.1.2 0 .1-.1.2-.2.2l-.1.1.4.5h-.2l-.2-.5c-.1.1-.2.1-.3.1zm.6-3.4c0-.1 0-.3-.1-.4 0-.1-.1-.2-.1-.3l-.1-.1c-.1 0-.1-.1-.2-.1h-.7c-.1 0-.2.1-.3.1s-.2.1-.2.3c-.1.1-.1.3-.1.4v2.7c0 .1 0 .1.1.2 0 .1.1.2.1.2.1.1.2.1.3.2.1 0 .2.1.4.1h.4c.1 0 .1 0 .2-.1.1 0 .1-.1.1-.1.1-.1.1-.1.1-.2s0-.1.1-.2v-2.7z"/><path id="XMLID_4606_" class="st0" d="M27.4 94.9s0 .1 0 0v.3c0 .1 0 .2-.1.2 0 .1-.1.2-.2.2-.2.2-.4.2-.6.2-.3 0-.5-.1-.6-.2-.1-.1-.1-.2-.2-.2 0-.1-.1-.2-.1-.2v-3.6h.2v3.6c0 .1 0 .1.1.2 0 .1.1.1.1.2.1.1.3.2.5.2s.4-.1.6-.2c.1-.1.1-.1.1-.2s.1-.1.1-.2v-3.6h.2v3.3z"/><path id="XMLID_4608_" class="st0" d="M33.2 95.8v.1h-1.7v-4.4h1.7v.1h-1.5v2.3h1.2v.1h-1.2v1.7h1.5z"/><path id="XMLID_4610_" class="st0" d="M43.4 95.9h-.1v-4.4h.1l1.7 3.8c0 .1 0 .1.1.1v.1-4h.2v4.3h-.1L43.7 92s0-.1-.1-.1c0-.1 0-.1-.1-.1l-.1 4.1zm0-4.3zm1.8 4.3z"/><path id="XMLID_4614_" class="st0" d="M51.1 95v.3c0 .1 0 .2-.1.2 0 .1-.1.2-.2.2-.1.1-.2.1-.3.2-.1 0-.3.1-.4.1-.1 0-.3 0-.4-.1-.1 0-.3-.1-.3-.2-.1-.1-.1-.2-.2-.2 0-.1-.1-.2-.1-.2v-2.7c0-.2 0-.3.1-.4s.1-.2.2-.3l.1-.1c.1 0 .1-.1.2-.1h.8c.1 0 .1 0 .2.1.1 0 .1.1.1.1.2.2.3.4.3.8V95zm-.1-2.5c0-.1 0-.3-.1-.4 0-.1-.1-.2-.1-.3l-.1-.1c-.1 0-.1-.1-.2-.1h-.7c-.1 0-.2.1-.3.1-.1.1-.2.1-.2.3-.1.1-.1.3-.1.4v2.7c0 .1 0 .1.1.2 0 .1.1.2.1.2.1.1.2.1.3.2.1 0 .2.1.4.1h.4c.1 0 .1 0 .2-.1.1 0 .1-.1.1-.1.1-.1.1-.1.1-.2s0-.1.1-.2v-2.7z"/><path id="XMLID_4617_" class="st0" d="M55.4 95.7c-.1-.1-.2-.2-.2-.4 0-.1-.1-.3-.1-.5h.1c0 .2 0 .3.1.5.1.1.1.2.2.3.1.1.2.1.3.1h.6c.1 0 .2-.1.3-.1.1-.1.1-.2.2-.3 0-.1.1-.2.1-.4s0-.3-.1-.5c-.1-.1-.1-.3-.2-.4l-.3-.3c-.1-.1-.2-.2-.3-.2-.1-.1-.2-.1-.3-.2-.1-.1-.2-.2-.3-.2-.2-.2-.3-.4-.3-.7v-.3c0-.1 0-.1.1-.2 0-.1.1-.2.1-.2.2-.2.4-.3.6-.3.3 0 .5.1.6.3.1.1.1.2.1.2 0 .1 0 .2.1.2v.3h-.1v-.5c0-.1-.1-.1-.1-.2l-.2-.2c-.1 0-.2-.1-.3-.1-.2 0-.4.1-.6.2-.1.1-.1.1-.1.2s0 .1-.1.2 0 .1 0 .2 0 .2.1.3c0 .1.1.2.2.3l.2.2c.1.1.2.1.3.2l.3.3.3.3c.2.3.3.6.3.9 0 .3-.1.6-.3.8-.2.1-.4.2-.7.2h-.3c-.1.2-.2.1-.3 0z"/><path id="XMLID_4619_" class="st0" d="M67.9 94v-.1h.8v1.4c0 .1 0 .1-.1.2 0 .1-.1.2-.1.2-.2.2-.4.3-.6.3-.3 0-.5-.1-.6-.2-.1-.1-.1-.2-.2-.2 0-.1-.1-.2-.1-.2v-2.7c0-.3.1-.6.3-.7.1-.1.2-.1.3-.2.1 0 .2-.1.3-.1.1 0 .2 0 .3.1.1 0 .2.1.3.2.1.1.2.2.2.3.1.1.1.3.1.5h-.1c0-.2 0-.3-.1-.4 0-.1-.1-.2-.2-.3l-.2-.2c-.1 0-.2-.1-.3-.1h-.3c-.1 0-.2.1-.2.2-.1.1-.1.2-.2.3 0 .1-.1.2-.1.4v2.8c0 .1 0 .1.1.2 0 .1.1.2.1.2.1.1.3.2.5.2s.4-.1.5-.2c.1-.1.1-.1.1-.2s.1-.1.1-.2v-1.2l-.6-.3z"/><path id="XMLID_4621_" class="st0" d="M74.6 94.9s0 .1 0 0v.3c0 .1 0 .2-.1.2s-.1.2-.2.2c-.2.2-.4.2-.6.2-.3 0-.5-.1-.6-.2-.1-.1-.1-.2-.2-.2 0-.1-.1-.2-.1-.2v-3.6h.2v3.6c0 .1 0 .1.1.2 0 .1.1.1.1.2.1.1.3.2.5.2s.4-.1.6-.2c.1-.1.1-.1.1-.2s.1-.1.1-.2v-3.6h.2v3.3z"/><path id="XMLID_4623_" class="st0" d="M79.2 95.7c-.1-.1-.2-.2-.2-.4 0-.1-.1-.3-.1-.5h.1c0 .2 0 .3.1.5.1.1.1.2.2.3.1.1.2.1.3.1h.6c.1 0 .2-.1.3-.1.1-.1.1-.2.2-.3 0-.1.1-.2.1-.4s0-.3-.1-.5c-.1-.1-.1-.3-.2-.4l-.3-.3c-.1-.1-.2-.2-.3-.2-.1-.1-.2-.1-.3-.2-.1-.1-.2-.2-.3-.2-.2-.1-.3-.4-.3-.6v-.3c0-.1 0-.1.1-.2 0-.1.1-.2.1-.2.2-.2.4-.3.6-.3.3 0 .5.1.6.3.1.1.1.2.1.2 0 .1 0 .2.1.2v.3h-.1V92c0-.1-.1-.1-.1-.2l-.2-.2c-.1 0-.2-.1-.3-.1-.2 0-.4.1-.6.2-.1.1-.1.1-.1.2s0 .1-.1.2 0 .1 0 .2 0 .2.1.3c0 .1.1.2.2.3l.2.2c.1.1.2.1.3.2l.3.3.3.3c.2.3.3.6.3.9 0 .3-.1.6-.3.8-.2.1-.4.2-.7.2h-.3c-.1.1-.2 0-.3-.1z"/><path id="XMLID_4625_" class="st0" d="M85.5 91.7h-1v-.2h2.1v.2h-1v4.2h-.2v-4.2z"/><path id="XMLID_4627_" class="st0" d="M92 95.9h-.1l-.3-1.3h-1l-.3 1.3h-.1l.9-4.3h.1l.8 4.3zm-.4-1.4l-.5-2.6-.5 2.6h1zm-.5-2.9z"/></g></g></g><g id="XMLID_4631_"><path id="XMLID_4632_" class="st1" d="M60 53.7c-4.9 0-9.5-1.9-13-5.4-3.4 3.4-8 5.4-13 5.4-10.1 0-18.4-8.2-18.4-18.4S23.9 17 34.1 17c4.9 0 9.5 1.9 13 5.4 3.4-3.4 8-5.4 13-5.4 10.1 0 18.4 8.2 18.4 18.4S70.1 53.7 60 53.7zM47 42.6l1.5 1.8C51.3 48 55.5 50 60 50c8.1 0 14.7-6.6 14.7-14.7S68.1 20.7 60 20.7c-4.5 0-8.7 2-11.5 5.6L47 28.1l-1.5-1.8c-2.8-3.6-7-5.6-11.5-5.6-8.1 0-14.7 6.6-14.7 14.7S26 50 34.1 50c4.5 0 8.7-2 11.5-5.6l1.4-1.8z"/><g id="XMLID_4635_"><path id="XMLID_4636_" class="st1" d="M32.4 47.5c.2-4.2 2.2-8 5.6-10.7l1.8-1.5-1.8-1.4c-3.3-2.6-5.3-6.5-5.6-10.7-1.3.2-2.5.5-3.6 1.1.4 4.2 2.3 8.1 5.3 11-3 3-4.8 6.8-5.3 11 1.1.6 2.3 1 3.6 1.2z"/><path id="XMLID_4637_" class="st1" d="M60 35.3c3-3 4.8-6.8 5.3-11-1.1-.5-2.3-.9-3.6-1.1-.2 4.2-2.2 8-5.6 10.7l-1.8 1.5 1.8 1.5c3.3 2.6 5.3 6.5 5.6 10.7 1.3-.2 2.5-.5 3.6-1.1-.5-4.3-2.3-8.2-5.3-11.2z"/><path id="XMLID_4638_" class="st1" d="M60 56.1h-.6C56.8 60.2 52.2 63 47 63s-9.8-2.7-12.4-6.9H34c-1.3 0-2.6-.1-3.8-.4 2.9 6.4 9.3 10.9 16.8 10.9s13.9-4.5 16.8-10.9c-1.2.3-2.5.4-3.8.4z"/><path id="XMLID_4639_" class="st1" d="M34.1 14.6h.6c2.6-4.1 7.2-6.9 12.4-6.9s9.8 2.7 12.4 6.9h.6c1.3 0 2.6.1 3.8.4-3-6.5-9.4-11-16.9-11-7.5 0-13.9 4.5-16.8 10.9 1.3-.2 2.6-.3 3.9-.3z"/></g></g></g></svg>