<svg id="Capa_1" xmlns="http://www.w3.org/2000/svg" viewBox="0 0 158.1 58.4"><style>.st0{fill:#3f363f}.st1{fill:#da5346}</style><g id="XMLID_3982_"><g id="XMLID_4009_"><g id="XMLID_212_"><path id="XMLID_235_" class="st0" d="M78.7 10.5c-1.8 0-3.1.5-4 1.5-.8 1-1.2 2.4-1.2 4.2 0 .9.1 1.6.3 2.3.2.7.5 1.3.9 1.8s.9.9 1.5 1.2c.6.3 1.3.4 2.1.4h1.1c.3 0 .6-.1.8-.1v-6.1h3.9v8.6c-.5.2-1.2.4-2.3.6-1 .2-2.3.3-3.8.3-1.3 0-2.5-.2-3.6-.6-1.1-.4-2-1-2.7-1.8-.8-.8-1.3-1.7-1.7-2.8-.4-1.1-.6-2.4-.6-3.8 0-1.5.2-2.7.7-3.9.5-1.1 1.1-2.1 1.9-2.9.8-.8 1.7-1.4 2.8-1.8 1.1-.4 2.2-.6 3.4-.6.8 0 1.6.1 2.2.2.7.1 1.2.2 1.7.4.5.1.9.3 1.2.4.3.2.5.3.7.4l-1.1 3.1c-.5-.3-1.2-.5-1.8-.7-.8-.2-1.5-.3-2.4-.3z"/><path id="XMLID_233_" class="st0" d="M95.4 15c-.3-.1-.7-.2-1.2-.3-.5-.1-.9-.1-1.5-.1-.2 0-.5 0-.8.1-.3 0-.6.1-.7.1v10.1h-3.7V12.4c.7-.2 1.5-.5 2.4-.7.9-.2 1.9-.3 3.1-.3h.7c.3 0 .6.1.9.1.3 0 .6.1.9.2.3.1.5.1.7.2l-.8 3.1z"/><path id="XMLID_230_" class="st0" d="M102.4 11.4c1.1 0 2 .1 2.8.4s1.3.6 1.8 1.1c.4.5.8 1 .9 1.7.2.7.3 1.4.3 2.2v7.8c-.5.1-1.3.3-2.2.4-1 .2-2.1.2-3.5.2-.9 0-1.6-.1-2.3-.2-.7-.2-1.3-.4-1.8-.7-.5-.3-.9-.8-1.2-1.3-.3-.6-.4-1.2-.4-2s.2-1.4.5-2c.3-.5.7-1 1.2-1.3.5-.3 1.1-.5 1.8-.7.7-.1 1.4-.2 2.1-.2.5 0 .9 0 1.3.1.4 0 .7.1.9.2v-.4c0-.6-.2-1.1-.6-1.5-.4-.4-1.1-.6-2-.6-.6 0-1.3 0-1.9.1-.6.1-1.2.2-1.6.4L98 12c.2-.1.5-.1.8-.2.3-.1.7-.1 1.1-.2.4-.1.8-.1 1.2-.2h1.3zm.3 10.9h1.1c.3 0 .6 0 .8-.1v-2.8c-.2 0-.4-.1-.7-.1-.3 0-.6-.1-.8-.1-.4 0-.7 0-1 .1-.3 0-.6.1-.8.2-.2.1-.4.3-.6.5-.1.2-.2.5-.2.8 0 .6.2 1 .6 1.2.3.2.9.3 1.6.3z"/><path id="XMLID_228_" class="st0" d="M111.2 12.2c.6-.2 1.5-.4 2.5-.5 1-.2 2.1-.2 3.2-.2s2.1.1 2.8.4c.7.3 1.3.7 1.8 1.2.4.5.7 1.2.9 1.9.2.7.3 1.6.3 2.5V25H119v-7c0-1.2-.2-2.1-.5-2.6s-.9-.8-1.8-.8h-.9c-.3 0-.6.1-.8.1v10.2h-3.7V12.2z"/><path id="XMLID_225_" class="st0" d="M137.3 24.5c-.3.1-.7.2-1.2.3-.4.1-.9.2-1.4.2-.5.1-1 .1-1.5.2-.5 0-1 .1-1.4.1-1.1 0-2.1-.2-2.9-.5-.9-.3-1.6-.8-2.2-1.4-.6-.6-1-1.3-1.3-2.2-.3-.8-.5-1.8-.5-2.9 0-1.1.1-2 .4-2.9.3-.9.7-1.6 1.2-2.2.5-.6 1.1-1.1 1.8-1.4.7-.3 1.6-.5 2.5-.5.5 0 1 .1 1.4.2.4.1.8.2 1.2.4V6l3.7-.6v19.1zm-8.5-6.3c0 1.2.3 2.1.8 2.8.5.7 1.3 1.1 2.3 1.1h.9c.3 0 .5-.1.7-.1v-6.8c-.2-.2-.5-.3-.9-.4-.4-.1-.8-.2-1.1-.2-1.8 0-2.7 1.2-2.7 3.6z"/><path id="XMLID_223_" class="st0" d="M81.9 45.8v3.4H70.3V31.8h3.9v14h7.7z"/><path id="XMLID_220_" class="st0" d="M96.3 42.6c0 1-.2 2-.5 2.9-.3.9-.7 1.6-1.3 2.2-.6.6-1.3 1.1-2 1.4-.8.3-1.7.5-2.7.5-1 0-1.9-.2-2.6-.5-.8-.3-1.5-.8-2-1.4-.6-.6-1-1.3-1.3-2.2-.3-.9-.5-1.8-.5-2.9 0-1 .2-2 .5-2.8.3-.9.8-1.6 1.4-2.2.6-.6 1.3-1.1 2.1-1.4.8-.3 1.7-.5 2.6-.5 1 0 1.8.2 2.6.5s1.5.8 2 1.4c.6.6 1 1.3 1.3 2.2.2.8.4 1.7.4 2.8zm-3.8 0c0-1.2-.2-2.1-.7-2.7-.5-.7-1.1-1-2-1s-1.5.3-2 1-.7 1.6-.7 2.7.2 2.1.7 2.8c.5.7 1.1 1 2 1s1.5-.3 2-1c.4-.8.7-1.7.7-2.8z"/><path id="XMLID_218_" class="st0" d="M106 42.2c0-1.2-.2-2.1-.5-2.6s-.8-.8-1.6-.8h-.7c-.3 0-.5.1-.7.1v10.2h-3.7V36.4c.3-.1.7-.2 1.1-.3.4-.1.9-.2 1.4-.3.5-.1 1-.1 1.5-.2.5 0 1-.1 1.5-.1 1 0 1.7.1 2.3.4.6.2 1.1.5 1.5.9.5-.4 1.2-.7 1.8-.9.7-.2 1.3-.3 1.9-.3 1.1 0 1.9.1 2.6.4.7.3 1.2.7 1.6 1.2.4.5.7 1.2.8 1.9.2.7.2 1.6.2 2.5v7.5h-3.7v-7c0-1.2-.2-2.1-.5-2.6s-.8-.8-1.6-.8c-.2 0-.5.1-.8.2-.4.1-.7.2-.9.4.1.4.2.8.2 1.2 0 .4.1.9.1 1.4v7.2H106v-6.9z"/><path id="XMLID_215_" class="st0" d="M124.9 35.6c1.1 0 2 .1 2.8.4s1.3.6 1.8 1.1c.4.5.8 1 .9 1.7.2.7.3 1.4.3 2.2v7.8c-.5.1-1.3.3-2.2.4-1 .2-2.1.2-3.5.2-.9 0-1.6-.1-2.3-.2-.7-.2-1.3-.4-1.8-.7-.5-.3-.9-.8-1.2-1.3-.3-.6-.4-1.2-.4-2s.2-1.4.5-2c.3-.5.7-1 1.2-1.3.5-.3 1.1-.5 1.8-.7.7-.1 1.4-.2 2.1-.2.5 0 .9 0 1.3.1.4 0 .7.1.9.2v-.4c0-.6-.2-1.1-.6-1.5-.4-.4-1.1-.6-2-.6-.6 0-1.3 0-1.9.1-.6.1-1.2.2-1.6.4l-.5-3c.2-.1.5-.1.8-.2.3-.1.7-.1 1.1-.2.4-.1.8-.1 1.2-.2.4-.1.8-.1 1.3-.1zm.3 11h1.1c.3 0 .6 0 .8-.1v-2.8c-.2 0-.4-.1-.7-.1-.3 0-.6-.1-.8-.1-.4 0-.7 0-1 .1-.3 0-.6.1-.8.2-.2.1-.4.3-.6.5-.1.2-.2.5-.2.8 0 .6.2 1 .6 1.2.3.2.9.3 1.6.3z"/><path id="XMLID_213_" class="st0" d="M137.5 46.5c.7 0 1.2-.1 1.5-.2.3-.1.4-.4.4-.8 0-.3-.2-.6-.6-.8-.4-.2-.9-.5-1.7-.8-.6-.2-1.1-.4-1.6-.7-.5-.2-.9-.5-1.2-.8-.3-.3-.6-.7-.8-1.2-.2-.5-.3-1-.3-1.6 0-1.2.5-2.2 1.4-2.9.9-.7 2.2-1.1 3.8-1.1.8 0 1.6.1 2.3.2.7.1 1.3.3 1.8.5l-.7 2.9c-.4-.2-.9-.3-1.4-.4-.5-.1-1.1-.2-1.7-.2-1.2 0-1.8.3-1.8 1 0 .2 0 .3.1.4 0 .1.2.2.3.3.2.1.4.2.6.4.3.1.6.3 1 .4.8.3 1.5.6 2 .9.5.3 1 .6 1.3 1 .3.3.5.7.7 1.1.1.4.2.9.2 1.5 0 1.3-.5 2.3-1.5 3-1 .7-2.4 1-4.2 1-1.2 0-2.1-.1-2.9-.3-.8-.2-1.3-.4-1.6-.5l.6-3c.6.3 1.3.4 2 .6.7 0 1.4.1 2 .1z"/></g></g><g id="XMLID_4041_"><g id="XMLID_72_"><path id="XMLID_73_" class="st0" d="M154 33.4c0 .6-.1 1.1-.3 1.6-.2.5-.5.8-.8 1.2-.3.3-.7.6-1.1.7-.4.2-.9.2-1.3.2-.5 0-.9-.1-1.3-.2s-.8-.4-1.1-.7c-.3-.3-.6-.7-.8-1.2-.2-.5-.3-1-.3-1.6 0-.6.1-1.1.3-1.5.2-.5.5-.8.8-1.2.3-.3.7-.6 1.1-.7.4-.2.9-.2 1.3-.2.5 0 .9.1 1.3.2.4.2.8.4 1.1.7.3.3.6.7.8 1.2.2.4.3.9.3 1.5zm-1 0c0-.4-.1-.8-.2-1.1-.1-.3-.3-.6-.5-.9-.2-.2-.5-.4-.8-.5-.3-.1-.6-.2-1-.2s-.7.1-1 .2c-.3.1-.6.3-.8.5-.2.2-.4.5-.5.9s-.2.7-.2 1.1c0 .4.1.8.2 1.1.1.3.3.6.5.9.2.2.5.4.8.5.3.1.6.2 1 .2s.7-.1 1-.2c.3-.1.6-.3.8-.5.2-.2.4-.5.5-.9.1-.3.2-.7.2-1.1zm-1.9 1.7c-.1-.3-.2-.5-.3-.7-.1-.2-.2-.4-.3-.5h-.4v1.2h-1v-3.5c.2-.1.4-.1.6-.1h.5c1.1 0 1.6.4 1.6 1.2 0 .4-.2.7-.5.9.1.1.1.2.2.3.1.1.1.2.2.3.1.1.1.2.2.4.1.1.1.3.2.5h-1zm-.9-2h.2c.2 0 .4 0 .5-.1.1-.1.2-.2.2-.3 0-.1 0-.2-.1-.3-.1-.1-.2-.1-.4-.1h-.2v.8z"/></g></g><g id="XMLID_4047_"><path id="XMLID_4048_" class="st1" d="M26 46.8c-4.6-6.6-6.6-15.5-5.2-24.8-3.5.2-6.8.9-9.9 2.3l-1.9.8c-4.4 9-6.6 18.3-3.5 22.7C9.5 53.6 22.9 56 35 55c-3.6-2-6.7-4.8-9-8.2z"/><path id="XMLID_4049_" class="st1" d="M49.3 19.4C49 23 47.8 26.6 46.1 30c-3.6 7-10.2 13-18.5 16.2 2.2 3.1 5 5.6 8.2 7.4l2.1 1.2c8.2-1.1 15.4-3.9 17.9-8.4 3.4-5.9-.4-17.4-6.5-27z"/><path id="XMLID_4050_" class="st1" d="M47.5 19.3l.1-.8.1-1.5c-5.6-8.3-12-14-17.6-13.8-.6 0-1.2.1-1.9.3-5.9 1.7-13 10-18 19.2 3.4-1.5 7.1-2.3 10.8-2.4 8.2-.3 16.9 2.5 23.7 8.5 1.6-3.1 2.5-6.3 2.8-9.5z"/></g></g></svg>