<svg xmlns="http://www.w3.org/2000/svg" width="100" height="22" viewBox="0 0 100 22"><path fill="#FFF" d="M5.17 17.57c-.98-.99-1.47-2.31-1.47-3.97 0-1.68.49-3.03 1.47-4.06s2.2-1.55 3.66-1.55c.6 0 1.17.08 1.7.24.53.16.91.31 1.14.47l.35.25-.2.43c-.79-.6-1.79-.91-3.02-.91-1.24 0-2.31.47-3.22 1.42-.91.95-1.36 2.18-1.36 3.71 0 1.51.45 2.72 1.36 3.62.91.91 1.98 1.36 3.22 1.36.54 0 1.06-.08 1.56-.23.5-.15.87-.3 1.11-.45l.35-.23.2.43c-.79.64-1.85.96-3.19.96-1.46-.01-2.68-.51-3.66-1.49zm22.25-9.33h.38l.13 2.21h.02l.02-.05c.02-.05.05-.13.11-.23s.13-.21.2-.33c.08-.12.18-.25.3-.39.13-.14.26-.28.4-.42.14-.13.32-.26.53-.39.21-.13.43-.24.67-.34.23-.1.51-.18.82-.24.31-.06.63-.09.97-.09 1.37 0 2.44.47 3.21 1.4.76.93 1.14 2.13 1.14 3.61v5.81h-.5v-5.78c0-1.36-.33-2.46-1.01-3.29-.67-.84-1.63-1.26-2.89-1.26-.87 0-1.62.22-2.25.67-.63.44-1.07.94-1.33 1.48s-.4 1.08-.41 1.6v6.59h-.5V8.24zm20.59 9.68c-.1.08-.25.19-.44.31-.19.13-.61.29-1.25.5-.64.21-1.29.31-1.96.31-1.46 0-2.66-.49-3.6-1.48s-1.41-2.31-1.41-3.97c0-1.76.45-3.14 1.35-4.12.9-.99 2.03-1.48 3.41-1.48 1.41 0 2.51.46 3.31 1.37.8.91 1.19 2.15 1.19 3.71v.15h-8.73v.38c0 1.51.43 2.72 1.3 3.62.86.91 1.92 1.36 3.18 1.36.65 0 1.26-.09 1.82-.26.56-.18.96-.36 1.19-.54l.38-.28.26.42zm-6.67-8.34c-.78.75-1.24 1.79-1.4 3.13h8.15c-.03-1.17-.4-2.18-1.09-3.01-.7-.83-1.66-1.24-2.88-1.24-1.08 0-2 .38-2.78 1.12zm2.67-3.28h-.38l1.46-3.57.78.1-1.86 3.47zm8.37 11.27c-.98-.99-1.47-2.31-1.47-3.97 0-1.68.49-3.03 1.47-4.06s2.2-1.55 3.66-1.55c.6 0 1.17.08 1.7.24.53.16.91.31 1.14.47l.35.25-.2.43c-.79-.6-1.79-.91-3.02-.91-1.24 0-2.31.47-3.22 1.42-.91.95-1.36 2.18-1.36 3.71 0 1.51.45 2.72 1.36 3.62.91.91 1.98 1.36 3.22 1.36.54 0 1.06-.08 1.56-.23.5-.15.87-.3 1.11-.45l.35-.23.2.43c-.79.64-1.85.96-3.19.96-1.46-.01-2.68-.51-3.66-1.49zM62.9 8.24V5.02h.5v3.22h3.32v.48H63.4v7.65c0 1.48.65 2.21 1.96 2.21.29 0 .56-.04.82-.11.26-.08.45-.15.57-.21l.18-.1.18.43c-.39.32-.98.48-1.79.48-.77 0-1.37-.23-1.79-.7-.42-.47-.63-1.1-.63-1.89V8.71h-2.11v-.47h2.11zM77.24 18.8h-.38l-.08-2.24h-.05c-.35.67-.93 1.25-1.74 1.75s-1.71.74-2.72.74c-1.29 0-2.27-.3-2.94-.91-.67-.6-1.01-1.37-1.01-2.29s.37-1.69 1.11-2.31c.74-.62 1.89-.93 3.47-.93 1.51 0 2.78.29 3.82.86v-.88c0-2.75-1.33-4.12-4-4.12-.52 0-1.06.08-1.61.23-.55.15-.97.3-1.26.45l-.45.23-.23-.45c1.07-.62 2.29-.93 3.65-.93 1.48 0 2.58.42 3.31 1.26.73.84 1.09 1.96 1.09 3.37v6.17zm-1.88-1.31c.85-.72 1.3-1.39 1.37-2.01V14c-1.06-.6-2.31-.91-3.77-.91-1.43 0-2.47.26-3.13.78-.66.52-.99 1.18-.99 1.99 0 .77.3 1.42.89 1.94.6.52 1.47.78 2.63.78s2.16-.37 3-1.09zm6.1-9.25V5.02h.5v3.22h3.32v.48h-3.32v7.65c0 1.48.65 2.21 1.96 2.21.28 0 .56-.04.82-.11.26-.08.45-.15.57-.21l.18-.1.18.43c-.39.32-.98.48-1.79.48-.77 0-1.37-.23-1.79-.7-.42-.47-.63-1.1-.63-1.89V8.71h-2.11v-.47h2.11zm14.24 9.68c-.1.08-.25.19-.44.31-.19.13-.61.29-1.25.5-.64.21-1.29.31-1.96.31-1.46 0-2.66-.49-3.6-1.48s-1.41-2.31-1.41-3.97c0-1.76.45-3.14 1.35-4.12.9-.99 2.03-1.48 3.41-1.48 1.41 0 2.51.46 3.31 1.37.8.91 1.19 2.15 1.19 3.71v.15h-8.73v.38c0 1.51.43 2.72 1.3 3.62.86.91 1.92 1.36 3.18 1.36.65 0 1.26-.09 1.82-.26.56-.18.96-.36 1.19-.54l.38-.28.26.42zm-6.68-8.34c-.78.75-1.24 1.79-1.4 3.13h8.15c-.03-1.17-.4-2.18-1.09-3.01-.7-.83-1.66-1.24-2.88-1.24-1.08 0-2 .38-2.78 1.12z"/><path d="M15.35 17.36c-.02.03-.05.06-.08.08a.79.79 0 0 1-1.11-.09c-.25-.3-.25-.74.01-1.03a5.772 5.772 0 0 1 .95-6.86c2.1-2.1 5.41-2.23 7.66-.41-.04.02-.07.05-.1.08-.08.07-.15.14-.2.22a5.326 5.326 0 0 0-7.07.41 5.35 5.35 0 0 0-.9 6.33c.29-.1.63-.01.84.23.27.32.26.76 0 1.04zm7.89.24c-2.09 2.09-5.42 2.23-7.66.4.04-.02.07-.05.1-.08.08-.07.15-.14.2-.22a5.326 5.326 0 0 0 7.07-.4 5.338 5.338 0 0 0 .9-6.33c-.29.1-.63.01-.84-.24-.25-.3-.25-.74.01-1.03l.08-.08c.33-.28.83-.25 1.11.09.25.3.25.74-.01 1.03.11.2.2.39.28.6.88 2.09.43 4.58-1.24 6.26z" fill="#00FA71"/><circle fill="#00FA71" cx="19.18" cy="13.53" r=".83"/></svg>