<?xml version="1.0" encoding="utf-8"?>
<!-- Generator: Adobe Illustrator 17.0.0, SVG Export Plug-In . SVG Version: 6.00 Build 0)  -->
<!DOCTYPE svg PUBLIC "-//W3C//DTD SVG 1.0//EN" "http://www.w3.org/TR/2001/REC-SVG-20010904/DTD/svg10.dtd">
<svg version="1.0" id="Capa_1" xmlns="http://www.w3.org/2000/svg" xmlns:xlink="http://www.w3.org/1999/xlink" x="0px" y="0px"
	 width="18px" height="18px" viewBox="0 0 18 18" enable-background="new 0 0 18 18" xml:space="preserve">
<g>
	<path fill="none" stroke="#00FB71" stroke-miterlimit="10" d="M9.89,16.42H8.11c-3.59,0-6.53-2.94-6.53-6.53V8.11
		c0-3.59,2.94-6.53,6.53-6.53h1.79c3.59,0,6.53,2.94,6.53,6.53v1.79C16.42,13.48,13.48,16.42,9.89,16.42z"/>
	<g>
		<path fill="#00FB71" d="M9.6,8.2v5.82H8.26V8.2H6.99V7.14h1.26V6.4c0-0.75,0.21-1.35,0.63-1.78c0.42-0.43,1.01-0.65,1.76-0.65
			c0.28,0,0.55,0.03,0.8,0.08c0.25,0.06,0.42,0.11,0.53,0.16l0.16,0.08l-0.41,1.05c-0.28-0.14-0.62-0.21-1-0.21
			c-0.35,0-0.63,0.11-0.83,0.32C9.7,5.67,9.6,5.97,9.6,6.35v0.79h1.98V8.2H9.6z"/>
	</g>
</g>
</svg>
