<?xml version="1.0" encoding="utf-8"?>
<!-- Generator: Adobe Illustrator 17.0.0, SVG Export Plug-In . SVG Version: 6.00 Build 0)  -->
<!DOCTYPE svg PUBLIC "-//W3C//DTD SVG 1.1//EN" "http://www.w3.org/Graphics/SVG/1.1/DTD/svg11.dtd">
<svg version="1.1" id="Capa_1" xmlns="http://www.w3.org/2000/svg" xmlns:xlink="http://www.w3.org/1999/xlink" x="0px" y="0px"
	 width="100px" height="100px" viewBox="0 0 100 100" enable-background="new 0 0 100 100" xml:space="preserve">
<g>
	<g id="XMLID_1_">
		<g>
			<path fill="#FCFCFC" d="M50,24.3c14.19,0,25.7,11.51,25.7,25.7S64.19,75.7,50,75.7S24.3,64.19,24.3,50S35.81,24.3,50,24.3z
				 M54.19,45.41l1.58-2.38l-0.47-0.38c-0.33-0.25-0.93-0.53-1.81-0.82c-0.88-0.29-1.87-0.48-2.97-0.56v-3.05h-1.73v3.05
				c-1.79,0.14-3.18,0.65-4.15,1.53c-0.96,0.88-1.45,2.03-1.45,3.46c0,1.31,0.44,2.35,1.32,3.12c0.88,0.77,2.31,1.46,4.28,2.07v5.45
				c-1.66-0.19-3.05-0.75-4.16-1.67l-1.58,2.2l0.58,0.5c0.37,0.31,1.04,0.65,2,1.01c0.95,0.36,2.01,0.58,3.16,0.66v2.76h1.73V59.6
				c1.86-0.13,3.28-0.69,4.26-1.65c0.97-0.97,1.46-2.19,1.46-3.66c0-1.33-0.44-2.41-1.33-3.25s-2.35-1.56-4.39-2.14V44
				C52.07,44.16,53.29,44.63,54.19,45.41z"/>
			<path d="M55.77,43.03l-1.58,2.38c-0.9-0.78-2.12-1.25-3.67-1.41v4.9c2.04,0.58,3.5,1.3,4.39,2.14s1.33,1.92,1.33,3.25
				c0,1.47-0.49,2.69-1.46,3.66c-0.98,0.96-2.4,1.52-4.26,1.65v2.76h-1.73V59.6c-1.15-0.08-2.21-0.3-3.16-0.66
				c-0.96-0.36-1.63-0.7-2-1.01l-0.58-0.5l1.58-2.2c1.11,0.92,2.5,1.48,4.16,1.67v-5.45c-1.97-0.61-3.4-1.3-4.28-2.07
				c-0.88-0.77-1.32-1.81-1.32-3.12c0-1.43,0.49-2.58,1.45-3.46c0.97-0.88,2.36-1.39,4.15-1.53v-3.05h1.73v3.05
				c1.1,0.08,2.09,0.27,2.97,0.56c0.88,0.29,1.48,0.57,1.81,0.82L55.77,43.03z M53.02,54.5c0-0.57-0.18-1.04-0.55-1.41
				c-0.36-0.37-1.01-0.73-1.95-1.08v4.87C52.19,56.64,53.02,55.85,53.02,54.5z M48.79,48.34V44c-1.6,0.22-2.4,0.93-2.4,2.14
				c0,0.49,0.18,0.9,0.54,1.23C47.29,47.71,47.91,48.03,48.79,48.34z"/>
			<path fill="#FCFCFC" d="M52.47,53.09c0.37,0.37,0.55,0.84,0.55,1.41c0,1.35-0.83,2.14-2.5,2.38v-4.87
				C51.46,52.36,52.11,52.72,52.47,53.09z"/>
			<path fill="#FCFCFC" d="M48.79,44v4.34c-0.88-0.31-1.5-0.63-1.86-0.97c-0.36-0.33-0.54-0.74-0.54-1.23
				C46.39,44.93,47.19,44.22,48.79,44z"/>
		</g>
		<g>
			<path fill="none" stroke="#000000" stroke-width="2" stroke-linejoin="round" stroke-miterlimit="10" d="M75.7,50
				c0,14.19-11.51,25.7-25.7,25.7S24.3,64.19,24.3,50S35.81,24.3,50,24.3S75.7,35.81,75.7,50z"/>
		</g>
	</g>
</g>
</svg>
