<?xml version="1.0" encoding="utf-8"?>
<!-- Generator: Adobe Illustrator 17.0.0, SVG Export Plug-In . SVG Version: 6.00 Build 0)  -->
<!DOCTYPE svg PUBLIC "-//W3C//DTD SVG 1.0//EN" "http://www.w3.org/TR/2001/REC-SVG-20010904/DTD/svg10.dtd">
<svg version="1.0" id="Capa_1" xmlns="http://www.w3.org/2000/svg" xmlns:xlink="http://www.w3.org/1999/xlink" x="0px" y="0px"
	 width="18px" height="18px" viewBox="0 0 18 18" enable-background="new 0 0 18 18" xml:space="preserve">
<g>
	<path fill="none" stroke="#00FB71" stroke-miterlimit="10" d="M9.89,16.42H8.11c-3.59,0-6.53-2.94-6.53-6.53V8.11
		c0-3.59,2.94-6.53,6.53-6.53h1.79c3.59,0,6.53,2.94,6.53,6.53v1.79C16.42,13.48,13.48,16.42,9.89,16.42z"/>
	<path fill="none" stroke="#00FB71" stroke-miterlimit="10" d="M9.24,11.73H8.76c-1.37,0-2.49-1.12-2.49-2.49V8.76
		c0-1.37,1.12-2.49,2.49-2.49h0.47c1.37,0,2.49,1.12,2.49,2.49v0.47C11.73,10.61,10.61,11.73,9.24,11.73z"/>
	<path fill="none" stroke="#00FB71" stroke-miterlimit="10" d="M12.49,4.76h0.08c0.23,0,0.42,0.19,0.42,0.42v0.08
		c0,0.23-0.19,0.42-0.42,0.42h-0.08c-0.23,0-0.42-0.19-0.42-0.42V5.18C12.07,4.95,12.26,4.76,12.49,4.76z"/>
</g>
</svg>
