<?xml version="1.0" encoding="utf-8"?>
<!-- Generator: Adobe Illustrator 17.0.0, SVG Export Plug-In . SVG Version: 6.00 Build 0)  -->
<!DOCTYPE svg PUBLIC "-//W3C//DTD SVG 1.1//EN" "http://www.w3.org/Graphics/SVG/1.1/DTD/svg11.dtd">
<svg version="1.1" id="Capa_1" xmlns="http://www.w3.org/2000/svg" xmlns:xlink="http://www.w3.org/1999/xlink" x="0px" y="0px"
	 width="100px" height="100px" viewBox="0 0 100 100" enable-background="new 0 0 100 100" xml:space="preserve">
<g>
	<g id="XMLID_1_">
		<g>
			<path fill="#FCFCFC" d="M50,24.3c14.19,0,25.7,11.51,25.7,25.7S64.19,75.7,50,75.7S24.3,64.19,24.3,50S35.81,24.3,50,24.3z"/>
		</g>
		<g>
			<path fill="none" stroke="#000000" stroke-width="2" stroke-linejoin="round" stroke-miterlimit="10" d="M75.7,50
				c0,14.19-11.51,25.7-25.7,25.7S24.3,64.19,24.3,50S35.81,24.3,50,24.3S75.7,35.81,75.7,50z"/>
			<path fill="none" stroke="#000000" stroke-width="2" stroke-linejoin="round" stroke-miterlimit="10" d="M65.84,50
				c0,8.75-7.09,15.84-15.84,15.84S34.16,58.75,34.16,50"/>
			
				<line fill="none" stroke="#000000" stroke-width="2" stroke-linecap="round" stroke-linejoin="round" stroke-miterlimit="10" x1="43.46" y1="42.58" x2="43.46" y2="46.09"/>
			
				<line fill="none" stroke="#000000" stroke-width="2" stroke-linecap="round" stroke-linejoin="round" stroke-miterlimit="10" x1="55.6" y1="42.58" x2="55.6" y2="46.09"/>
		</g>
	</g>
</g>
</svg>
