<?xml version="1.0" encoding="utf-8"?>
<!-- Generator: Adobe Illustrator 17.0.0, SVG Export Plug-In . SVG Version: 6.00 Build 0)  -->
<!DOCTYPE svg PUBLIC "-//W3C//DTD SVG 1.1//EN" "http://www.w3.org/Graphics/SVG/1.1/DTD/svg11.dtd">
<svg version="1.1" id="Capa_1" xmlns="http://www.w3.org/2000/svg" xmlns:xlink="http://www.w3.org/1999/xlink" x="0px" y="0px"
	 width="100px" height="100px" viewBox="0 0 100 100" enable-background="new 0 0 100 100" xml:space="preserve">
<g id="spa-space-walk_1_">
	<g id="XMLID_1_">
		<g>
			<path fill="#FCFCFC" d="M79.33,26.14c3.97,3.97,4.07,10.28,0.26,14.09c0,0-0.29-4.18-5.58-9.48c-5.29-5.29-8.78-4.88-8.78-4.88
				C69.04,22.06,75.36,22.17,79.33,26.14z"/>
			<path fill="#FCFCFC" d="M60.72,35.67c0.12-2.66,1.2-5.37,2.67-7.54c0.57-0.85,1.19-1.61,1.84-2.26c0,0,3.49-0.41,8.78,4.88
				c5.29,5.3,5.58,9.48,5.58,9.48c-0.65,0.65-1.41,1.27-2.25,1.84c-2.17,1.46-4.89,2.55-7.55,2.67c-2.39,0.11-4.73-0.57-6.62-2.45
				C61.29,40.41,60.61,38.06,60.72,35.67z"/>
			<path fill="#FCFCFC" d="M78.03,42.76c1.41,1.41,1.41,3.7,0,5.11l-3.84,3.84c-1.55-4.16-4.4-6.97-4.4-6.97
				c2.66-0.12,5.38-1.21,7.55-2.67L78.03,42.76z"/>
			<path fill="#FCFCFC" d="M75.15,64.02c0,2.95,0,4.82,0,4.82c0,2.19-1.71,4.81-4.81,4.81c-3.1,0-4.82-2.62-4.82-4.81v-4.82H75.15z"
				/>
			<path fill="#FCFCFC" d="M53.75,31.28c4,1.48,6.76,4.18,6.97,4.39c-0.11,2.39,0.57,4.74,2.45,6.62c1.89,1.88,4.23,2.56,6.62,2.45
				c0,0,2.85,2.81,4.4,6.97c0.57,1.54,0.96,3.26,0.96,5.09c0,2.73,0,5.22,0,7.22h-9.63V56.8l-21.5,21.65l-6.8-6.8l6.81-6.81
				c0.94-0.94,0.94-2.46,0-3.4c-0.94-0.94-2.47-0.94-3.41,0l-6.81,6.81l-6.8-6.8l21.66-21.51h-7.23v-9.63c2,0,4.49,0,7.23,0
				C50.5,30.31,52.22,30.7,53.75,31.28z M55.89,56.8l7.22-7.23l-7.22-7.22l-7.22,7.22L55.89,56.8z"/>
			<path fill="#FCFCFC" d="M62.7,27.44l0.69,0.69c-1.47,2.17-2.55,4.88-2.67,7.54c-0.21-0.21-2.97-2.91-6.97-4.39l3.84-3.84
				C59,26.03,61.29,26.03,62.7,27.44z"/>
			<polygon fill="#FCFCFC" points="63.11,49.57 55.89,56.8 48.67,49.57 55.89,42.35 			"/>
			<path fill="#FCFCFC" d="M44.02,78.45l-3.4,3.42c-0.83,0.82-2.08,1.39-3.41,1.41c-1.16,0.02-2.38-0.39-3.4-1.41
				c-2.19-2.19-1.55-5.26,0-6.81l3.41-3.41L44.02,78.45z"/>
			<path fill="#FCFCFC" d="M41.44,30.31v9.63h-4.81c-2.2,0-4.82-1.72-4.82-4.82c0-3.1,2.62-4.81,4.82-4.81
				C36.63,30.31,38.5,30.31,41.44,30.31z"/>
			<path fill="#FCFCFC" d="M33.81,68.25l-3.41,3.4c-1.55,1.55-4.61,2.19-6.81,0c-1.02-1.03-1.43-2.24-1.41-3.41
				c0.02-1.32,0.59-2.57,1.41-3.4l3.42-3.39L33.81,68.25z"/>
		</g>
		<g>
			<polyline fill="none" stroke="#000000" stroke-width="2" stroke-linejoin="round" stroke-miterlimit="10" points="44.03,78.46 
				44.02,78.45 37.22,71.65 			"/>
			<polyline fill="none" stroke="#000000" stroke-width="2" stroke-linejoin="round" stroke-miterlimit="10" points="27,61.44 
				27.01,61.45 33.81,68.25 			"/>
			
				<polygon fill="none" stroke="#000000" stroke-width="2" stroke-linecap="round" stroke-linejoin="round" stroke-miterlimit="10" points="
				55.89,56.8 48.67,49.57 55.89,42.35 63.11,49.57 			"/>
			<path fill="none" stroke="#000000" stroke-width="2" stroke-linecap="round" stroke-linejoin="round" stroke-miterlimit="10" d="
				M79.59,40.23c-0.65,0.65-1.41,1.27-2.25,1.84c-2.17,1.46-4.89,2.55-7.55,2.67c-2.39,0.11-4.73-0.57-6.62-2.45
				c-1.88-1.88-2.56-4.23-2.45-6.62c0.12-2.66,1.2-5.37,2.67-7.54c0.57-0.85,1.19-1.61,1.84-2.26c3.81-3.81,10.13-3.7,14.1,0.27
				S83.4,36.42,79.59,40.23z"/>
			<path fill="none" stroke="#000000" stroke-width="2" stroke-linecap="round" stroke-linejoin="round" stroke-miterlimit="10" d="
				M65.23,25.87c0,0,3.49-0.41,8.78,4.88c5.29,5.3,5.58,9.48,5.58,9.48"/>
			
				<line fill="none" stroke="#000000" stroke-width="2" stroke-linecap="round" stroke-linejoin="round" stroke-miterlimit="10" x1="41.44" y1="30.31" x2="41.44" y2="39.94"/>
			<path fill="none" stroke="#000000" stroke-width="2" stroke-linecap="round" stroke-linejoin="round" stroke-miterlimit="10" d="
				M60.73,35.68c0,0,0,0-0.01-0.01c-0.21-0.21-2.97-2.91-6.97-4.39c-1.53-0.58-3.25-0.97-5.08-0.97c-2.74,0-5.23,0-7.23,0
				c-2.94,0-4.81,0-4.81,0c-2.2,0-4.82,1.71-4.82,4.81c0,3.1,2.62,4.82,4.82,4.82h4.81h7.23L27.01,61.45l-3.42,3.39
				c-0.82,0.83-1.39,2.08-1.41,3.4c-0.02,1.17,0.39,2.38,1.41,3.41c2.2,2.19,5.26,1.55,6.81,0l3.41-3.4l6.81-6.81
				c0.94-0.94,2.47-0.94,3.41,0c0.94,0.94,0.94,2.46,0,3.4l-6.81,6.81l-3.41,3.41c-1.55,1.55-2.19,4.62,0,6.81
				c1.02,1.02,2.24,1.43,3.4,1.41c1.33-0.02,2.58-0.59,3.41-1.41l3.4-3.42l21.5-21.65"/>
			
				<line fill="none" stroke="#000000" stroke-width="2" stroke-linecap="round" stroke-linejoin="round" stroke-miterlimit="10" x1="75.15" y1="64.02" x2="65.52" y2="64.02"/>
			<path fill="none" stroke="#000000" stroke-width="2" stroke-linecap="round" stroke-linejoin="round" stroke-miterlimit="10" d="
				M69.79,44.74c0,0,2.85,2.81,4.4,6.97c0.57,1.54,0.96,3.26,0.96,5.09c0,2.73,0,5.22,0,7.22c0,2.95,0,4.82,0,4.82
				c0,2.19-1.71,4.81-4.81,4.81c-3.1,0-4.82-2.62-4.82-4.81v-4.82V56.8"/>
			<path fill="none" stroke="#000000" stroke-width="2" stroke-linecap="round" stroke-linejoin="round" stroke-miterlimit="10" d="
				M53.72,31.31l0.03-0.03l3.84-3.84c1.41-1.41,3.7-1.41,5.11,0l0.69,0.69"/>
			<path fill="none" stroke="#000000" stroke-width="2" stroke-linecap="round" stroke-linejoin="round" stroke-miterlimit="10" d="
				M74.15,51.75l0.04-0.04l3.84-3.84c1.41-1.41,1.41-3.7,0-5.11l-0.69-0.69"/>
			<path fill="none" stroke="#000000" stroke-width="2" stroke-linecap="round" stroke-linejoin="round" stroke-miterlimit="10" d="
				M17.36,18.27c0,0,3.38,7.22,10.84,7.22c8.57,0,9.63-4.81,16.85-4.81c6.02,0,10.84,8.43,10.84,8.43"/>
		</g>
	</g>
</g>
</svg>
