<?xml version="1.0" encoding="utf-8"?>
<!-- Generator: Adobe Illustrator 17.0.0, SVG Export Plug-In . SVG Version: 6.00 Build 0)  -->
<!DOCTYPE svg PUBLIC "-//W3C//DTD SVG 1.1//EN" "http://www.w3.org/Graphics/SVG/1.1/DTD/svg11.dtd">
<svg version="1.1" id="Capa_1" xmlns="http://www.w3.org/2000/svg" xmlns:xlink="http://www.w3.org/1999/xlink" x="0px" y="0px"
	 width="100px" height="100px" viewBox="0 0 100 100" enable-background="new 0 0 100 100" xml:space="preserve">
<g id="spa-moon-flag_1_">
	<g id="XMLID_2_">
		<g>
			<path fill="#FCFCFC" d="M29.04,35.06c5.31-6.33,13.26-10.35,22.16-10.35c15.96,0,28.9,12.94,28.9,28.9S67.16,82.5,51.2,82.5
				S22.31,69.57,22.31,53.62C22.31,46.56,24.84,40.08,29.04,35.06z"/>
			
				<rect x="21.16" y="20.46" transform="matrix(0.7071 -0.7071 0.7071 0.7071 -9.535 26.4206)" fill="#FCFCFC" width="11.92" height="8.51"/>
		</g>
		<g>
			<path fill="none" stroke="#000000" stroke-width="2" stroke-linecap="round" stroke-linejoin="round" stroke-miterlimit="10" d="
				M60.77,69.5c-0.38-1.22-2.28-1.78-4.24-1.24c-1.95,0.53-3.23,1.95-2.85,3.17s2.27,1.77,4.23,1.24"/>
			<path fill="none" stroke="#000000" stroke-width="2" stroke-linecap="round" stroke-linejoin="round" stroke-miterlimit="10" d="
				M58.2,36.49c-1.14-2.54-6.28-2.86-11.47-0.71c-5.2,2.14-8.48,5.94-7.34,8.48c1.14,2.54,6.28,2.86,11.47,0.71"/>
			<path fill="none" stroke="#000000" stroke-width="2" stroke-linecap="round" stroke-linejoin="round" stroke-miterlimit="10" d="
				M37.49,65.5c-1.68,0.75-3.91-1.28-4.98-4.52c-1.08-3.24-0.58-6.47,1.1-7.21c1.68-0.74,3.92,1.28,4.99,4.52"/>
			<path fill="none" stroke="#000000" stroke-width="2" stroke-linecap="round" stroke-linejoin="round" stroke-miterlimit="10" d="
				M69.35,55.9c-1.12,0.6-2.61-1.02-3.32-3.61c-0.72-2.59-0.39-5.18,0.74-5.77c1.12-0.6,2.6,1.02,3.32,3.61"/>
			<path fill="none" stroke="#000000" stroke-width="2" stroke-miterlimit="10" d="M22.31,53.62c0-7.06,2.53-13.54,6.73-18.55
				c5.31-6.33,13.26-10.35,22.16-10.35c15.96,0,28.9,12.94,28.9,28.9S67.16,82.5,51.2,82.5S22.31,69.57,22.31,53.62z"/>
			
				<rect x="22.87" y="18.76" transform="matrix(0.7071 0.7071 -0.7071 0.7071 25.4244 -11.94)" fill="none" stroke="#000000" stroke-width="2" stroke-linecap="round" stroke-linejoin="round" stroke-miterlimit="10" width="8.51" height="11.92"/>
			
				<polyline fill="none" stroke="#000000" stroke-width="2" stroke-linecap="round" stroke-linejoin="round" stroke-miterlimit="10" points="
				31.94,37.97 29.04,35.06 25.92,31.94 			"/>
		</g>
	</g>
</g>
</svg>
