<?xml version="1.0" encoding="utf-8"?>
<!-- Generator: Adobe Illustrator 17.0.0, SVG Export Plug-In . SVG Version: 6.00 Build 0)  -->
<!DOCTYPE svg PUBLIC "-//W3C//DTD SVG 1.1//EN" "http://www.w3.org/Graphics/SVG/1.1/DTD/svg11.dtd">
<svg version="1.1" id="Capa_1" xmlns="http://www.w3.org/2000/svg" xmlns:xlink="http://www.w3.org/1999/xlink" x="0px" y="0px"
	 width="130px" height="10px" viewBox="0 0 130 10" enable-background="new 0 0 130 10" xml:space="preserve">
<g>
	<g id="XMLID_1_">
		<g>
			<path fill="#FCFCFC" d="M121.35,1.82c1.76,0,3.18,1.43,3.18,3.18c0,1.76-1.42,3.18-3.18,3.18c-1.75,0-3.18-1.42-3.18-3.18
				C118.17,3.25,119.6,1.82,121.35,1.82z"/>
			<path fill="#FCFCFC" d="M8.64,1.82c1.76,0,3.18,1.43,3.18,3.18c0,1.76-1.42,3.18-3.18,3.18C6.89,8.18,5.46,6.76,5.46,5
				C5.46,3.25,6.89,1.82,8.64,1.82z"/>
		</g>
		<g>
			
				<line fill="none" stroke="#000000" stroke-width="0.75" stroke-linecap="round" stroke-linejoin="round" stroke-miterlimit="10" x1="11.82" y1="5" x2="118.17" y2="5"/>
			
				<path fill="none" stroke="#000000" stroke-width="0.75" stroke-linecap="round" stroke-linejoin="round" stroke-miterlimit="10" d="
				M11.82,5c0,1.76-1.42,3.18-3.18,3.18C6.89,8.18,5.46,6.76,5.46,5c0-1.75,1.43-3.18,3.18-3.18C10.4,1.82,11.82,3.25,11.82,5z"/>
			
				<path fill="none" stroke="#000000" stroke-width="0.75" stroke-linecap="round" stroke-linejoin="round" stroke-miterlimit="10" d="
				M124.53,5c0,1.76-1.42,3.18-3.18,3.18c-1.75,0-3.18-1.42-3.18-3.18c0-1.75,1.43-3.18,3.18-3.18C123.11,1.82,124.53,3.25,124.53,5
				z"/>
		</g>
	</g>
</g>
</svg>
