<?xml version="1.0" encoding="utf-8"?>
<!-- Generator: Adobe Illustrator 17.0.0, SVG Export Plug-In . SVG Version: 6.00 Build 0)  -->
<!DOCTYPE svg PUBLIC "-//W3C//DTD SVG 1.1//EN" "http://www.w3.org/Graphics/SVG/1.1/DTD/svg11.dtd">
<svg version="1.1" id="Capa_1" xmlns="http://www.w3.org/2000/svg" xmlns:xlink="http://www.w3.org/1999/xlink" x="0px" y="0px"
	 width="80px" height="80px" viewBox="0 0 80 80" enable-background="new 0 0 80 80" xml:space="preserve">
<g>
	<path fill="#00FB71" d="M40,15c-13.79,0-25,11.21-25,25s11.21,25,25,25s25-11.21,25-25S53.79,15,40,15z M40,63.66
		c-13.05,0-23.66-10.61-23.66-23.66S26.95,16.34,40,16.34S63.66,26.95,63.66,40S53.05,63.66,40,63.66z"/>
	<path fill="#00FB71" d="M31.71,49.23L40,40.94l8.28,8.29c0.25,0.25,0.7,0.25,0.95,0c0.13-0.13,0.2-0.3,0.2-0.48
		s-0.07-0.35-0.2-0.47L40.94,40l8.29-8.29c0.13-0.13,0.2-0.29,0.2-0.47c0-0.18-0.07-0.34-0.2-0.47c-0.13-0.13-0.29-0.2-0.47-0.2
		s-0.35,0.07-0.47,0.2L40,39.05l-8.29-8.28c-0.26-0.26-0.68-0.26-0.94,0c-0.26,0.26-0.26,0.68,0,0.94L39.05,40l-8.28,8.28
		c-0.13,0.13-0.2,0.29-0.2,0.47s0.07,0.35,0.2,0.47C31.02,49.48,31.46,49.49,31.71,49.23z"/>
</g>
</svg>
