<?xml version="1.0" encoding="utf-8"?>
<!-- Generator: Adobe Illustrator 17.0.0, SVG Export Plug-In . SVG Version: 6.00 Build 0)  -->
<!DOCTYPE svg PUBLIC "-//W3C//DTD SVG 1.1//EN" "http://www.w3.org/Graphics/SVG/1.1/DTD/svg11.dtd">
<svg version="1.1" id="Capa_1" xmlns="http://www.w3.org/2000/svg" xmlns:xlink="http://www.w3.org/1999/xlink" x="0px" y="0px"
	 width="650px" height="500px" viewBox="0 0 650 500" enable-background="new 0 0 650 500" xml:space="preserve">
<g opacity="0.8">
	<path fill="#F3F3F4" d="M134.87,117.34c0,0.17,0,0.17,0,0.34c0.34,0.17,0.34-0.17,0.34-0.51h-0.17
		C135.04,117.34,135.04,117.34,134.87,117.34z"/>
	<path fill="#F3F3F4" d="M59.68,222.24v-0.17C59.51,222.07,59.51,222.24,59.68,222.24z"/>
	<path fill="#F3F3F4" d="M63.41,219.7v-0.17C63.24,219.53,63.24,219.7,63.41,219.7z"/>
	<path fill="#F3F3F4" d="M85.99,152.98v0.17C86.16,153.15,86.16,152.98,85.99,152.98z"/>
	<path fill="#F3F3F4" d="M67.82,216.3v-0.17C67.65,216.13,67.65,216.3,67.82,216.3z"/>
	<path fill="#F3F3F4" d="M16.39,220.38h-0.17C16.22,220.54,16.39,220.54,16.39,220.38z"/>
	<path fill="#F3F3F4" d="M112.98,131.26c0.17,0,0.17,0,0.34,0C113.32,131.09,112.98,131.09,112.98,131.26z"/>
	<path fill="#F3F3F4" d="M133.17,180.48c0,0.17,0,0.17,0,0.34c0.34,0.34,0.51-0.51,0.17-0.51
		C133.34,180.48,133.34,180.48,133.17,180.48z"/>
	<path fill="#F3F3F4" d="M141.66,184.39c0.51,0.17,1.02,0.17,1.02-0.51C142.34,183.54,141.66,183.88,141.66,184.39z"/>
	<path fill="#F3F3F4" d="M144.38,184.05c-0.51,0.17-0.68,0.34-1.02,0.51C143.87,185.07,144.21,184.56,144.38,184.05z"/>
	<path fill="#F3F3F4" d="M130.63,179.3c0.17,0,0.51,0,0.51-0.17C130.97,179.13,130.63,179.13,130.63,179.3z"/>
	<path fill="#F3F3F4" d="M132.84,179.97c0.17,0,0.17,0.34,0.34,0.34c0-0.17,0.17-0.34,0.17-0.51
		C133.17,179.8,132.84,179.8,132.84,179.97z"/>
	<path fill="#F3F3F4" d="M130.29,152.81c0.17-0.17,0.17-0.68-0.17-0.68C130.12,152.47,129.95,152.81,130.29,152.81z"/>
	<path fill="#F3F3F4" d="M130.29,153.32c0-0.17-0.34-0.17-0.34,0C130.12,153.32,130.29,153.66,130.29,153.32z"/>
	<path fill="#F3F3F4" d="M141.15,180.31c0.17,0,0.17,0,0.17-0.17C141.15,180.14,141.15,180.14,141.15,180.31z"/>
	<path fill="#F3F3F4" d="M135.89,181.16c-0.51,0-0.85,0.34-0.85-0.34c-0.34,0-0.68,0-1.02,0
		C133.85,181.84,135.89,181.84,135.89,181.16z"/>
	<path fill="#F3F3F4" d="M177.31,152.14c0.17,11.2,0.68,21.56,8.15,25.63c3.57,0.51,6.45,0.68,9.17,2.04
		c0.17-0.34-0.51-0.85-0.17-1.02c1.7,0.51,3.39-1.02,5.09-0.51c2.38-1.19,4.75-2.38,7.13-3.4c2.21-2.72,5.26-4.75,7.81-7.13
		c0,1.53,0.17,2.89,0.17,4.24c2.21,4.24,4.75,8.15,9.34,10.01c4.07-0.17,6.62-1.36,9.51-3.06c3.98-4.51,7.51-9.45,10.84-14.61
		c0.25,1.11,0.49,2.27,0.88,3.57c0.85,1.53,1.7,3.06,2.38,4.75c1.87,2.38,3.9,5.43,6.96,5.94c-0.17,0.51,0.34,0.34,0.34,0.68
		c2.72,0.51,6.11,1.36,7.98,2.21c-0.17-0.17-0.68-0.85-0.34-0.85c5.43,0.51,9.34-1.7,12.9-2.89c2.72-3.06,6.79-4.75,9.68-7.81
		c0.34,0,0.34,0.17,0.68,0.17c0-0.34,0-0.68,0-1.02c2.55-1.7,4.92-3.4,6.45-6.11c0.17,0.17,0.17,0.34,0.51,0.34
		c0.68-1.53,3.06-2.38,2.89-4.24c0.34,0,0.17,0.51,0.51,0.51c0.17-0.51,0.68-0.51,0.51-1.36c1.87-0.51,1.7-2.89,3.06-3.9
		c0.68,0.17,1.7-0.68,1.87-1.7c1.19-0.17,1.36-1.36,1.7-2.21c0-0.34-0.34-0.68-0.17-1.19c1.02,0.51,1.87-1.36,2.72-1.87
		c0.17-0.51-0.51-0.17-0.51-0.68c0.85-0.17,0.85-1.02,1.87-1.02c0.79-1.05,1.68-2.01,2.28-3.25c-1.71,5.84-3.46,11.41-4.99,16.83
		c-1.19,6.96-2.89,15.28-0.17,23.43c-0.34,0.68,0.51,1.19,0,1.87c2.72,2.89,6.45,5.77,11.71,4.41
		c12.86-6.75,21.52-17.69,30.53-28.43c0.58,7.72,2.29,14.2,7.83,17.22c3.57,0.51,6.45,0.68,9.17,2.04c0.17-0.34-0.51-0.85-0.17-1.02
		c1.7,0.51,3.39-1.02,5.09-0.51c2.38-1.19,4.75-2.38,7.13-3.4c2.21-2.72,5.26-4.75,7.81-7.13c0,1.53,0.17,2.89,0.17,4.24
		c2.21,4.24,4.75,8.15,9.34,10.01c4.07-0.17,6.62-1.36,9.51-3.06c7.4-8.39,13.28-18.3,19.13-28.23c-0.16,0.59-0.32,1.17-0.45,1.75
		c-1.36,5.26-2.38,10.19-3.23,15.28c-0.34,2.21-1.19,4.07-1.53,6.62c-0.17,1.7,0.17,3.73-0.51,5.6c0.17,6.45-1.02,12.05,2.21,17.82
		c-0.34,0.17-0.51-0.51-0.68,0c0.17,1.02,1.87,1.87,1.02,2.72c3.4,3.4,7.3,7.3,13.75,6.28c2.89-1.02,4.92-2.89,7.47-4.41
		c0-0.68,0.68-0.51,0.51-1.19c-0.17,0-0.17-0.17,0-0.17v0.17c0.34,0,0.34,0.17,0.51,0.17c3.73-3.9,7.64-8.15,10.86-12.39
		c1.36-1.19,2.89-2.55,3.56-4.58c0.51,0.17,0.51-0.34,0.85-0.34c0.85-1.87,1.7-3.57,3.23-4.58c1.02-2.72,2.55-5.09,4.07-7.47
		c-0.17,0-0.34-0.17-0.34-0.51c1.87-2.04,3.06-4.92,4.07-7.81c1.87-2.04,3.06-4.75,4.24-7.64c0.34,0,0.17-0.51,0.68-0.34
		c0.34-1.36,1.36-2.04,1.53-3.56c0.17,0,0.17,0.17,0.34,0.17c0-0.34,0-0.68,0-1.02c1.02-0.68,1.19-2.21,1.7-3.23
		c-0.17,0-0.17-0.17,0,0c1.36-2.72,3.57-5.94,4.75-9.51c0.51,0.51,0.17-0.34,0.68-0.34c0.85-2.21,2.21-4.07,3.06-6.45
		c1.53-1.7,2.55-3.57,3.23-5.94c0.85-0.34,1.36-1.53,1.19-2.72c0.17,0,0.34,0.34,0.51,0.34c0.34-1.87,1.53-2.55,1.87-4.75
		c-0.17,0.17-0.51,0.34-0.68,0.51c0.17,0,0.17,0.34,0,0c-0.85,0.68-0.85,0.85-1.19,1.87c0.17,0,0.17,0.34,0,0
		c-0.34,0-0.34,0.17-0.51,0.17c-1.02,2.38-2.38,3.23-3.06,5.77c-1.19,0.51-1.53,1.7-2.04,2.72c-0.17-0.17-0.51-0.34-0.51,0
		c0.17,0,0.17,0.34,0.17,0.51c-0.17,0-0.34,0-0.51,0c-0.85,2.04-2.04,3.9-3.57,5.26c-0.51,2.04-1.87,3.4-3.06,4.75
		c0.17,2.04-1.87,2.72-1.53,4.24c-0.51-0.17-0.51,0.34-0.85,0.34c-1.7,3.23-3.23,5.94-5.43,8.66c-0.17,0.85-0.17,1.87-0.85,2.21
		c-0.17,0-0.17-0.34-0.34-0.34c-1.19,3.9-4.07,6.28-5.94,10.36c0-0.17,0-0.34-0.17-0.34c-3.9,4.92-7.81,10.52-11.88,14.6
		c0.17,0.34-0.68,0.51-0.17,1.19c-0.68-0.51-0.85,0.68-1.53,0.51c-2.38,3.06-4.58,6.28-7.81,8.49c-3.73,2.89-6.11,7.13-11.71,8.15
		c-0.68-0.17-0.85-0.51-1.19,0c-0.85-1.19-2.89-2.21-2.55-3.9c-1.02-2.38,0.68-5.43-1.19-7.47c0.68-1.02,1.7-3.23,0.68-4.24
		c0,0.17,0,0.34-0.34,0.34c0-0.17,0.17-0.34,0.34-0.34c0.34-0.17,0.51-0.68,0.85-0.85c-1.19-1.36,0.51-2.55-0.51-3.73
		c0.51,0,0.51-0.51,1.19-0.68c-0.17-1.02,0.51-1.7,0.68-2.89c-0.34-0.17-0.51,0.51-0.68,0c1.36-1.7,0.85-3.4,2.04-4.92
		c0,0.17,0,0.34,0.17,0.34c0.17-0.68,0-0.68,0.17-1.19c1.53-0.85,1.36-3.06,1.53-3.9c0.17-1.02-0.17-2.04,0.85-2.55
		c-0.34-0.51-0.17-1.36-0.51-1.87c0.34-2.38,3.06-4.24,2.38-7.13c0.34,0,0.68,0.17,0.68-0.17c-0.51-2.21,2.04-4.07,2.04-6.79
		c0.17,0,0.34,0,0.51,0c0.68-2.89,0.85-4.41,1.87-6.79c0.17-0.51-0.51-0.34-0.34-0.85c0.85-4.24,3.39-7.98,4.75-12.39
		c0.17-0.34-0.34-0.17-0.34-0.51c0.68,0,0-1.36,1.02-1.19c-0.17-0.68,0.17-1.53,0.51-1.02c-0.51-1.36,1.19-2.21,0.68-4.07
		c0.34,0,0.51-0.17,0.68-0.17c1.02-2.89,2.21-5.77,3.06-8.49c0-0.17-0.17-0.34-0.17-0.68c0-0.34,1.19-0.85,0.51-1.7
		c1.02-0.34,0.68-1.87,0.85-2.89c0.17-0.17,0.68-0.17,0.85-0.34c3.56-10.36,9.84-22.92,14.09-32.76c0-0.34-0.17-0.51-0.17-0.68
		c0.34-0.34,0.68-0.85,1.02-1.19c1.19-4.41,3.73-7.47,5.09-12.56c1.7,0.17,0.34-2.21,1.7-2.21c0-1.87,1.53-2.38,1.36-4.41
		c2.21-2.21,3.06-5.94,6.28-7.47c-0.34-0.34,0.51-0.68,0.68-1.02c0.34,0.34,0.34,0,0.85,0c2.38-3.57-0.85-7.3-4.24-7.81
		c-0.34-0.51-0.85-0.85-0.85-1.7c-0.34-0.17-0.85-0.17-1.02-0.51c-4.07,0.17-4.41-2.38-8.49-3.23c-1.02,0.34-1.7,1.19-1.87,2.21
		c0,0.34,0.17,0.51,0.34,0.68c-2.38,6.79-4.41,11.2-7.13,17.31c-1.36,4.92-3.57,10.69-5.6,14.94c-1.7,5.6-3.73,10.35-5.94,15.62
		c-1.02,3.73-2.89,8.66-4.75,12.73c-4.84,14.83-9.81,28.52-13.88,42.64c-3.55,5.56-6.93,11.25-10.39,16.94
		c-4.92,7.47-9.17,15.96-17.48,20.2c-0.34-0.34-1.36-0.17-1.87-0.51c-0.17-0.68-0.17-1.87-0.34-2.72
		c1.53-6.62,3.39-14.94,6.79-20.71c2.04-6.96,4.58-11.71,6.62-18.67c3.57-2.72,0-5.26-2.04-7.3c-1.53-1.7-3.06-2.89-4.24-3.73
		c-0.85-0.17-1.7-0.17-2.72-0.17c-1.53,1.02-2.55,3.4-2.72,5.09c-0.17,0.34-0.85,0.17-0.85,0.85c-1.36,3.06-2.21,6.62-3.57,9.85
		c-0.34,0.68-1.19,0.85-1.36,1.87c0.34,3.57-2.55,5.26-2.72,9c-0.17,0.68-0.51,0.34-0.68,0.85c-4.07,9.17-10.69,17.14-20.71,21.05
		c-10.36,2.72-9.68-11.54-7.13-17.65c0-0.51,0-0.85,0-1.36c0.85-0.68,0.51-2.55,1.7-2.89c0.17-2.38,2.04-4.41,2.72-7.3
		c1.19-0.85,1.36-2.55,1.87-3.9c1.02-0.51,1.36-1.36,1.53-2.38c0.34-0.34,1.19,0,1.02-0.68c0.85-1.19,1.87-2.21,2.21-3.9
		c2.89-2.04,3.9-5.77,6.96-7.47c0.34-1.36,1.7-1.87,2.21-2.89c3.23-2.04,4.92-5.26,8.66-6.62c0.85-1.53,2.89-1.87,3.73-3.23
		c1.7-0.51,3.06-1.36,4.41-2.04c0.85,0,1.36-0.34,2.21-0.17c0.68,0,1.02,0.51,1.7,0.51c2.21,0,3.73-0.68,4.07-2.38
		c0-3.06-3.06-3.23-3.56-5.94c-3.06-2.38-4.92-6.11-8.49-7.98c-3.06-0.68-4.07,2.55-7.13,3.06c-12.39,11.71-24.61,23.6-33.44,39.04
		c-2.85,5.71-5.7,11.25-6.26,19.25c-0.06,0.09-0.13,0.18-0.19,0.27c-0.17,0-0.34,0-0.51,0c0.17,0.51-0.17,0.51-0.17,0.85
		c-0.51,0.34-0.85,1.02-1.53,1.19c0.34,1.02-1.02,0.51-0.68,1.53c-0.68-0.17-0.34,0.51-0.85,0.51c-4.58,6.62-9.85,12.73-16.47,17.31
		c-4.07,4.07-8.32,7.81-14.77,9.34c-1.02-1.53,1.87-2.72,0.68-4.24c0.17-0.34,0.85-0.17,0.85-0.68c0.17-2.89,1.53-5.43,2.04-9.17
		c0.34,0,0.34-0.51,0.85-0.34c0.51-2.38,0.85-5.09,2.38-6.62c0.51-2.21,1.02-3.57,2.04-5.09c-0.34-2.04,1.53-3.23,1.36-5.43
		c0.17-0.17,0.68-0.17,0.85-0.51c0-0.34-0.34-0.68-0.17-1.19c0.34,0,0.51,0,0.51-0.34c2.04-3.4,2.38-7.13,4.24-10.52
		c0-2.21,1.7-3.57,2.38-4.92c0.51-0.85,0.51-1.87,1.02-2.55c0.85-1.19,2.04-1.87,2.72-3.06c0.51-0.85,0.51-1.87,1.02-2.72
		c1.02-1.7,2.72-3.23,3.22-5.43c0.68-0.68,2.04-1.36,2.04-2.21c-0.17-0.51-1.02-0.51-1.7-0.51c-1.19-2.89-3.9-3.4-6.11-5.09
		c-3.73-0.17-6.11-2.38-10.52-1.53c-1.36,1.7-1.87,3.4-0.85,5.26c-1.9,5.22-4.21,10.85-6.65,16.43c-1.12,0.74-2.2,2.3-2.52,3.26
		c0-0.17,0.34-0.17,0.34,0c-0.34,0.17-0.17,0.85-0.68,0.85c0-0.17,0-0.34,0-0.51c-0.85,0.51-0.85,2.04-2.21,2.21
		c0,1.02-1.19,0.85-1.02,2.04c-2.38,1.7-3.06,4.75-5.77,5.94c0,0.51-0.34,0.68-0.34,1.19c-0.68,0-0.68,0.68-1.19,0.68
		c-1.87,3.23-4.75,5.94-7.81,8.66c-4.58,4.07-9,7.3-14.43,9.68c-0.34,0-0.34-0.17-0.68-0.17c-5.43,3.23-12.05,6.62-19.01,5.94
		c-3.23-2.04-3.56-7.98-3.73-11.54c0.85-0.17,0.17-1.02,0.51-2.21c1.53-2.21,1.02-4.24,2.21-6.62c0-0.34-0.17-0.68-0.34-1.02
		c0.85-0.68,0.34-2.72,1.7-2.89c-0.51-1.36,1.36-2.38,0.85-3.57c0.68-1.02,1.53-2.55,1.53-3.73c1.36-1.02,1.53-2.89,1.87-4.24
		c1.53-0.17,1.02-1.53,1.7-2.38c0.51-0.17,0.51,0.34,0.85,0c0.51-1.7,1.87-2.38,2.21-4.41c2.89-2.04,3.9-5.77,7.13-7.47
		c0.85-1.7,2.04-3.06,3.9-3.73c1.19-1.36,2.55-3.4,4.24-3.73c1.87-1.53,3.73-3.06,6.11-4.07c0.51-0.51,0.85-1.36,1.87-1.36
		c-0.68,8.32-2.21,14.43-1.87,22.07c0.51,0.51,0.51-1.02,1.36-0.68c0.68-3.06,3.06-4.92,3.06-8.15c1.53-1.87,2.21-4.58,3.56-6.62
		c0.51,0.17,0.85-0.17,1.19-0.17c0-0.68,0.34-0.85,0.51-1.53c1.19-0.34,1.19-1.87,1.53-3.23c1.36-1.19,1.36-3.57,2.21-5.26
		c1.02-1.02,2.21-1.87,2.55-3.57c0.51-0.17,0.85-0.85,1.36-1.02c0.51,0,0.51,0.51,1.19,0.34c1.19-1.02,2.72-5.26,1.53-6.62
		c-0.17-0.17-0.68-0.51-1.02-0.85c-0.34-0.34-0.68-0.85-0.68-1.02c-1.19-1.19-3.4-1.53-5.26-2.55c-0.34-0.17-0.51-0.68-0.85-0.85
		c-1.36-0.68-3.23-0.51-4.24-0.85c-0.85,0.68-1.19,1.87-1.02,3.4c-1.36,2.04-1.19,5.43-2.89,7.13c-2.21-2.04-2.21-6.79-6.28-6.28
		c-2.72,2.38-6.45,3.73-9,6.28c-7.3,5.09-12.05,12.73-18.16,19.01c0,1.19-1.02,1.36-1.19,2.21c-6.28,7.47-11.37,15.96-14.09,26.99
		c-0.34,1.87-0.51,3.23-1.02,4.58c-0.27,2.53-0.32,4.97-0.34,7.46c-3.68,5.78-7.64,11.41-13.92,14.61
		c-0.34-0.34-1.36-0.17-1.87-0.51c-0.17-0.68-0.17-1.87-0.34-2.72c1.53-6.62,3.39-14.94,6.79-20.71c2.04-6.96,4.58-11.71,6.62-18.67
		c3.57-2.72,0-5.26-2.04-7.3c-1.53-1.7-3.06-2.89-4.24-3.73c-0.85-0.17-1.7-0.17-2.72-0.17c-1.53,1.02-2.55,3.4-2.72,5.09
		c-0.17,0.34-0.85,0.17-0.85,0.85c-1.36,3.06-2.21,6.62-3.57,9.85c-0.34,0.68-1.19,0.85-1.36,1.87c0.34,3.57-2.55,5.26-2.72,9
		c-0.17,0.68-0.51,0.34-0.68,0.85c-4.07,9.17-10.69,17.14-20.71,21.05c-10.36,2.72-9.68-11.54-7.13-17.65c0-0.51,0-0.85,0-1.36
		c0.85-0.68,0.51-2.55,1.7-2.89c0.17-2.38,2.04-4.41,2.72-7.3c1.19-0.85,1.36-2.55,1.87-3.9c1.02-0.51,1.36-1.36,1.53-2.38
		c0.34-0.34,1.19,0,1.02-0.68c0.85-1.19,1.87-2.21,2.21-3.9c2.89-2.04,3.9-5.77,6.96-7.47c0.34-1.36,1.7-1.87,2.21-2.89
		c3.23-2.04,4.92-5.26,8.66-6.62c0.85-1.53,2.89-1.87,3.73-3.23c1.7-0.51,3.06-1.36,4.41-2.04c0.85,0,1.36-0.34,2.21-0.17
		c0.68,0,1.02,0.51,1.7,0.51c2.21,0,3.73-0.68,4.07-2.38c0-3.06-3.06-3.23-3.56-5.94c-3.06-2.38-4.92-6.11-8.49-7.98
		c-3.06-0.68-4.07,2.55-7.13,3.06c-12.39,11.71-24.61,23.6-33.44,39.04c-2.89,5.77-5.77,11.37-6.28,19.52
		C177.99,151.8,177.31,151.46,177.31,152.14z M438.21,125.99c0,0.17-0.17,0.17-0.34,0.17C437.87,125.99,438.04,125.99,438.21,125.99
		z M422.59,184.9c0.17,0,0.17,0.34,0.34,0.34C422.93,185.75,422.42,185.24,422.59,184.9z M422.59,179.13c0-0.17,0.17-0.17,0.34-0.17
		C422.93,179.13,422.76,179.13,422.59,179.13z M424.97,170.98c0-0.17,0.17-0.17,0.34-0.17
		C425.31,170.98,425.14,170.98,424.97,170.98z"/>
	<path fill="#F3F3F4" d="M305.3,148.4c0,0.17,0,0.17,0,0.34c0.17,0,0.17,0,0.34,0c0-0.17,0-0.17,0-0.34
		C305.47,148.4,305.47,148.4,305.3,148.4z"/>
	<path fill="#F3F3F4" d="M338.4,94.08c0.85-0.17,2.55-0.68,3.4-1.53c0-0.51,0-1.02-0.17-1.36c0.51-0.17,0.51-0.68,1.02-0.85
		c0.85-3.73,2.55-5.43,4.75-7.98c-0.17-1.02,0.51-1.36,1.19-1.7c-0.17-0.51,0.17-0.51,0.17-0.85c2.38-1.87,3.23-5.43,5.26-7.81
		c0.68-0.51,1.53-1.19,2.04-1.87c0.34-0.17,0.68-0.34,1.02-0.51c0-0.51,0.51-0.85,0.68-1.36c-0.68,0.17,0.17-0.34-0.34-0.68
		c1.02-0.85,1.02-1.87,1.53-3.06c-1.19-0.34-0.34-1.02-0.17-1.7c-0.85,0.17-1.19-0.17-2.04-0.17c-2.04-1.53-4.07-2.89-6.96-3.57
		c-1.7-1.53-5.26-2.72-7.64-2.04c-1.19,1.19-1.36,2.55-2.21,3.9c0,0.34,0.68,0,0.68,0.51c-1.53,4.75-3.73,10.01-4.41,15.11
		c-0.68,0,0.17,0.68-0.68,0.68C335.51,83.9,333.65,90.69,338.4,94.08z"/>
	<path fill="#F3F3F4" d="M425.31,196.78c0-0.34-0.17-0.51-0.34-0.51C424.97,196.61,425.14,196.78,425.31,196.78z"/>
	<path fill="#F3F3F4" d="M491.51,117.51c-0.51,0-0.51,0.17-0.51,0.68C491.51,118.36,491.17,117.68,491.51,117.51z"/>
	<path fill="#F3F3F4" d="M425.99,197.46c0-0.17,0-0.17-0.17-0.17C425.82,197.46,425.82,197.46,425.99,197.46z"/>
	<path fill="#F3F3F4" d="M424.46,195.59c0-0.34-0.34-0.51-0.51-0.68C423.95,195.42,424.12,195.42,424.46,195.59z"/>
	<path fill="#F3F3F4" d="M162.08,349.19c0.17,0,0.51,0,0.51-0.17C162.42,349.02,162.08,349.02,162.08,349.19z"/>
	<path fill="#F3F3F4" d="M143.58,249.54c0-0.17,0.17-0.34,0.17-0.51h-0.17C143.41,249.2,143.24,249.54,143.58,249.54z"/>
	<path fill="#F3F3F4" d="M246.62,235.28c0.34,0.34,0.51-0.17,0.85,0.17C247.63,234.77,246.79,234.94,246.62,235.28z"/>
	<path fill="#F3F3F4" d="M272.12,236.16c-0.07-0.01-0.14-0.01-0.21-0.02C272.01,236.16,272.07,236.16,272.12,236.16z"/>
	<path fill="#F3F3F4" d="M263.42,238.17c0.34,0,0.51-0.17,0.68-0.34c-0.17-0.17-0.85-0.68-1.02-0.17
		C263.25,237.66,263.42,237.83,263.42,238.17z"/>
	<path fill="#F3F3F4" d="M252.56,238.51c0,0.34,0.17,0.34,0.17,0.51c0.51,0.17,0.51-0.34,0.68-0.68c-0.51,0-0.34,0.34-0.68,0
		C252.73,238.51,252.73,238.51,252.56,238.51z"/>
	<path fill="#F3F3F4" d="M258.33,237.83c-0.51,0-0.85,0-1.02-0.17c-0.17,0.51,0.51,0.51,0.17,0.85
		C258.16,238.51,257.82,238.34,258.33,237.83z"/>
	<path fill="#F3F3F4" d="M258.84,237.49c0,0.17,0,0.34,0,0.51C259.35,238.34,259.35,237.32,258.84,237.49z"/>
	<path fill="#F3F3F4" d="M253.41,236.98c-0.17,0.68,0.51,1.02,0.68,0.68c-0.17,0-0.17-0.17,0-0.34
		C253.75,237.32,253.58,237.15,253.41,236.98z"/>
	<path fill="#F3F3F4" d="M257.31,236.13c0.17,0,0.17,0,0.17-0.17C257.31,235.96,257.31,235.96,257.31,236.13z"/>
	<path fill="#F3F3F4" d="M252.73,238.34c0-0.17,0-0.17,0-0.34C252.56,238,252.56,238.34,252.73,238.34z"/>
	<path fill="#F3F3F4" d="M255.78,237.83c-0.34,0.17-0.34,0.51-0.51,0.68c-0.17,0-0.17-0.17-0.17-0.34c-0.34,0-0.68,0.17-0.85,0.51
		c0.85-0.34,0.34,0,0.68,0.34c0.68-0.51,1.87,0.17,2.38-0.85C256.8,237.66,255.95,238.51,255.78,237.83z"/>
	<path fill="#F3F3F4" d="M218.44,235.28c-0.34,0-0.51,0.17-0.51,0.34C218.27,235.62,218.44,235.45,218.44,235.28z"/>
	<path fill="#F3F3F4" d="M138.65,324.06v0.17C138.82,324.23,138.82,324.06,138.65,324.06z"/>
	<path fill="#F3F3F4" d="M264.44,236.98c0,0.17-0.34,0.34-0.34,0.51c0.17,0,0.68,0,0.68-0.17
		C264.61,237.32,264.61,236.98,264.44,236.98z"/>
	<path fill="#F3F3F4" d="M263.76,236.13c-0.34,0-0.68,0-0.68,0.34C263.42,236.47,263.76,236.47,263.76,236.13z"/>
	<path fill="#F3F3F4" d="M261.04,238.34c0.51-0.34,0.85,0.17,1.02-0.34C261.72,237.66,261.21,238,261.04,238.34z"/>
	<path fill="#F3F3F4" d="M260.37,238.51c0-0.34,0.51-0.17,0.34-0.51c-0.17,0-0.34,0-0.51,0C260.2,238.17,260.2,238.51,260.37,238.51
		z"/>
	<path fill="#F3F3F4" d="M250.86,239.02c0.51,0,0.68,0.68,0.85,0C251.54,238.85,250.86,238.68,250.86,239.02z"/>
	<path fill="#F3F3F4" d="M238.64,239.19c0.34-0.34,0.85-0.51,1.19-0.85c-0.34,0.17-0.85,0.17-1.36,0.17
		C238.47,238.85,238.64,238.85,238.64,239.19z"/>
	<path fill="#F3F3F4" d="M237.79,238.68c0.17,0,0.34,0,0.34-0.17C237.96,238.51,237.79,238.51,237.79,238.68z"/>
	<path fill="#F3F3F4" d="M244.41,238.85c-0.51,0.17-0.68,0.17-1.02-0.17v-0.17c-0.17,0-0.17-0.17-0.34-0.17
		c-0.51,0.51,0.34,0.17,0.17,0.85C243.56,239.02,244.58,239.53,244.41,238.85z"/>
	<path fill="#F3F3F4" d="M242.03,239.19c0-0.17,0.34-0.17,0.34-0.34C242.03,238.68,241.52,239.19,242.03,239.19z"/>
	<path fill="#F3F3F4" d="M225.06,240.55c-0.17,0.68,1.02,1.02,1.19,0.51C225.91,240.88,225.74,240.38,225.06,240.55z"/>
	<path fill="#F3F3F4" d="M227.26,240.21c-0.17,0.34-0.68,0.34-1.02,0.68c0.34,0.17,0.51,0.51,1.02,0.34c0-0.51,0.85,0.17,1.19-0.51
		c-0.51,0-0.85-0.17-1.02-0.34C227.43,240.21,227.43,240.21,227.26,240.21z"/>
	<path fill="#F3F3F4" d="M249.84,238.51v-0.17C249.67,238.34,249.67,238.51,249.84,238.51z"/>
	<path fill="#F3F3F4" d="M247.12,238.17c-0.17,0-0.34,0-0.34,0.17C246.95,238.34,247.12,238.34,247.12,238.17z"/>
	<path fill="#F3F3F4" d="M250.52,239.19c0-0.17,0-0.17,0-0.34c-0.17,0-0.17,0-0.34,0c0,0.17,0,0.17,0,0.34
		C250.35,239.19,250.35,239.19,250.52,239.19z"/>
	<path fill="#F3F3F4" d="M251.37,237.15c0,0.34,0,0.68,0.34,0.51C251.71,237.32,251.54,237.15,251.37,237.15z"/>
	<path fill="#F3F3F4" d="M245.26,238.17c0-0.17-0.34-0.17-0.34,0C245.09,238.17,245.26,238.51,245.26,238.17z"/>
	<path fill="#F3F3F4" d="M244.58,239.19c0.68-0.68,1.19,0,1.87,0C246.28,238.51,244.75,238.17,244.58,239.19z"/>
	<path fill="#F3F3F4" d="M347.44,299.62C347.27,299.62,347.27,299.45,347.44,299.62c1.19-2.04,3.23-4.58,3.9-7.64
		c0.34-0.17,0.34-0.51,1.02-0.85c1.36-4.24,5.09-6.96,6.11-11.54c0.17-0.17,1.36-1.36,1.7-1.87c0.17-0.17-0.17-0.85,0-1.02
		c0.17-0.17,0.51-0.17,0.68-0.34c0.34-0.51,0.17-1.53,0.51-2.38c0.68-1.87,2.04-3.56,1.7-4.92c0,0.17,0,0.17-0.17,0.17
		c0,0.17-0.34,0.17,0,0c0-1.36,1.53-2.04,0.68-2.89c0,0.17,0,0.51-0.17,0.51c-0.34-0.34,0-0.68,0.17-1.02
		c-2.04-1.02-1.7-3.23-3.9-4.41c0.17-0.85-1.02-0.85-0.51-1.53c-1.7-1.02-3.06-2.38-4.75-3.39c-1.02,0.34-1.53-0.34-2.55,0
		c-0.85,1.19-1.53,2.55-2.55,3.39c0.34,1.02,1.19,1.53,1.53,2.55c-0.51,0.68-0.68,1.7-0.85,2.21c-4.92,2.55-8.83,6.11-13.41,9
		c0,0.34-0.17,0.51-0.17,0.68c-8.15,5.94-14.94,13.24-22.41,19.69c-2.21,2.38-4.24,4.92-7.13,6.62c0.17-1.87,1.19-2.38,1.36-4.24
		c1.87-2.04,2.55-4.92,4.58-6.79c-0.85,0,0.34-0.34,0-0.85c0.85-0.68,1.36-2.04,2.38-2.55c0-2.38,2.04-3.73,2.38-5.94
		c0.34-0.17,0.34-0.68,1.02-0.51c0-0.34-0.34-0.34-0.17-0.85c2.38-3.4,4.58-6.79,4.41-11.71c-0.85-1.53-1.36-3.4-2.38-4.75
		c-0.51-0.17-1.02-0.34-1.36-0.51c-0.68,0-0.85,0.51-1.53,0.68c-2.38-1.7-3.73-5.09-6.96-5.43c-1.02,0.51-1.7,1.87-2.55,2.04
		c-1.53,3.06-2.21,6.62-4.24,9.51c0,1.19-1.19,1.7-0.85,2.72c-6.28,11.88-12.05,28.35-16.81,42.78c0.51,1.19-0.85,2.04-0.34,3.57
		c-0.19,0.44-0.36,0.9-0.53,1.36c-0.16,0-0.32,0-0.48,0c0.17,0.51-0.17,0.51-0.17,0.85c-0.51,0.34-0.85,1.02-1.53,1.19
		c0.34,1.02-1.02,0.51-0.68,1.53c-0.68-0.17-0.34,0.51-0.85,0.51c-4.58,6.62-9.85,12.73-16.47,17.31
		c-4.07,4.07-8.32,7.81-14.77,9.34c-1.02-1.53,1.87-2.72,0.68-4.24c0.17-0.34,0.85-0.17,0.85-0.68c0.17-2.89,1.53-5.43,2.04-9.17
		c0.34,0,0.34-0.51,0.85-0.34c0.51-2.38,0.85-5.09,2.38-6.62c0.51-2.21,1.02-3.57,2.04-5.09c-0.34-2.04,1.53-3.23,1.36-5.43
		c0.17-0.17,0.68-0.17,0.85-0.51c0-0.34-0.34-0.68-0.17-1.19c0.34,0,0.51,0,0.51-0.34c2.04-3.4,2.38-7.13,4.24-10.52
		c0-2.21,1.7-3.57,2.38-4.92c0.51-0.85,0.51-1.87,1.02-2.55c0.85-1.19,2.04-1.87,2.72-3.06c0.51-0.85,0.51-1.87,1.02-2.72
		c1.02-1.7,2.72-3.23,3.22-5.43c0.68-0.68,2.04-1.36,2.04-2.21c-0.17-0.51-1.02-0.51-1.7-0.51c-1.19-2.89-3.9-3.4-6.11-5.09
		c-3.73-0.17-6.11-2.38-10.52-1.53c-1.36,1.7-1.87,3.4-0.85,5.26c-1.45,3.99-3.14,8.21-4.95,12.48c-0.09-0.42-0.19-0.84-0.31-1.27
		c-0.03,0.91-0.13,1.77-0.25,2.59c-1.41,3.29-2.87,6.59-4.34,9.8c-0.36,1.29-0.73,2.54-1.09,3.8c-0.13,0.16-0.27,0.31-0.43,0.45
		c0,0.17-0.17,0.17-0.17,0.34c0.85-0.17-0.17,0.85,0,0h-0.17c-1.36,5.26-5.09,8.15-7.13,12.73c-0.51,0.51-1.19,0.85-1.53,1.36
		c-0.34,0.51-0.17,0.68-0.34,1.36c-1.02,0.34-2.04,1.87-2.55,3.23c-0.34,0.17-0.51,0.34-0.85,0.51c-1.19,2.55-3.4,4.07-4.58,6.62
		c-3.73,4.24-7.81,8.83-12.56,12.56c-2.21,1.7-4.24,3.23-7.3,3.23c0.17-2.38-1.02-4.07,0-6.62c-0.17-0.34-0.51-0.68-0.51-1.19
		c0.51-0.68,0.68-1.7,1.19-2.38c-0.68-2.55,1.87-4.24,0.68-6.11c1.36-0.85,0.34-2.38,1.53-3.4c-0.34-1.87,0-2.89,0.51-5.09
		c0.85-0.34,1.02-1.19,1.02-2.21c1.36-1.02,1.87-2.72,1.87-4.58c0.51-0.68,0.85-1.36,1.36-1.87c0.17-1.36,1.02-3.23,2.38-3.9
		c1.19-4.75,4.58-8.66,6.11-13.41c2.55-3.06,3.73-7.64,6.62-11.03c1.19-3.39,2.04-6.11,4.24-8.66c2.21-6.79,7.13-12.05,9-18.67
		c0.85-0.68,1.36-1.7,1.7-3.06c-0.85-1.87,0.17-5.09-2.89-4.92c0.17-0.51-0.34-0.51-0.34-0.85c-2.04-0.51-3.73-1.19-5.6-1.7
		c-1.53,0.34-3.57,0.68-4.92,0.17c-1.36,0.85-1.7,2.38-1.87,3.9c-2.38,1.53-4.58,3.4-6.79,5.09c-1.02,2.55-4.75,2.55-5.6,5.26
		c-5.09,3.4-8.49,8.32-13.41,11.88c-2.21,2.72-4.24,5.43-7.13,7.3c0,0.51-0.51,0.51-0.34,1.19c-3.73,2.55-6.28,7.47-9.85,9.68
		c1.19-3.73,2.21-8.66,4.07-12.22c0-2.04,1.36-4.24,2.04-6.11c-0.17-0.17-0.17-0.51-0.17-0.85c0.17-0.51,0.51-1.02,0.68-1.53
		c1.36-4.75,3.73-9,5.6-13.24c0.17-0.51,0.17-1.02,0.34-1.53c0.51-1.19,1.36-1.87,1.36-3.23c0.17-0.17,0.34-0.17,0.51-0.34
		c-0.34-1.19,0.17-1.87-0.17-3.06c1.87-1.53,1.19-4.75,3.23-5.94c0.17-0.68-0.68-0.34-0.51-1.02c0-0.85,0.34-1.36,0.85-2.04
		c0.1-1.28,0.32-2.62,0.71-3.89c0.04-0.01,0.09-0.01,0.14-0.02c0-0.17,0-0.51,0.17-0.51c0.68,0,1.36-0.17,1.87,0.51
		c1.87-0.34,4.07-0.34,5.77-0.34c2.21-0.34,3.57-1.53,5.43-0.34c1.19-0.51,2.72-0.51,3.4-1.53c-0.51,0-0.85,0-0.85-0.34
		c0.68,0,1.19-0.34,2.04-0.17c0.17-0.17,0.17-0.68,0.51-0.68c0-0.17,0.17-0.34,0.34-0.34c0,0.85,0.85,0.68,1.36,0.51
		c-0.68,0.17-0.34-0.68,0.17-0.51c0-0.17,0.34-0.17,0.34,0c0.17,0,0.17,0.34,0,0c-0.17,0-0.17,0-0.34,0c0.34,0.34,0,0.17-0.17,0.51
		c1.02,0.17,3.06,0.51,3.73-0.51c0,0.51,1.02,0.34,1.19-0.17c-0.17,0-0.17-0.17,0-0.17v0.17c0.51,0.34,0.68,0.34,1.19,0
		c0,0.17,0,0.34,0,0.51c0.68,0.17,1.19-1.02,0.85,0c0.51-0.17,1.19-0.51,1.53,0c-0.68-1.19,1.19-1.19,1.36-2.21
		c0.51,0,0.85,0,0.85,0.51c0.68-0.51,1.02-0.34,1.36,0c0.68,0.17,0.34-0.68,0.85-0.68c0.51,0.34,0.68,0.85,1.02,0.85
		c1.02-0.51,1.7-0.51,2.72-0.17c0.34-1.02,1.87,0.17,2.38-0.85c0,0.34-0.17,0.34-0.17,0.51c0.85-0.17,1.19-0.34,2.04-0.34
		c0,0.34-0.17,0.34-0.17,0.51c0.51-0.34,1.53-0.34,1.7-0.85c-0.17,0-0.34,0-0.34-0.17c0.17,0,0.34,0,0.34,0.17
		c0.51-0.17,1.02,0.51,1.36,0c-0.17,0-0.17-0.34,0-0.34s0.17,0.17,0,0.34c0.85-0.34,1.36,0.34,2.04-0.34c0,0.51,0.34,0.34,0.51,0.68
		c-0.17-0.51,1.19-0.85,1.19-0.17c0.17,0,0.17,0,0.17,0.17c-0.17,0-0.17,0-0.17-0.17c-0.17,0.17-0.51,0.17-0.51,0.34
		c1.7,0.34,2.38-1.02,4.07-0.34c0-0.34,0.17-0.51,0.34-0.51c1.36,0.51,2.89,0.34,4.24-0.51c0.17,1.19,1.02,0.17,2.04,0
		c-0.68,0.51,0,0.34,0.17,0.85c-0.34,0.34-0.51-0.17-1.19,0c0,0.51,0.68,0.51,1.19,0.51c1.19-0.68,3.23,0.34,4.58-1.02
		c0.17,0.17,0.68,0.17,1.19,0.17c0-0.44,0.49,0,0.21,0.02c0.78,0.11,1.56-0.02,2.34-0.02c-0.34,0,0-0.17,0.17-0.17
		c0-0.34-0.34-0.51,0-0.51c0.51-0.17,0.51,0.34,0.34,0.51c0.34,0,0.51-0.17,0.51,0s-0.51,0.17-0.51,0c-0.17,0-0.17,0-0.34,0
		c0,0.17,0,0.17,0,0.34c0.98,0,1.73,0,2.46-0.07c-0.92,2.77-1.75,5.6-2.12,8.38c-0.68,0,0.17,0.68-0.68,0.68
		c0,6.62-1.87,13.41,2.89,16.81c0.85-0.17,2.55-0.68,3.4-1.53c0-0.51,0-1.02-0.17-1.36c0.51-0.17,0.51-0.68,1.02-0.85
		c0.85-3.73,2.55-5.43,4.75-7.98c-0.17-1.02,0.51-1.36,1.19-1.7c-0.17-0.51,0.17-0.51,0.17-0.85c2.38-1.87,3.23-5.43,5.26-7.81
		c0.68-0.51,1.53-1.19,2.04-1.87c0.34-0.17,0.68-0.34,1.02-0.51c0-0.51,0.51-0.85,0.68-1.36c-0.68,0.17,0.17-0.34-0.34-0.68
		c1.02-0.85,1.02-1.87,1.53-3.06c-1.19-0.34-0.34-1.02-0.17-1.7c-0.85,0.17-1.19-0.17-2.04-0.17c-2.04-1.53-4.07-2.89-6.96-3.57
		c-1.7-1.53-5.26-2.72-7.64-2.04c-1.19,1.19-1.36,2.55-2.21,3.9c0,0.34,0.68,0,0.68,0.51c-0.52,1.62-1.12,3.31-1.72,5.03
		c-0.93,0.01-1.84,0.03-2.69,0.07c0.17,0,0.34,0.34,0.17,0.34c-2.38-1.02-4.75,0-8.15-0.34c-0.34,0.68,0.68,0,0.51,0.68
		c-0.51,0-1.02,0-0.85-0.68c-2.89,0-3.4,0.51-6.45,0c-0.34,0,0.17,0.85-0.51,0.51c-0.68,0.34-0.17-0.51-0.51-0.51
		c-0.34,0.17,0,0.85-0.51,0.68c0.51-0.85-0.68-0.34-1.02-0.85c-1.36,1.02-3.57-0.51-4.75,0.85c0-0.17,0-0.51,0-0.68
		c-0.34,0-0.85,0-1.19,0c0,0.51,0,0.85-0.51,0.85c-0.17-0.51,0-0.51-0.85-0.34c0-0.17,0.17-0.34,0.17-0.51
		c-0.68,0.34-1.19-0.17-1.36,0.51c-0.34-0.51-0.85-0.17-1.53-0.17c-0.17,0.51,0.51,0.17,0.34,0.68c-0.85,0-1.87,0.68-2.38,0
		c0-0.51,1.02,0.17,0.68-0.51c-1.7-0.51-3.57-0.68-5.43,0.34c0-0.51,0.34-0.34,0-0.68c-6.28,0.34-11.2,0.51-17.31,0.68
		c-0.68,0,0.34,0.51-0.17,0.51c-0.68,0,0.17-0.85-0.51-0.68c-0.34-0.17-0.17,0.34-0.51,0.34c-1.87-1.19-3.56,0.85-5.26,0.34
		c0.34-0.68,0.34,0.34,0.68-0.34c-0.68-0.68-2.38,0.51-3.4-0.17c0.51-0.51-0.51-0.68-0.85-0.85c-0.51,0.17,0.34,0.51-0.17,0.68
		c0,0.17,0,0.34-0.34,0.34c0-0.17,0-0.34,0.34-0.34v-0.17c-0.51-0.34-1.36,0.51-1.53-0.34c-0.07,0.03-0.23,0.09-0.45,0.15
		c0.51-1.32,1.06-2.62,2.15-3.38c0.34-0.68-0.17-0.34-0.17-0.85c1.36-2.04,2.21-4.41,3.23-6.79c0.34-0.17,0.68-0.51,1.02-0.68
		c1.7-3.9,3.23-7.81,5.94-10.69c0.34-2.89,3.9-2.55,4.41-5.26c-0.51-1.53-2.04-2.04-3.23-3.06c-2.04-0.17-3.9-0.68-6.62-0.51
		c-2.21,1.53-5.77,0.85-8.49,0.17c-1.53,0.85-2.38,2.38-3.22,3.9c0.17,0.68,0.85,0.85,1.02,1.53c-1.36,2.89-1.7,7.47-4.07,8.66
		c0.34,0,0.51,0.34,0.68,0.51c-0.34,0.51-1.02,0.68-1.36,1.19c0.68-0.17,0.34,0.51-0.17,0.34c-0.17,0.68,0.17,0.85,0.17,1.36
		c-1.75,4.57-4,9.04-6.12,13.61c-6.43,0.08-13.61,0.08-20.7,0.31c1.19-3.73,4.41-5.26,5.09-9.68c-2.89-1.7-4.92-4.92-8.66-5.26
		c-2.55-1.02-4.24-3.06-7.13-4.41c-2.38,0.51-4.58,2.72-3.23,5.43c-0.34,0.17-0.17,0.68-0.85,0.51c0,0.34,0.34,0.51,0.17,1.02
		c-1.87,3.4-3.4,9-5.77,12.9c-3.39,0.51-9.51-0.68-12.56,0.34c-6.79-1.02-16.13,0.34-24.1,0.17c-0.34,0-0.17,0.51-0.51,0.51
		c-5.77-0.68-12.9,1.02-17.82,0.34c-0.6,0.42-1.09,1.01-1.49,1.69c0.25-1.6,0.57-3.15,1.27-4.54c-0.68-2.55,0.85-4.75,0.51-7.47
		c1.02-2.21,0.17-6.11,1.87-7.98c0-5.26,1.36-10.53,3.06-15.11c-0.34,0-0.34-0.17-0.34-0.34c0-1.02,0.68-2.04,0.51-2.89
		c2.72-4.41,2.21-11.37,6.11-14.94c0.34-2.38,1.7-3.73,2.38-5.77c0.68-0.17,1.02-0.85,1.02-1.7c0.51,0,0.34-0.68,1.02-0.51
		c0.17-1.53,2.21-2.72,1.53-4.07c1.02-0.68,2.04-2.38,1.87-3.57c2.55-1.19,1.87-5.43,4.58-6.79c0.17-0.51-0.34-0.51-0.17-1.02
		c0.17,0,0.51,0,0.68,0c0-1.53,1.02-2.38,0.34-3.57c0.51-0.17,0.51-1.19,1.02-1.53c0.17,0,0.34,0.34,0.51,0.34c0-0.51,0.68,0.17,0,0
		c0,0.51-0.85,1.19-0.51,1.7c0.34-0.68,1.36-1.19,1.02-2.04c1.02,0.17,0.85-1.02,1.19-1.53c-0.34-0.34-0.85-0.51-0.68-1.36
		c0.85,0.17,0.51-0.85,1.36-0.34c-0.34-0.85,0.68-0.34,0.68-0.85c-0.17-0.17-0.68,0-0.68-0.34c0.17-0.51,0.51-1.19,1.02-0.51
		c0-0.17,0-0.17,0.17-0.17c0.17-0.34-0.34-0.17-0.34-0.51c0.34-0.34,0.34,0,0.85,0c0.17-0.68-0.34-0.51-0.51-0.85
		c0.17,0,0.34-0.34,0.51-0.34c0.17,0.17,0.17,0.34,0.51,0.34c1.02-1.36,1.36-3.22,2.89-4.07c-0.17-0.17-0.34-0.34-0.51-0.51
		c0.51,0,0.85-0.17,1.02-0.51c-0.34,0-0.51-0.17-0.51-0.51c0.34,0.34,0.85-1.19,1.36-0.17c0-1.87,2.55-2.55,1.87-3.9
		c1.19-0.85,2.89-2.72,3.06-4.41c1.19-0.34,1.7-0.85,1.87-1.87c-0.34,0-0.68,0-0.68-0.34c0.34,0,0.68,0,0.68,0.34h0.17
		c0.51-0.85,1.53-1.7,1.53-2.55c0.17,0.17,0.34,0.17,0.51,0.17c1.02-1.7,2.38-2.89,2.89-4.75c0.51,0.34,0.51-0.17,1.02-0.34
		c0.17-0.51-0.17-0.51-0.17-0.85c0.34-0.34,1.53-0.68,0.85-1.02c0.68-0.17,1.19-0.51,1.02-1.53c1.7-0.17,2.55-1.7,3.06-2.72
		c0.68-0.17,0.68-0.85,1.36-1.02c0.85-2.72,4.07-3.9,4.75-6.11c1.19-1.19,2.21-2.38,2.89-4.07c1.19,0,1.36-0.85,1.19-1.87
		c0.85-0.17,0.85-1.19,1.53-1.53c-0.17,0-0.34-0.17-0.34-0.51c0.51-0.34,0.51,0,1.02-0.17c-0.17-0.51-0.17-0.51,0-1.02
		c0.51,0,0.34,0.34,0.68,0c0-1.02,0.85-1.19,1.36-1.7c-1.19,9.68-3.57,16.97-5.09,25.12c-0.34,0-0.51,0.34-0.85,0.34
		c0,1.19,0.17,2.89-0.85,3.56c0.17,1.87-0.85,3.9-1.7,6.28c0.34,0,0.34,0.17,0.34,0.34c-0.85,1.53-1.36,3.23-2.55,4.41
		c0.17,0.68,0,0.68,0,1.53c-0.68,0.68-0.85,1.87-1.7,2.38c-1.53,5.77-5.6,9.84-8.15,14.77c-2.55,2.55-5.09,6.11-8.66,7.13
		c-0.51,0.17,0.34,0.51-0.17,0.68c-0.34,0-0.51,0-0.51-0.34c-0.17,0.85-2.04,0.68-1.7,1.53c-2.89-2.04-4.24-4.92-3.57-9.84
		c-0.34,0-0.85-0.51-1.02-0.17c-0.34,2.38-1.87,4.75-1.7,7.13c-0.17,0-0.51,0-0.51,0.17c0.34,1.19-0.51,2.04,0,3.57
		c-1.53,1.36-0.51,2.55-0.51,4.92c0.34,0.17,0.34-0.85,0.68-0.17c0.34,0.68-1.02,0-0.68,0.68c0.68-0.17,1.02,0,1.19,0.51
		c0.17-0.51,0.34,0,0.85-0.17c-0.17,1.36,0.85,1.36,1.7,1.7c0.68-0.17,0.85,0.17,0.85,0.68c1.19,0,0,0.17,0.68,0.68
		c0.51,0.17,0.17-0.51,0.68-0.34c-0.17,0.51,0.34,0.34,0.34,0.68h0.17c0.17-0.17,0-0.68,0.34-0.68c0-0.17,0.17-0.17,0,0
		c0,0.51,0,0.85,0.34,0.85c0-0.17,0-0.51,0.17-0.51c0,0.17,0.34,0.34,0.34,0.51c0.68-1.02,1.7,0.17,2.55,0
		c0.17-0.68-0.85-0.34-0.68-1.19c0.51,0,0.51,0.34,1.02,0.34c0-0.17,0.34-0.17,0.34,0c-0.17,0-0.17,0-0.34,0
		c0.17,0.68,0.68,0,1.19,0.34c0-0.68,0.34-1.02,0.85-1.19c0,0.17,0.34,0.17,0.34,0.34c-0.17,0.17-0.34,0.17-0.34,0.51
		c0.85,0.34,0.68-0.51,1.19-0.68c0,0.17,0,0.34,0,0.51c0.51-0.34,1.7-0.34,2.21,0.51c0.51,0.17,0.17-0.51,0.68-0.34
		c0.34,0.51,0.85,0.85,1.53,1.02c-0.34,0.34-0.51,0-0.85,0c0,0.68,0,1.19-0.34,1.53c0.68,0,1.19,0.17,1.19,0.85
		c-0.34,0-1.53,0-1.7,0.34c1.36,1.02,3.06-0.17,3.4-1.36c0.17,0.34,0.34,0.68,0.85,0.68c0.51-0.51,1.19-0.85,1.7-1.36
		c-0.34,0.17-0.85-0.51-0.51-0.51c0.34,0.17,1.36,0.51,1.53,0.17c-0.17-0.17,0.17-0.51-0.34-0.68c0.34-0.34,0.51,0.17,0.68-0.34
		c-0.34,0-0.34-0.17-0.17-0.34c0.17,0,0.17,0.17,0.17,0.34c0.68,0.17,0.68-0.68,1.19-0.17c0-0.34-0.17-0.34-0.17-0.68
		c1.02-0.17,1.36-1.53,2.38-1.36c1.53-1.19,1.87-3.73,3.73-4.75c1.19-1.7,1.53-4.24,3.4-5.26c0-0.68,0-0.51,0-1.19
		c1.02-0.68,1.53-1.87,1.87-3.23c0.17,0,0.51,0,0.68,0c0.68-2.72,1.53-4.24,2.89-6.11c0-0.34-0.17-0.68-0.34-1.02
		c1.19-2.04,2.55-3.9,3.23-6.45c0.34,0,0.34,0.17,0.51,0.17c0-4.41,3.57-7.13,3.4-11.37c0.85-0.68,1.36-2.72,1.36-3.73
		c0,0.17-0.17,0.17-0.17,0h0.17c0.17-0.51-0.34-0.34-0.68-0.34c2.89-6.62,4.58-13.92,6.62-20.71c-0.68-1.7,1.02-4.75,0.17-6.45
		c0.34-0.17,0.51-0.51,0.51-0.85c0.17-2.55-0.17-7.13-1.19-9.34c0.17-0.68,0.51-1.36,1.19-1.7c-2.89,0-4.07-1.53-6.28-2.21
		c-0.51-0.85,0.51-1.19,0.68-1.87c-0.85-0.34-1.87,0.51-2.72,0.34c-0.34-1.87-2.38-2.38-4.58-1.87c-2.38-1.7-4.92,0-5.6,2.72
		c0.34,0.51,1.7,1.02,1.02,1.53c0.85,0.51,1.7,1.02,1.87,2.38c-2.38,1.53-3.4,4.07-5.94,4.92c0,0.34,0.17,0.34,0.17,0.68
		c-0.34,0-0.34-0.34-0.85-0.17c-0.17,0.34-0.68,0.51-0.51,1.19c-1.19,0.51-2.21,1.36-2.55,2.72c-1.53,1.7-3.9,2.89-4.41,4.92
		c-0.51,0-0.34-0.34-0.68,0c0,0.34,0,0.68-0.17,0.85c-1.36,0.85-2.55,1.87-3.23,3.4c-2.04,1.36-2.72,4.07-4.75,5.43
		c0,0.34-0.34,0.51-0.17,1.02c-1.87,0.34-1.53,2.72-2.89,3.4c0.34,0.68-0.51,0.34-0.51,0.68c0.17,0,0.17,0.51,0.17,0.68
		c-3.4,2.38-4.41,6.28-7.98,9c0.34,1.53-1.36,1.7-1.02,2.72c-0.51,0-0.34,0.34-0.68,0c0.34,1.36-0.68,2.21-1.7,3.06
		c0.17,0,0.17,0.34,0,0c-0.17,2.89-3.06,3.9-3.4,5.94c-1.19,0.34-1.53,1.7-1.7,2.38c-0.17,0-0.34-0.17-0.51-0.17
		c-1.53,3.4-3.9,6.79-6.45,9.51c0.34-0.68,0.34-0.68-0.17-1.19c0.17-0.17,0.68-0.34,0.85-0.51c-0.68-0.85,0.51-2.89,1.02-3.73
		c-0.34,0-0.51-0.17-0.51-0.34c1.02-1.36,1.53-3.4,2.38-4.92c-0.51-2.21,1.87-3.73,1.7-6.79c0.51-0.85,1.53-1.87,1.19-2.89
		c2.04-1.87,1.36-5.43,3.56-6.96c-0.34-3.06,2.72-5.09,2.55-7.98c1.54-0.93,2.11-2.83,2.96-4.57c0.18-0.17,0.36-0.34,0.53-0.52
		c0.15,0,0.31,0,0.42,0c0.08-0.31,0.18-0.6,0.27-0.9c0.02-0.04,0.06-0.07,0.08-0.12c-0.02,0.01-0.03,0.01-0.05,0.02
		c1.23-4.04,3.13-7.03,3.44-11.74c0.34-0.34,0.51-0.68,0.85-1.02c0.17-2.72-0.68-3.4-1.02-5.6c-4.58-0.68-7.13-3.23-12.39-2.21
		c-0.17,0.68-0.68,1.19-1.02,2.21c0.17,0.51,0.85,0.51,0.85,1.19c-1.36,1.87-0.85,4.58-2.55,5.94c0.17,2.89-1.87,4.41-2.21,7.64
		c-2.57,4.86-3.71,10.44-5.73,15.42c-0.32,0.18-0.44,0.48-0.55,0.7c0.17,0,0.17,0.17,0,0.17v-0.17c-0.34,0.34-0.17,0-0.68,0
		c0.34,0.51,0,0.68-0.34,1.02c0,0.17-0.34,0.17-0.34,0c-0.68,0.34-1.19,1.02-2.04,1.19c-0.17,0.51,0.17,0.51,0.17,0.85
		c-1.87,0.17-3.23,2.72-5.6,2.55c0.17,0.68-0.34,0.68-0.17,1.19c-1.53,0.34-1.87,0.85-3.06,1.02c-3.06,1.36-7.64,3.06-10.86,4.24
		c-0.34-0.68-1.19,0-1.7,0c-1.02-1.02-4.07-0.17-4.92-1.19c0,0.17-0.17,0.34-0.51,0.34c-0.34-0.17-0.34-0.51-0.68-0.51
		c-0.17,0.17-0.85,0.17-1.53,0.17c-5.43-1.02-12.39-0.68-17.48-0.85c-6.45,0.68-12.22,2.55-18.5,0.51c-0.34-3.23,1.02-7.3,3.4-9
		c0.85-3.06,3.73-4.24,4.92-7.13c6.79-5.77,12.56-12.56,21.05-16.64c0.68-1.36,1.87-1.36,2.55-2.55c3.23-0.85,4.41-3.73,7.81-3.9
		c1.02-1.53,4.92-2.21,6.62-2.55c0.17,0.34,1.02,0,1.02,0.51c-0.17,1.19-0.68,1.7-0.51,3.06c-2.72,3.57-4.75,7.81-8.15,10.53
		c-0.34,1.19-1.19,1.7-1.53,2.72c-1.19,0.17-0.85,1.7-2.21,1.7c-0.68,2.04-2.38,3.23-3.73,4.58c-0.34,0-0.17-0.51-0.51-0.51
		c-0.17,2.55-2.38,2.89-2.55,5.43c2.04,3.56,5.77,5.43,8.83,8.15c0,0.17-0.17,0.17-0.17,0.34c1.87,0.51,3.57,1.53,5.94,1.02
		c0.51-1.36,0.51-3.4,1.87-4.07c-0.68-0.68,0.34-1.36,0.17-2.55c0.34,0,0.51-0.34,1.02-0.17c0.51-1.53,1.53-2.72,2.89-3.4
		c0.17-0.51-0.34-0.51-0.17-1.02c2.38-2.21,3.4-4.24,5.26-7.13c0.34,0,0.68,0,0.68-0.34c-0.34,0-0.17-0.51-0.34-0.68
		c1.19-1.53,1.53-4.92,3.23-6.45c-0.34-0.68,0.51-1.36,0.17-2.21c2.04-2.89,2.38-6.79,3.9-10.53c-0.17-1.02-0.17-1.19-0.17-2.38
		c-0.34-0.17-0.68-0.34-0.85-0.85c0.17-1.02-0.17-2.72-1.02-3.22c-1.87-3.57-4.07-6.79-7.64-8.66c-1.87,0-2.55,1.36-4.41,1.36
		c-3.23,2.21-7.3,3.4-10.36,5.77c-5.6,2.55-9.84,6.45-15.11,9.17c-3.73,3.56-7.81,6.79-11.71,10.01c-0.51,0.68-0.68,1.53-1.19,2.21
		c-0.17,0-0.34-0.17-0.51-0.17c-0.68,3.06-3.9,2.55-4.58,5.43c-1.87,0-2.38,2.89-4.24,3.4c-1.02,3.4-3.73,4.92-4.58,8.49
		c-1.7,0-0.85,2.38-2.21,2.55c0.17,0.51,0.17,2.55-0.51,2.21c-0.68,7.81,3.4,13.41,7.64,17.65c1.53,0.17,2.55,0.85,3.73,1.19
		c0.17-0.17,0.51-0.34,0.68-0.51c1.19,0.85,1.87,0,3.9,0.51c2.04-1.19,4.41-1.19,7.13-1.87c0.34-0.17-0.34-0.85,0.17-1.02
		c0.34,0.17,0.51,0.51,1.19,0.34c5.26-1.87,13.07-3.06,19.01-2.04c-0.51,0.34-1.02-0.17-1.19,0.85c0.68-0.34,1.02-0.68,1.87-0.85
		c-0.51,0.68-0.51,1.53-1.53,1.7c-0.34,0,0-0.17,0-0.34c-1.36,0.17-2.21,1.36-3.06,0.68c-0.85,0.85-1.7,1.87-2.72,1.87
		c0,1.53-3.06,0.68-3.9,2.21c-0.17,0-0.34-0.17-0.51-0.17c0.17,0.34-0.34,0.17-0.34,0.51c0.17,0,0.17,0.34,0,0
		c-0.51-0.17-0.51,0.17-0.85,0.17c0,0.34,0.34,0.51,0,0.51c-0.51-0.34-0.85,0.51-1.36,0.68c0-0.17,0-0.34,0-0.51
		c-4.24,2.89-8.49,5.94-13.24,8.32c0,0.51-0.17,0.85-0.51,1.02c0.17,0,0.17,0.34,0,0c-1.53,0.68-2.72,1.7-4.24,2.55
		c-1.7,1.02-2.21,2.55-4.24,2.38c-3.9,3.56-7.81,6.96-12.05,10.18c0.17,0,0.17,0.17,0.17,0.34c-3.57,2.21-5.6,5.77-8.83,8.32
		c-0.85,2.38-3.56,4.58-5.09,6.96c0.17,0.68,0,1.53-1.02,1.53c0,0.85-0.34,1.53-1.19,1.53c-0.34,2.72-2.38,4.24-3.06,6.96
		c0.17,1.19-0.17,2.89-0.85,3.73c1.02,2.21-0.17,3.4-0.68,5.09v0.17c0.34,0.34,0.51,0.68,1.02,0.85c-0.17,1.7,1.02,3.57,1.7,4.92
		c-0.34,0-0.51,1.19,0,0.68c0-0.17,0.17-0.17,0.17,0c0.17,0.17,0.68,0.17,0.68,0.51c-0.17,1.87,1.87,3.57,2.38,5.77
		c1.02,0.68,1.02,1.36,2.04,2.21c2.38,4.75,7.98,7.64,12.73,9c0.51-0.17,1.36-0.17,1.7,0.34c4.75-0.51,8.49,0.34,12.39-1.53
		c1.36,0.34,2.55-1.02,4.41-0.85c1.7-0.51,2.89-2.38,4.58-2.04c2.89-3.9,8.66-4.07,12.05-7.13c1.87-0.34,2.38-1.87,4.24-2.21
		c0.51-1.7,2.72-1.7,3.73-2.89c4.07-1.36,6.79-4.24,9.85-6.79c0.99-0.69,1.9-1.46,2.77-2.28c-0.9,3.61-1.72,6.96-3.11,10.43
		c-0.34,4.07-1.87,8.49-3.06,12.39c-0.51,3.57-1.19,8.15-2.55,11.37c-0.17,1.53-0.51,1.87,0,2.89c4.92,0.68,9.51,2.89,13.41,4.24
		c1.7-0.17,3.4-0.68,5.09-0.51c0.08-0.33,0.19-0.61,0.31-0.86c0.36,0.58,0.87,1.03,1.61,1.17c0.17,0.51,0.68,1.02,0.85,1.53
		c2.72-0.34,5.94-0.34,7.81-1.36c0,0.34,0.34,0.34,0.68,0.34c0.17-0.17,0.17-0.34,0.51-0.34c2.55,0.51,7.13-1.7,10.52-1.02
		c0.17-0.34,0.68-0.34,1.02-0.51c2.38,0.17,5.43,0.34,7.47-0.85c0.34,0,0.34,0.34,0.85,0.34c0.17-1.02,1.53-0.17,1.7-1.02
		c0.17,0.34,0.17,0.51,0.68,0.51c2.89-1.02,5.09-1.19,8.83-1.7c-0.17-0.51,0.34-0.34,0.34-0.68c-0.34-0.17-1.02,0.17-1.36-0.34
		c0.68,0,0.85-0.51,1.36-0.68c0.17,0.17,0.68,0,0.68,0.34s-0.51,0.34-0.51,0.68c0.34,0,0.68,0,0.68,0.17c2.38-0.34,4.75,0,6.79-0.34
		c-2.21,5.6-3.06,11.88-5.94,16.13c0.34,0,0.34,0.17,0.34,0.34c-1.36,2.89-1.87,7.3-4.07,9.85c0.34,2.04-1.02,4.92-2.04,6.79
		c0.17,1.87-1.02,2.38-1.02,4.07c-0.17,0.17-0.34,0.34-0.51,0.51c0.17,0.34,0.34,1.19-0.34,1.19c-0.85,3.73-2.04,7.81-3.06,10.52
		c-1.02,6.45-4.24,13.07-5.77,20.2c-0.17,0.17-0.34,0.17-0.51,0.17c-0.34,2.72-1.36,4.58-1.87,7.47c-0.34,1.7-1.19,3.23-1.36,4.75
		c-0.51,2.89-2.55,7.47-2.89,9.84c-0.51,2.89-1.87,7.13-1.87,10.19c-1.02,5.77-2.21,12.39-1.19,18.5c-0.34,0.68-0.85,0.17-1.36,0.85
		c0.51,0.51,0.34,0.68,0.51,1.36c-0.34,0.17-0.17,0.34-0.34,0.51c0.85,1.7,1.36,3.4,2.89,4.41c1.19,0.85,2.89,1.02,4.24,1.53
		c1.19,0.51,2.04,1.19,3.4,1.36c1.87,0.17,3.57-0.85,5.26-0.34c0.34-0.68,1.87-0.85,2.38-0.85c0-0.17,0-0.51,0-0.68
		c1.87-0.85,2.72-2.72,3.73-4.58c-0.17,0-0.34,0-0.34-0.17c0.17,0,0.34,0,0.34,0.17c0.34,0,0.34-0.51,0.68-0.51
		c-0.34-1.53,1.36-1.53,0.85-2.89c1.87,0,0.68-2.04,2.04-2.38c0.17-0.51-0.17-0.51-0.17-0.85c0.17,0,0.34,0.34,0.51,0.34
		c1.19-3.06,4.58-3.73,5.77-6.62c0.17,0,0.17,0.34,0.34,0.34c0-0.17-0.17-0.85,0.17-0.85c-0.34,0.68,1.02-0.34,1.7-0.85
		c0.68-0.68,1.53-1.19,1.53-2.38c0.34,0,0.51-0.17,0.68-0.17c0-0.51-0.34-0.34,0-0.68c0.34-0.17,0.68-0.51,1.19-0.68
		c2.35-4,5.32-7.33,8.36-10.58c0.55,1.02,1.15,2.06,2.33,2.77c1.53,0.17,2.89,0.51,4.41,0.68c1.87-0.68,2.38-2.55,4.07-3.4
		c1.36-2.72,2.21-6.79,2.55-9.85c0.51-0.34,1.02-0.68,0.68-1.53c2.04-1.53,2.21-5.09,4.24-6.62c-0.17,0-0.17-0.34-0.17-0.68
		c4.07-5.94,7.81-12.39,11.71-18.5c0.85-2.72,3.73-4.92,4.92-7.98c0.51-0.34,1.19-0.68,1.19-1.53c9.17-9.84,17.99-20.03,28.86-28.18
		c-4.24,8.66-9,16.64-12.9,25.63c-0.51,0.68-1.19,1.19-1.19,2.21c-0.51,0.34-0.68,1.02-1.02,1.36
		c-4.24,11.88-11.37,23.09-12.73,37.85c-0.51,1.02-0.68,1.87-0.34,3.06c-1.36,7.13,0.51,15.62,5.94,20.03c0.34,0,0.51,0,0.85,0
		c0.68,1.19,2.04,1.53,3.06,2.21c5.43,2.38,13.58-2.21,16.64-7.3c1.7-1.02,3.4-2.38,4.24-4.24c1.19-1.02,2.55-1.7,2.72-3.73
		c2.04-2.21,4.07-4.41,5.26-7.3c0,0.17,0,0.51,0.17,0.51c1.02-1.02,0-2.21,1.02-3.06c0.17,0.51-0.51,0.85,0,1.02
		c0.68-1.02,1.02-1.53,0.85-2.72c0.17,0.17,0.34,0.17,0.51,0.17c0.43-1.97,1.24-3.73,2.17-5.46c-1.11,6.48-2.23,13.93,0.21,21.24
		c-0.34,0.68,0.51,1.19,0,1.87c2.72,2.89,6.45,5.77,11.71,4.41c11.23-5.89,19.25-14.98,27.1-24.33c-0.9,3.74-1.77,7.68-0.62,11.94
		c1.02,1.02,1.87,2.04,3.06,2.89c1.19,0.17,1.53,0.17,2.72,0c1.7-1.87,1.7-4.24,3.9-5.6c0-0.34-0.17-0.34-0.17-0.68
		c1.7-1.7,2.21-3.73,3.9-5.6c2.04-5.09,5.77-8.66,7.98-13.24c2.04-2.55,3.9-5.26,5.26-7.98c1.02-0.68,2.21-2.21,2.21-3.4
		c1.53-0.68,1.87-3.39,3.73-4.41c0-0.85,0.85-2.21,1.87-2.72c-0.17-0.51,0.17-0.68,0.17-1.02c2.04-1.87,3.23-3.57,4.58-5.94
		c1.53-1.02,2.72-2.38,3.56-4.07c1.53-0.68,1.7-2.72,3.57-3.06c0.51-1.87,2.38-2.38,3.23-4.07c1.87-1.19,2.38-3.23,4.41-4.07
		c3.23-3.9,7.3-6.79,11.2-10.18c-1.53,3.57-3.57,6.45-4.75,9.34c-2.21,2.72-2.21,6.11-4.41,8.83c0,0.34,0.17,0.34,0.17,0.68
		c-1.19,1.36-1.36,3.56-2.55,4.75c-2.72,7.98-5.94,16.13-8.49,24.78c-2.55,8.66-3.73,17.99-6.45,26.31
		c0.51,0.85,0.51,1.19,0.68,2.21c-0.17,0.51-0.85,0.34-0.85,1.02c-3.73,16.81-1.7,42.61,14.77,45.49c0.34-0.34,0.34-0.68,0.68-1.02
		v-0.17c-2.04-2.38-3.23-5.77-4.75-8.83c-1.7-5.26-3.06-11.37-2.72-19.01c0.68-16.3,7.13-31.4,11.54-44.13
		c1.53-2.21,2.04-5.43,3.39-7.81c0.17-0.51-0.17-0.85-0.17-1.19c0.85,0.34,0.17-0.85,0.85-0.68c0.17-1.87,1.19-3.06,1.53-4.75
		c0.17-0.51-0.51-0.17-0.34-0.85C345.74,304.88,347.27,302.16,347.44,299.62z M361.87,269.74
		C361.87,269.57,362.04,269.57,361.87,269.74C361.87,269.91,361.53,269.91,361.87,269.74z M272.42,235.45
		c0,0.17-0.17,0.17-0.34,0.17C272.08,235.45,272.25,235.45,272.42,235.45z M270.55,234.94c0,0.17-0.17,0.17-0.34,0.17
		C270.21,234.94,270.38,234.94,270.55,234.94z M268.85,235.11c0,0.17,0,0.34,0.17,0.34c0-0.17,0.17-0.17,0,0
		c0,0.17,0.17,0.17,0.34,0.17c-0.17,0.17-0.34,0.34-0.68,0.34c0.34-0.34,0-0.51-0.51-0.51
		C268.34,235.28,268.51,235.11,268.85,235.11z M268.17,236.13C268.34,236.13,268.34,236.47,268.17,236.13
		C267.49,236.3,268.17,235.62,268.17,236.13z M267.49,235.96c0,0.17-0.17,0.17-0.34,0.17C267.15,235.96,267.32,235.96,267.49,235.96
		z M266.14,234.77c0,0.17-0.17,0.17-0.34,0.17C265.8,234.77,265.97,234.77,266.14,234.77z M264.95,235.28
		c0,0.17-0.17,0.17-0.34,0.17C264.61,235.28,264.78,235.28,264.95,235.28z M262.57,235.45c0,0.17-0.17,0.17-0.34,0.17
		C262.23,235.45,262.4,235.45,262.57,235.45z M260.37,235.11C260.37,234.6,261.04,235.28,260.37,235.11
		C260.37,235.28,260.03,235.28,260.37,235.11z M260.2,235.79c-0.34,0-0.51-0.17-0.51-0.51C260.03,235.28,260.2,235.45,260.2,235.79z
		 M257.48,235.96c0.51,0-0.17,0.68-0.17,0.17C256.8,236.13,257.48,235.45,257.48,235.96z M257.14,235.28c0,0.17-0.17,0.17-0.34,0.17
		C256.8,235.28,256.97,235.28,257.14,235.28z M255.95,235.28c0,0.51-0.34,0.51-0.85,0.51C255.1,235.28,255.61,235.45,255.95,235.28z
		 M252.39,235.79c0.17,0,0.17,0,0.34,0c0,0.17,0,0.17,0,0.34c-0.17,0-0.17,0-0.34,0C252.39,235.96,252.39,235.96,252.39,235.79z
		 M250.01,235.45c0,0.17-0.17,0.17-0.34,0.17C249.67,235.45,249.84,235.45,250.01,235.45z M243.22,236.64
		c0-0.17,0.17-0.17,0.34-0.17C243.56,236.64,243.39,236.64,243.22,236.64z M243.39,235.79c-0.17,0-0.34-0.17-0.34-0.51
		C243.22,235.28,243.39,235.45,243.39,235.79z M242.71,235.96c0.34,0.17-0.17,0.51,0.17,1.02c-0.51,0-0.34-0.51-0.51-0.85
		C242.54,236.13,242.71,236.13,242.71,235.96z M242.03,236.13C242.03,235.96,242.2,235.96,242.03,236.13
		C242.2,236.81,241.52,236.13,242.03,236.13z M240.5,235.79c-0.51-0.17-0.51,0.34-1.02,0.17
		C239.32,235.28,240.5,235.11,240.5,235.79z M238.81,235.79c0,0.34-0.17,0-0.34,0C238.47,235.62,238.81,235.62,238.81,235.79z
		 M238.47,235.11c0,0.34-0.34,0.34-0.68,0.34C237.96,235.28,238.13,235.11,238.47,235.11z M235.92,237.83
		c0.34,0,0.17,0.51,0.51,0.34c0-0.17,0.17-0.17,0,0C236.26,238.68,235.75,238.51,235.92,237.83z M232.87,237.66
		c0.17,0,0.17,0,0.34,0c0,0.17,0,0.17,0,0.34c-0.17,0-0.17,0-0.34,0C232.87,237.83,232.87,237.83,232.87,237.66z M230.32,238.68
		c0,0.34-0.17,0.51-0.51,0.51C229.98,239.02,229.81,238.51,230.32,238.68z M229.81,236.3c0,0.17-0.17,0.17-0.34,0.17
		C229.47,236.3,229.64,236.3,229.81,236.3z M229.3,236.13c-0.17,0.51-0.51,0.34-1.02,0.17C228.45,236.13,229.13,235.96,229.3,236.13
		z M225.91,239.19c0,0.17-0.17,0.17-0.34,0.17C225.57,239.19,225.74,239.19,225.91,239.19z M224.72,238.68c0.17,0,0.17,0,0.17-0.17
		c0.17,0,0.17,0,0.34,0c0,0.17,0,0.34,0,0.51c-0.17,0-0.34,0-0.51,0C224.72,238.85,224.72,238.85,224.72,238.68z M223.19,238.85
		c0,0.17-0.17,0.17-0.34,0.17C222.85,238.85,223.02,238.85,223.19,238.85z M223.02,238.51c0,0.17-0.17,0.17-0.34,0.17
		C222.68,238.51,222.85,238.51,223.02,238.51z M221.49,240.04c0.17,0,0.17,0.51,0.17,0.68
		C221.32,240.71,221.32,240.21,221.49,240.04z M221.83,239.53c-0.17,0.34-0.51,0.34-0.85,0.34
		C220.81,239.36,221.49,239.53,221.83,239.53z M220.47,236.3c0,0.17-0.17,0.34-0.51,0.34C219.96,236.47,220.13,236.3,220.47,236.3z
		 M218.27,241.05c0,0.34-0.17,0-0.34,0C217.93,240.88,218.27,240.88,218.27,241.05z M130.46,176.41c0-0.17,0.34-0.17,0.34,0
		C130.8,176.75,130.63,176.41,130.46,176.41z M130.8,175.05c0-0.34,0.17-0.34,0.17-0.68c0.17,0.17,0.17,0.51,0.34,0.85
		C131.14,175.22,130.97,175.05,130.8,175.05z M132.67,176.41c-0.17,0-0.51,0-0.51,0.17C131.65,176.24,132.84,175.39,132.67,176.41z
		 M133.68,177.94c-0.17,0-0.17,0-0.34,0c0-0.17,0-0.17,0-0.34c0.17,0,0.17,0,0.34,0C133.68,177.77,133.68,177.77,133.68,177.94z
		 M134.7,177.09c0.17-0.51,0.34,0.17,0.68,0C135.21,177.6,135.04,177.26,134.7,177.09z M138.27,169.96c0-0.17,0.17-0.17,0.34-0.17
		C138.61,169.96,138.44,169.96,138.27,169.96z M139.12,170.81c0-0.17,0.17-0.17,0.17-0.34c0.17,0,0.34,0.17,0.34,0.51
		C139.29,170.98,139.29,170.81,139.12,170.81z M140.98,178.28c-0.17,0-0.17,0-0.34,0c0-0.17,0-0.17,0-0.34c0.17,0,0.17,0,0.34,0
		C140.98,178.11,140.98,178.11,140.98,178.28z M145.23,178.28c0-0.17,0-0.17,0-0.34c0.17,0,0.17,0,0.34,0c0,0.17,0,0.17,0,0.34
		C145.4,178.28,145.4,178.28,145.23,178.28z M145.91,179.64c-0.17,0-0.17,0-0.34,0c0-0.17,0-0.17,0-0.34c0.17,0,0.17,0,0.34,0
		C145.91,179.47,145.91,179.47,145.91,179.64z M146.08,178.96c0-0.17,0.17-0.17,0.34-0.17
		C146.41,178.96,146.25,178.96,146.08,178.96z M147.09,178.79c0.17,0,0.17,0,0.34,0c0,0.17,0,0.17,0,0.34c-0.17,0-0.17,0-0.34,0
		C147.09,178.96,147.09,178.96,147.09,178.79z M147.6,183.54c-0.17-0.34-0.51-0.51-0.51-1.02
		C147.6,182.52,147.94,183.2,147.6,183.54z M147.43,182.35c-0.17-0.17-0.34-0.17-0.34,0c-0.34,0,0.17-0.85-0.51-0.51
		c0.17-0.34,0.68-0.34,0.68-1.02C148.11,180.82,147.77,182.01,147.43,182.35z M148.79,179.13c0,0.17-0.17,0.17-0.34,0.17
		C148.45,179.13,148.62,179.13,148.79,179.13z M148.45,181.67c0-0.17,0-0.34,0-0.51c0.34,0,0.51,0.17,0.68,0.17
		C148.96,181.5,148.79,181.67,148.45,181.67z M149.47,182.86c-0.17,0-0.17,0-0.34,0c0-0.17,0-0.17-0.17-0.17
		C148.96,182.35,149.81,182.52,149.47,182.86z M149.47,180.14C149.47,180.31,149.13,180.31,149.47,180.14
		C149.64,179.64,150.32,180.31,149.47,180.14z M155.58,116.66c0.34,0,0.51,0,0.85,0c0.17,0.51-0.51,0.34-0.85,0.34
		C155.58,116.83,155.58,116.83,155.58,116.66z M150.32,115.47c0,0.17-0.34,0.34-0.34,0.51C149.3,115.81,149.81,114.96,150.32,115.47
		z M147.6,126.67c0,0.17-0.17,0.17-0.34,0.17C147.26,126.67,147.43,126.67,147.6,126.67z M143.19,124.47c0,0.17-0.17,0.17-0.34,0.17
		C142.85,124.47,143.02,124.47,143.19,124.47z M141.49,135.67c0,0.17-0.17,0.17-0.34,0.17
		C141.15,135.67,141.32,135.67,141.49,135.67z M139.8,137.54c0,0.17-0.17,0.34-0.51,0.34C139.29,137.71,139.46,137.54,139.8,137.54z
		 M138.61,137.03c0,0.17-0.17,0.17-0.34,0.17C138.27,137.03,138.44,137.03,138.61,137.03z M137.59,132.1c0,0.34-0.17,0-0.34,0
		C137.25,131.94,137.59,131.94,137.59,132.1z M135.89,141.61c0,0.34-0.17,0-0.34,0C135.55,141.44,135.89,141.44,135.89,141.61z
		 M134.19,144.67c0,0.17-0.17,0.17-0.34,0.17C133.85,144.67,134.02,144.67,134.19,144.67z M132.5,146.7c0.17,0,0.17,0,0.34,0
		c0,0.17,0,0.17,0,0.34c-0.17,0-0.17,0-0.34,0C132.5,146.87,132.5,146.87,132.5,146.7z M131.31,148.23c0.34,0,0.51,0,0.85,0
		c-0.34,0.34,0.17,1.02-0.51,1.19c0.34-0.85-0.17-0.17-0.51-0.51C131.14,148.57,131.31,148.57,131.31,148.23z M130.8,148.06
		c0,0.17-0.17,0.34-0.51,0.34C130.29,148.23,130.46,148.06,130.8,148.06z M130.29,149.59c0,0.17-0.17,0.17-0.34,0.17
		C129.95,149.59,130.12,149.59,130.29,149.59z M127.74,155.19c0.17,0.68-0.34,0.68-0.17,1.36c-0.68,0-0.85-0.68-0.85-1.36
		C127.23,155.02,127.23,155.02,127.74,155.19z M100.12,249.37c0,0.3-0.14,0.46-0.41,0.5c-0.02-0.02-0.04-0.03-0.06-0.05
		C99.75,249.61,99.67,249.22,100.12,249.37z M114.44,130.58c-0.03,0.08-0.07,0.16-0.11,0.23c0-0.09,0-0.17,0-0.23
		C114.38,130.58,114.42,130.58,114.44,130.58z M113.99,131.55c-0.01,0.01-0.01,0.03-0.02,0.04h-0.14c0,0.17-0.34,0.17,0,0
		c0-0.17-0.17-0.17-0.17-0.51C113.82,131.09,113.97,131.25,113.99,131.55z M113.32,131.6c0,0.17-0.17,0.34-0.51,0.34
		C112.81,131.77,112.98,131.6,113.32,131.6z M113.15,132.1c0,0.17-0.17,0.17-0.34,0.17C112.81,132.1,112.98,132.1,113.15,132.1z
		 M102.28,143.82c0.68-2.04,2.21-3.06,4.24-3.73c1.55-2.06,3.97-3.34,6.24-4.8c-1.16,3.92-2.27,7.56-4.03,11.08
		c0,0.34,0.34,0.51,0.17,1.02c-0.67,1.64-1.33,3.41-1.97,5.23c-0.08-0.1-0.16-0.21-0.23-0.3c-0.17-0.17-0.17-0.51-0.17-0.85
		c-1.19-1.02-3.23-2.72-4.75-3.9c-0.51-0.51-1.02-1.36-1.19-2.38C101.09,144.67,101.26,143.82,102.28,143.82z M80.72,156.38
		c0.68,0,0.34,1.19-0.34,0.85C80.22,156.72,80.89,156.89,80.72,156.38z M78.01,158.08c1.02,0,1.02,0,1.7-0.34
		c-0.34,0.34-0.34,1.02-0.85,1.02c0-0.17,0.17-0.34,0.17-0.51c-0.85,0.68-1.36,1.53-2.72,1.53
		C76.65,158.93,77.84,159.1,78.01,158.08z M75.29,157.91c0.51,1.19-0.34,3.56-2.21,3.9C73.42,160.11,75.12,159.77,75.29,157.91z
		 M72.75,158.93c0.17,0,0.51,0,0.51-0.17c0.17,0.17,0.34,0.34,0.34,0.68C73.26,159.77,72.58,159.6,72.75,158.93z M61.71,159.94
		c0,0.17-0.17,0.17-0.34,0.17C61.37,159.94,61.54,159.94,61.71,159.94z M66.98,218.17c-0.17-0.68,0.34-0.68,0.85-0.68
		C67.82,218,67.31,218,66.98,218.17z M67.99,216.64c0.17,0,0.34,0.17,0.34,0.51C68.16,217.15,67.99,216.98,67.99,216.64z
		 M89.38,197.46c-5.09,4.92-9.85,10.19-15.79,14.09c-0.34,0.17-0.34,0.68-0.51,1.02c-0.51-0.17-0.34-0.17-0.85,0
		c-1.02,1.7-2.55,2.38-3.57,3.56c-0.34-0.51-0.51-0.17-0.85,0.17c0,0.34-0.34,0.51-0.34,0.85c0.17,0,0.17,0.34,0,0
		c-0.34,0-0.68,0-0.51,0.34c-0.17-0.51-0.51,0-0.85-0.34c-0.17,0.51-0.34,1.02-1.02,1.02c0,0.34,0.34,0.34,0.17,0.85
		c-0.68,0.17-1.36,0.34-1.87,0.68c-0.34,0.85-1.53,0.68-1.7,1.53c0.17,0,0.17-0.17,0.51-0.17c0,0.17-0.17,0.34-0.51,0.34v-0.17
		c-0.34-0.34-0.85,0.51-1.19,0c0,0.34,0,0.51,0,0.85c-0.17,0-0.17-0.34-0.34-0.51c-0.51,0.17,0.17,0.51,0,0.85
		c-0.17,0-0.17-0.17-0.51-0.17c0,0.34-0.17,0.34-0.17,0.68c-0.68,0.17-2.21,0.17-2.38,1.53c-0.17,0-0.34-0.17-0.34-0.34
		c-1.7,1.36-4.24,1.7-6.28,2.72c-2.89,0.34-5.43,1.19-8.32,0.85c-0.17,0-0.17,0.34-0.17,0.51c-0.17,0-0.17-0.17-0.51-0.17
		c0,0.51-0.68,0-0.51-0.34c-6.79,0.51-11.37-2.55-14.09-6.62c-0.34-0.17-0.68-0.34-1.02-0.34c-1.02-1.36-0.51-4.07-0.51-5.6
		c-0.51,0-0.17,0.68-0.68,0.51c-0.68-6.96,3.06-12.56,4.58-18.16c0.85-0.51,1.02-1.7,1.19-2.72c1.02-1.02,1.87-2.38,2.55-3.9
		c1.7-1.02,2.72-2.89,4.41-4.07c0-0.85,0.85-0.85,0.68-1.7c0.68-0.17,1.19-0.51,1.36-1.36c2.04-0.68,2.72-2.89,4.58-3.73
		c3.06-4.24,8.66-6.28,13.58-9.17c1.19-1.02,2.55-1.53,4.07-1.87c3.23-2.38,7.3-4.07,10.69-6.28c0.17,0,0.17-0.34,0.17-0.51
		c2.38-1.19,6.11-1.19,7.3-3.57c2.04-0.34,2.89-1.87,4.58-2.55c-0.17-1.02,0.51-1.36,0.85-2.04c-0.17-0.17-0.34,0-0.51-0.34
		c-0.51,1.53-1.36,2.89-3.06,3.22c0-1.36,1.7-2.55,3.06-3.22c0-0.51,0.68-0.34,1.19-0.34v-0.17c-0.68,0.17-0.51-0.51,0-0.17
		c-0.17-0.17-0.17-0.51-0.17-0.85c0.85,0.34,2.04,0.17,3.06-1.02c-0.17,0-0.17-0.17,0,0c0.17-0.51,0.85,0,0.85-0.85
		c-0.17,0-0.17-0.17,0,0c0.68-0.17,1.02-0.51,1.53-0.85c0.34,0.51,1.36,0.34,1.53,0.85c3.23,0.17,5.26,1.53,7.3,3.23
		c2.22,1.02,3.93,2.54,5,4.73c-0.75,2.44-1.42,4.88-1.95,7.15c-0.17,0.34-0.68,0.51-0.85,0.85c-0.17,5.09-2.72,9.34-3.23,14.09
		c-0.34,0.51-0.85,0.85-1.02,1.36c0.17,0,0.34,0.17,0.34,0.51c-0.34,0-0.17,0.51-0.51,0.51c0,0.34,0.34,0.51,0.17,1.02
		c-0.48,1.15-0.77,2.23-1,3.28c-2.15,3.15-4.41,6.17-6.63,9.28c-0.17,0.17-0.51,0.17-0.85,0.17
		C89.72,196.95,89.38,197.12,89.38,197.46z M98.04,247.87c-0.17-0.68-0.17-1.02-0.51-2.04c0.15-0.37,0.27-0.75,0.38-1.13
		c0.14,1.21,0.48,2.36,1.02,3.31c0.14,0.58-0.2,0.67-0.2,0.99C98.43,248.71,98.18,248.36,98.04,247.87z M99.05,249.29
		c0.19,0.02,0.39,0.03,0.39,0.25c0,0.03,0,0.06,0,0.08C99.31,249.51,99.18,249.4,99.05,249.29z M104.2,254.29
		c0-0.17,0.34-0.17,0.34,0C104.53,254.63,104.36,254.29,104.2,254.29z M117.44,252.09c0-0.17,0.17-0.17,0.34-0.17
		C117.78,252.09,117.61,252.09,117.44,252.09z M149.35,247.67c-0.17-0.51,0.34-0.34,0.68-0.34
		C149.86,247.5,149.69,247.67,149.35,247.67z M192.47,243.43c0.51,0.17,0.34-0.51,0.68-0.51c0.01,0.01,0.02,0.01,0.03,0.02
		c-0.16,0.45-0.32,0.9-0.47,1.35C192.33,244.34,192.47,243.74,192.47,243.43z M187.2,244.28c0.17-0.34,1.02-0.17,0.85,0.34
		C187.71,244.62,187.03,244.79,187.2,244.28z M139.67,316.93c0,0.17-0.17,0.17-0.34,0.17C139.33,316.93,139.5,316.93,139.67,316.93z
		 M134.92,333.74c0,0.17-0.17,0.17-0.34,0.17C134.58,333.74,134.75,333.74,134.92,333.74z M131.7,342.9c0,0.17-0.17,0.17-0.34,0.17
		C131.36,342.9,131.53,342.9,131.7,342.9z M131.36,344.09c0,0.17-0.17,0.17-0.34,0.17C131.02,344.09,131.19,344.09,131.36,344.09z
		 M126.94,358.86c0.34-0.17,0.17,0.34,0.51,0.34C127.45,359.71,126.77,359.2,126.94,358.86z M137.47,374.65
		C137.47,375.33,136.79,374.65,137.47,374.65C137.47,374.48,137.64,374.48,137.47,374.65z M139.16,359.54
		c-3.4,2.38-6.28,5.09-9.34,7.64c-1.02,0.51-1.87,1.19-2.89,1.7c-0.85-4.07,0-6.79,1.02-9.68c0.34-2.55,1.02-3.56,0.85-6.11
		c0.85-1.53,1.02-3.9,2.21-5.77c-0.34-0.51,0-0.68-0.17-1.02c-0.17,0-0.17-0.17,0,0c0.17,0,0.34-0.34,0.51-0.34
		c0.34-3.4,2.38-5.77,2.55-8.66c0.34,0,0.51-0.34,0.85-0.34c0.17-0.85,0.17-0.85,0-1.7c0.85-0.68,1.19-2.72,0.85-3.57
		c1.19-0.68,1.7-2.21,1.36-3.57c1.19-0.17,0-1.87,1.19-2.21c-0.85-0.34,0.34-1.19,0.51-1.7c-0.34,0-0.51-0.17,0-0.17
		c-0.34-1.53,1.36-2.55,0.68-3.9c0.17,0,0.34,0,0.51,0c-0.17-1.87,0.85-2.38,1.02-4.24c0.51,0.17,0.34-0.34,0.68-0.34
		c0.85-2.89,2.38-5.6,3.4-7.81c-0.68-0.17,0.17-1.36,0.51-1.7c-0.34-0.51,0-0.85,0-1.53c0.34,0,0.34-0.17,0.51-0.17
		c1.02-2.38,1.02-5.77,3.06-7.81c1.7-5.09,3.06-10.36,5.6-14.6c2.04-7.47,5.26-15.96,8.15-23.77c0.17,0,0.34,0,0.51,0
		c1.53-2.72,2.04-6.45,4.41-8.32c-0.34,0,0.17-0.51-0.17-0.68c0.51-0.34,1.02-0.68,1.02-1.7c6.28-2.38,15.79-1.53,23.26-2.89
		c-1.36-0.34-2.38,0.51-3.23-0.68c1.36,0.17,2.89,0,3.73,0.51c-0.34,0-0.51,0.51,0,0.34c0.12-0.12,0.24-0.24,0.36-0.36
		c-0.12,0.35-0.25,0.69-0.36,1.04c-0.51,0.17-0.51,0.68-0.85,0.85c-0.51,2.04-1.19,3.9-2.04,5.43c-3.9,13.07-7.81,24.95-11.54,37.68
		c-2.89,6.45-3.9,13.41-6.45,19.69c-1.02,4.58-2.55,9.34-3.9,14.09c-0.68,2.38-1.36,4.75-2.04,6.96c-0.48,1.76-1.03,3.55-1.5,5.3
		C156.49,344.23,148.2,352.26,139.16,359.54z M219.79,315.24c0.17,0,0.17,0,0.17-0.17c0.34,0.17,0.34,0.34,0.17,0.51
		c-0.17,0-0.17,0-0.34,0C219.79,315.4,219.79,315.4,219.79,315.24z M212.32,334.93c0,0.17-0.17,0.17-0.34,0.17
		C211.98,334.93,212.15,334.93,212.32,334.93z M335.39,330.51c-0.17,0-0.17,0-0.34,0c0-0.17,0-0.17,0-0.34c0.17,0,0.17,0,0.34,0
		C335.39,330.34,335.39,330.34,335.39,330.51z"/>
	<path fill="#F3F3F4" d="M481.16,392.98c0.17,0,0.34,0,0.34-0.17C481.33,392.81,481.16,392.81,481.16,392.98z"/>
	<path fill="#F3F3F4" d="M480.31,402.49c0.17,0,0.51,0,0.51-0.17C480.48,402.49,480.31,401.81,480.31,402.49z"/>
	<path fill="#F3F3F4" d="M485.4,399.94c-0.17,0-0.34-0.17-0.34-0.34h-0.17c0,0.34-0.51,0.34-0.51,0.68c0.34,0,0.34,0.17,0.68,0.17
		C484.89,400.11,485.4,400.28,485.4,399.94z"/>
	<path fill="#F3F3F4" d="M487.95,398.41c-0.51,0-1.19,0.51-0.68,0.85C487.44,399.09,487.78,398.75,487.95,398.41z"/>
	<path fill="#F3F3F4" d="M481.66,392.81c0.17,0,0.34,0,0.34-0.17C481.83,392.64,481.66,392.64,481.66,392.81z"/>
	<path fill="#F3F3F4" d="M488.79,397.73c0.85,0.34,0.68-0.17,1.02-0.68c-0.17,0.17-0.34,0.17-0.68,0.17
		C489.3,397.56,488.79,397.39,488.79,397.73z"/>
	<path fill="#F3F3F4" d="M467.58,405.71h0.17C467.75,405.54,467.58,405.54,467.58,405.71z"/>
	<path fill="#F3F3F4" d="M476.23,232.57c-1.19-0.34-0.34-1.02-0.17-1.7c-0.85,0.17-1.19-0.17-2.04-0.17
		c-2.04-1.53-4.07-2.89-6.96-3.57c-1.7-1.53-5.26-2.72-7.64-2.04c-1.19,1.19-1.36,2.55-2.21,3.9c0,0.34,0.68,0,0.68,0.51
		c-1.53,4.75-3.73,10.01-4.41,15.11c-0.68,0,0.17,0.68-0.68,0.68c0,6.62-1.87,13.41,2.89,16.81c0.85-0.17,2.55-0.68,3.4-1.53
		c0-0.51,0-1.02-0.17-1.36c0.51-0.17,0.51-0.68,1.02-0.85c0.85-3.73,2.55-5.43,4.75-7.98c-0.17-1.02,0.51-1.36,1.19-1.7
		c-0.17-0.51,0.17-0.51,0.17-0.85c2.38-1.87,3.23-5.43,5.26-7.81c0.68-0.51,1.53-1.19,2.04-1.87c0.34-0.17,0.68-0.34,1.02-0.51
		c0-0.51,0.51-0.85,0.68-1.36c-0.68,0.17,0.17-0.34-0.34-0.68C475.72,234.77,475.72,233.75,476.23,232.57z"/>
	<path fill="#F3F3F4" d="M579.1,361.92c-0.17,0-0.17,0-0.17,0.17C579.1,362.09,579.1,362.09,579.1,361.92z"/>
	<path fill="#F3F3F4" d="M623.23,263.63c-2.55-1.02-3.06-3.73-4.58-5.77c-0.51-0.17-0.85-0.17-1.53-0.17
		c-3.4,2.21-5.94,5.26-8.49,8.32c-1.7,3.06-4.07,5.77-6.11,8.49c0,1.7-1.87,2.89-2.21,4.58c-0.85,0.17-0.68,1.19-1.53,1.36
		c-2.04,4.75-5.09,8.49-6.79,13.58c-1.02,0.85-1.53,2.38-2.04,3.9c-0.17,0-0.34,0-0.51,0c0,1.87-1.36,2.38-1.36,4.24
		c-0.34,0.17-0.34,0.68-0.68,0.68c-1.02,2.89-2.38,5.6-3.9,8.15c-1.53,4.75-3.23,9.17-5.6,13.07c-0.34,0.17-0.51,0.51-1.02,0.51
		c0,1.53-1.36,1.7-2.04,2.38c-2.38,0-2.21,2.72-3.9,3.4c-0.17,0-0.34-0.34-0.51-0.34c-0.51,1.36-2.38,1.36-3.06,2.38
		c-1.87,0.51-2.89,1.87-4.58,2.55c-0.34,0-0.68,0-1.02,0c-1.19,1.02-3.06,1.19-4.41,2.04c-0.17-0.17-0.17-0.34-0.51-0.34
		c-3.4,1.19-6.62,1.7-11.03,1.53c-0.34-0.17-0.51-0.51-1.19-0.34c-4.92-2.21-6.62-9.17-5.09-16.3c2.55-6.79,5.43-13.07,8.66-19.01
		c3.73-5.43,7.98-10.52,11.71-15.96c0.34-0.17,0.68-0.34,1.02-0.51c0.34-1.19,1.53-2.21,2.89-1.87c1.87-1.7,3.23-4.58,6.28-4.58
		c1.02-1.36,2.89-0.85,4.41-1.36c1.7,1.53,4.41,1.87,7.64,1.87c1.36-1.19,2.72-2.21,2.89-4.58c-1.02-1.53-1.36-3.73-3.4-4.24
		c0-0.17,0-0.51,0-0.68c-2.04-1.02-3.06-3.22-5.26-4.07c0-0.17,0-0.51,0-0.68c-0.85,0.17-1.53-0.51-1.87-1.7
		c-0.68-0.17-1.19,0.17-1.36-0.68c0,0.17-0.34,0.17,0,0c0-0.17-0.34-0.34-0.34-0.51c-0.51,0.68-1.36,0-2.21,0.68
		c-0.85-1.53-2.38-0.51-3.57-1.19c-0.17,0.51-1.02,0.34-1.53,0.51c0-0.34,0-0.51,0-0.85c-3.56,1.19-6.45,3.23-9.17,5.43
		c-0.34,0-0.51,0-0.85,0c-0.85,1.02-1.7,2.04-3.23,2.55c-2.21,2.55-4.07,5.43-7.3,6.96c-0.85,4.07-5.26,5.94-6.28,10.36
		c-0.51-0.17-0.34-0.17-0.68,0.17c-0.34,0.34,0.34,1.02-0.34,1.36c-0.17,0.17-0.51,0.34-0.68,0.51
		c-5.26,10.53-9.85,21.56-9.34,37.85c0.34,1.19,0.68,2.38,0.85,3.73c0.34,0.17,0.17-0.34,0.51-0.34c0,0.17,0,0.34,0,0.51
		c0.34,0.17,0.51,0.51,0.51,0.85c-0.34,0-0.51,0-0.51,0.34c1.02,5.26,4.41,9.34,7.81,12.73c0.68-0.17,0.68,0.34,1.36,0.17
		c-0.17,0.85,0.85,0.34,0.51,1.19c2.89,0.85,4.92,1.7,8.49,2.04c0.68-0.34,1.53-1.02,2.38-0.34c1.36-0.85,4.07-1.19,5.6-1.53
		c0.17-0.17,0-0.85,0.51-0.85c4.24-1.7,7.47-4.41,10.69-7.13c3.4-1.53,5.43-4.41,8.49-6.28c-1.02,4.24-3.23,7.13-4.07,11.37
		c-0.34,0-0.51,0-0.51,0.34c0,0.68-0.17,0.68,0,1.19c-0.85,1.02-1.36,2.38-1.87,3.57c-3.06,10.86-6.28,22.58-8.15,34.46
		c-1.7,5.94-2.38,11.54-4.41,17.48c0.34,0.51,0,1.53,0,2.55c-0.17,0.17-0.34,0.17-0.68,0.17c-3.4,12.73-9.17,25.12-15.79,35.65
		c0.68,0.85-0.85,2.89-1.87,2.38c-0.34,1.19-1.53,1.53-1.19,3.06c-1.53,1.02-2.04,3.06-3.06,4.58c-5.6,6.28-10.52,13.24-18.67,16.81
		c-0.85,0.17-1.36,0.51-2.21,0.68c-0.51,0.51-0.85,1.19-1.7,1.36c-1.19,0.34-3.73-0.34-5.09,0.51c-2.38-0.85-3.4-1.36-6.45-1.53
		c-0.51-0.68-1.36-0.68-1.7-1.53c-0.51,0.17-0.68-0.34-1.19-0.17c-5.77-4.41-9-10.35-10.86-17.82c0-0.68-0.17-1.19-0.17-1.87
		c0-0.17-0.51,0-0.51-0.34c-1.02-5.77-1.36-14.09,0.17-19.52c-0.17-0.34-0.51-0.68-0.51-1.19c0.85-3.73,1.87-6.79,3.23-9.51
		c0.85-3.56,3.06-6.62,4.75-9.84c0.68-0.51,1.02-1.19,1.87-1.53c0-0.51,0-0.85,0-1.36c1.7-2.38,3.4-4.58,4.58-7.47
		c1.88-1.6,3.3-3.62,4.67-5.74c2.42,2.96,5.58,5.04,9.59,5.74c0.34-0.34,0.34-0.68,0.68-1.02v-0.17c-2.04-2.38-3.23-5.77-4.75-8.83
		c-0.38-1.17-0.73-2.4-1.06-3.66c1.51-2.88,4.12-4.72,5.31-7.88c1.19-0.17,1.53-1.36,2.04-2.21c0.17-0.51-0.17-0.51-0.17-0.85
		c0.34,0,0.51-0.17,0.51-0.51c0.34-1.87,1.53-2.72,2.55-3.9c0.34-3.06,2.72-5.77,3.4-9.17c-2.04,2.04-3.4,4.75-5.77,6.62
		c0.17,1.36-1.36,1.53-1.02,2.55c-1.19,0.17-2.55,1.7-2.55,3.06c-1.36,0.51-1.36,2.38-3.06,2.72c-0.17,0.85-1.02,1.19-1.02,2.21
		c-0.51,0-0.34-0.34-0.68,0c-0.27,0.31-0.53,0.64-0.79,0.95c-0.36-2.74-0.54-5.69-0.39-8.93c0.68-16.3,7.13-31.4,11.54-44.13
		c1.53-2.21,2.04-5.43,3.39-7.81c0.17-0.51-0.17-0.85-0.17-1.19c0.85,0.34,0.17-0.85,0.85-0.68c0.17-1.87,1.19-3.06,1.53-4.75
		c0.17-0.51-0.51-0.17-0.34-0.85c1.19-1.53,2.72-4.24,2.89-6.79c-0.17,0-0.17-0.17,0,0c1.19-2.04,3.23-4.58,3.9-7.64
		c0.34-0.17,0.34-0.51,1.02-0.85c1.36-4.24,5.09-6.96,6.11-11.54c0.17-0.17,1.36-1.36,1.7-1.87c0.17-0.17-0.17-0.85,0-1.02
		c0.17-0.17,0.51-0.17,0.68-0.34c0.34-0.51,0.17-1.53,0.51-2.38c0.68-1.87,2.04-3.56,1.7-4.92c0,0.17,0,0.17-0.17,0.17
		c0,0.17-0.34,0.17,0,0c0-1.36,1.53-2.04,0.68-2.89c0,0.17,0,0.51-0.17,0.51c-0.34-0.34,0-0.68,0.17-1.02
		c-2.04-1.02-1.7-3.23-3.9-4.41c0.17-0.85-1.02-0.85-0.51-1.53c-1.7-1.02-3.06-2.38-4.75-3.39c-1.02,0.34-1.53-0.34-2.55,0
		c-0.85,1.19-1.53,2.55-2.55,3.39c0.34,1.02,1.19,1.53,1.53,2.55c-0.51,0.68-0.68,1.7-0.85,2.21c-4.92,2.55-8.83,6.11-13.41,9
		c0,0.34-0.17,0.51-0.17,0.68c-8.15,5.94-14.94,13.24-22.41,19.69c-2.21,2.38-4.24,4.92-7.13,6.62c0.17-1.87,1.19-2.38,1.36-4.24
		c1.87-2.04,2.55-4.92,4.58-6.79c-0.85,0,0.34-0.34,0-0.85c0.85-0.68,1.36-2.04,2.38-2.55c0-2.38,2.04-3.73,2.38-5.94
		c0.34-0.17,0.34-0.68,1.02-0.51c0-0.34-0.34-0.34-0.17-0.85c2.38-3.4,4.58-6.79,4.41-11.71c-0.85-1.53-1.36-3.4-2.38-4.75
		c-0.51-0.17-1.02-0.34-1.36-0.51c-0.68,0-0.85,0.51-1.53,0.68c-2.38-1.7-3.73-5.09-6.96-5.43c-1.02,0.51-1.7,1.87-2.55,2.04
		c-1.53,3.06-2.21,6.62-4.24,9.51c0,1.19-1.19,1.7-0.85,2.72c-6.28,11.88-12.05,28.35-16.81,42.78c0.51,1.19-0.85,2.04-0.34,3.57
		c-0.19,0.44-0.36,0.9-0.53,1.36c-0.16,0-0.32,0-0.48,0c0.17,0.51-0.17,0.51-0.17,0.85c-0.51,0.34-0.85,1.02-1.53,1.19
		c0.34,1.02-1.02,0.51-0.68,1.53c-0.68-0.17-0.34,0.51-0.85,0.51c-4.58,6.62-9.85,12.73-16.47,17.31
		c-4.07,4.07-8.32,7.81-14.77,9.34c-1.02-1.53,1.87-2.72,0.68-4.24c0.17-0.34,0.85-0.17,0.85-0.68c0.17-2.89,1.53-5.43,2.04-9.17
		c0.34,0,0.34-0.51,0.85-0.34c0.51-2.38,0.85-5.09,2.38-6.62c0.51-2.21,1.02-3.57,2.04-5.09c-0.34-2.04,1.53-3.23,1.36-5.43
		c0.17-0.17,0.68-0.17,0.85-0.51c0-0.34-0.34-0.68-0.17-1.19c0.34,0,0.51,0,0.51-0.34c2.04-3.4,2.38-7.13,4.24-10.52
		c0-2.21,1.7-3.57,2.38-4.92c0.51-0.85,0.51-1.87,1.02-2.55c0.85-1.19,2.04-1.87,2.72-3.06c0.51-0.85,0.51-1.87,1.02-2.72
		c1.02-1.7,2.72-3.23,3.22-5.43c0.68-0.68,2.04-1.36,2.04-2.21c-0.17-0.51-1.02-0.51-1.7-0.51c-1.19-2.89-3.9-3.4-6.11-5.09
		c-3.73-0.17-6.11-2.38-10.52-1.53c-1.36,1.7-1.87,3.4-0.85,5.26c-2.72,7.47-6.28,15.79-9.84,23.6c-2.04,7.3-4.24,14.09-6.11,20.71
		c-1.19,6.96-2.89,15.28-0.17,23.43c-0.34,0.68,0.51,1.19,0,1.87c2.72,2.89,6.45,5.77,11.71,4.41c11.23-5.89,19.25-14.98,27.1-24.33
		c-0.9,3.74-1.77,7.68-0.62,11.94c1.02,1.02,1.87,2.04,3.06,2.89c1.19,0.17,1.53,0.17,2.72,0c1.7-1.87,1.7-4.24,3.9-5.6
		c0-0.34-0.17-0.34-0.17-0.68c1.7-1.7,2.21-3.73,3.9-5.6c2.04-5.09,5.77-8.66,7.98-13.24c2.04-2.55,3.9-5.26,5.26-7.98
		c1.02-0.68,2.21-2.21,2.21-3.4c1.53-0.68,1.87-3.39,3.73-4.41c0-0.85,0.85-2.21,1.87-2.72c-0.17-0.51,0.17-0.68,0.17-1.02
		c2.04-1.87,3.23-3.57,4.58-5.94c1.53-1.02,2.72-2.38,3.56-4.07c1.53-0.68,1.7-2.72,3.57-3.06c0.51-1.87,2.38-2.38,3.23-4.07
		c1.87-1.19,2.38-3.23,4.41-4.07c3.23-3.9,7.3-6.79,11.2-10.18c-1.53,3.57-3.57,6.45-4.75,9.34c-2.21,2.72-2.21,6.11-4.41,8.83
		c0,0.34,0.17,0.34,0.17,0.68c-1.19,1.36-1.36,3.56-2.55,4.75c-2.72,7.98-5.94,16.13-8.49,24.78c-2.55,8.66-3.73,17.99-6.45,26.31
		c0.51,0.85,0.51,1.19,0.68,2.21c-0.17,0.51-0.85,0.34-0.85,1.02c-2.31,10.38-2.41,24.18,1.73,33.91c-0.01,0.06-0.02,0.12-0.03,0.18
		c-0.59,0.22-1.39,0.68-1.02,1.05c-6.28,2.89-12.05,7.3-19.52,9.85c0-0.17-0.51,0-0.51-0.34c0.68-0.34,1.36-0.51,2.04-0.85
		c-2.89,0.34-5.6,2.04-8.32,2.38c-0.17,0-0.17,0.34-0.34,0.34c-4.58,0.68-8.15,2.55-12.05,1.36c-3.23,0.68-6.45-1.36-8.66-2.04
		c0.34,0.17,0.17,0.34-0.17,0.34c-0.51,0,0.17-0.34,0-0.68c-0.51,0.17-0.51-0.34-1.02-0.17c0,0.17-0.34,0.17,0,0
		c-2.72-1.87-4.41-3.22-7.13-4.92c-0.51-0.85-1.19-1.53-2.21-1.87c0.17-0.51-1.02-1.53-1.7-1.36c-0.17-1.19-1.02-1.7-2.21-2.04
		c0.34-0.34-0.17-0.34,0.17-0.68c-0.68,0-0.68-0.68-1.36-0.51c-0.51-1.7-2.21-3.4-3.57-4.75c0.17,0.34-0.34,0.68-0.34,0.34
		c0-0.17,0.17-0.34,0.34-0.34c0-0.17,0-0.34,0-0.51c-3.9-4.07-7.64-11.2-9.68-15.96c-1.7-1.87-2.04-5.43-4.58-7.3
		c-0.17-1.53-0.68-2.89-1.7-4.07c-0.51-1.7-1.7-4.24-2.89-5.94c-0.17-2.04-1.36-3.4-2.04-4.92c0-0.17,0-0.85,0-1.02
		c-0.17-0.17-0.34,0-0.51-0.34c-0.17-0.51,0-1.19-0.51-1.36c0.34,0,0-0.51,0.17-0.85c-3.57-4.75-4.07-11.54-7.3-16.64
		c0-0.34,0.51-0.34,0.51-0.85c-0.17,0-0.51,0-0.51-0.17c0-1.87-0.85-3.06-1.19-4.58c-0.17-0.34,0.34-0.17,0.34-0.51
		c-2.21-3.57-2.04-9.34-3.73-13.24c0-0.34,0.51-0.34,0.51-0.85c-0.34-0.17-0.51-0.51-0.51-1.02c-0.34,0-0.85,0-1.19,0
		c1.19-1.7,3.06-2.55,3.4-4.92c3.9-2.21,5.09-6.45,8.66-8.66c0-0.17,0-0.51,0-0.68c2.89-1.87,4.58-4.75,7.3-6.79
		c0.17-1.36,1.53-1.36,1.7-2.55c1.02,0,0.85-0.85,1.87-0.85c1.36-2.21,3.39-3.73,5.26-5.43c0.17-0.34,0.17-0.85,0.85-0.68
		c-0.51,3.9,0.17,8.66,0,12.39c3.73-0.85,3.73-6.28,6.11-7.81c0.51-3.56,2.21-5.77,3.9-8.15c0.51,0,1.02,0,1.53,0
		c1.19-1.87,1.7-4.58,5.09-4.24c0-0.85,0.17-1.7,0.85-1.87c-0.51-1.53-2.21-1.87-2.89-3.23c-3.56-1.02-6.11-3.22-10.35-3.56
		c-0.34-0.51-1.19-0.51-2.04-0.68c-1.36,0.68-2.38,2.04-2.55,3.9c0.85,0.17,0.68,1.36,1.7,1.53c0.17,1.02-0.17,1.87-0.17,2.72
		c-0.51,0.34-0.68,0.68-1.36,0.85c0,0.85-0.68,1.02-1.02,1.53c-2.89,1.19-4.24,3.73-7.3,4.58c-1.53,2.04-3.4,3.73-5.94,4.75
		c0.17,0.51,0.17,0.34,0,0.85c-2.55,1.19-3.9,4.58-6.62,6.11c0.17,1.02-1.19,1.02-1.53,2.04c-0.34,0-0.85,0-1.19,0
		c-0.68,2.38-3.23,2.89-4.24,4.92c-1.36,0.34-1.7,2.55-2.89,3.23c-0.17-0.17,0-0.34,0-0.51c-0.85,0.68-1.7,1.53-2.21,2.55
		c-2.55,1.36-3.57,4.07-5.94,5.6c0,0.51,0.34,0.51,0,0.85c-0.85-0.34-0.85,0.68-1.53,0.85c-0.17,0.51,0.51,0.34,0.34,0.85
		c-2.72,2.38-4.58,5.43-6.96,7.81c-0.17-0.34-0.34-0.34-0.51-0.17c-1.02,0.68-1.53,1.7-2.38,2.55c0.17,0,0.34,0,0.34,0.17
		c-0.85-0.17-0.51,0.85-0.85,1.19c-0.17,0,0-0.51-0.34-0.51c-2.21,2.55-3.73,5.43-6.45,7.3c-0.17-1.19,0.85-2.72,0.85-4.75
		c0.34,0,0.51-0.17,0.68-0.17c0-1.02,0.34-1.7,0.17-2.72c0.34,0,0.34,0.17,0.68,0.17c0.17-2.21,2.04-3.23,1.87-5.6
		c0.85-0.68,1.19-1.87,1.36-3.22c1.36-0.85,1.19-3.4,2.21-4.58c-0.17,0-0.34-0.17-0.34-0.34c0.17,0,0.34,0,0.51,0
		c0.17-2.89,1.7-4.41,2.04-7.13c1.87-2.89,2.21-7.3,3.9-9.84c0.34-2.72,1.19-4.75,2.04-6.45c0-0.34,0-0.68,0-1.02
		c0.68-1.7,1.53-2.38,1.7-4.41c1.7-3.06,2.72-7.64,4.58-10.35c0-0.51,0-1.19,0-1.7c0.51,0,0.51-0.51,0.85-0.68
		c0.34-2.72,2.55-4.41,2.72-6.96c2.21-2.04,3.23-4.75,4.58-7.3c2.21-1.53,2.55-4.92,4.58-6.79c0.34-1.7,0.34-2.89,1.7-3.57
		c0.68-3.73,3.73-5.09,4.92-8.49c0.68,0,0.34-0.85,1.36-0.68c0.34-1.7,2.55-2.38,2.72-3.73c0.68-0.51,2.21-0.34,3.06,0
		c0.68-0.34,1.02-0.51,2.04-0.34c0-0.51,0.34-0.68,0.85-0.85c0-0.51,0-1.19,0-1.7c-1.36-2.21-3.06-4.41-5.26-6.11
		c-0.85-0.51-1.87-0.51-3.06-0.51c-4.24,0.17-6.96-2.72-10.86-3.57c-1.19,1.36-2.38,2.55-2.72,4.75c0,0.17,0.51,0,0.51,0.34
		c-0.17,1.19-0.51,2.04-1.36,2.38c-2.04,5.43-4.58,9.85-6.62,15.45c-0.17,0.17-0.68,0.17-0.68,0.51c0.17,0.85-1.02,3.4-1.7,4.41
		c-0.17,1.02-0.34,2.04-1.02,2.55c-3.06,8.83-6.11,15.11-8.66,23.26c-0.17,0.17-0.34,0.17-0.51,0.17
		c-2.04,6.96-4.92,11.54-6.45,18.16c-0.85-0.34-0.34,0.85-1.02,0.68c-1.7,5.26-2.72,9.17-4.92,13.75c0.51,0.34-0.17,1.87-1.02,2.21
		c-0.17,0.68,0.17,0.68,0.34,1.02c-1.02,1.53-0.85,3.4-2.04,5.26c-1.19,5.09-2.55,10.35-4.41,15.28c0,2.89-1.7,5.09-1.53,7.64
		c-1.19,3.9-2.38,8.32-3.23,12.22c-0.34,1.87-0.51,3.57-1.02,5.09c-0.85,2.04-2.38,3.23-2.89,5.26c-1.36,0.85-1.87,1.53-1.87,3.39
		c0.17,0.34,0.51,0.51,0.51,1.19c4.07,3.39,9.17,6.45,16.3,6.28c1.19-2.38,2.21-4.75,3.4-7.3c0.17-0.51-0.51-0.34-0.34-0.85
		c1.53-2.38,2.04-6.28,1.87-8.49c1.02,0.17,0.51-1.19,0.68-2.04c0.17,0,0.34,0,0.51,0c1.87-6.28,6.45-9.51,9.85-14.94
		c0.34,0,0.51-0.17,0.68-0.17c0.34-0.34,0.34-1.7,1.19-1.87c0-0.34,0-0.68,0-1.02c1.53-0.85,1.53-3.06,3.23-3.73
		c3.4,11.2,8.15,21.05,12.73,31.06c0.85,0.34,1.19,1.36,0.85,2.04c2.38,3.4,3.56,7.81,6.11,10.86c-0.51,0.17,0.17,0.51,0,1.02
		c1.53,2.21,2.89,5.43,4.58,7.98c1.87,4.41,5.6,7.47,7.13,11.71c0.51-0.17,0.51,0.34,0.85,0.51c3.06,4.24,6.45,8.15,9.51,12.22
		c0.68,0,1.02,0.34,1.36,0.68c0,0.85,0.68,1.02,0.85,1.7c3.9,1.87,5.94,5.6,9.68,7.64c0-0.17,0.17-0.17,0,0
		c2.21,1.19,4.92,1.87,6.79,2.89c0-0.17,0.17-0.17,0,0c1.19,1.53,4.24,1.19,6.28,2.38c0-0.17,0-0.51,0.17-0.51
		c1.7,1.36,5.6,0.51,7.98,1.19c0-0.17,0-0.51,0.17-0.51c0,1.02,0.85,0.17,1.53,0.51c0.17-0.51-0.34-0.51,0-0.85
		c0.51,0,1.02,0,1.36-0.17c0,0.17,0,0.51,0,0.68c1.02-0.51,2.72,0.51,2.89-1.02c-0.34,0-0.85,0.17-0.85-0.17
		c0.17-0.34,1.7-0.68,2.55-0.34c0,1.02-1.19,0-1.53,0.51c0.68,1.02,3.23-0.17,4.58-0.51c-0.51-0.34-1.02,0.34-1.36,0
		c0-0.85,0.85-0.68,1.19-1.19c0.17,0.34,0.34,0.34,0.85,0.34c0,0.34-0.51,0.34-0.34,0.85c2.38-1.02,4.41-0.85,6.11-2.38
		c0,0.68,0.51,0.17,0.85,0.17c0.17-0.68-0.68-0.34-0.51-0.85c0.68-0.51,1.87-1.36,2.89-0.85c0,0.34-0.85,0.51-0.34,0.85
		c0.51-0.68,1.7-0.68,2.04-1.53c-0.34,0-0.85,0.17-0.85-0.17c2.63-1.48,5.26-2.96,7.73-4.59c-0.23,0.37-0.45,0.75-0.67,1.14
		c-0.03,0.02-0.06,0.04-0.1,0.06c0.02,0,0.04,0,0.06,0c-0.74,1.29-1.48,2.61-2.44,3.73c-0.17,2.72-1.87,2.72-2.04,5.43
		c-0.17,0-0.17,0.17-0.17,0.34c-0.34,0.34-0.51,0.17-0.85,0.34c-1.53,3.39-3.23,6.62-4.75,10.52c-0.51,4.58-2.55,7.47-2.89,12.22
		c-0.17,0.34-0.51,0.51-0.51,1.02c-0.17,1.87,0,3.9-0.51,5.26c-0.17,3.57-0.34,6.79,0.51,9.17c0,3.4,0.68,6.11,1.87,8.66
		c1.87,5.43,4.58,10.86,7.81,14.94c3.23,4.07,7.98,7.3,14.26,8.32c1.53,1.19,3.9,1.02,6.62,0.85c6.11-0.51,12.56-3.06,17.82-5.94
		c2.72-1.53,5.09-2.89,7.3-4.58c2.89-2.21,4.92-4.24,7.47-6.79c-0.34-1.36,1.36-0.68,1.02-2.04c0.68,0.17,0.51-0.51,1.19-0.51
		c0.17-1.19,1.02-1.53,0.85-2.89c0.34-0.34,0.68,0.17,1.02-0.17c0.34-1.36,1.02-2.55,2.21-3.06c0.85-2.04,2.04-3.9,3.4-5.43
		c0.17-2.21,2.04-2.55,2.04-4.92c1.19-0.17,1.36-1.53,2.38-2.04c1.53-3.4,3.23-6.79,5.09-9.85c0-1.19,0.34-0.85,0-1.87
		c1.19-0.51,1.7-2.55,1.19-3.73c0.17-0.34,1.02,0,1.02-0.51c0-1.36,1.02-3.06,0.85-4.92c1.53-1.87,2.38-3.9,1.87-6.79
		c0.17-0.68,1.02-1.19,0.68-2.38c0.17-0.34,0.85,0,0.68-0.51c0.34-2.38,0.85-3.9,2.04-5.6c-0.17-2.21,0.51-3.57,1.19-5.26
		c0.17-0.85,0-0.68-0.17-1.53c2.04-3.23,2.89-7.3,3.73-11.37c0.17,0,0.34,0,0.51,0c1.36-5.09,2.72-9.34,4.41-14.26
		c-0.51-2.04,1.02-3.73,0.34-4.92c0.51-0.34,0.85-0.85,1.36-1.19c-1.02-1.19,1.02-1.7,0.68-2.72c-0.68,0,0.17-0.68-0.34-1.19
		c3.06-4.75,4.07-12.73,7.47-18.5c0-0.34-0.34-0.34-0.17-0.85c1.7-2.21,2.21-4.41,3.23-7.13c0.68-0.34,1.19-1.19,1.02-2.38
		c3.56-4.41,4.58-10.35,7.64-14.43c0-2.04,1.53-2.72,1.7-4.58c2.21-2.72,2.72-5.43,3.9-8.66c0.85-1.19,1.7-1.87,2.04-3.9
		c1.02-1.02,1.53-2.55,2.72-3.4c0.85-1.87,1.53-4.07,3.23-5.26c0.85-3.4,3.9-4.41,4.92-7.64c2.38-2.72,5.6-4.41,6.96-8.15
		c1.53-1.53,2.04-3.9,2.72-6.28C625.1,267.37,624.25,265.67,623.23,263.63z M540.4,269.74C540.4,269.57,540.57,269.57,540.4,269.74
		C540.4,269.91,540.06,269.91,540.4,269.74z M513.57,330.17c0.17,0,0.17,0,0.34,0c0,0.17,0,0.17,0,0.34c-0.17,0-0.17,0-0.34,0
		C513.57,330.34,513.57,330.34,513.57,330.17z M369.12,338.15c0-0.17,0.17-0.17,0.34-0.17
		C369.46,338.15,369.29,338.15,369.12,338.15z M370.82,333.23c0-0.17,0.17-0.17,0.34-0.17
		C371.16,333.23,370.99,333.23,370.82,333.23z M436.17,384.49c-0.17,0-0.34,0-0.51,0c0-0.17,0-0.34,0-0.51c0.17,0,0.34,0,0.51,0
		C436.17,384.15,436.17,384.32,436.17,384.49z M437.53,386.36c0-0.34,0.51-0.34,0.68-0.17C438.21,386.36,437.7,386.36,437.53,386.36
		z M467.07,405.88c0.34,0.17,0,0.34,0,0.51C466.73,406.22,467.07,406.05,467.07,405.88z M469.44,405.03c0-0.17,0.17-0.17,0.34-0.17
		C469.78,405.03,469.61,405.03,469.44,405.03z M469.61,402.83c-0.51-0.34,0.51-0.51,0.85-0.51
		C470.29,402.83,469.61,402.66,469.61,402.83z M470.63,403.84c-0.17-0.68,0.85-0.34,1.02-0.68
		C471.99,403.51,470.97,404.18,470.63,403.84z M475.21,402.66c-0.17-0.17-0.51-0.34-0.51,0c-0.51-0.34,0.34-0.51,0.68-0.51
		C475.21,402.32,475.21,402.49,475.21,402.66z M475.55,402.49c-0.17-0.68,0.85-0.51,1.19-0.85
		C477.25,402.15,475.89,402.32,475.55,402.49z M477.08,403.17c-0.17-0.68,1.36-1.02,1.19-0.17
		C477.76,402.83,477.42,403.17,477.08,403.17z M496.6,386.7C496.77,386.7,496.77,387.04,496.6,386.7
		C496.43,386.7,496.43,386.53,496.6,386.7z M492.02,393.83c0,0.02-0.02,0.03-0.02,0.05c-0.13,0.15-0.24,0.3-0.36,0.45
		C491.22,394.29,491.69,393.67,492.02,393.83z"/>
	<path fill="#F3F3F4" d="M528.51,331.53c0.34,0.17,0.68,0.17,0.34-0.17C528.68,331.36,528.51,331.36,528.51,331.53z"/>
	<path fill="#F3F3F4" d="M528.85,331.36c0.17,0,0.17,0,0.17-0.17C528.85,331.19,528.85,331.19,528.85,331.36z"/>
</g>
<polyline fill="none" stroke="#434040" stroke-width="0.25" stroke-miterlimit="10" points="478.61,42.99 617.12,257.69 
	432.1,206.79 500.16,477.01 589.11,334.42 440.59,125.82 "/>
<circle fill="#434040" cx="478.61" cy="42.99" r="1.51"/>
<circle fill="#434040" cx="440.59" cy="125.82" r="1.51"/>
<circle fill="#434040" cx="617.12" cy="257.69" r="1.51"/>
<circle fill="#434040" cx="589.11" cy="334.42" r="1.51"/>
<circle fill="#434040" cx="432.1" cy="206.79" r="1.51"/>
<circle fill="#434040" cx="514.35" cy="229.42" r="1.51"/>
<polyline fill="none" stroke="#434040" stroke-width="0.25" stroke-miterlimit="10" points="432.1,206.79 440.59,125.82 
	340.76,216.22 "/>
<line fill="none" stroke="#434040" stroke-width="0.25" stroke-miterlimit="10" x1="514.35" y1="229.42" x2="500.16" y2="477.01"/>
<polyline fill="none" stroke="#434040" stroke-width="0.25" stroke-miterlimit="10" points="478.61,42.99 440.59,125.82 
	617.12,257.69 "/>
<g>
	<g>
		<path fill="#00FB71" d="M350.27,206.45c0.06-0.07,0.13-0.14,0.2-0.2c0.85-0.71,2.1-0.61,2.82,0.22c0.64,0.76,0.62,1.87-0.01,2.59
			c0.27,0.49,0.52,1,0.73,1.51c2.19,5.31,1.06,11.62-3.15,15.83c-5.3,5.3-13.68,5.64-19.38,1.03c0.09-0.06,0.17-0.13,0.25-0.19
			c0.19-0.16,0.37-0.35,0.51-0.55c5.28,4.2,12.99,3.84,17.86-1.03c3.87-3.87,4.92-9.66,2.97-14.55c-0.2-0.49-0.43-0.97-0.68-1.45
			c-0.74,0.25-1.6,0.04-2.14-0.59C349.6,208.28,349.61,207.17,350.27,206.45z"/>
		<path fill="#00FB71" d="M330.32,205.86c5.29-5.29,13.69-5.63,19.38-1.02c-0.09,0.06-0.17,0.13-0.25,0.19
			c-0.19,0.16-0.37,0.35-0.51,0.55c-5.27-4.19-12.99-3.86-17.86,1.02c-3.88,3.88-4.92,9.67-2.95,14.57
			c0.19,0.49,0.42,0.97,0.67,1.44c0.74-0.25,1.59-0.03,2.13,0.6c0.64,0.76,0.63,1.87-0.02,2.59l-0.21,0.21
			c-0.84,0.72-2.09,0.62-2.81-0.22c-0.64-0.76-0.63-1.87,0.02-2.59c-0.27-0.49-0.51-0.99-0.71-1.51
			C324.98,216.4,326.09,210.09,330.32,205.86z"/>
	</g>
	<g>
		<path fill="#00FB71" d="M350.27,206.45c0.06-0.07,0.13-0.14,0.2-0.2c0.85-0.71,2.1-0.61,2.82,0.22c0.64,0.76,0.62,1.87-0.01,2.59
			c0.27,0.49,0.52,1,0.73,1.51c2.19,5.31,1.06,11.62-3.15,15.83c-5.3,5.3-13.68,5.64-19.38,1.03c0.09-0.06,0.17-0.13,0.25-0.19
			c0.19-0.16,0.37-0.35,0.51-0.55c5.28,4.2,12.99,3.84,17.86-1.03c3.87-3.87,4.92-9.66,2.97-14.55c-0.2-0.49-0.43-0.97-0.68-1.45
			c-0.74,0.25-1.6,0.04-2.14-0.59C349.6,208.28,349.61,207.17,350.27,206.45z"/>
		<path fill="#00FB71" d="M330.32,205.86c5.29-5.29,13.69-5.63,19.38-1.02c-0.09,0.06-0.17,0.13-0.25,0.19
			c-0.19,0.16-0.37,0.35-0.51,0.55c-5.27-4.19-12.99-3.86-17.86,1.02c-3.88,3.88-4.92,9.67-2.95,14.57
			c0.19,0.49,0.42,0.97,0.67,1.44c0.74-0.25,1.59-0.03,2.13,0.6c0.64,0.76,0.63,1.87-0.02,2.59l-0.21,0.21
			c-0.84,0.72-2.09,0.62-2.81-0.22c-0.64-0.76-0.63-1.87,0.02-2.59c-0.27-0.49-0.51-0.99-0.71-1.51
			C324.98,216.4,326.09,210.09,330.32,205.86z"/>
	</g>
</g>
<circle fill="#00FB71" cx="340.76" cy="216.22" r="2.01"/>
</svg>
