<?xml version="1.0" encoding="utf-8"?>
<!-- Generator: Adobe Illustrator 19.0.0, SVG Export Plug-In . SVG Version: 6.00 Build 0)  -->
<svg version="1.1" id="Capa_1" xmlns="http://www.w3.org/2000/svg" xmlns:xlink="http://www.w3.org/1999/xlink" x="0px" y="0px"
	 viewBox="0 0 735 230" style="enable-background:new 0 0 735 230;" xml:space="preserve">
<style type="text/css">
	.st0{fill:none;stroke:#434040;stroke-width:0.5;stroke-miterlimit:10;}
	.st1{fill:#6D23FB;}
</style>
<g>
	<polyline class="st0" points="10.4,138.7 373.3,5.1 729.9,67.5 	"/>
	<polyline class="st0" points="161,83.3 98.3,222.1 373.3,5.1 631.8,134.1 601.6,45.1 409.4,76.3 	"/>
	<polyline class="st0" points="431.4,119.7 373.3,5.1 303.8,102.5 161,83.3 234.7,173.1 	"/>
	<polyline class="st0" points="373.3,5.1 370.1,149.4 409.4,76.3 	"/>
	<circle class="st1" cx="601.6" cy="45.1" r="2.9"/>
	<circle class="st1" cx="631.8" cy="134.3" r="2.9"/>
	<circle class="st1" cx="489.4" cy="63.5" r="2.9"/>
	<circle class="st1" cx="409.4" cy="76.3" r="2.9"/>
	<circle class="st1" cx="431.4" cy="119.7" r="2.9"/>
	<circle class="st1" cx="370.1" cy="149.4" r="2.9"/>
	<circle class="st1" cx="303.8" cy="102.5" r="2.9"/>
	<circle class="st1" cx="257.8" cy="96.7" r="2.9"/>
	<circle class="st1" cx="161" cy="83.9" r="2.9"/>
	<circle class="st1" cx="205.4" cy="137.6" r="2.9"/>
	<circle class="st1" cx="234.8" cy="173.1" r="2.9"/>
	<circle class="st1" cx="10.4" cy="138.7" r="2.9"/>
</g>
</svg>
