<?xml version="1.0" encoding="utf-8"?>
<!-- Generator: Adobe Illustrator 19.0.0, SVG Export Plug-In . SVG Version: 6.00 Build 0)  -->
<svg version="1.1" id="Capa_1" xmlns="http://www.w3.org/2000/svg" xmlns:xlink="http://www.w3.org/1999/xlink" x="0px" y="0px"
	 viewBox="0 0 221.6 116" style="enable-background:new 0 0 221.6 116;" xml:space="preserve">
<style type="text/css">
	.st0{fill:#5C1DBF;}
	.st1{fill:#FFFFFF;}
</style>
<g id="XMLID_4862_">
	<path id="XMLID_4863_" class="st0" d="M121.6,45.5L113.5,33l10.8-16.6c2.9-4.5,10-8.2,15.8-8.2h6.5c5.8,0,8.1,3.7,5.2,8.2
		l-22.1,34.1l2.5,3.8l33.1-51.1h-37.4l-16.9,26l-2.5,3.8L94.8,54.2L70.2,16.4c-2.9-4.5-0.6-8.2,5.2-8.2h6.5c5.8,0,12.9,3.7,15.8,8.2
		l8.3,12.8l2.5-3.8L93.9,3.2H56.5l33.4,51.1l9.1,14h0l9.6,14.8l0,0L97.8,99.7c-2.9,4.5-10,8.2-15.8,8.2h-6.5c-5.8,0-8.1-3.7-5.2-8.2
		l22.1-34l-2.5-3.8L56,113.9h37.4l17-26l3.1-4.8l0,0l13.8-21.2l24.5,37.8c2.9,4.5,0.6,8.2-5.2,8.2h-6.5c-5.8,0-12.9-3.7-15.8-8.2
		L116,86.9l-2.5,3.8l14.7,23.2h37.4L129.7,58L121.6,45.5z M111,79.2L111,79.2L111,79.2L97.3,58L111,36.8L124.8,58L111,79.2z"/>
</g>
<g id="XMLID_4866_">
	<g id="XMLID_4867_">
		<g id="XMLID_4868_">
			<path id="XMLID_4869_" class="st1" d="M35,53.7l0.6-1.5c0-0.1,0.1-0.1,0.1-0.1h3c0.1,0,0.1,0,0.1,0.1l0.5,1.3l0,0l0.6,1.6
				c0,0,0,0,0,0l0.1,0.3h1.2l-0.7-1.9h0c-0.9-2.2-2.8-6.8-3-7.3c-0.1-0.3-0.2-0.5-0.3-0.5c-0.1,0-0.1,0.1-0.3,0.5l-2.8,7.3l-0.7,1.9
				h0.8L35,53.7z M35.8,51.4l1.2-3.5c0.1-0.2,0.1-0.2,0.2,0l1.3,3.5c0,0.1,0,0.1,0,0.1L35.8,51.4C35.8,51.5,35.8,51.5,35.8,51.4z"/>
			<path id="XMLID_4872_" class="st1" d="M182.5,46v3.5c0,0.1,0,0.1,0,0.2v2.2v3.5h1.2V46"/>
			<path id="XMLID_4873_" class="st1" d="M208,53.7l0.6-1.5c0-0.1,0.1-0.1,0.1-0.1h3c0.1,0,0.1,0,0.1,0.1l0.5,1.3l0,0l0.6,1.6l0,0
				l0.1,0.3h1.2l-0.7-1.9h0c-0.9-2.2-2.8-6.8-3-7.3c-0.1-0.3-0.2-0.5-0.3-0.5c-0.1,0-0.1,0.1-0.3,0.5l-2.8,7.3l-0.7,1.9h0.8
				L208,53.7z M208.9,51.4l1.2-3.5c0.1-0.2,0.1-0.2,0.2,0l1.3,3.5c0,0.1,0,0.1,0,0.1L208.9,51.4C208.9,51.5,208.9,51.5,208.9,51.4z"
				/>
			<path id="XMLID_4876_" class="st1" d="M127.8,55.1L127.8,55.1c-1.1,0-1.3-0.2-1.3-1c0-0.3,0-1.7,0-2.2v-0.2v-0.9v-0.1h2.5v-0.5
				h-2.4v0c-0.1,0-0.1,0-0.1-0.1v-3.1v-0.3v-0.1l0.1,0l0,0h2.4V46h-3.7v9.4h3.7v-0.3H127.8z"/>
			<g id="XMLID_4877_">
				<path id="XMLID_4878_" class="st1" d="M158.7,54.4c-0.8-0.8-1.7-1.9-2.8-3.3c1.2-1,1.6-2,1.6-2.9c0-0.9-0.6-1.5-0.9-1.7
					c-0.5-0.4-1.2-0.5-1.9-0.5h-0.9l0,0.4c0.1,0,0.2,0,0.2,0c1.4,0,2.3,0.9,2.3,2.5c0,1-0.3,1.6-0.8,1.9c-0.3,0.2-0.7,0.2-1,0.2
					c-0.2,0-1.3,0-1.5,0v0.5l1.8,0c0.1,0,0.1,0,0.2,0.1c0.3,0.3,0.9,1.2,1.4,1.9c0.7,1,1.2,1.6,1.8,1.9c0,0,0.1,0,0.1,0.1h0.6l0.7,0
					C159.6,55.3,158.8,54.5,158.7,54.4z"/>
				<rect id="XMLID_4879_" x="151.9" y="46" class="st1" width="1.1" height="9.4"/>
				<rect id="XMLID_4880_" x="153" y="46" class="st1" width="1" height="0.4"/>
			</g>
			<path id="XMLID_4881_" class="st1" d="M72.3,55.6c0.1,0,0.1,0,0.1-0.3h-0.6C72.1,55.6,72.2,55.6,72.3,55.6z"/>
			<path id="XMLID_4882_" class="st1" d="M71.7,46v7.8l0,0v0c-0.4-0.4-1.8-1.9-3.1-3.3c-2-2.1-4-4.1-4.2-4.3
				c-0.1-0.1-0.4-0.4-0.5-0.4c-0.1,0-0.2,0.1-0.2,0.6v7.3c0,0.1,0,0.1,0,0.2v1.5h0.7v-7.6l0,0l0,0c0.4,0.4,1.9,2,3.4,3.6
				c1.4,1.5,3.3,3.3,3.4,3.4c0.2,0.2,0.4,0.4,0.5,0.5h0.6c0-0.1,0-0.3,0-0.6l0-1.5V46H71.7z"/>
			<rect id="XMLID_4883_" x="98" y="46" class="st1" width="1.2" height="9.4"/>
			<rect id="XMLID_4884_" x="94.6" y="50.4" class="st1" width="7.8" height="0.6"/>
			<polygon id="XMLID_4885_" class="st1" points="185.6,43.8 183.1,42.7 183.1,42.7 183.1,42.7 183.1,42.7 183.1,42.7 180.6,43.8 
				180.9,44.3 183.1,43.3 185.4,44.3 			"/>
			<path id="XMLID_4886_" class="st1" d="M10.1,54c-0.2-0.3-0.5-0.8-0.8-1.2l0,0c-0.7-1.1-1.4-2.3-1.5-2.5l1.5-2.2l1.4-2.1H9.9
				l-1.2,1.9c-0.5,0.7-1,1.6-1.2,1.9C7,49.1,6.7,48.5,6.3,48h0l-0.1-0.2c-0.1-0.2-0.3-0.5-0.4-0.7L5.2,46H3.9l1.2,2l1.6,2.6
				l-1.3,2.1l0,0l-1,1.6c-0.1,0.1-0.1,0.2-0.2,0.2l-0.6,0.9h0.9L5.9,53L7,51.1c0.5,0.8,1,1.6,1.5,2.4h0l1.1,1.8H11L10.1,54z"/>
		</g>
		<g id="XMLID_4887_">
			<g id="XMLID_4888_">
				<path id="XMLID_4889_" class="st1" d="M65,74.4c-0.4,0-0.7-0.1-0.9-0.4c-0.3-0.3-0.3-0.7-0.3-1.5c0-0.8,0-1.1,0.3-1.5
					c0.2-0.2,0.6-0.4,0.9-0.4c0.7,0,1.1,0.4,1.3,1.1h-0.4C65.7,71.3,65.4,71,65,71c-0.2,0-0.5,0.1-0.6,0.3c-0.2,0.2-0.3,0.5-0.3,1.2
					s0,1,0.3,1.2c0.2,0.2,0.4,0.3,0.6,0.3c0.5,0,0.8-0.3,0.9-0.7h0.4C66.1,74,65.6,74.4,65,74.4z"/>
				<path id="XMLID_4891_" class="st1" d="M77.1,74c-0.2,0.2-0.6,0.4-0.9,0.4c-0.4,0-0.7-0.1-0.9-0.4c-0.3-0.3-0.3-0.7-0.3-1.5
					c0-0.8,0-1.1,0.3-1.5c0.2-0.2,0.6-0.4,0.9-0.4c0.4,0,0.7,0.1,0.9,0.4c0.3,0.3,0.3,0.7,0.3,1.5C77.5,73.3,77.5,73.7,77.1,74z
					 M76.8,71.3c-0.2-0.2-0.4-0.3-0.6-0.3c-0.2,0-0.5,0.1-0.6,0.3c-0.2,0.2-0.3,0.5-0.3,1.2s0,1,0.3,1.2c0.2,0.2,0.4,0.3,0.6,0.3
					c0.2,0,0.5-0.1,0.6-0.3c0.2-0.2,0.3-0.5,0.3-1.2S77,71.5,76.8,71.3z"/>
				<path id="XMLID_4894_" class="st1" d="M87.3,74.4c-0.5,0-0.9-0.1-1.2-0.5l0.3-0.3c0.3,0.3,0.6,0.4,1,0.4c0.5,0,0.9-0.3,0.9-0.7
					c0-0.2-0.1-0.4-0.2-0.5c-0.1-0.1-0.2-0.1-0.5-0.2l-0.4-0.1c-0.3,0-0.5-0.1-0.7-0.3c-0.2-0.2-0.3-0.4-0.3-0.7c0-0.6,0.4-1,1.2-1
					c0.5,0,0.8,0.1,1.1,0.4l-0.3,0.3c-0.2-0.2-0.5-0.3-0.8-0.3c-0.5,0-0.8,0.3-0.8,0.7c0,0.2,0.1,0.3,0.2,0.4
					c0.1,0.1,0.3,0.2,0.5,0.2l0.4,0.1c0.3,0.1,0.5,0.1,0.7,0.3c0.2,0.2,0.3,0.4,0.3,0.7C88.5,74,88,74.4,87.3,74.4z"/>
				<path id="XMLID_4896_" class="st1" d="M100,74.4v-2.8l-1,2.2h-0.3l-1-2.2v2.8h-0.4v-3.6h0.4l1.2,2.6l1.2-2.6h0.4v3.6H100z"/>
				<path id="XMLID_4898_" class="st1" d="M109.4,74.4v-3.6h2.3v0.3h-1.9v1.3h1.6v0.3h-1.6V74h1.9v0.3H109.4z"/>
				<path id="XMLID_4900_" class="st1" d="M121.5,71.1v3.3h-0.4v-3.3h-1.1v-0.3h2.5v0.3H121.5z"/>
				<path id="XMLID_4902_" class="st1" d="M131.2,74.4v-3.6h0.4v3.6H131.2z"/>
				<path id="XMLID_4904_" class="st1" d="M141.8,74.4c-0.4,0-0.7-0.1-0.9-0.4c-0.3-0.3-0.3-0.7-0.3-1.5c0-0.8,0-1.1,0.3-1.5
					c0.2-0.2,0.6-0.4,0.9-0.4c0.7,0,1.1,0.4,1.3,1.1h-0.4c-0.1-0.4-0.4-0.7-0.9-0.7c-0.2,0-0.5,0.1-0.6,0.3
					c-0.2,0.2-0.3,0.5-0.3,1.2s0,1,0.3,1.2c0.2,0.2,0.4,0.3,0.6,0.3c0.5,0,0.8-0.3,0.9-0.7h0.4C142.9,74,142.4,74.4,141.8,74.4z"/>
				<path id="XMLID_4906_" class="st1" d="M153.9,74.4l-0.3-0.8H152l-0.3,0.8h-0.4l1.3-3.6h0.3l1.3,3.6H153.9z M152.8,71.3l-0.7,1.9
					h1.4L152.8,71.3z"/>
			</g>
			<polygon id="XMLID_4909_" class="st1" points="111.5,69.5 110.6,68.9 110.6,68.9 110.6,68.9 109.6,69.5 109.8,69.8 110.6,69.3 
				111.3,69.8 			"/>
		</g>
	</g>
	<g id="XMLID_4910_">
		<path id="XMLID_4911_" class="st1" d="M216.1,47.5v-1.4l-0.5,1.1h-0.2l-0.5-1.1v1.4h-0.2v-1.8h0.2l0.6,1.3l0.6-1.3h0.2v1.8H216.1z
			"/>
		<path id="XMLID_4913_" class="st1" d="M217.9,47.5l-0.4-0.8H217v0.8h-0.2v-1.8h0.7c0.3,0,0.5,0.2,0.5,0.5c0,0.3-0.2,0.4-0.4,0.5
			l0.4,0.8H217.9z M217.5,45.9H217v0.7h0.5c0.2,0,0.4-0.1,0.4-0.3C217.9,46,217.7,45.9,217.5,45.9z"/>
	</g>
</g>
</svg>
