<?xml version="1.0" encoding="utf-8"?>
<!-- Generator: Adobe Illustrator 19.0.0, SVG Export Plug-In . SVG Version: 6.00 Build 0)  -->
<svg version="1.1" id="Capa_1" xmlns="http://www.w3.org/2000/svg" xmlns:xlink="http://www.w3.org/1999/xlink" x="0px" y="0px"
	 viewBox="0 0 137.9 48.1" style="enable-background:new 0 0 137.9 48.1;" xml:space="preserve">
<style type="text/css">
	.st0{fill:#FFFFFF;}
</style>
<g id="XMLID_4684_">
	<g id="XMLID_4685_">
		<g id="XMLID_4690_">
			<path id="XMLID_92_" class="st0" d="M5,44.1c-0.5,0-0.8,0-1-0.1c-0.2-0.1-0.2-0.2-0.2-0.5l0.9-5.5h2.5V27.5H4.7L3.8,22
				c0-0.2,0.1-0.4,0.2-0.5c0.2-0.1,0.5-0.1,1-0.1h10.5c1.6,0,3.1,0.1,4.4,0.4c1.3,0.3,2.4,0.7,3.3,1.3c0.9,0.6,1.6,1.4,2.1,2.4
				c0.5,1,0.7,2.3,0.7,3.8c0,1.5-0.3,2.7-0.8,3.7c-0.5,0.9-1.3,1.7-2.2,2.2c-0.9,0.5-2,0.9-3.3,1.1c-1.3,0.2-2.6,0.3-4.1,0.3h-1.2
				v1.6h2.9l0.9,5.5c0,0.2-0.1,0.4-0.2,0.5c-0.2,0.1-0.5,0.1-1,0.1H5z M14.2,31.4h1.6c0.9,0,1.6-0.1,2.2-0.4
				c0.6-0.3,0.9-0.8,0.9-1.6s-0.3-1.3-0.9-1.6c-0.6-0.3-1.3-0.4-2.2-0.4h-1.6V31.4z"/>
		</g>
		<g id="XMLID_4696_">
			<path id="XMLID_76_" class="st0" d="M28.3,38.2h2v-14h-2L27.4,19c0-0.2,0.1-0.4,0.3-0.5c0.2-0.1,0.5-0.1,1-0.1h7.2
				c0.5,0,0.8,0,1,0.1c0.2,0.1,0.3,0.3,0.3,0.5v19.2h1.6l0.9,5.2c0,0.2-0.1,0.4-0.3,0.5c-0.2,0.1-0.5,0.1-1,0.1h-9.7
				c-0.5,0-0.8,0-1-0.1c-0.2-0.1-0.3-0.3-0.3-0.5L28.3,38.2z"/>
		</g>
		<g id="XMLID_4702_">
			<path id="XMLID_97_" class="st0" d="M53.8,44.1l-0.3-1.6c-0.6,0.5-1.4,0.9-2.3,1.3s-1.9,0.6-2.9,0.6c-0.9,0-1.8-0.1-2.7-0.2
				c-0.9-0.2-1.6-0.5-2.3-0.9c-0.7-0.4-1.2-1-1.6-1.7c-0.4-0.7-0.6-1.6-0.6-2.7c0-0.8,0.2-1.5,0.5-2.1c0.3-0.7,0.8-1.2,1.5-1.7
				c0.7-0.5,1.5-0.8,2.5-1.1c1-0.3,2.2-0.4,3.5-0.4h2v-0.5c0-0.5-0.2-1-0.6-1.2c-0.4-0.3-0.9-0.4-1.6-0.4c-0.8,0-1.6,0.1-2.4,0.3
				c-0.8,0.2-1.7,0.6-2.6,1c-0.1,0-0.2,0.1-0.2,0.1c0,0-0.1,0-0.2,0c-0.2,0-0.3-0.1-0.3-0.2l-1.1-4.6c0.6-0.4,1.3-0.7,2.1-1
				c0.8-0.2,1.6-0.4,2.4-0.6c0.8-0.1,1.5-0.2,2.2-0.3c0.7-0.1,1.2-0.1,1.6-0.1c1.4,0,2.5,0.2,3.5,0.6c0.9,0.4,1.7,0.9,2.3,1.6
				c0.6,0.7,1,1.4,1.2,2.3c0.2,0.9,0.4,1.9,0.4,2.9v4.7h1.6l0.9,5.2c0,0.2-0.1,0.4-0.3,0.5c-0.2,0.1-0.5,0.1-1,0.1H53.8z M49,37.2
				c-0.8,0-1.4,0.1-1.6,0.4c-0.3,0.3-0.4,0.6-0.4,0.9c0,0.3,0.1,0.5,0.2,0.7c0.1,0.2,0.3,0.3,0.4,0.4c0.2,0.1,0.4,0.2,0.6,0.2
				c0.2,0,0.4,0.1,0.5,0.1c0.4,0,0.8-0.1,1.2-0.2c0.4-0.1,0.8-0.3,1.1-0.5v-2.2H49z"/>
		</g>
		<g id="XMLID_4708_">
			<path id="XMLID_88_" class="st0" d="M61.5,39.7l9.4-8.4h-4l-0.5,2.3h-3.7c-0.2,0-0.4-0.1-0.5-0.3c-0.1-0.2-0.1-0.5-0.1-1v-5.2
				c0-0.2,0.1-0.4,0.3-0.5c0.2-0.1,0.5-0.1,1-0.1h13.5c0.5,0,0.8,0,1,0.1c0.2,0.1,0.3,0.2,0.3,0.5V31l-8.2,8.3h3.9l0.5-2.3h3.7
				c0.2,0,0.4,0.1,0.5,0.3c0.1,0.2,0.1,0.5,0.1,1v5.2c0,0.2-0.1,0.4-0.3,0.5c-0.2,0.1-0.5,0.1-1,0.1H63.1c-0.3,0-0.5-0.1-0.6-0.2
				c-0.1-0.1-0.2-0.3-0.3-0.5L61.5,39.7z"/>
		</g>
		<g id="XMLID_4714_">
			<path id="XMLID_100_" class="st0" d="M93.2,44.1L93,42.6c-0.6,0.5-1.4,0.9-2.3,1.3s-1.9,0.6-2.9,0.6c-0.9,0-1.8-0.1-2.7-0.2
				c-0.9-0.2-1.6-0.5-2.3-0.9c-0.7-0.4-1.2-1-1.6-1.7c-0.4-0.7-0.6-1.6-0.6-2.7c0-0.8,0.2-1.5,0.5-2.1c0.3-0.7,0.8-1.2,1.5-1.7
				c0.7-0.5,1.5-0.8,2.5-1.1c1-0.3,2.2-0.4,3.5-0.4h2v-0.5c0-0.5-0.2-1-0.6-1.2c-0.4-0.3-0.9-0.4-1.6-0.4c-0.8,0-1.6,0.1-2.4,0.3
				c-0.8,0.2-1.7,0.6-2.6,1c-0.1,0-0.2,0.1-0.2,0.1c0,0-0.1,0-0.2,0c-0.2,0-0.3-0.1-0.3-0.2l-1.1-4.6c0.6-0.4,1.3-0.7,2.1-1
				c0.8-0.2,1.6-0.4,2.4-0.6c0.8-0.1,1.5-0.2,2.2-0.3c0.7-0.1,1.2-0.1,1.6-0.1c1.4,0,2.5,0.2,3.5,0.6c0.9,0.4,1.7,0.9,2.3,1.6
				c0.6,0.7,1,1.4,1.2,2.3c0.2,0.9,0.4,1.9,0.4,2.9v4.7h1.6l0.9,5.2c0,0.2-0.1,0.4-0.3,0.5c-0.2,0.1-0.5,0.1-1,0.1H93.2z M88.5,37.2
				c-0.8,0-1.4,0.1-1.6,0.4c-0.3,0.3-0.4,0.6-0.4,0.9c0,0.3,0.1,0.5,0.2,0.7c0.1,0.2,0.3,0.3,0.4,0.4c0.2,0.1,0.4,0.2,0.6,0.2
				c0.2,0,0.4,0.1,0.5,0.1c0.4,0,0.8-0.1,1.2-0.2c0.4-0.1,0.8-0.3,1.1-0.5v-2.2H88.5z"/>
		</g>
	</g>
	<g id="XMLID_4717_">
		<g id="XMLID_4721_">
			<path id="XMLID_80_" class="st0" d="M100.7,19.9h3.9V9.7h-3.2c-0.5,0-0.8,0-1-0.1c-0.2-0.1-0.2-0.2-0.2-0.5l0.9-5.5h9.1
				c0.5,0,0.8,0,1,0.1c0.2,0.1,0.3,0.2,0.3,0.5v15.7h3.9l0.9,5.5c0,0.2-0.1,0.4-0.3,0.5c-0.2,0.1-0.5,0.1-1,0.1h-14
				c-0.5,0-0.8,0-1-0.1c-0.2-0.1-0.2-0.2-0.2-0.5L100.7,19.9z"/>
		</g>
		<g id="XMLID_4726_">
			<path id="XMLID_78_" class="st0" d="M118.5,19.9h3.9V9.7h-3.2c-0.5,0-0.8,0-1-0.1c-0.2-0.1-0.2-0.2-0.2-0.5l0.9-5.5h9.1
				c0.5,0,0.8,0,1,0.1c0.2,0.1,0.3,0.2,0.3,0.5v15.7h3.9l0.9,5.5c0,0.2-0.1,0.4-0.2,0.5c-0.2,0.1-0.5,0.1-1,0.1h-14
				c-0.5,0-0.8,0-1-0.1c-0.2-0.1-0.2-0.2-0.2-0.5L118.5,19.9z"/>
		</g>
	</g>
</g>
</svg>
