<?xml version="1.0" encoding="utf-8"?>
<!-- Generator: Adobe Illustrator 19.0.0, SVG Export Plug-In . SVG Version: 6.00 Build 0)  -->
<svg version="1.1" id="Capa_1" xmlns="http://www.w3.org/2000/svg" xmlns:xlink="http://www.w3.org/1999/xlink" x="0px" y="0px"
	 viewBox="0 0 125.6 97.3" style="enable-background:new 0 0 125.6 97.3;" xml:space="preserve">
<style type="text/css">
	.st0{fill:#323864;}
	.st1{fill:#60B748;}
	.st2{fill:#5D6FD4;}
</style>
<g id="XMLID_4738_">
	<g id="XMLID_4739_">
		<path id="XMLID_4740_" class="st0" d="M18.4,65.3h8.3l-6.5,21.3h-11L2.8,65.3h8.3l3.5,16.3H15L18.4,65.3z"/>
		<path id="XMLID_4742_" class="st0" d="M48.5,67c1.3,1.5,2,4,2,7.7c0,2.7-0.3,4.9-0.8,6.6c-0.5,1.7-1.1,2.8-1.8,3.4
			c-0.7,0.6-1.9,1-3.5,1.3c-1.7,0.3-3.4,0.5-5.2,0.5c-0.5,0-1.4,0-2.6-0.1v6.6l-7.9,0.3V65.3h6.5l0.8,3.3c0.8-1.1,1.8-2.1,3.1-2.7
			c1.2-0.7,2.7-1,4.3-1C45.4,64.8,47.2,65.6,48.5,67z M42.1,78.8c0.2-1.2,0.2-2.3,0.2-3.3c0-1.7-0.2-3-0.6-3.8
			c-0.4-0.8-1.3-1.2-2.6-1.2c-0.9,0-1.8,0.1-2.6,0.3V81l1.3,0.1c0.4,0,1,0,1.7,0c1,0,1.7-0.1,1.9-0.2C41.7,80.7,41.9,80,42.1,78.8z"
			/>
		<path id="XMLID_4745_" class="st0" d="M69.2,65.2c1.6,0.2,3.4,0.5,5.5,0.8v18.4c0,4.4-1.5,7.8-4.4,10.3c-0.4,0.3-1.2,0.6-2.5,0.8
			c-1.3,0.2-2.8,0.3-4.4,0.3c-3.5,0-6.4-0.5-8.4-1.4c0-0.7,0-1.6,0.2-2.7c0.1-1.1,0.3-2,0.4-2.6c2.2,0.3,4.4,0.5,6.5,0.5
			c1.1,0,2-0.1,2.8-0.2c0.8-0.1,1.2-0.3,1.4-0.5c0.2-0.2,0.4-1.2,0.6-2.8c0-0.4,0-1.1,0-1.9v-1.2c-0.8,1.1-1.8,2-3,2.5
			c-1.2,0.5-2.3,0.7-3.2,0.7c-2.6,0-4.6-0.8-5.9-2.5c-1.3-1.7-2-4.2-2-7.5c0-2.2,0.3-4.2,0.9-6.1c0.6-1.9,1.4-3.2,2.5-4
			c0.7-0.5,1.8-0.8,3.3-1c1.5-0.2,3.2-0.3,5.2-0.3C66.1,64.9,67.6,65,69.2,65.2z M66.8,80v-9.7c-0.3-0.1-0.8-0.1-1.5-0.2
			c-0.3,0-0.8,0-1.4,0c-1,0-1.6,0.1-1.8,0.3c-0.3,0.2-0.6,0.9-0.8,2.1C61.1,73.6,61,74.7,61,76c0,1.7,0.2,2.9,0.6,3.6
			c0.4,0.7,1.1,1,2.2,1C64.9,80.6,65.9,80.4,66.8,80z"/>
	</g>
	<g id="XMLID_4748_">
		<path id="XMLID_4749_" class="st1" d="M84.3,65.8c0.4,0.1,0.7,0.3,1,0.7c0.2,0.3,0.3,0.8,0.3,1.4c0,0.7-0.1,1.2-0.4,1.5
			c-0.2,0.3-0.6,0.6-1,0.7c-0.4,0.1-0.9,0.2-1.5,0.2h-1.6v-4.7h1.6C83.4,65.6,83.9,65.6,84.3,65.8z M84,68.6c0-0.3,0-0.5,0-0.8
			c0-0.3,0-0.5-0.1-0.7c0-0.2-0.1-0.3-0.2-0.4c-0.2-0.2-0.4-0.3-0.8-0.3c-0.1,0-0.2,0-0.3,0v2.7c0.1,0,0.2,0,0.4,0
			c0.2,0,0.4,0,0.5,0c0.2,0,0.3,0,0.3-0.1C83.9,69.1,84,68.9,84,68.6z"/>
		<path id="XMLID_4752_" class="st1" d="M89.3,69.2c0,0,0.1,0,0.3,0l0.1,0.8c-0.4,0.2-1,0.3-1.6,0.3c-0.6,0-1.1-0.2-1.5-0.5
			c-0.3-0.3-0.5-0.8-0.5-1.4c0-0.3,0-0.6,0.1-1c0.1-0.3,0.2-0.5,0.3-0.6c0.1-0.1,0.3-0.2,0.6-0.3c0.3-0.1,0.6-0.1,0.9-0.1
			c0.5,0,0.9,0.1,1.1,0.3c0.2,0.2,0.4,0.4,0.5,0.7c0.1,0.3,0.1,0.7,0.1,1.2c-0.4,0-0.7,0-1.1,0h-1.2c0,0.2,0,0.3,0.1,0.4
			c0.1,0.1,0.2,0.1,0.3,0.2s0.3,0,0.6,0C88.7,69.3,88.9,69.3,89.3,69.2z M87.5,67.6c0,0.1,0,0.3,0,0.4h0.4c0.3,0,0.4,0,0.6,0
			c0-0.3,0-0.4-0.1-0.6c-0.1-0.1-0.2-0.2-0.4-0.2c-0.1,0-0.3,0-0.4,0.1C87.6,67.4,87.5,67.5,87.5,67.6z"/>
		<path id="XMLID_4755_" class="st1" d="M92.9,70c-0.3,0.2-0.7,0.3-1.3,0.3c-0.4,0-0.9-0.1-1.4-0.2c0-0.1,0-0.3,0.1-0.5
			c0-0.2,0.1-0.4,0.1-0.5c0.2,0,0.4,0.1,0.7,0.1c0.2,0,0.4,0,0.6,0c0.1,0,0.2,0,0.3,0c0,0,0,0,0,0c0,0,0-0.1,0-0.1
			c0-0.1-0.1-0.2-0.2-0.2c0,0-0.2-0.1-0.5-0.1c-0.3-0.1-0.5-0.2-0.7-0.4c-0.2-0.2-0.3-0.5-0.3-0.8c0-0.2,0-0.4,0.1-0.6
			c0.1-0.2,0.2-0.3,0.2-0.4c0.1,0,0.2-0.1,0.5-0.1s0.5-0.1,0.7-0.1c0.5,0,0.9,0,1.4,0.1c0,0.1,0,0.3,0,0.5c0,0.2-0.1,0.4-0.1,0.4
			c-0.5-0.1-0.8-0.1-1.1-0.1c-0.1,0-0.2,0-0.3,0c0,0,0,0,0,0c0,0,0,0.1,0,0.1c0,0.1,0,0.1,0.1,0.2c0,0,0.2,0.1,0.4,0.1
			c0.2,0.1,0.5,0.1,0.6,0.2c0.2,0.1,0.3,0.2,0.5,0.3c0.1,0.2,0.2,0.4,0.2,0.6C93.3,69.5,93.2,69.8,92.9,70z"/>
		<path id="XMLID_4757_" class="st1" d="M96,70.3l-0.1-0.5c-0.3,0.4-0.6,0.6-1.1,0.6c-0.4,0-0.7-0.1-0.9-0.3
			c-0.2-0.2-0.3-0.5-0.3-0.9c0-0.2,0.1-0.4,0.2-0.6c0.1-0.2,0.3-0.3,0.6-0.4c0.3-0.1,0.8-0.1,1.4-0.1c0-0.4,0-0.6,0-0.6
			c0,0-0.1,0-0.3,0c-0.1,0-0.2,0-0.4,0c-0.3,0-0.6,0-1.1,0.1c0-0.3-0.1-0.6-0.1-1c0.3-0.1,0.6-0.1,0.9-0.2s0.6-0.1,0.9-0.1
			c0.4,0,0.8,0.1,1,0.2c0.2,0.1,0.4,0.3,0.4,0.6c0.1,0.2,0.1,0.5,0.1,0.9l0,1.2l0,1H96z M95.8,69.4v-0.6h-0.1c-0.4,0-0.6,0-0.7,0.1
			c0,0,0,0.1-0.1,0.1c0,0.1,0,0.1,0,0.2c0,0.1,0,0.2,0.1,0.3c0.1,0,0.2,0.1,0.3,0.1C95.5,69.4,95.6,69.4,95.8,69.4z"/>
		<path id="XMLID_4760_" class="st1" d="M100.4,66.4c0.1,0,0.1,0,0.2,0.1c0,0.1,0,0.3,0,0.6c0,0.3-0.1,0.5-0.1,0.6
			c-0.1,0-0.2,0-0.3,0c-0.3,0-0.7,0-0.9,0.1v2.5h-1.4v-3.8H99l0.2,0.6h0c0.2-0.2,0.3-0.4,0.5-0.5c0.2-0.1,0.3-0.2,0.5-0.2
			C100.2,66.4,100.3,66.4,100.4,66.4z"/>
		<path id="XMLID_4762_" class="st1" d="M103.5,66.4c0.1,0,0.1,0,0.2,0.1c0,0.1,0,0.3,0,0.6c0,0.3-0.1,0.5-0.1,0.6
			c-0.1,0-0.2,0-0.3,0c-0.3,0-0.7,0-0.9,0.1v2.5h-1.4v-3.8h1.2l0.2,0.6h0c0.2-0.2,0.3-0.4,0.5-0.5c0.2-0.1,0.3-0.2,0.5-0.2
			C103.4,66.4,103.4,66.4,103.5,66.4z"/>
		<path id="XMLID_4764_" class="st1" d="M104.4,69.9c-0.3-0.3-0.5-0.8-0.5-1.5c0-0.4,0-0.7,0.1-1c0.1-0.3,0.2-0.5,0.3-0.6
			c0.1-0.1,0.4-0.3,0.7-0.4c0.3-0.1,0.7-0.1,0.9-0.1c0.7,0,1.2,0.2,1.5,0.5c0.3,0.3,0.5,0.8,0.5,1.4c0,0.7-0.2,1.2-0.5,1.6
			c-0.3,0.3-0.8,0.5-1.5,0.5C105.2,70.4,104.7,70.2,104.4,69.9z M106.3,69.2c0.1-0.2,0.1-0.4,0.1-0.8c0-0.3,0-0.5,0-0.6
			c0-0.1-0.1-0.3-0.2-0.3c-0.1-0.1-0.2-0.1-0.3-0.1c-0.2,0-0.3,0-0.4,0.1c0,0-0.1,0.2-0.1,0.4c0,0.2,0,0.4,0,0.6
			c0,0.4,0,0.6,0.1,0.8c0.1,0.2,0.2,0.2,0.4,0.2C106.1,69.4,106.3,69.3,106.3,69.2z"/>
		<path id="XMLID_4767_" class="st1" d="M108.4,65.3l1.4-0.1v5h-1.4V65.3z"/>
		<path id="XMLID_4769_" class="st1" d="M110.6,65.3l1.4-0.1v5h-1.4V65.3z"/>
		<path id="XMLID_4771_" class="st1" d="M113,69.9c-0.3-0.3-0.5-0.8-0.5-1.5c0-0.4,0-0.7,0.1-1c0.1-0.3,0.2-0.5,0.3-0.6
			c0.1-0.1,0.4-0.3,0.7-0.4c0.3-0.1,0.7-0.1,0.9-0.1c0.7,0,1.2,0.2,1.5,0.5c0.3,0.3,0.5,0.8,0.5,1.4c0,0.7-0.2,1.2-0.5,1.6
			c-0.3,0.3-0.8,0.5-1.5,0.5C113.8,70.4,113.4,70.2,113,69.9z M114.9,69.2c0.1-0.2,0.1-0.4,0.1-0.8c0-0.3,0-0.5,0-0.6
			c0-0.1-0.1-0.3-0.2-0.3c-0.1-0.1-0.2-0.1-0.3-0.1c-0.2,0-0.3,0-0.4,0.1c0,0-0.1,0.2-0.1,0.4c0,0.2,0,0.4,0,0.6
			c0,0.4,0,0.6,0.1,0.8c0.1,0.2,0.2,0.2,0.4,0.2C114.7,69.4,114.9,69.3,114.9,69.2z"/>
		<path id="XMLID_4774_" class="st1" d="M81.1,72.7h1.5v4.7h-1.5V72.7z"/>
		<path id="XMLID_4776_" class="st1" d="M87.1,74.3c0,0.2,0,0.6,0,1.1v2h-1.4v-2v-0.3c0-0.2,0-0.3,0-0.3c0-0.1-0.1-0.1-0.3-0.1
			c-0.1,0-0.1,0-0.2,0c-0.2,0-0.3,0-0.5,0.1v2.6h-1.4v-3.8h1.1l0.2,0.6c0.4-0.5,0.9-0.7,1.4-0.7c0.2,0,0.4,0,0.6,0.1
			c0.2,0.1,0.3,0.1,0.4,0.2C87.1,73.9,87.1,74.1,87.1,74.3z"/>
		<path id="XMLID_4778_" class="st1" d="M93.9,75.4v2h-1.4v-1.8v-0.4c0-0.2,0-0.3-0.1-0.4c0,0-0.1-0.1-0.3-0.1l-0.1,0
			c-0.2,0-0.3,0-0.5,0.1c0,0.1,0,0.3,0,0.6v2h-1.4v-1.8v-0.5c0-0.2,0-0.3-0.1-0.3c0,0-0.1-0.1-0.3-0.1l-0.1,0c-0.2,0-0.3,0-0.5,0.1
			v2.6h-1.4v-3.8H89l0.1,0.6c0.2-0.2,0.4-0.4,0.6-0.5c0.2-0.1,0.5-0.2,0.7-0.2c0.2,0,0.4,0,0.6,0.1c0.2,0.1,0.3,0.1,0.4,0.3
			c0,0,0.1,0.1,0.1,0.3c0.2-0.2,0.4-0.4,0.6-0.5c0.2-0.1,0.4-0.1,0.7-0.1c0.2,0,0.4,0,0.6,0.1c0.2,0.1,0.3,0.1,0.4,0.3
			C93.8,74,93.9,74.6,93.9,75.4z"/>
		<path id="XMLID_4780_" class="st1" d="M94.9,77.1c-0.3-0.3-0.5-0.8-0.5-1.5c0-0.4,0-0.7,0.1-1c0.1-0.3,0.2-0.5,0.3-0.6
			c0.1-0.1,0.4-0.3,0.7-0.4c0.3-0.1,0.7-0.1,0.9-0.1c0.7,0,1.2,0.2,1.5,0.5c0.3,0.3,0.5,0.8,0.5,1.4c0,0.7-0.2,1.2-0.5,1.6
			c-0.3,0.3-0.8,0.5-1.5,0.5C95.7,77.5,95.2,77.4,94.9,77.1z M96.8,76.3c0.1-0.2,0.1-0.4,0.1-0.8c0-0.3,0-0.5,0-0.6
			c0-0.1-0.1-0.3-0.2-0.3c-0.1-0.1-0.2-0.1-0.3-0.1c-0.2,0-0.3,0-0.4,0.1c0,0-0.1,0.2-0.1,0.4c0,0.2,0,0.4,0,0.6
			c0,0.4,0,0.6,0.1,0.8c0.1,0.2,0.2,0.2,0.4,0.2C96.6,76.6,96.7,76.5,96.8,76.3z"/>
		<path id="XMLID_4783_" class="st1" d="M102.4,74c0.2,0.3,0.3,0.7,0.3,1.4c0,0.5,0,0.9-0.1,1.2c-0.1,0.3-0.2,0.6-0.3,0.6
			c-0.1,0.1-0.4,0.2-0.6,0.3c-0.3,0.1-0.6,0.1-1,0.1c-0.3,0-0.6,0-0.9-0.1c-0.3,0-0.6-0.1-0.9-0.2v-4.8l1.4-0.1v0.8c0,0,0,0.1,0,0.3
			c0,0.2,0,0.3,0,0.4c0,0.1,0,0.2,0,0.2l0,0.1c0.1-0.2,0.3-0.3,0.5-0.5c0.2-0.1,0.4-0.2,0.7-0.2C101.8,73.6,102.2,73.7,102.4,74z
			 M101.3,76.1c0-0.2,0-0.4,0-0.6c0-0.2,0-0.4,0-0.5c0-0.1-0.1-0.2-0.1-0.3c-0.1-0.1-0.2-0.1-0.3-0.1c-0.1,0-0.3,0-0.5,0.1v1.9
			c0.2,0,0.4,0,0.6,0c0.2,0,0.3,0,0.3-0.1C101.2,76.5,101.2,76.4,101.3,76.1z"/>
		<path id="XMLID_4786_" class="st1" d="M103.3,73.6h1.4v3.8h-1.4V73.6z M103.5,73c-0.1-0.1-0.2-0.3-0.2-0.5c0-0.2,0.1-0.3,0.2-0.5
			c0.1-0.1,0.3-0.2,0.5-0.2c0.2,0,0.3,0.1,0.5,0.2c0.1,0.1,0.2,0.3,0.2,0.5c0,0.2-0.1,0.3-0.2,0.5c-0.1,0.1-0.3,0.2-0.5,0.2
			C103.8,73.2,103.7,73.1,103.5,73z"/>
		<path id="XMLID_4789_" class="st1" d="M105.5,72.5l1.4-0.1v5h-1.4V72.5z"/>
		<path id="XMLID_4791_" class="st1" d="M107.6,73.6h1.4v3.8h-1.4V73.6z M107.8,73c-0.1-0.1-0.2-0.3-0.2-0.5c0-0.2,0.1-0.3,0.2-0.5
			c0.1-0.1,0.3-0.2,0.5-0.2s0.3,0.1,0.5,0.2c0.1,0.1,0.2,0.3,0.2,0.5c0,0.2-0.1,0.3-0.2,0.5c-0.1,0.1-0.3,0.2-0.5,0.2
			S107.9,73.1,107.8,73z"/>
		<path id="XMLID_4794_" class="st1" d="M111.9,77.4l-0.1-0.5c-0.3,0.4-0.6,0.6-1.1,0.6c-0.4,0-0.7-0.1-0.9-0.3
			c-0.2-0.2-0.3-0.5-0.3-0.9c0-0.2,0.1-0.4,0.2-0.6c0.1-0.2,0.3-0.3,0.6-0.4c0.3-0.1,0.8-0.1,1.4-0.1c0-0.4,0-0.6,0-0.6
			c0,0-0.1,0-0.3,0c-0.1,0-0.2,0-0.4,0c-0.3,0-0.6,0-1.1,0.1c0-0.3-0.1-0.6-0.1-1c0.3-0.1,0.6-0.1,0.9-0.2c0.3,0,0.6-0.1,0.9-0.1
			c0.4,0,0.8,0.1,1,0.2c0.2,0.1,0.4,0.3,0.4,0.6c0.1,0.2,0.1,0.5,0.1,0.9l0,1.2l0,1H111.9z M111.7,76.5v-0.6h-0.1
			c-0.4,0-0.6,0-0.7,0.1c0,0,0,0.1-0.1,0.1c0,0.1,0,0.1,0,0.2c0,0.1,0,0.2,0.1,0.3c0.1,0,0.2,0.1,0.3,0.1
			C111.4,76.6,111.5,76.6,111.7,76.5z"/>
		<path id="XMLID_4797_" class="st1" d="M116.3,73.6c0.1,0,0.1,0,0.2,0.1c0,0.1,0,0.3,0,0.6c0,0.3-0.1,0.5-0.1,0.6
			c-0.1,0-0.2,0-0.3,0c-0.3,0-0.7,0-0.9,0.1v2.5h-1.4v-3.8h1.2l0.2,0.6h0c0.2-0.2,0.3-0.4,0.5-0.5c0.2-0.1,0.3-0.2,0.5-0.2
			C116.1,73.6,116.2,73.6,116.3,73.6z"/>
		<path id="XMLID_4799_" class="st1" d="M116.9,73.6h1.4v3.8h-1.4V73.6z M117.1,73c-0.1-0.1-0.2-0.3-0.2-0.5c0-0.2,0.1-0.3,0.2-0.5
			c0.1-0.1,0.3-0.2,0.5-0.2c0.2,0,0.3,0.1,0.5,0.2c0.1,0.1,0.2,0.3,0.2,0.5c0,0.2-0.1,0.3-0.2,0.5c-0.1,0.1-0.3,0.2-0.5,0.2
			C117.4,73.2,117.2,73.1,117.1,73z"/>
		<path id="XMLID_4802_" class="st1" d="M119.3,77.1c-0.3-0.3-0.5-0.8-0.5-1.5c0-0.4,0-0.7,0.1-1c0.1-0.3,0.2-0.5,0.3-0.6
			c0.1-0.1,0.4-0.3,0.7-0.4c0.3-0.1,0.7-0.1,0.9-0.1c0.7,0,1.2,0.2,1.5,0.5c0.3,0.3,0.5,0.8,0.5,1.4c0,0.7-0.2,1.2-0.5,1.6
			c-0.3,0.3-0.8,0.5-1.5,0.5C120.1,77.5,119.6,77.4,119.3,77.1z M121.2,76.3c0.1-0.2,0.1-0.4,0.1-0.8c0-0.3,0-0.5,0-0.6
			c0-0.1-0.1-0.3-0.2-0.3c-0.1-0.1-0.2-0.1-0.3-0.1c-0.2,0-0.3,0-0.4,0.1c0,0-0.1,0.2-0.1,0.4c0,0.2,0,0.4,0,0.6
			c0,0.4,0,0.6,0.1,0.8c0.1,0.2,0.2,0.2,0.4,0.2C121,76.6,121.2,76.5,121.2,76.3z"/>
	</g>
	<g id="XMLID_4805_">
		<g id="XMLID_4817_">
			<g id="XMLID_124_">
				<path id="XMLID_125_" class="st1" d="M74.6,29.8L96,38.3l2.8-1.3l-24.2-9.7V29.8z M74.6,25.5L96,34l2.8-1.3L74.6,23V25.5z
					 M74.6,21.2L96,29.7l2.8-1.3l-24.2-9.7V21.2z M74.6,16.9L96,25.4l2.8-1.3l-24.2-9.7V16.9z M74.6,12.6L96,21.1l2.8-1.3l-24.2-9.7
					V12.6z M74.6,8.3L96,16.8l2.8-1.3L74.6,5.8V8.3z M98.7,11.2L74.6,1.5V4L96,12.5L98.7,11.2z"/>
			</g>
		</g>
		<g id="XMLID_4843_">
			<g id="XMLID_128_">
				<path id="XMLID_129_" class="st2" d="M50.5,10.9l1.7,0.4l22.4-8.6V1.5L50.5,10.9z M52.2,15.6L74.6,7V5.8l-24.1,9.4L52.2,15.6z
					 M52.2,19.9l22.4-8.6v-1.2l-24.1,9.4L52.2,19.9z M52.2,24.2l22.4-8.6v-1.2l-24.1,9.4L52.2,24.2z M52.2,28.5l22.4-8.6v-1.2
					l-24.1,9.4L52.2,28.5z M52.2,32.8l22.4-8.6V23l-24.1,9.4L52.2,32.8z M52.2,37.1l22.4-8.6v-1.2l-24.1,9.4L52.2,37.1z"/>
			</g>
		</g>
		<polygon id="XMLID_4851_" class="st0" points="98.7,41.6 79.2,33.8 76,32.5 76,32.5 74.6,32 50.5,41.4 52.6,42.4 57.1,44.6 
			78.3,35.9 78.8,36.1 58.4,44.7 63,47 84.1,38.3 84.6,38.5 64.2,47 68.8,49.3 89.9,40.6 90.4,40.8 70,49.4 74.6,51.6 98.7,41.7 
			98.7,41.7 		"/>
	</g>
</g>
</svg>
