<?xml version="1.0" encoding="utf-8"?>
<!-- Generator: Adobe Illustrator 17.0.0, SVG Export Plug-In . SVG Version: 6.00 Build 0)  -->
<!DOCTYPE svg PUBLIC "-//W3C//DTD SVG 1.1//EN" "http://www.w3.org/Graphics/SVG/1.1/DTD/svg11.dtd">
<svg version="1.1" id="Capa_1" xmlns="http://www.w3.org/2000/svg" xmlns:xlink="http://www.w3.org/1999/xlink" x="0px" y="0px"
	 width="100px" height="22px" viewBox="0 0 100 22" enable-background="new 0 0 100 22" xml:space="preserve">
<g>
	<path fill="#FFFFFF" d="M5.17,17.57c-0.98-0.99-1.47-2.31-1.47-3.97c0-1.68,0.49-3.03,1.47-4.06s2.2-1.55,3.66-1.55
		c0.6,0,1.17,0.08,1.7,0.24c0.53,0.16,0.91,0.31,1.14,0.47l0.35,0.25l-0.2,0.43c-0.79-0.6-1.79-0.91-3.02-0.91
		c-1.24,0-2.31,0.47-3.22,1.42c-0.91,0.95-1.36,2.18-1.36,3.71c0,1.51,0.45,2.72,1.36,3.62c0.91,0.91,1.98,1.36,3.22,1.36
		c0.54,0,1.06-0.08,1.56-0.23c0.5-0.15,0.87-0.3,1.11-0.45l0.35-0.23l0.2,0.43c-0.79,0.64-1.85,0.96-3.19,0.96
		C7.37,19.05,6.15,18.55,5.17,17.57z"/>
	<path fill="#FFFFFF" d="M27.42,8.24h0.38l0.13,2.21h0.02l0.02-0.05c0.02-0.05,0.05-0.13,0.11-0.23c0.06-0.1,0.13-0.21,0.2-0.33
		c0.08-0.12,0.18-0.25,0.3-0.39c0.13-0.14,0.26-0.28,0.4-0.42c0.14-0.13,0.32-0.26,0.53-0.39c0.21-0.13,0.43-0.24,0.67-0.34
		c0.23-0.1,0.51-0.18,0.82-0.24c0.31-0.06,0.63-0.09,0.97-0.09c1.37,0,2.44,0.47,3.21,1.4c0.76,0.93,1.14,2.13,1.14,3.61v5.81h-0.5
		v-5.78c0-1.36-0.33-2.46-1.01-3.29c-0.67-0.84-1.63-1.26-2.89-1.26c-0.87,0-1.62,0.22-2.25,0.67c-0.63,0.44-1.07,0.94-1.33,1.48
		c-0.26,0.54-0.4,1.08-0.41,1.6v6.59h-0.5V8.24z"/>
	<path fill="#FFFFFF" d="M48.01,17.92c-0.1,0.08-0.25,0.19-0.44,0.31c-0.19,0.13-0.61,0.29-1.25,0.5c-0.64,0.21-1.29,0.31-1.96,0.31
		c-1.46,0-2.66-0.49-3.6-1.48c-0.94-0.99-1.41-2.31-1.41-3.97c0-1.76,0.45-3.14,1.35-4.12c0.9-0.99,2.03-1.48,3.41-1.48
		c1.41,0,2.51,0.46,3.31,1.37c0.8,0.91,1.19,2.15,1.19,3.71v0.15h-8.73v0.38c0,1.51,0.43,2.72,1.3,3.62
		c0.86,0.91,1.92,1.36,3.18,1.36c0.65,0,1.26-0.09,1.82-0.26c0.56-0.18,0.96-0.36,1.19-0.54l0.38-0.28L48.01,17.92z M41.34,9.58
		c-0.78,0.75-1.24,1.79-1.4,3.13h8.15c-0.03-1.17-0.4-2.18-1.09-3.01c-0.7-0.83-1.66-1.24-2.88-1.24
		C43.04,8.46,42.12,8.84,41.34,9.58z M44.01,6.3h-0.38l1.46-3.57l0.78,0.1L44.01,6.3z"/>
	<path fill="#FFFFFF" d="M52.38,17.57c-0.98-0.99-1.47-2.31-1.47-3.97c0-1.68,0.49-3.03,1.47-4.06s2.2-1.55,3.66-1.55
		c0.6,0,1.17,0.08,1.7,0.24c0.53,0.16,0.91,0.31,1.14,0.47l0.35,0.25l-0.2,0.43c-0.79-0.6-1.79-0.91-3.02-0.91
		c-1.24,0-2.31,0.47-3.22,1.42c-0.91,0.95-1.36,2.18-1.36,3.71c0,1.51,0.45,2.72,1.36,3.62c0.91,0.91,1.98,1.36,3.22,1.36
		c0.54,0,1.06-0.08,1.56-0.23c0.5-0.15,0.87-0.3,1.11-0.45l0.35-0.23l0.2,0.43c-0.79,0.64-1.85,0.96-3.19,0.96
		C54.58,19.05,53.36,18.55,52.38,17.57z"/>
	<path fill="#FFFFFF" d="M62.9,8.24V5.02h0.5v3.22h3.32v0.48H63.4v7.65c0,1.48,0.65,2.21,1.96,2.21c0.29,0,0.56-0.04,0.82-0.11
		c0.26-0.08,0.45-0.15,0.57-0.21l0.18-0.1l0.18,0.43c-0.39,0.32-0.98,0.48-1.79,0.48c-0.77,0-1.37-0.23-1.79-0.7
		c-0.42-0.47-0.63-1.1-0.63-1.89V8.71h-2.11V8.24H62.9z"/>
	<path fill="#FFFFFF" d="M77.24,18.8h-0.38l-0.08-2.24h-0.05c-0.35,0.67-0.93,1.25-1.74,1.75s-1.71,0.74-2.72,0.74
		c-1.29,0-2.27-0.3-2.94-0.91c-0.67-0.6-1.01-1.37-1.01-2.29s0.37-1.69,1.11-2.31c0.74-0.62,1.89-0.93,3.47-0.93
		c1.51,0,2.78,0.29,3.82,0.86v-0.88c0-2.75-1.33-4.12-4-4.12c-0.52,0-1.06,0.08-1.61,0.23c-0.55,0.15-0.97,0.3-1.26,0.45l-0.45,0.23
		l-0.23-0.45c1.07-0.62,2.29-0.93,3.65-0.93c1.48,0,2.58,0.42,3.31,1.26c0.73,0.84,1.09,1.96,1.09,3.37V18.8z M75.36,17.49
		c0.85-0.72,1.3-1.39,1.37-2.01v-1.48c-1.06-0.6-2.31-0.91-3.77-0.91c-1.43,0-2.47,0.26-3.13,0.78c-0.66,0.52-0.99,1.18-0.99,1.99
		c0,0.77,0.3,1.42,0.89,1.94c0.6,0.52,1.47,0.78,2.63,0.78S74.52,18.21,75.36,17.49z"/>
	<path fill="#FFFFFF" d="M81.46,8.24V5.02h0.5v3.22h3.32v0.48h-3.32v7.65c0,1.48,0.65,2.21,1.96,2.21c0.28,0,0.56-0.04,0.82-0.11
		c0.26-0.08,0.45-0.15,0.57-0.21l0.18-0.1l0.18,0.43c-0.39,0.32-0.98,0.48-1.79,0.48c-0.77,0-1.37-0.23-1.79-0.7
		c-0.42-0.47-0.63-1.1-0.63-1.89V8.71h-2.11V8.24H81.46z"/>
	<path fill="#FFFFFF" d="M95.7,17.92c-0.1,0.08-0.25,0.19-0.44,0.31c-0.19,0.13-0.61,0.29-1.25,0.5c-0.64,0.21-1.29,0.31-1.96,0.31
		c-1.46,0-2.66-0.49-3.6-1.48c-0.94-0.99-1.41-2.31-1.41-3.97c0-1.76,0.45-3.14,1.35-4.12c0.9-0.99,2.03-1.48,3.41-1.48
		c1.41,0,2.51,0.46,3.31,1.37c0.8,0.91,1.19,2.15,1.19,3.71v0.15h-8.73v0.38c0,1.51,0.43,2.72,1.3,3.62
		c0.86,0.91,1.92,1.36,3.18,1.36c0.65,0,1.26-0.09,1.82-0.26c0.56-0.18,0.96-0.36,1.19-0.54l0.38-0.28L95.7,17.92z M89.02,9.58
		c-0.78,0.75-1.24,1.79-1.4,3.13h8.15c-0.03-1.17-0.4-2.18-1.09-3.01c-0.7-0.83-1.66-1.24-2.88-1.24
		C90.72,8.46,89.8,8.84,89.02,9.58z"/>
	<g>
		<path fill="#00FA71" d="M15.35,17.36c-0.02,0.03-0.05,0.06-0.08,0.08c-0.33,0.28-0.83,0.24-1.11-0.09
			c-0.25-0.3-0.25-0.74,0.01-1.03c-0.11-0.2-0.2-0.39-0.29-0.6c-0.87-2.1-0.42-4.59,1.24-6.26c2.1-2.1,5.41-2.23,7.66-0.41
			c-0.04,0.02-0.07,0.05-0.1,0.08c-0.08,0.07-0.15,0.14-0.2,0.22c-2.09-1.66-5.14-1.52-7.07,0.41c-1.53,1.53-1.95,3.82-1.17,5.76
			c0.08,0.19,0.17,0.39,0.27,0.57c0.29-0.1,0.63-0.01,0.84,0.23C15.62,16.64,15.61,17.08,15.35,17.36z"/>
		<path fill="#00FA71" d="M23.24,17.6c-2.09,2.09-5.42,2.23-7.66,0.4c0.04-0.02,0.07-0.05,0.1-0.08c0.08-0.07,0.15-0.14,0.2-0.22
			c2.08,1.66,5.14,1.53,7.07-0.4c1.54-1.54,1.95-3.83,1.17-5.76c-0.08-0.2-0.17-0.39-0.27-0.57c-0.29,0.1-0.63,0.01-0.84-0.24
			c-0.25-0.3-0.25-0.74,0.01-1.03l0.08-0.08c0.33-0.28,0.83-0.25,1.11,0.09c0.25,0.3,0.25,0.74-0.01,1.03
			c0.11,0.2,0.2,0.39,0.28,0.6C25.36,13.43,24.91,15.92,23.24,17.6z"/>
	</g>
	<circle fill="#00FA71" cx="19.18" cy="13.53" r="0.83"/>
</g>
</svg>
