<?xml version="1.0" encoding="utf-8"?>
<!-- Generator: Adobe Illustrator 19.0.0, SVG Export Plug-In . SVG Version: 6.00 Build 0)  -->
<svg version="1.1" id="Capa_1" xmlns="http://www.w3.org/2000/svg" xmlns:xlink="http://www.w3.org/1999/xlink" x="0px" y="0px"
	 viewBox="0 0 158.1 58.4" style="enable-background:new 0 0 158.1 58.4;" xml:space="preserve">
<style type="text/css">
	.st0{fill:#3F363F;}
	.st1{fill:#DA5346;}
</style>
<g id="XMLID_3982_">
	<g id="XMLID_4009_">
		<g id="XMLID_212_">
			<path id="XMLID_235_" class="st0" d="M78.7,10.5c-1.8,0-3.1,0.5-4,1.5c-0.8,1-1.2,2.4-1.2,4.2c0,0.9,0.1,1.6,0.3,2.3
				c0.2,0.7,0.5,1.3,0.9,1.8c0.4,0.5,0.9,0.9,1.5,1.2c0.6,0.3,1.3,0.4,2.1,0.4c0.4,0,0.8,0,1.1,0c0.3,0,0.6-0.1,0.8-0.1v-6.1h3.9
				v8.6c-0.5,0.2-1.2,0.4-2.3,0.6c-1,0.2-2.3,0.3-3.8,0.3c-1.3,0-2.5-0.2-3.6-0.6c-1.1-0.4-2-1-2.7-1.8c-0.8-0.8-1.3-1.7-1.7-2.8
				c-0.4-1.1-0.6-2.4-0.6-3.8c0-1.5,0.2-2.7,0.7-3.9c0.5-1.1,1.1-2.1,1.9-2.9c0.8-0.8,1.7-1.4,2.8-1.8c1.1-0.4,2.2-0.6,3.4-0.6
				c0.8,0,1.6,0.1,2.2,0.2c0.7,0.1,1.2,0.2,1.7,0.4c0.5,0.1,0.9,0.3,1.2,0.4c0.3,0.2,0.5,0.3,0.7,0.4l-1.1,3.1
				c-0.5-0.3-1.2-0.5-1.8-0.7C80.3,10.6,79.6,10.5,78.7,10.5z"/>
			<path id="XMLID_233_" class="st0" d="M95.4,15c-0.3-0.1-0.7-0.2-1.2-0.3c-0.5-0.1-0.9-0.1-1.5-0.1c-0.2,0-0.5,0-0.8,0.1
				c-0.3,0-0.6,0.1-0.7,0.1v10.1h-3.7V12.4c0.7-0.2,1.5-0.5,2.4-0.7c0.9-0.2,1.9-0.3,3.1-0.3c0.2,0,0.4,0,0.7,0
				c0.3,0,0.6,0.1,0.9,0.1c0.3,0,0.6,0.1,0.9,0.2c0.3,0.1,0.5,0.1,0.7,0.2L95.4,15z"/>
			<path id="XMLID_230_" class="st0" d="M102.4,11.4c1.1,0,2,0.1,2.8,0.4s1.3,0.6,1.8,1.1c0.4,0.5,0.8,1,0.9,1.7
				c0.2,0.7,0.3,1.4,0.3,2.2v7.8c-0.5,0.1-1.3,0.3-2.2,0.4c-1,0.2-2.1,0.2-3.5,0.2c-0.9,0-1.6-0.1-2.3-0.2c-0.7-0.2-1.3-0.4-1.8-0.7
				c-0.5-0.3-0.9-0.8-1.2-1.3c-0.3-0.6-0.4-1.2-0.4-2c0-0.8,0.2-1.4,0.5-2c0.3-0.5,0.7-1,1.2-1.3c0.5-0.3,1.1-0.5,1.8-0.7
				c0.7-0.1,1.4-0.2,2.1-0.2c0.5,0,0.9,0,1.3,0.1c0.4,0,0.7,0.1,0.9,0.2v-0.4c0-0.6-0.2-1.1-0.6-1.5c-0.4-0.4-1.1-0.6-2-0.6
				c-0.6,0-1.3,0-1.9,0.1c-0.6,0.1-1.2,0.2-1.6,0.4L98,12c0.2-0.1,0.5-0.1,0.8-0.2c0.3-0.1,0.7-0.1,1.1-0.2c0.4-0.1,0.8-0.1,1.2-0.2
				C101.5,11.4,101.9,11.4,102.4,11.4z M102.7,22.3c0.4,0,0.7,0,1.1,0c0.3,0,0.6,0,0.8-0.1v-2.8c-0.2,0-0.4-0.1-0.7-0.1
				c-0.3,0-0.6-0.1-0.8-0.1c-0.4,0-0.7,0-1,0.1c-0.3,0-0.6,0.1-0.8,0.2c-0.2,0.1-0.4,0.3-0.6,0.5c-0.1,0.2-0.2,0.5-0.2,0.8
				c0,0.6,0.2,1,0.6,1.2C101.4,22.2,102,22.3,102.7,22.3z"/>
			<path id="XMLID_228_" class="st0" d="M111.2,12.2c0.6-0.2,1.5-0.4,2.5-0.5c1-0.2,2.1-0.2,3.2-0.2c1.1,0,2.1,0.1,2.8,0.4
				c0.7,0.3,1.3,0.7,1.8,1.2c0.4,0.5,0.7,1.2,0.9,1.9c0.2,0.7,0.3,1.6,0.3,2.5v7.5h-3.7v-7c0-1.2-0.2-2.1-0.5-2.6
				c-0.3-0.5-0.9-0.8-1.8-0.8c-0.3,0-0.6,0-0.9,0c-0.3,0-0.6,0.1-0.8,0.1v10.2h-3.7V12.2z"/>
			<path id="XMLID_225_" class="st0" d="M137.3,24.5c-0.3,0.1-0.7,0.2-1.2,0.3c-0.4,0.1-0.9,0.2-1.4,0.2c-0.5,0.1-1,0.1-1.5,0.2
				c-0.5,0-1,0.1-1.4,0.1c-1.1,0-2.1-0.2-2.9-0.5c-0.9-0.3-1.6-0.8-2.2-1.4c-0.6-0.6-1-1.3-1.3-2.2c-0.3-0.8-0.5-1.8-0.5-2.9
				c0-1.1,0.1-2,0.4-2.9c0.3-0.9,0.7-1.6,1.2-2.2c0.5-0.6,1.1-1.1,1.8-1.4c0.7-0.3,1.6-0.5,2.5-0.5c0.5,0,1,0.1,1.4,0.2
				c0.4,0.1,0.8,0.2,1.2,0.4V6l3.7-0.6V24.5z M128.8,18.2c0,1.2,0.3,2.1,0.8,2.8c0.5,0.7,1.3,1.1,2.3,1.1c0.3,0,0.6,0,0.9,0
				c0.3,0,0.5-0.1,0.7-0.1v-6.8c-0.2-0.2-0.5-0.3-0.9-0.4c-0.4-0.1-0.8-0.2-1.1-0.2C129.7,14.6,128.8,15.8,128.8,18.2z"/>
			<path id="XMLID_223_" class="st0" d="M81.9,45.8v3.4H70.3V31.8h3.9v14H81.9z"/>
			<path id="XMLID_220_" class="st0" d="M96.3,42.6c0,1-0.2,2-0.5,2.9c-0.3,0.9-0.7,1.6-1.3,2.2c-0.6,0.6-1.3,1.1-2,1.4
				c-0.8,0.3-1.7,0.5-2.7,0.5c-1,0-1.9-0.2-2.6-0.5c-0.8-0.3-1.5-0.8-2-1.4c-0.6-0.6-1-1.3-1.3-2.2c-0.3-0.9-0.5-1.8-0.5-2.9
				c0-1,0.2-2,0.5-2.8c0.3-0.9,0.8-1.6,1.4-2.2c0.6-0.6,1.3-1.1,2.1-1.4c0.8-0.3,1.7-0.5,2.6-0.5c1,0,1.8,0.2,2.6,0.5
				c0.8,0.3,1.5,0.8,2,1.4c0.6,0.6,1,1.3,1.3,2.2C96.1,40.6,96.3,41.5,96.3,42.6z M92.5,42.6c0-1.2-0.2-2.1-0.7-2.7
				c-0.5-0.7-1.1-1-2-1s-1.5,0.3-2,1c-0.5,0.7-0.7,1.6-0.7,2.7s0.2,2.1,0.7,2.8c0.5,0.7,1.1,1,2,1s1.5-0.3,2-1
				C92.2,44.6,92.5,43.7,92.5,42.6z"/>
			<path id="XMLID_218_" class="st0" d="M106,42.2c0-1.2-0.2-2.1-0.5-2.6c-0.3-0.5-0.8-0.8-1.6-0.8c-0.2,0-0.5,0-0.7,0
				c-0.3,0-0.5,0.1-0.7,0.1v10.2h-3.7V36.4c0.3-0.1,0.7-0.2,1.1-0.3c0.4-0.1,0.9-0.2,1.4-0.3c0.5-0.1,1-0.1,1.5-0.2
				c0.5,0,1-0.1,1.5-0.1c1,0,1.7,0.1,2.3,0.4c0.6,0.2,1.1,0.5,1.5,0.9c0.5-0.4,1.2-0.7,1.8-0.9c0.7-0.2,1.3-0.3,1.9-0.3
				c1.1,0,1.9,0.1,2.6,0.4c0.7,0.3,1.2,0.7,1.6,1.2c0.4,0.5,0.7,1.2,0.8,1.9c0.2,0.7,0.2,1.6,0.2,2.5v7.5h-3.7v-7
				c0-1.2-0.2-2.1-0.5-2.6s-0.8-0.8-1.6-0.8c-0.2,0-0.5,0.1-0.8,0.2c-0.4,0.1-0.7,0.2-0.9,0.4c0.1,0.4,0.2,0.8,0.2,1.2
				c0,0.4,0.1,0.9,0.1,1.4v7.2H106V42.2z"/>
			<path id="XMLID_215_" class="st0" d="M124.9,35.6c1.1,0,2,0.1,2.8,0.4s1.3,0.6,1.8,1.1c0.4,0.5,0.8,1,0.9,1.7
				c0.2,0.7,0.3,1.4,0.3,2.2v7.8c-0.5,0.1-1.3,0.3-2.2,0.4c-1,0.2-2.1,0.2-3.5,0.2c-0.9,0-1.6-0.1-2.3-0.2c-0.7-0.2-1.3-0.4-1.8-0.7
				c-0.5-0.3-0.9-0.8-1.2-1.3c-0.3-0.6-0.4-1.2-0.4-2c0-0.8,0.2-1.4,0.5-2c0.3-0.5,0.7-1,1.2-1.3c0.5-0.3,1.1-0.5,1.8-0.7
				c0.7-0.1,1.4-0.2,2.1-0.2c0.5,0,0.9,0,1.3,0.1c0.4,0,0.7,0.1,0.9,0.2v-0.4c0-0.6-0.2-1.1-0.6-1.5c-0.4-0.4-1.1-0.6-2-0.6
				c-0.6,0-1.3,0-1.9,0.1c-0.6,0.1-1.2,0.2-1.6,0.4l-0.5-3c0.2-0.1,0.5-0.1,0.8-0.2c0.3-0.1,0.7-0.1,1.1-0.2
				c0.4-0.1,0.8-0.1,1.2-0.2C124,35.6,124.4,35.6,124.9,35.6z M125.2,46.6c0.4,0,0.7,0,1.1,0c0.3,0,0.6,0,0.8-0.1v-2.8
				c-0.2,0-0.4-0.1-0.7-0.1c-0.3,0-0.6-0.1-0.8-0.1c-0.4,0-0.7,0-1,0.1c-0.3,0-0.6,0.1-0.8,0.2c-0.2,0.1-0.4,0.3-0.6,0.5
				c-0.1,0.2-0.2,0.5-0.2,0.8c0,0.6,0.2,1,0.6,1.2C123.9,46.5,124.5,46.6,125.2,46.6z"/>
			<path id="XMLID_213_" class="st0" d="M137.5,46.5c0.7,0,1.2-0.1,1.5-0.2c0.3-0.1,0.4-0.4,0.4-0.8c0-0.3-0.2-0.6-0.6-0.8
				c-0.4-0.2-0.9-0.5-1.7-0.8c-0.6-0.2-1.1-0.4-1.6-0.7c-0.5-0.2-0.9-0.5-1.2-0.8c-0.3-0.3-0.6-0.7-0.8-1.2c-0.2-0.5-0.3-1-0.3-1.6
				c0-1.2,0.5-2.2,1.4-2.9c0.9-0.7,2.2-1.1,3.8-1.1c0.8,0,1.6,0.1,2.3,0.2c0.7,0.1,1.3,0.3,1.8,0.5l-0.7,2.9
				c-0.4-0.2-0.9-0.3-1.4-0.4c-0.5-0.1-1.1-0.2-1.7-0.2c-1.2,0-1.8,0.3-1.8,1c0,0.2,0,0.3,0.1,0.4c0,0.1,0.2,0.2,0.3,0.3
				c0.2,0.1,0.4,0.2,0.6,0.4c0.3,0.1,0.6,0.3,1,0.4c0.8,0.3,1.5,0.6,2,0.9c0.5,0.3,1,0.6,1.3,1c0.3,0.3,0.5,0.7,0.7,1.1
				c0.1,0.4,0.2,0.9,0.2,1.5c0,1.3-0.5,2.3-1.5,3c-1,0.7-2.4,1-4.2,1c-1.2,0-2.1-0.1-2.9-0.3c-0.8-0.2-1.3-0.4-1.6-0.5l0.6-3
				c0.6,0.3,1.3,0.4,2,0.6C136.2,46.4,136.9,46.5,137.5,46.5z"/>
		</g>
	</g>
	<g id="XMLID_4041_">
		<g id="XMLID_72_">
			<path id="XMLID_73_" class="st0" d="M154,33.4c0,0.6-0.1,1.1-0.3,1.6c-0.2,0.5-0.5,0.8-0.8,1.2c-0.3,0.3-0.7,0.6-1.1,0.7
				c-0.4,0.2-0.9,0.2-1.3,0.2c-0.5,0-0.9-0.1-1.3-0.2s-0.8-0.4-1.1-0.7c-0.3-0.3-0.6-0.7-0.8-1.2c-0.2-0.5-0.3-1-0.3-1.6
				c0-0.6,0.1-1.1,0.3-1.5c0.2-0.5,0.5-0.8,0.8-1.2c0.3-0.3,0.7-0.6,1.1-0.7c0.4-0.2,0.9-0.2,1.3-0.2c0.5,0,0.9,0.1,1.3,0.2
				c0.4,0.2,0.8,0.4,1.1,0.7c0.3,0.3,0.6,0.7,0.8,1.2C153.9,32.3,154,32.8,154,33.4z M153,33.4c0-0.4-0.1-0.8-0.2-1.1
				c-0.1-0.3-0.3-0.6-0.5-0.9c-0.2-0.2-0.5-0.4-0.8-0.5c-0.3-0.1-0.6-0.2-1-0.2c-0.4,0-0.7,0.1-1,0.2c-0.3,0.1-0.6,0.3-0.8,0.5
				c-0.2,0.2-0.4,0.5-0.5,0.9S148,33,148,33.4c0,0.4,0.1,0.8,0.2,1.1c0.1,0.3,0.3,0.6,0.5,0.9c0.2,0.2,0.5,0.4,0.8,0.5
				c0.3,0.1,0.6,0.2,1,0.2c0.4,0,0.7-0.1,1-0.2c0.3-0.1,0.6-0.3,0.8-0.5c0.2-0.2,0.4-0.5,0.5-0.9C152.9,34.2,153,33.8,153,33.4z
				 M151.1,35.1c-0.1-0.3-0.2-0.5-0.3-0.7c-0.1-0.2-0.2-0.4-0.3-0.5h-0.4v1.2h-1v-3.5c0.2-0.1,0.4-0.1,0.6-0.1c0.2,0,0.4,0,0.5,0
				c1.1,0,1.6,0.4,1.6,1.2c0,0.4-0.2,0.7-0.5,0.9c0.1,0.1,0.1,0.2,0.2,0.3c0.1,0.1,0.1,0.2,0.2,0.3c0.1,0.1,0.1,0.2,0.2,0.4
				c0.1,0.1,0.1,0.3,0.2,0.5H151.1z M150.2,33.1h0.2c0.2,0,0.4,0,0.5-0.1c0.1-0.1,0.2-0.2,0.2-0.3c0-0.1,0-0.2-0.1-0.3
				c-0.1-0.1-0.2-0.1-0.4-0.1c0,0-0.1,0-0.1,0c-0.1,0-0.1,0-0.1,0V33.1z"/>
		</g>
	</g>
	<g id="XMLID_4047_">
		<path id="XMLID_4048_" class="st1" d="M26,46.8c-4.6-6.6-6.6-15.5-5.2-24.8c-3.5,0.2-6.8,0.9-9.9,2.3L9,25.1
			c-4.4,9-6.6,18.3-3.5,22.7C9.5,53.6,22.9,56,35,55C31.4,53,28.3,50.2,26,46.8z"/>
		<path id="XMLID_4049_" class="st1" d="M49.3,19.4L49.3,19.4c-0.3,3.6-1.5,7.2-3.2,10.6c-3.6,7-10.2,13-18.5,16.2
			c2.2,3.1,5,5.6,8.2,7.4l2.1,1.2c8.2-1.1,15.4-3.9,17.9-8.4C59.2,40.5,55.4,29,49.3,19.4z"/>
		<path id="XMLID_4050_" class="st1" d="M47.5,19.3l0.1-0.8l0.1-1.5c-5.6-8.3-12-14-17.6-13.8c-0.6,0-1.2,0.1-1.9,0.3
			c-5.9,1.7-13,10-18,19.2c3.4-1.5,7.1-2.3,10.8-2.4c8.2-0.3,16.9,2.5,23.7,8.5C46.3,25.7,47.2,22.5,47.5,19.3z"/>
	</g>
</g>
</svg>
