<?xml version="1.0" encoding="utf-8"?>
<!-- Generator: Adobe Illustrator 19.0.0, SVG Export Plug-In . SVG Version: 6.00 Build 0)  -->
<svg version="1.1" id="Capa_1" xmlns="http://www.w3.org/2000/svg" xmlns:xlink="http://www.w3.org/1999/xlink" x="0px" y="0px"
	 viewBox="0 0 132.2 115.7" style="enable-background:new 0 0 132.2 115.7;" xml:space="preserve">
<style type="text/css">
	.st0{fill:#FFFFFF;}
	.st1{fill:#211915;}
</style>
<g id="XMLID_20_">
	<g id="XMLID_341_">
		<path id="XMLID_17200_" class="st0" d="M28.1,69.6l-5.3-13.2h4.4l2.2,6.8c0.2,0.6,0.3,1.1,0.4,1.5c0.1,0.5,0.2,0.9,0.2,1.4
			c0.1-0.7,0.2-1.3,0.3-1.8c0.1-0.5,0.2-0.9,0.4-1.3l2.2-6.7h4.3l-5.4,13.2H28.1z"/>
		<path id="XMLID_17197_" class="st0" d="M51.8,64h-9.9c0.2,0.9,0.5,1.7,1,2.1c0.5,0.5,1.3,0.7,2.2,0.7c0.7,0,1.3-0.1,1.8-0.4
			c0.5-0.3,0.9-0.7,1.3-1.2l3.1,1.5c-0.7,1.2-1.6,2-2.6,2.6c-1,0.6-2.2,0.8-3.6,0.8c-2.1,0-3.8-0.6-5.1-1.9c-1.2-1.3-1.9-3-1.9-5.1
			c0-2.1,0.7-3.8,2-5.1c1.3-1.3,3-2,5-2c2.1,0,3.7,0.6,5,1.9c1.2,1.2,1.8,2.9,1.8,5.1c0,0.1,0,0.2,0,0.4
			C51.9,63.5,51.9,63.7,51.8,64z M48,61.6c-0.1-0.8-0.4-1.5-0.9-1.9c-0.5-0.4-1.2-0.6-2-0.6c-0.9,0-1.5,0.2-2.1,0.6
			c-0.5,0.4-0.8,1.1-1,1.9H48z"/>
		<path id="XMLID_17195_" class="st0" d="M54.7,69.6V56.4h3.7v2.1c0.7-0.9,1.4-1.5,2.2-1.9c0.8-0.4,1.7-0.6,2.6-0.6
			c1,0,1.9,0.2,2.6,0.5c0.7,0.3,1.2,0.9,1.6,1.6c0.2,0.4,0.3,0.8,0.4,1.2c0.1,0.5,0.1,1.2,0.1,2.2v0.4v7.7h-3.8v-6.5
			c0-1.6-0.2-2.7-0.6-3.2c-0.4-0.5-1-0.8-1.9-0.8c-0.5,0-1,0.1-1.5,0.3c-0.4,0.2-0.8,0.5-1.1,0.9c-0.2,0.3-0.4,0.7-0.5,1.1
			c-0.1,0.4-0.2,1-0.2,1.8v0.5v5.8H54.7z"/>
		<path id="XMLID_17193_" class="st0" d="M72.2,69.6V59.4h-1.8v-3h1.8v-4.4H76v4.4h1.8v3H76v10.2H72.2z"/>
		<path id="XMLID_17190_" class="st0" d="M93.4,69.6h-3.7l0.1-1.9c-0.5,0.8-1.1,1.4-1.9,1.8c-0.7,0.4-1.6,0.6-2.7,0.6
			c-1.7,0-3.1-0.6-4.2-1.9c-1.1-1.3-1.6-3-1.6-5.1c0-2.2,0.5-3.9,1.6-5.2c1.1-1.2,2.5-1.9,4.4-1.9c1,0,1.8,0.2,2.6,0.7
			c0.7,0.4,1.4,1.1,1.9,2v-2.2h3.6V69.6z M89.9,63c0-1.2-0.3-2.1-0.9-2.8c-0.6-0.7-1.4-1-2.4-1c-1,0-1.9,0.3-2.4,1
			c-0.6,0.7-0.9,1.6-0.9,2.8c0,1.2,0.3,2.1,0.9,2.8c0.6,0.7,1.4,1,2.4,1c1.1,0,1.9-0.3,2.5-1C89.6,65.1,89.9,64.2,89.9,63z"/>
		<path id="XMLID_17188_" class="st1" d="M100.2,68.6l-5.3-12.1h4.4l2.3,6c0.2,0.4,0.3,0.8,0.4,1.3c0.1,0.5,0.2,1,0.2,1.6
			c0.1-0.5,0.2-1,0.3-1.5c0.1-0.5,0.3-1,0.5-1.6l2-5.9h4.4l-7.8,19.1h-4.2L100.2,68.6z"/>
	</g>
	<g id="XMLID_4_">
		<path id="XMLID_17166_" class="st1" d="M4.8,111.5v-5.8h0.9v5h2.1v0.8H4.8z"/>
		<path id="XMLID_17163_" class="st1" d="M12.1,111.5h-0.9V111c-0.2,0.2-0.3,0.4-0.5,0.5c-0.2,0.1-0.4,0.2-0.7,0.2
			c-0.5,0-0.9-0.2-1.3-0.5c-0.3-0.4-0.5-0.9-0.5-1.5c0-0.6,0.2-1.1,0.5-1.5c0.3-0.4,0.7-0.6,1.2-0.6c0.3,0,0.6,0.1,0.8,0.2
			c0.2,0.1,0.4,0.3,0.5,0.6v-0.6h0.9V111.5z M11.3,109.6c0-0.4-0.1-0.7-0.3-0.9c-0.2-0.2-0.4-0.3-0.8-0.3c-0.3,0-0.6,0.1-0.8,0.3
			c-0.2,0.2-0.3,0.5-0.3,0.9c0,0.4,0.1,0.7,0.3,0.9c0.2,0.2,0.4,0.3,0.8,0.3c0.3,0,0.6-0.1,0.8-0.4C11.2,110.3,11.3,110,11.3,109.6z
			"/>
		<path id="XMLID_17161_" class="st1" d="M16.6,108.4c0.1-0.2,0.2-0.4,0.4-0.6c0.2-0.1,0.3-0.2,0.6-0.2c0.1,0,0.2,0,0.4,0
			c0.1,0,0.2,0.1,0.3,0.1l-0.3,0.7c-0.1-0.1-0.2-0.1-0.2-0.1c-0.1,0-0.2,0-0.3,0c-0.3,0-0.5,0.1-0.6,0.3c-0.1,0.2-0.2,0.6-0.2,1.2
			v1.6h-0.9v-3.8h0.9V108.4z"/>
		<path id="XMLID_17158_" class="st1" d="M22.3,109.8h-3c0,0.4,0.1,0.6,0.3,0.8c0.2,0.2,0.4,0.3,0.7,0.3c0.3,0,0.5-0.1,0.7-0.2
			c0.2-0.1,0.3-0.3,0.5-0.6l0.7,0.4c-0.2,0.4-0.5,0.7-0.8,0.8c-0.3,0.2-0.7,0.3-1.1,0.3c-0.6,0-1.1-0.2-1.4-0.6
			c-0.4-0.4-0.5-0.9-0.5-1.5c0-0.6,0.2-1.1,0.6-1.5c0.4-0.4,0.8-0.6,1.4-0.6c0.6,0,1.1,0.2,1.4,0.5c0.3,0.3,0.5,0.8,0.5,1.5V109.8z
			 M21.4,109.2c0-0.3-0.1-0.5-0.3-0.6c-0.2-0.1-0.4-0.2-0.7-0.2c-0.3,0-0.5,0.1-0.7,0.2c-0.2,0.1-0.3,0.3-0.4,0.6H21.4z"/>
		<path id="XMLID_17155_" class="st1" d="M25.9,105.4h0.9v6.1h-0.9V111c-0.2,0.2-0.3,0.4-0.5,0.5c-0.2,0.1-0.4,0.2-0.7,0.2
			c-0.5,0-0.9-0.2-1.3-0.5c-0.3-0.4-0.5-0.9-0.5-1.5c0-0.6,0.2-1.1,0.5-1.5c0.3-0.4,0.7-0.6,1.2-0.6c0.3,0,0.6,0.1,0.8,0.2
			c0.2,0.1,0.4,0.3,0.5,0.6V105.4z M25.9,109.6c0-0.4-0.1-0.7-0.3-0.9c-0.2-0.2-0.4-0.3-0.8-0.3c-0.3,0-0.6,0.1-0.8,0.3
			c-0.2,0.2-0.3,0.5-0.3,0.9c0,0.4,0.1,0.7,0.3,0.9c0.2,0.2,0.4,0.3,0.8,0.3c0.3,0,0.6-0.1,0.8-0.4C25.8,110.3,25.9,110,25.9,109.6z
			"/>
		<path id="XMLID_17152_" class="st1" d="M30.3,106.1c0-0.1,0.1-0.3,0.2-0.4c0.1-0.1,0.2-0.2,0.4-0.2c0.2,0,0.3,0.1,0.4,0.2
			s0.2,0.2,0.2,0.4c0,0.2-0.1,0.3-0.2,0.4c-0.1,0.1-0.2,0.2-0.4,0.2c-0.1,0-0.3-0.1-0.4-0.2C30.4,106.4,30.3,106.3,30.3,106.1z
			 M30.4,111.5v-3.8h0.9v3.8H30.4z"/>
		<path id="XMLID_17150_" class="st1" d="M32.5,111.5v-3.8h0.8v0.6c0.2-0.3,0.4-0.4,0.6-0.6c0.2-0.1,0.5-0.2,0.8-0.2
			c0.3,0,0.5,0,0.7,0.1c0.2,0.1,0.4,0.2,0.5,0.4c0.1,0.1,0.1,0.2,0.1,0.4c0,0.1,0,0.4,0,0.7v2.3h-0.9v-1.9c0-0.5-0.1-0.8-0.2-1
			c-0.1-0.2-0.3-0.2-0.6-0.2c-0.2,0-0.4,0-0.5,0.1c-0.2,0.1-0.3,0.2-0.4,0.3c-0.1,0.1-0.1,0.2-0.1,0.3c0,0.1,0,0.4,0,0.7v1.7H32.5z"
			/>
		<path id="XMLID_17148_" class="st1" d="M38.1,111.5h-0.9v-3.8h0.8v0.6c0.2-0.3,0.4-0.5,0.6-0.6c0.2-0.1,0.5-0.2,0.8-0.2
			c0.3,0,0.5,0.1,0.7,0.2c0.2,0.1,0.3,0.3,0.4,0.6c0.2-0.3,0.4-0.4,0.6-0.6c0.2-0.1,0.5-0.2,0.8-0.2c0.2,0,0.5,0,0.6,0.1
			c0.2,0.1,0.3,0.2,0.4,0.4c0,0.1,0.1,0.2,0.1,0.3c0,0.1,0,0.3,0,0.5v0.3v2.3h-0.9v-1.9c0-0.5-0.1-0.8-0.2-1
			c-0.1-0.2-0.3-0.2-0.6-0.2c-0.3,0-0.6,0.1-0.7,0.3c-0.1,0.2-0.2,0.6-0.2,1.1v1.7h-0.9v-1.9c0-0.5-0.1-0.8-0.2-1
			c-0.1-0.2-0.3-0.3-0.6-0.3c-0.2,0-0.3,0-0.5,0.1c-0.1,0.1-0.3,0.2-0.3,0.3c-0.1,0.1-0.1,0.2-0.1,0.3c0,0.1,0,0.4,0,0.7V111.5z"/>
		<path id="XMLID_17145_" class="st1" d="M44.1,109.7c0-0.3,0.1-0.5,0.2-0.8c0.1-0.2,0.3-0.5,0.4-0.7c0.2-0.2,0.4-0.3,0.7-0.4
			c0.3-0.1,0.5-0.2,0.8-0.2c0.3,0,0.5,0.1,0.8,0.2c0.2,0.1,0.5,0.2,0.7,0.4c0.2,0.2,0.3,0.4,0.5,0.7c0.1,0.2,0.2,0.5,0.2,0.8
			c0,0.3-0.1,0.5-0.2,0.8c-0.1,0.2-0.3,0.5-0.4,0.6c-0.2,0.2-0.4,0.3-0.7,0.4c-0.3,0.1-0.5,0.2-0.8,0.2c-0.3,0-0.5-0.1-0.8-0.2
			c-0.3-0.1-0.5-0.2-0.7-0.4c-0.2-0.2-0.3-0.4-0.5-0.7C44.1,110.2,44.1,109.9,44.1,109.7z M47.3,109.7c0-0.3-0.1-0.6-0.3-0.9
			c-0.2-0.2-0.5-0.4-0.8-0.4c-0.3,0-0.6,0.1-0.8,0.4c-0.2,0.2-0.3,0.5-0.3,0.9c0,0.3,0.1,0.6,0.3,0.9c0.2,0.2,0.5,0.4,0.8,0.4
			c0.3,0,0.6-0.1,0.8-0.4C47.2,110.3,47.3,110,47.3,109.7z"/>
		<path id="XMLID_17142_" class="st1" d="M50,105.4v3c0.1-0.2,0.3-0.4,0.5-0.6c0.2-0.1,0.5-0.2,0.8-0.2c0.5,0,0.9,0.2,1.2,0.6
			c0.3,0.4,0.5,0.9,0.5,1.5c0,0.6-0.2,1.1-0.5,1.5c-0.3,0.4-0.7,0.5-1.3,0.5c-0.3,0-0.5-0.1-0.7-0.2c-0.2-0.1-0.4-0.3-0.5-0.5v0.5
			h-0.9v-6.1H50z M50,109.6c0,0.4,0.1,0.7,0.3,0.9c0.2,0.2,0.5,0.4,0.8,0.4c0.3,0,0.6-0.1,0.8-0.3c0.2-0.2,0.3-0.5,0.3-0.9
			c0-0.4-0.1-0.7-0.3-0.9c-0.2-0.2-0.4-0.3-0.8-0.3c-0.3,0-0.6,0.1-0.8,0.3C50.1,108.9,50,109.2,50,109.6z"/>
		<path id="XMLID_17139_" class="st1" d="M53.8,106.1c0-0.1,0.1-0.3,0.2-0.4c0.1-0.1,0.2-0.2,0.4-0.2c0.2,0,0.3,0.1,0.4,0.2
			c0.1,0.1,0.2,0.2,0.2,0.4c0,0.2-0.1,0.3-0.2,0.4c-0.1,0.1-0.2,0.2-0.4,0.2c-0.1,0-0.3-0.1-0.4-0.2
			C53.8,106.4,53.8,106.3,53.8,106.1z M53.9,111.5v-3.8h0.9v3.8H53.9z"/>
		<path id="XMLID_17137_" class="st1" d="M56,111.5v-6.1h0.9v6.1H56z"/>
		<path id="XMLID_17134_" class="st1" d="M58,106.1c0-0.1,0.1-0.3,0.2-0.4c0.1-0.1,0.2-0.2,0.4-0.2c0.2,0,0.3,0.1,0.4,0.2
			c0.1,0.1,0.2,0.2,0.2,0.4c0,0.2-0.1,0.3-0.2,0.4c-0.1,0.1-0.2,0.2-0.4,0.2c-0.1,0-0.3-0.1-0.4-0.2C58.1,106.4,58,106.3,58,106.1z
			 M58.1,111.5v-3.8H59v3.8H58.1z"/>
		<path id="XMLID_17131_" class="st1" d="M63.8,111.5h-0.9V111c-0.2,0.2-0.3,0.4-0.5,0.5c-0.2,0.1-0.4,0.2-0.7,0.2
			c-0.5,0-0.9-0.2-1.3-0.5c-0.3-0.4-0.5-0.9-0.5-1.5c0-0.6,0.2-1.1,0.5-1.5c0.3-0.4,0.7-0.6,1.2-0.6c0.3,0,0.6,0.1,0.8,0.2
			c0.2,0.1,0.4,0.3,0.5,0.6v-0.6h0.9V111.5z M62.9,109.6c0-0.4-0.1-0.7-0.3-0.9c-0.2-0.2-0.4-0.3-0.8-0.3c-0.3,0-0.6,0.1-0.8,0.3
			c-0.2,0.2-0.3,0.5-0.3,0.9c0,0.4,0.1,0.7,0.3,0.9c0.2,0.2,0.4,0.3,0.8,0.3c0.3,0,0.6-0.1,0.8-0.4C62.8,110.3,62.9,110,62.9,109.6z
			"/>
		<path id="XMLID_17129_" class="st1" d="M65.8,108.4c0.1-0.2,0.2-0.4,0.4-0.6c0.2-0.1,0.3-0.2,0.6-0.2c0.1,0,0.2,0,0.4,0
			c0.1,0,0.2,0.1,0.3,0.1l-0.3,0.7c-0.1-0.1-0.2-0.1-0.2-0.1c-0.1,0-0.2,0-0.3,0c-0.3,0-0.5,0.1-0.6,0.3c-0.1,0.2-0.2,0.6-0.2,1.2
			v1.6H65v-3.8h0.9V108.4z"/>
		<path id="XMLID_17126_" class="st1" d="M67.9,106.1c0-0.1,0.1-0.3,0.2-0.4c0.1-0.1,0.2-0.2,0.4-0.2c0.2,0,0.3,0.1,0.4,0.2
			s0.2,0.2,0.2,0.4c0,0.2-0.1,0.3-0.2,0.4c-0.1,0.1-0.2,0.2-0.4,0.2c-0.1,0-0.3-0.1-0.4-0.2C67.9,106.4,67.9,106.3,67.9,106.1z
			 M68,111.5v-3.8h0.9v3.8H68z"/>
		<path id="XMLID_17123_" class="st1" d="M73.6,111.5h-0.9V111c-0.2,0.2-0.3,0.4-0.5,0.5c-0.2,0.1-0.4,0.2-0.7,0.2
			c-0.5,0-0.9-0.2-1.3-0.5c-0.3-0.4-0.5-0.9-0.5-1.5c0-0.6,0.2-1.1,0.5-1.5c0.3-0.4,0.7-0.6,1.2-0.6c0.3,0,0.6,0.1,0.8,0.2
			c0.2,0.1,0.4,0.3,0.5,0.6v-0.6h0.9V111.5z M72.8,109.6c0-0.4-0.1-0.7-0.3-0.9c-0.2-0.2-0.4-0.3-0.8-0.3c-0.3,0-0.6,0.1-0.8,0.3
			c-0.2,0.2-0.3,0.5-0.3,0.9c0,0.4,0.1,0.7,0.3,0.9c0.2,0.2,0.4,0.3,0.8,0.3c0.3,0,0.6-0.1,0.8-0.4C72.7,110.3,72.8,110,72.8,109.6z
			"/>
		<path id="XMLID_17120_" class="st1" d="M79.5,105.7h0.8l-0.6,1.7h1l0.6-1.7h0.8l-0.6,1.7h1.2l-0.2,0.7h-1.2l-0.4,1h1.2l-0.2,0.7
			h-1.2l-0.6,1.7h-0.8l0.6-1.7h-1l-0.6,1.7h-0.8l0.6-1.7h-1.2l0.2-0.7h1.2l0.4-1h-1.2l0.2-0.7h1.3L79.5,105.7z M79.4,108.2l-0.4,1h1
			l0.4-1H79.4z"/>
		<path id="XMLID_17118_" class="st1" d="M85,111.5v-5h-1.2l0.4-0.7h1.7v5.7H85z"/>
		<path id="XMLID_17115_" class="st1" d="M93.5,105.4h0.9v6.1h-0.9V111c-0.2,0.2-0.3,0.4-0.5,0.5c-0.2,0.1-0.4,0.2-0.7,0.2
			c-0.5,0-0.9-0.2-1.3-0.5c-0.3-0.4-0.5-0.9-0.5-1.5c0-0.6,0.2-1.1,0.5-1.5c0.3-0.4,0.7-0.6,1.2-0.6c0.3,0,0.6,0.1,0.8,0.2
			c0.2,0.1,0.4,0.3,0.5,0.6V105.4z M93.5,109.6c0-0.4-0.1-0.7-0.3-0.9c-0.2-0.2-0.4-0.3-0.8-0.3c-0.3,0-0.6,0.1-0.8,0.3
			c-0.2,0.2-0.3,0.5-0.3,0.9c0,0.4,0.1,0.7,0.3,0.9c0.2,0.2,0.4,0.3,0.8,0.3c0.3,0,0.6-0.1,0.8-0.4C93.4,110.3,93.5,110,93.5,109.6z
			"/>
		<path id="XMLID_17112_" class="st1" d="M99.1,109.8h-3c0,0.4,0.1,0.6,0.3,0.8c0.2,0.2,0.4,0.3,0.7,0.3c0.3,0,0.5-0.1,0.7-0.2
			c0.2-0.1,0.3-0.3,0.5-0.6l0.7,0.4c-0.2,0.4-0.5,0.7-0.8,0.8c-0.3,0.2-0.7,0.3-1.1,0.3c-0.6,0-1.1-0.2-1.4-0.6
			c-0.4-0.4-0.5-0.9-0.5-1.5c0-0.6,0.2-1.1,0.6-1.5c0.4-0.4,0.8-0.6,1.4-0.6c0.6,0,1.1,0.2,1.4,0.5c0.3,0.3,0.5,0.8,0.5,1.5V109.8z
			 M98.3,109.2c0-0.3-0.1-0.5-0.3-0.6c-0.2-0.1-0.4-0.2-0.7-0.2c-0.3,0-0.5,0.1-0.7,0.2c-0.2,0.1-0.3,0.3-0.4,0.6H98.3z"/>
		<path id="XMLID_17110_" class="st1" d="M107.3,108.7c0,0,0-0.2-0.1-0.4c0-0.2,0-0.3-0.1-0.4c0,0.1-0.1,0.3-0.1,0.4
			c0,0.1-0.1,0.3-0.2,0.4l-1.5,3.1l-1.5-3.2c-0.1-0.1-0.1-0.3-0.2-0.4c0-0.1-0.1-0.2-0.1-0.4c0,0.1,0,0.2,0,0.4c0,0.1,0,0.3-0.1,0.4
			l-0.6,2.9H102l1.4-6l1.7,3.7c0,0.1,0.1,0.2,0.1,0.3c0.1,0.1,0.1,0.3,0.2,0.5c0.1-0.2,0.1-0.4,0.3-0.6c0-0.1,0.1-0.1,0.1-0.2
			l1.7-3.7l1.4,6h-0.9L107.3,108.7z"/>
		<path id="XMLID_7576_" class="st1" d="M113.1,109.8h-3c0,0.4,0.1,0.6,0.3,0.8c0.2,0.2,0.4,0.3,0.7,0.3c0.3,0,0.5-0.1,0.7-0.2
			c0.2-0.1,0.3-0.3,0.5-0.6l0.7,0.4c-0.2,0.4-0.5,0.7-0.8,0.8c-0.3,0.2-0.7,0.3-1.1,0.3c-0.6,0-1.1-0.2-1.4-0.6
			c-0.4-0.4-0.5-0.9-0.5-1.5c0-0.6,0.2-1.1,0.6-1.5c0.4-0.4,0.8-0.6,1.4-0.6c0.6,0,1.1,0.2,1.4,0.5c0.3,0.3,0.5,0.8,0.5,1.5V109.8z
			 M112.2,109.2c0-0.3-0.1-0.5-0.3-0.6c-0.2-0.1-0.4-0.2-0.7-0.2c-0.3,0-0.5,0.1-0.7,0.2c-0.2,0.1-0.3,0.3-0.4,0.6H112.2z
			 M110.6,107.2l0.8-1.1h0.9l-1.2,1.1H110.6z"/>
		<path id="XMLID_4279_" class="st1" d="M114.2,111.5h-0.9l1.4-2l-1.2-1.7h0.9l0.5,0.8c0.1,0.1,0.1,0.2,0.1,0.2
			c0,0.1,0.1,0.1,0.1,0.2c0-0.1,0.1-0.1,0.1-0.2c0-0.1,0.1-0.2,0.2-0.3l0.5-0.8h0.9l-1.2,1.7l1.4,2h-0.9l-0.7-1c0,0,0,0,0,0
			c-0.1-0.2-0.2-0.4-0.3-0.5c-0.1,0.1-0.1,0.2-0.2,0.3c0,0.1-0.1,0.2-0.1,0.2L114.2,111.5z"/>
		<path id="XMLID_1494_" class="st1" d="M117.6,106.1c0-0.1,0.1-0.3,0.2-0.4c0.1-0.1,0.2-0.2,0.4-0.2c0.2,0,0.3,0.1,0.4,0.2
			s0.2,0.2,0.2,0.4c0,0.2-0.1,0.3-0.2,0.4c-0.1,0.1-0.2,0.2-0.4,0.2c-0.1,0-0.3-0.1-0.4-0.2C117.6,106.4,117.6,106.3,117.6,106.1z
			 M117.7,111.5v-3.8h0.9v3.8H117.7z"/>
		<path id="XMLID_1491_" class="st1" d="M122.6,108.8c-0.1-0.1-0.3-0.3-0.5-0.3c-0.2-0.1-0.4-0.1-0.6-0.1c-0.4,0-0.6,0.1-0.8,0.3
			c-0.2,0.2-0.3,0.5-0.3,0.9c0,0.4,0.1,0.7,0.3,0.9c0.2,0.2,0.5,0.3,0.9,0.3c0.2,0,0.4,0,0.6-0.1c0.2-0.1,0.3-0.2,0.4-0.4v1
			c-0.2,0.1-0.3,0.2-0.5,0.2c-0.2,0-0.4,0.1-0.6,0.1c-0.6,0-1.1-0.2-1.4-0.6c-0.4-0.4-0.6-0.9-0.6-1.5c0-0.6,0.2-1.1,0.6-1.5
			c0.4-0.4,0.9-0.6,1.5-0.6c0.2,0,0.4,0,0.5,0.1c0.2,0,0.3,0.1,0.5,0.2V108.8z"/>
		<path id="XMLID_374_" class="st1" d="M123.2,109.7c0-0.3,0.1-0.5,0.2-0.8c0.1-0.2,0.3-0.5,0.4-0.7c0.2-0.2,0.4-0.3,0.7-0.4
			c0.3-0.1,0.5-0.2,0.8-0.2c0.3,0,0.5,0.1,0.8,0.2c0.2,0.1,0.5,0.2,0.7,0.4c0.2,0.2,0.3,0.4,0.5,0.7c0.1,0.2,0.2,0.5,0.2,0.8
			c0,0.3-0.1,0.5-0.2,0.8c-0.1,0.2-0.2,0.5-0.4,0.6c-0.2,0.2-0.4,0.3-0.7,0.4c-0.3,0.1-0.5,0.2-0.8,0.2c-0.3,0-0.5-0.1-0.8-0.2
			c-0.3-0.1-0.5-0.2-0.7-0.4c-0.2-0.2-0.3-0.4-0.5-0.7C123.2,110.2,123.2,109.9,123.2,109.7z M126.4,109.7c0-0.3-0.1-0.6-0.3-0.9
			c-0.2-0.2-0.5-0.4-0.8-0.4c-0.3,0-0.6,0.1-0.8,0.4c-0.2,0.2-0.3,0.5-0.3,0.9c0,0.3,0.1,0.6,0.3,0.9c0.2,0.2,0.5,0.4,0.8,0.4
			c0.3,0,0.6-0.1,0.8-0.4C126.3,110.3,126.4,110,126.4,109.7z"/>
	</g>
	<path id="XMLID_5_" class="st1" d="M80.6,12.6L66.1,3.9l-14.8,9.2l0.1,25.7l10-8.9l19.5,0.1L80.6,12.6z M60.8,27.3l-7,6.3l0.1-19
		l12.2-7.4L77.7,14l0.1,13.2L60.8,27.3z"/>
	<g id="XMLID_1_">
		<path id="XMLID_17186_" class="st0" d="M6.2,81.1c0.4-1.3,0.9-2.2,1.7-2.9c0.7-0.6,1.6-1,2.7-1c0.2,0,0.6,0,1.2,0.1
			c0.1,0,0.2,0,0.2,0l-0.6,4.1c-0.3-0.1-0.6-0.2-0.9-0.3c-0.3-0.1-0.6-0.1-0.9-0.1c-1.2,0-2,0.3-2.5,0.9c-0.5,0.6-0.8,1.6-0.8,3v5.8
			H2.5V77.7h3.8L6.2,81.1z"/>
		<path id="XMLID_17183_" class="st0" d="M26.5,85.2h-9.9c0.2,0.9,0.5,1.7,1,2.1c0.5,0.5,1.3,0.7,2.2,0.7c0.7,0,1.3-0.1,1.8-0.4
			c0.5-0.3,0.9-0.7,1.3-1.2L26,88c-0.7,1.2-1.6,2-2.6,2.6c-1,0.6-2.2,0.8-3.6,0.8c-2.1,0-3.8-0.6-5.1-1.9c-1.2-1.3-1.9-3-1.9-5.1
			c0-2.1,0.7-3.8,2-5.1c1.3-1.3,3-2,5-2c2.1,0,3.7,0.6,5,1.9c1.2,1.2,1.8,2.9,1.8,5.1c0,0.1,0,0.2,0,0.4
			C26.6,84.8,26.6,85,26.5,85.2z M22.8,82.9c-0.1-0.8-0.4-1.5-0.9-1.9c-0.5-0.4-1.2-0.6-2-0.6c-0.9,0-1.5,0.2-2.1,0.6
			c-0.5,0.4-0.8,1.1-1,1.9H22.8z"/>
		<path id="XMLID_17181_" class="st0" d="M29.4,90.9V77.7h3.7v2.1c0.7-0.9,1.4-1.5,2.2-1.9c0.8-0.4,1.7-0.6,2.6-0.6
			c1,0,1.9,0.2,2.6,0.5c0.7,0.3,1.2,0.9,1.6,1.6c0.2,0.4,0.3,0.8,0.4,1.2c0.1,0.5,0.1,1.2,0.1,2.2v0.4v7.7H39v-6.5
			c0-1.6-0.2-2.7-0.6-3.2c-0.4-0.5-1-0.8-1.9-0.8c-0.5,0-1,0.1-1.5,0.3c-0.4,0.2-0.8,0.5-1.1,0.9c-0.2,0.3-0.4,0.7-0.5,1.1
			c-0.1,0.4-0.2,1-0.2,1.8v0.5v5.8H29.4z"/>
		<path id="XMLID_17179_" class="st0" d="M46.9,90.9V80.7H45v-3h1.8v-4.4h3.8v4.4h1.8v3h-1.8v10.2H46.9z"/>
		<path id="XMLID_17176_" class="st0" d="M68.1,90.9h-3.7l0.1-1.9c-0.5,0.8-1.1,1.4-1.9,1.8c-0.7,0.4-1.6,0.6-2.7,0.6
			c-1.7,0-3.1-0.6-4.2-1.9c-1.1-1.3-1.6-3-1.6-5.1c0-2.2,0.5-3.9,1.6-5.2c1.1-1.2,2.5-1.9,4.4-1.9c1,0,1.8,0.2,2.6,0.7
			c0.7,0.4,1.4,1.1,1.9,2v-2.2h3.6V90.9z M64.6,84.3c0-1.2-0.3-2.1-0.9-2.8c-0.6-0.7-1.4-1-2.4-1c-1,0-1.9,0.3-2.4,1
			c-0.6,0.7-0.9,1.6-0.9,2.8c0,1.2,0.3,2.1,0.9,2.8c0.6,0.7,1.4,1,2.4,1c1.1,0,1.9-0.3,2.5-1C64.3,86.4,64.6,85.5,64.6,84.3z"/>
		<path id="XMLID_17174_" class="st0" d="M70.4,88.6l2.9-1.5c0.1,0.5,0.4,0.9,0.8,1.2c0.4,0.3,1,0.4,1.6,0.4c0.6,0,1.1-0.1,1.5-0.3
			c0.4-0.2,0.5-0.5,0.5-0.9c0-0.6-0.6-1.2-1.9-1.6c-0.4-0.1-0.7-0.2-0.9-0.3c-1.5-0.6-2.6-1.2-3.2-1.8c-0.6-0.6-0.9-1.3-0.9-2.2
			c0-1.3,0.5-2.3,1.5-3.1c1-0.8,2.3-1.2,4-1.2c1.2,0,2.2,0.2,3.1,0.7c0.9,0.5,1.5,1.1,1.9,2l-2.8,1.4c-0.2-0.5-0.4-0.9-0.8-1.1
			c-0.4-0.3-0.8-0.4-1.4-0.4c-0.6,0-1,0.1-1.4,0.3c-0.3,0.2-0.5,0.5-0.5,0.9c0,0.7,0.9,1.3,2.6,1.8c0.2,0.1,0.4,0.1,0.5,0.1
			c1.4,0.5,2.5,1,3.1,1.7c0.6,0.6,0.9,1.4,0.9,2.4c0,1.3-0.5,2.3-1.5,3.1c-1,0.8-2.4,1.2-4.1,1.2c-1.4,0-2.5-0.3-3.5-0.8
			C71.3,90.1,70.7,89.4,70.4,88.6z"/>
		<path id="XMLID_17170_" class="st1" d="M96.4,90.9h-3.8V77.7h3.8v2.1c0.6-0.9,1.3-1.5,2-1.9c0.7-0.4,1.5-0.6,2.4-0.6
			c1.1,0,2,0.2,2.7,0.7c0.7,0.4,1.2,1.1,1.5,2c0.6-0.9,1.3-1.6,2.1-2c0.8-0.5,1.6-0.7,2.5-0.7c0.9,0,1.7,0.2,2.4,0.5
			c0.6,0.3,1.2,0.9,1.5,1.5c0.2,0.4,0.3,0.8,0.4,1.3c0.1,0.5,0.1,1.2,0.1,2.2v0.4v7.7h-3.8v-6.5c0-1.6-0.2-2.7-0.5-3.2
			c-0.3-0.5-0.9-0.8-1.7-0.8c-1,0-1.7,0.4-2.1,1.1c-0.4,0.7-0.7,1.9-0.7,3.6v5.8h-3.8v-6.5c0-1.5-0.2-2.6-0.5-3.1
			c-0.3-0.5-0.8-0.8-1.6-0.8c-1,0-1.7,0.4-2.2,1.1c-0.5,0.7-0.7,1.9-0.7,3.6V90.9z"/>
		<path id="XMLID_17168_" class="st1" d="M120,90.9h-4.5l4.7-6.7l-4.4-6.5h4.8l1.3,2.4c0.2,0.3,0.3,0.6,0.4,1c0.1,0.3,0.2,0.7,0.4,1
			c0.1-0.3,0.2-0.7,0.4-1c0.1-0.3,0.3-0.7,0.5-1l1.4-2.4h4.5l-4.5,6.4l4.7,6.8h-4.7l-1.5-2.7c-0.2-0.3-0.3-0.7-0.5-1
			c-0.1-0.3-0.3-0.7-0.3-1c-0.1,0.3-0.2,0.7-0.3,1c-0.1,0.3-0.3,0.7-0.6,1L120,90.9z"/>
		<g id="XMLID_342_">
			<path id="XMLID_351_" d="M83.4,88.1h3.6v3.2h-3.6V88.1z"/>
		</g>
	</g>
</g>
</svg>
