<?xml version="1.0" encoding="utf-8"?>
<!-- Generator: Adobe Illustrator 17.0.0, SVG Export Plug-In . SVG Version: 6.00 Build 0)  -->
<!DOCTYPE svg PUBLIC "-//W3C//DTD SVG 1.1//EN" "http://www.w3.org/Graphics/SVG/1.1/DTD/svg11.dtd">
<svg version="1.1" id="Capa_1" xmlns="http://www.w3.org/2000/svg" xmlns:xlink="http://www.w3.org/1999/xlink" x="0px" y="0px"
	 width="149.06px" height="31.6px" viewBox="0 0 149.06 31.6" enable-background="new 0 0 149.06 31.6" xml:space="preserve">
<g>
	<path d="M6.1,25.82c-1.5-1.51-2.25-3.53-2.25-6.07c0-2.56,0.75-4.63,2.25-6.2s3.36-2.36,5.59-2.36c0.92,0,1.79,0.12,2.59,0.36
		c0.81,0.24,1.39,0.48,1.75,0.71l0.54,0.38l-0.31,0.65c-1.2-0.92-2.74-1.38-4.61-1.38c-1.89,0-3.53,0.72-4.91,2.17
		c-1.38,1.45-2.07,3.33-2.07,5.66c0,2.3,0.69,4.15,2.07,5.53c1.38,1.38,3.02,2.07,4.91,2.07c0.82,0,1.61-0.11,2.38-0.35
		c0.77-0.23,1.33-0.46,1.69-0.69l0.54-0.35l0.31,0.65c-1.2,0.97-2.83,1.46-4.88,1.46C9.46,28.09,7.6,27.33,6.1,25.82z"/>
	<path d="M40.05,11.58h0.58l0.19,3.38h0.04l0.04-0.08c0.03-0.08,0.08-0.19,0.17-0.35c0.09-0.15,0.19-0.32,0.31-0.5
		c0.11-0.18,0.27-0.38,0.46-0.59c0.19-0.22,0.4-0.43,0.61-0.63c0.22-0.2,0.49-0.4,0.81-0.59c0.32-0.19,0.66-0.36,1.02-0.52
		c0.36-0.15,0.77-0.28,1.25-0.36C46,11.24,46.49,11.2,47,11.2c2.1,0,3.73,0.71,4.89,2.13c1.16,1.42,1.75,3.26,1.75,5.51v8.87h-0.77
		v-8.83c0-2.07-0.51-3.75-1.54-5.03c-1.02-1.28-2.5-1.92-4.41-1.92c-1.33,0-2.48,0.34-3.44,1.02c-0.96,0.68-1.64,1.43-2.03,2.27
		c-0.4,0.83-0.61,1.64-0.63,2.44v10.06h-0.77V11.58z"/>
	<path d="M71.49,26.36c-0.15,0.13-0.38,0.29-0.67,0.48c-0.29,0.19-0.93,0.45-1.9,0.77c-0.97,0.32-1.97,0.48-2.99,0.48
		c-2.23,0-4.06-0.75-5.49-2.26c-1.43-1.51-2.15-3.53-2.15-6.07c0-2.69,0.68-4.79,2.05-6.3c1.37-1.51,3.1-2.27,5.2-2.27
		c2.15,0,3.83,0.7,5.05,2.09c1.22,1.39,1.82,3.28,1.82,5.66v0.23H59.1v0.58c0,2.3,0.66,4.15,1.98,5.53
		c1.32,1.38,2.94,2.07,4.86,2.07c1,0,1.93-0.13,2.78-0.4s1.47-0.54,1.82-0.83l0.58-0.42L71.49,26.36z M61.3,13.64
		c-1.19,1.14-1.9,2.73-2.13,4.78h12.44c-0.05-1.79-0.61-3.32-1.67-4.59c-1.06-1.27-2.53-1.9-4.4-1.9
		C63.91,11.93,62.49,12.5,61.3,13.64z M65.39,8.63h-0.58l2.23-5.45l1.19,0.15L65.39,8.63z"/>
	<path d="M78.16,25.82c-1.5-1.51-2.25-3.53-2.25-6.07c0-2.56,0.75-4.63,2.25-6.2s3.36-2.36,5.59-2.36c0.92,0,1.78,0.12,2.59,0.36
		c0.81,0.24,1.39,0.48,1.75,0.71l0.54,0.38l-0.31,0.65c-1.2-0.92-2.74-1.38-4.61-1.38c-1.89,0-3.53,0.72-4.91,2.17
		c-1.38,1.45-2.07,3.33-2.07,5.66c0,2.3,0.69,4.15,2.07,5.53c1.38,1.38,3.02,2.07,4.91,2.07c0.82,0,1.61-0.11,2.38-0.35
		c0.77-0.23,1.33-0.46,1.69-0.69l0.54-0.35l0.31,0.65c-1.2,0.97-2.83,1.46-4.88,1.46C81.52,28.09,79.65,27.33,78.16,25.82z"/>
	<path d="M94.22,11.58V6.67h0.77v4.91h5.07v0.73h-5.07v11.67c0,2.25,1,3.38,2.99,3.38c0.44,0,0.85-0.06,1.25-0.17
		c0.4-0.12,0.68-0.22,0.86-0.33l0.27-0.15l0.27,0.65c-0.59,0.49-1.5,0.73-2.73,0.73c-1.18,0-2.09-0.36-2.73-1.07
		s-0.96-1.68-0.96-2.88V12.31H91v-0.73H94.22z"/>
	<path d="M116.1,27.71h-0.58l-0.11-3.42h-0.08c-0.54,1.02-1.42,1.91-2.65,2.67c-1.23,0.75-2.61,1.13-4.15,1.13
		c-1.97,0-3.47-0.46-4.49-1.38c-1.02-0.92-1.54-2.09-1.54-3.49c0-1.41,0.56-2.58,1.69-3.53c1.13-0.95,2.89-1.42,5.3-1.42
		c2.3,0,4.25,0.44,5.84,1.31v-1.34c0-4.2-2.03-6.3-6.1-6.3c-0.79,0-1.61,0.11-2.46,0.35c-0.84,0.23-1.48,0.46-1.92,0.69l-0.69,0.35
		l-0.35-0.69c1.64-0.95,3.49-1.42,5.57-1.42c2.25,0,3.94,0.64,5.05,1.92c1.11,1.28,1.67,2.99,1.67,5.14V27.71z M113.24,25.71
		c1.29-1.1,1.99-2.12,2.09-3.07v-2.27c-1.61-0.92-3.53-1.38-5.76-1.38c-2.18,0-3.77,0.4-4.78,1.19c-1.01,0.79-1.52,1.8-1.52,3.03
		c0,1.18,0.45,2.16,1.36,2.96c0.91,0.79,2.25,1.19,4.01,1.19S111.95,26.81,113.24,25.71z"/>
	<path d="M122.55,11.58V6.67h0.77v4.91h5.07v0.73h-5.07v11.67c0,2.25,1,3.38,2.99,3.38c0.43,0,0.85-0.06,1.25-0.17
		c0.4-0.12,0.68-0.22,0.86-0.33l0.27-0.15l0.27,0.65c-0.59,0.49-1.5,0.73-2.73,0.73c-1.18,0-2.09-0.36-2.73-1.07
		s-0.96-1.68-0.96-2.88V12.31h-3.22v-0.73H122.55z"/>
	<path d="M144.28,26.36c-0.15,0.13-0.38,0.29-0.67,0.48c-0.29,0.19-0.93,0.45-1.9,0.77c-0.97,0.32-1.97,0.48-2.99,0.48
		c-2.23,0-4.06-0.75-5.49-2.26c-1.43-1.51-2.15-3.53-2.15-6.07c0-2.69,0.68-4.79,2.05-6.3c1.37-1.51,3.1-2.27,5.2-2.27
		c2.15,0,3.83,0.7,5.05,2.09c1.22,1.39,1.82,3.28,1.82,5.66v0.23h-13.32v0.58c0,2.3,0.66,4.15,1.98,5.53
		c1.32,1.38,2.94,2.07,4.86,2.07c1,0,1.93-0.13,2.78-0.4c0.86-0.27,1.47-0.54,1.82-0.83l0.58-0.42L144.28,26.36z M134.09,13.64
		c-1.19,1.14-1.9,2.73-2.13,4.78h12.44c-0.05-1.79-0.61-3.32-1.67-4.59c-1.06-1.27-2.53-1.9-4.4-1.9
		C136.69,11.93,135.28,12.5,134.09,13.64z"/>
	<g>
		<g>
			<path fill="#00FB71" d="M21.64,25.52c-0.04,0.05-0.08,0.09-0.12,0.12c-0.51,0.43-1.27,0.37-1.7-0.14
				c-0.39-0.46-0.38-1.13,0.01-1.57c-0.16-0.3-0.31-0.6-0.44-0.91c-1.32-3.2-0.64-7.01,1.9-9.56c3.2-3.2,8.26-3.4,11.7-0.62
				c-0.05,0.04-0.1,0.08-0.15,0.12c-0.12,0.1-0.22,0.21-0.31,0.33c-3.19-2.53-7.84-2.32-10.79,0.62c-2.34,2.34-2.97,5.83-1.79,8.79
				c0.12,0.29,0.26,0.59,0.41,0.87c0.45-0.15,0.96-0.02,1.29,0.36C22.04,24.41,22.03,25.08,21.64,25.52z"/>
			<path fill="#00FB71" d="M33.68,25.87c-3.19,3.19-8.27,3.4-11.7,0.62c0.05-0.04,0.1-0.08,0.15-0.12c0.12-0.1,0.22-0.21,0.31-0.33
				c3.18,2.53,7.84,2.33,10.79-0.62c2.34-2.34,2.97-5.84,1.78-8.8c-0.12-0.3-0.25-0.59-0.41-0.87c-0.45,0.15-0.96,0.02-1.28-0.36
				c-0.39-0.46-0.38-1.13,0.01-1.57l0.13-0.13c0.51-0.43,1.26-0.38,1.7,0.13c0.39,0.46,0.38,1.13-0.01,1.57
				c0.16,0.3,0.31,0.6,0.43,0.91C36.91,19.5,36.23,23.32,33.68,25.87z"/>
		</g>
	</g>
</g>
</svg>
