<?xml version="1.0" encoding="utf-8"?>
<!-- Generator: Adobe Illustrator 19.0.0, SVG Export Plug-In . SVG Version: 6.00 Build 0)  -->
<svg version="1.1" id="Capa_1" xmlns="http://www.w3.org/2000/svg" xmlns:xlink="http://www.w3.org/1999/xlink" x="0px" y="0px"
	 viewBox="0 0 115.1 115" style="enable-background:new 0 0 115.1 115;" xml:space="preserve">
<style type="text/css">
	.st0{fill:#1C2735;}
	.st1{fill:#FFFFFF;}
</style>
<g id="XMLID_2766_">
	<g id="XMLID_2767_">
		<rect id="XMLID_2768_" x="0" y="0" class="st0" width="115.1" height="115"/>
	</g>
	<g id="XMLID_2769_">
		<path id="XMLID_2770_" class="st1" d="M50,40.1v10.2h-1.9v-11C48.8,39.6,49.4,39.9,50,40.1z M44.7,37.5v12.8h1.9V38.6
			C45.9,38.3,45.3,37.9,44.7,37.5z M51.6,40.5v9.8h1.9v-9.4C52.8,40.8,52.2,40.7,51.6,40.5z M55,41.2v9.2h1.9v-9
			C56.3,41.3,55.6,41.2,55,41.2z M37.8,30.3v20h1.9V33.1C39,32.2,38.4,31.3,37.8,30.3z M41.3,34.8v15.5h1.9V36.4
			C42.5,35.9,41.9,35.4,41.3,34.8z M72.2,36.4v13.9h1.9V34.8C73.5,35.4,72.9,35.9,72.2,36.4z M75.6,33.1v17.2h1.9v-20
			C77,31.3,76.4,32.2,75.6,33.1z M68.8,38.6v11.7h1.9V37.5C70.1,37.9,69.4,38.3,68.8,38.6z M61.9,40.9v9.4h1.9v-9.8
			C63.2,40.7,62.5,40.8,61.9,40.9z M65.3,40.1v10.2h1.9v-11C66.6,39.6,66,39.9,65.3,40.1z M58.5,41.3v9h1.9v-9.2
			C59.7,41.2,59.1,41.3,58.5,41.3z M68.8,56.5v-5.4H67v5C67.6,56.2,68.2,56.3,68.8,56.5z M65.4,55.8v-4.7h-1.9v4.5
			C64.1,55.6,64.8,55.7,65.4,55.8z M75.7,58.8v-7.7h-1.9V58C74.5,58.2,75.1,58.5,75.7,58.8z M79.2,60.5v-9.4h-1.9v8.4
			C77.9,59.8,78.6,60.1,79.2,60.5z M72.3,57.5v-6.4h-1.9v5.8C71,57.1,71.7,57.3,72.3,57.5z M57.6,55.2c0.3,0,0.6,0,0.9,0v-4.1h-1.9
			v4.1C56.9,55.2,57.2,55.2,57.6,55.2z M62,55.4v-4.3h-1.9v4.2C60.7,55.3,61.3,55.3,62,55.4z M44.7,56.9v-5.8h-1.9v6.4
			C43.4,57.3,44.1,57.1,44.7,56.9z M41.3,58v-6.9h-1.9v7.7C40,58.5,40.6,58.2,41.3,58z M37.8,59.5v-8.4h-1.9v9.4
			C36.5,60.1,37.2,59.8,37.8,59.5z M48.2,56.1v-5h-1.9v5.4C46.9,56.3,47.5,56.2,48.2,56.1z M51.6,55.5v-4.5h-1.9v4.7
			C50.3,55.7,51,55.6,51.6,55.5z M55.1,55.3v-4.2h-1.9v4.3C53.8,55.3,54.4,55.3,55.1,55.3z"/>
		<g id="XMLID_2798_">
			<path id="XMLID_2799_" class="st1" d="M34.7,63.7l5.1,12.8h-2.2L37,74.9h-4.9l-0.6,1.5h-1.9L34.7,63.7z M32.8,73h3.5l-1.7-4.5
				L32.8,73z"/>
			<path id="XMLID_2802_" class="st1" d="M80.5,63.7l5.1,12.8h-2.2l-0.6-1.5h-4.9l-0.6,1.5h-1.9L80.5,63.7z M78.7,73h3.5l-1.7-4.5
				L78.7,73z"/>
			<path id="XMLID_2805_" class="st1" d="M42.4,63.7h2.4l0,10.7h4.8l0,2.2h-7.2V63.7z"/>
			<path id="XMLID_2807_" class="st1" d="M52.3,63.7h4.4c2.7,0,4.6,2,4.6,4.6c0,2.5-2,4.6-4.6,4.6h-1.9v3.7h-2.4V63.7z M54.7,65.9
				v4.6h1.8c1.4,0,2.3-1,2.3-2.3c0-1.3-0.9-2.3-2.3-2.3H54.7z"/>
			<path id="XMLID_2810_" class="st1" d="M70.5,72.8H66v3.7h-2.3V63.7H66v6.8h4.5v-6.8h2.3v12.8h-2.3V72.8z"/>
		</g>
		<path id="XMLID_2812_" class="st1" d="M44,84.6c-0.3-0.4-0.7-1-0.8-1.2h-0.7v1.2h-0.5v-3.4h1.3c0.6,0,1.1,0.5,1.1,1.1
			c0,0.5-0.3,0.9-0.8,1l0.9,1.3H44z M43.4,82.9c0.3,0,0.6-0.3,0.6-0.6c0-0.3-0.3-0.6-0.6-0.6h-0.9v1.2H43.4z"/>
		<path id="XMLID_2815_" class="st1" d="M45.4,84.6v-3.4h2.2v0.5h-1.7v0.9H47v0.5h-1.2v1.1h1.7v0.5H45.4z"/>
		<path id="XMLID_2817_" class="st1" d="M52.5,81.2v3.4h-0.5v-3.4H52.5z"/>
		<path id="XMLID_2819_" class="st1" d="M53.3,84.6v-3.4h1.2c0.5,0,0.9,0.2,1.3,0.5c0.3,0.3,0.5,0.7,0.5,1.2c0,0.4-0.2,0.9-0.5,1.2
			c-0.3,0.3-0.8,0.5-1.3,0.5H53.3z M54.5,84.2c0.4,0,0.7-0.1,0.9-0.4c0.2-0.2,0.4-0.5,0.4-0.9c0-0.3-0.1-0.6-0.4-0.9
			c-0.3-0.2-0.5-0.4-0.9-0.4h-0.7v2.4H54.5z"/>
		<path id="XMLID_2822_" class="st1" d="M57.1,84.6v-3.4h2.2v0.5h-1.7v0.9h1.2v0.5h-1.2v1.1h1.7v0.5H57.1z"/>
		<path id="XMLID_2824_" class="st1" d="M60.5,82.4v2.3h-0.5v-3.5c0,0,1.6,1.8,2.2,2.4v-2.3h0.5v3.5C62.7,84.7,61.1,83,60.5,82.4z"
			/>
		<path id="XMLID_2826_" class="st1" d="M64.1,84.2c-0.3-0.3-0.5-0.8-0.5-1.2c0-0.5,0.2-0.9,0.5-1.2c0.3-0.3,0.8-0.5,1.3-0.5
			c0.4,0,0.8,0.1,1.2,0.4l0.2,0.1l-0.3,0.4l-0.2-0.1c-0.2-0.2-0.5-0.3-0.9-0.3c-0.4,0-0.7,0.1-1,0.4c-0.3,0.2-0.4,0.6-0.4,0.9
			c0,0.3,0.1,0.7,0.4,0.9c0.2,0.2,0.6,0.4,1,0.4c0.3,0,0.6-0.1,0.8-0.3l0.2-0.1l0.3,0.4l-0.2,0.1c-0.3,0.2-0.7,0.4-1.1,0.4
			C64.9,84.7,64.4,84.5,64.1,84.2z"/>
		<path id="XMLID_2828_" class="st1" d="M67.5,84.6v-3.4h2.2v0.5H68v0.9h1.2v0.5H68v1.1h1.7v0.5H67.5z"/>
		<path id="XMLID_2830_" class="st1" d="M70.3,84.3l0.2-0.4c0.5,0.2,0.8,0.3,1.2,0.3c0.3,0,0.6-0.1,0.7-0.3c0.2-0.3,0.1-0.6-0.1-0.8
			c-0.2-0.1-0.4-0.1-0.6-0.1c-0.2,0-0.5,0-0.7-0.1c-0.3-0.1-0.5-0.4-0.5-0.8c0-0.2,0.1-0.4,0.3-0.6c0.2-0.2,0.6-0.4,0.9-0.4
			c0.4,0,0.7,0.1,1.1,0.3l0.2,0.1L72.7,82c-0.5-0.2-0.8-0.3-1.1-0.3c-0.2,0-0.4,0.1-0.5,0.2c-0.1,0.1-0.2,0.3-0.1,0.5
			c0,0,0.1,0.1,0.2,0.1c0.2,0.1,0.4,0.1,0.6,0.1c0.2,0,0.5,0,0.7,0.2c0.4,0.2,0.6,0.6,0.5,1.1c0,0.1-0.1,0.3-0.2,0.4
			c-0.3,0.3-0.7,0.5-1.1,0.5h0C71.3,84.7,70.9,84.5,70.3,84.3z"/>
		<path id="XMLID_2832_" class="st1" d="M48.5,84.3l0.2-0.4c0.5,0.2,0.8,0.3,1.2,0.3c0.3,0,0.6-0.1,0.7-0.3c0.2-0.3,0.1-0.6-0.1-0.8
			c-0.2-0.1-0.4-0.1-0.6-0.1c-0.2,0-0.5,0-0.7-0.1c-0.3-0.1-0.5-0.4-0.5-0.8c0-0.2,0.1-0.4,0.3-0.6c0.2-0.2,0.6-0.4,0.9-0.4
			c0.4,0,0.7,0.1,1.1,0.3l0.2,0.1L50.9,82c-0.5-0.2-0.8-0.3-1.1-0.3c-0.2,0-0.4,0.1-0.5,0.2c-0.1,0.1-0.2,0.3-0.1,0.5
			c0,0,0.1,0.1,0.2,0.1c0.2,0.1,0.4,0.1,0.6,0.1c0.2,0,0.5,0,0.7,0.2c0.4,0.2,0.6,0.6,0.5,1.1c0,0.1-0.1,0.3-0.2,0.4
			c-0.3,0.3-0.7,0.5-1.1,0.5h0C49.5,84.7,49.1,84.5,48.5,84.3z"/>
	</g>
</g>
</svg>
