<?xml version="1.0" encoding="utf-8"?>
<!-- Generator: Adobe Illustrator 19.0.0, SVG Export Plug-In . SVG Version: 6.00 Build 0)  -->
<svg version="1.1" id="Capa_1" xmlns="http://www.w3.org/2000/svg" xmlns:xlink="http://www.w3.org/1999/xlink" x="0px" y="0px"
	 viewBox="0 0 115.1 115" style="enable-background:new 0 0 115.1 115;" xml:space="preserve">
<style type="text/css">
	.st0{fill:#FFFFFF;}
	.st1{fill:#E8E356;}
	.st2{fill:#AFDD40;}
	.st3{fill:#40DAA6;}
	.st4{fill:#151C21;}
</style>
<g id="XMLID_3830_">
	<g id="XMLID_3831_">
		<g id="XMLID_3832_">
			<path id="XMLID_3833_" class="st0" d="M105.4,90.4c-0.1,0-0.2,0-0.3,0c-31.7,0-63.4,0-95.2,0c-0.1,0-0.2,0-0.3,0
				c0-0.1,0-0.2,0-0.2c0.1,0.1,0.2,0,0.3,0c22,0,43.9,0,65.9,0c9.7,0,19.4,0,29.2,0c0.1,0,0.2,0,0.3,0
				C105.4,90.3,105.4,90.4,105.4,90.4z"/>
		</g>
		<g id="XMLID_3834_">
			<g id="XMLID_3835_">
				<path id="XMLID_3836_" class="st0" d="M39.3,98.3c0,0.8,0,1.6,0,2.5c0,1,0,2,0,3c0,0.2,0,0.3-0.2,0.3c-0.2,0-0.3-0.1-0.2-0.3
					c0-2.1,0-4.2,0-6.2c0-0.1-0.1-0.2,0.1-0.2c0.1,0,0.3-0.1,0.4,0.1c0.4,0.6,0.9,1.2,1.3,1.8c0.9,1.2,1.8,2.5,2.7,3.7
					c0,0,0,0.1,0.1,0.1c0.1,0,0.1-0.1,0.1-0.2c0-1.8,0-3.5,0-5.3c0-0.1-0.1-0.2,0-0.2c0.1,0,0.3,0,0.4,0c0.1,0,0,0.1,0,0.2
					c0,1.6,0,3.3,0,4.9c0,0.5,0,0.9,0,1.4c0,0.1,0.1,0.2-0.1,0.2c-0.1,0-0.3,0.1-0.4-0.1c-0.4-0.6-0.9-1.2-1.3-1.8
					c-0.9-1.2-1.7-2.3-2.6-3.5C39.5,98.5,39.4,98.4,39.3,98.3C39.3,98.2,39.3,98.3,39.3,98.3z"/>
			</g>
			<g id="XMLID_3837_">
				<path id="XMLID_3838_" class="st0" d="M100.8,100.5c0.7,0.1,1.2,0.4,1.4,1c0.4,1.2-0.3,2.4-1.7,2.5c-0.6,0-1.2,0-1.8,0
					c-0.1,0-0.2,0-0.2-0.2c0-2.1,0-4.3,0-6.4c0-0.1,0-0.2,0.2-0.2c0.6,0,1.1,0,1.7,0c0.8,0,1.4,0.5,1.6,1.2c0.2,0.8-0.2,1.6-0.9,1.9
					C101,100.4,101,100.4,100.8,100.5z M99,102.2c0,0.4,0,0.8,0,1.3c0,0.1,0,0.2,0.1,0.2c0.5,0,1,0,1.6,0c0.7-0.1,1.2-0.6,1.2-1.3
					c0-0.7-0.3-1.2-1.1-1.4c-0.6-0.1-1.1-0.1-1.7-0.1c-0.1,0-0.1,0.1-0.1,0.2C99,101.3,99,101.7,99,102.2z M99,99c0,0.4,0,0.8,0,1.2
					c0,0.1,0,0.2,0.2,0.2c0.3,0,0.6,0,0.8,0c0.3,0,0.6-0.1,0.9-0.2c0.5-0.3,0.7-0.8,0.6-1.5c-0.1-0.5-0.4-0.8-1-0.9
					c-0.4-0.1-0.9,0-1.4,0c-0.1,0-0.1,0.1-0.1,0.1C99,98.2,99,98.6,99,99z"/>
			</g>
			<g id="XMLID_3842_">
				<path id="XMLID_3843_" class="st0" d="M26,100.6c0,0.8-0.1,1.5-0.5,2.1c-0.6,0.9-1.4,1.4-2.5,1.4c-0.7,0-1.4-0.1-2-0.6
					c-0.6-0.5-1-1.2-1.2-2c-0.2-0.9-0.1-1.8,0.2-2.6c0.5-1.1,1.4-1.7,2.6-1.8c1.1-0.1,2,0.2,2.6,1.1c0.4,0.5,0.6,1.2,0.7,1.8
					C26,100.3,26,100.4,26,100.6z M25.5,100.7c0-0.3,0-0.6-0.1-0.9c-0.2-1.1-1-1.9-2-2.1c-1.3-0.2-2.3,0.3-2.8,1.4
					c-0.4,0.8-0.4,1.6-0.3,2.4c0.2,1.2,1,2,2.2,2.2c0.9,0.1,1.7-0.1,2.3-0.8C25.4,102.2,25.5,101.5,25.5,100.7z"/>
			</g>
			<g id="XMLID_3846_">
				<path id="XMLID_3847_" class="st0" d="M59.7,104c-0.1,0-0.2,0-0.2,0c-0.2,0-0.3,0-0.4-0.3c-0.2-0.6-0.5-1.2-0.8-1.8
					c-0.1-0.2-0.2-0.3-0.3-0.5c-0.2-0.3-0.5-0.4-0.9-0.5c-0.2,0-0.5,0-0.7,0c-0.2,0-0.2,0-0.2,0.2c0,0.9,0,1.7,0,2.6
					c0,0.2-0.1,0.2-0.2,0.2c-0.1,0-0.3,0-0.2-0.2c0-2.1,0-4.2,0-6.3c0-0.2,0-0.2,0.2-0.2c0.6,0,1.2,0,1.8,0c0.9,0,1.6,0.6,1.7,1.4
					c0.1,1.1-0.4,1.9-1.3,2.1c-0.1,0-0.1,0-0.2,0.1c0.4,0.2,0.6,0.6,0.7,1c0.3,0.7,0.6,1.4,0.9,2C59.6,103.9,59.7,103.9,59.7,104z
					 M56.2,99.1c0,0.2,0,0.5,0,0.7c0,0.2-0.1,0.6,0,0.7c0.1,0.1,0.5,0,0.7,0c0.4,0,0.8,0,1.2-0.1c0.6-0.2,1-0.8,0.9-1.6
					c-0.1-0.7-0.5-1.1-1.2-1.2c-0.5-0.1-1,0-1.5,0c-0.1,0-0.1,0.1-0.1,0.1C56.2,98.3,56.2,98.7,56.2,99.1z"/>
			</g>
			<g id="XMLID_3850_">
				<path id="XMLID_3851_" class="st0" d="M29.9,99.8c0-0.9,0-1.6,0-2.4c0-0.2,0.1-0.2,0.2-0.2c0.1,0,0.2,0,0.2,0.2c0,1.3,0,2.7,0,4
					c0,0.3,0,0.6,0.1,0.9c0.3,1.1,1.1,1.4,2,1.3c0.9-0.1,1.4-0.7,1.5-1.6c0-0.2,0-0.5,0-0.7c0-1.3,0-2.6,0-3.9
					c0-0.2,0.1-0.2,0.3-0.2c0.1,0,0.2,0,0.2,0.2c0,1.3,0,2.7,0,4c0,0.4,0,0.7-0.1,1c-0.3,1-0.9,1.5-1.9,1.6c-0.3,0-0.7,0-1-0.1
					c-0.9-0.2-1.4-0.9-1.5-1.8C29.9,101.4,30,100.5,29.9,99.8z"/>
			</g>
			<g id="XMLID_3852_">
				<path id="XMLID_3853_" class="st0" d="M89.6,99.7c0-0.7,0-1.5,0-2.2c0-0.2,0.1-0.2,0.3-0.2c0.1,0,0.2,0,0.2,0.2c0,1.3,0,2.7,0,4
					c0,0.3,0,0.6,0.1,0.9c0.3,1.1,1.1,1.4,2,1.3c0.9-0.1,1.4-0.7,1.5-1.6c0-0.2,0-0.5,0-0.7c0-1.3,0-2.6,0-3.9
					c0-0.2,0.1-0.2,0.2-0.2c0.1,0,0.2,0,0.2,0.2c0,1.3,0,2.7,0,4c0,0.4,0,0.7-0.1,1c-0.3,1-0.9,1.5-1.9,1.6c-0.3,0-0.7,0-1-0.1
					c-0.9-0.2-1.4-0.9-1.5-1.8c0-0.1,0-0.2,0-0.3C89.6,101.2,89.6,100.4,89.6,99.7L89.6,99.7z"/>
			</g>
			<g id="XMLID_3854_">
				<path id="XMLID_3855_" class="st0" d="M16,97.9c-0.5-0.2-1-0.3-1.5-0.3c-1.4,0-2.5,0.9-2.8,2.4c-0.1,0.7-0.1,1.3,0.1,1.9
					c0.4,1.2,1.5,1.9,2.8,1.8c0.4,0,0.8-0.1,1.2-0.3c0.1,0,0.2-0.1,0.2,0.1c0,0.2,0,0.3-0.3,0.4c-0.7,0.2-1.4,0.3-2.1,0.2
					c-1.1-0.2-1.8-0.9-2.2-1.9c-0.4-1.2-0.3-2.5,0.4-3.6c0.6-0.9,1.5-1.3,2.6-1.4c0.5,0,0.9,0,1.3,0.2c0.2,0,0.3,0.1,0.3,0.4
					C16,97.8,16,97.8,16,97.9z"/>
			</g>
			<g id="XMLID_3856_">
				<path id="XMLID_3857_" class="st0" d="M78.5,97.9c-0.7-0.3-1.3-0.4-2-0.3c-1,0.2-1.7,0.7-2.1,1.7c-0.3,0.9-0.4,1.7-0.1,2.6
					c0.4,1.2,1.5,1.9,2.8,1.7c0.2,0,0.5-0.1,0.7-0.1c0.2-0.1,0.4-0.1,0.6-0.2c0.1,0.4,0.1,0.4-0.3,0.6c-0.9,0.3-1.9,0.4-2.8-0.1
					c-1.1-0.6-1.6-1.5-1.7-2.7c-0.1-1.1,0.1-2,0.8-2.9c0.6-0.7,1.4-1,2.3-1.1c0.5,0,0.9,0,1.4,0.2c0.2,0,0.3,0.1,0.3,0.4
					C78.5,97.8,78.5,97.8,78.5,97.9z"/>
			</g>
			<g id="XMLID_3858_">
				<path id="XMLID_3859_" class="st0" d="M63.1,97.3C63.1,97.3,63.1,97.3,63.1,97.3c0.4-0.1,0.6,0,0.7,0.4c0.5,1.1,1,2.2,1.6,3.3
					c0.1-0.2,0.2-0.5,0.4-0.7c0.4-0.9,0.9-1.8,1.3-2.7c0.2-0.4,0.2-0.4,0.7-0.3c-0.7,1.3-1.4,2.7-2.1,4c-0.1,0.1-0.1,0.2-0.1,0.3
					c0,0.7,0,1.5,0,2.2c0,0.2-0.1,0.2-0.2,0.2c-0.1,0-0.2,0-0.2-0.2c0-0.7,0-1.4,0-2.1c0-0.1,0-0.3-0.1-0.4
					C64.4,100,63.8,98.6,63.1,97.3z"/>
			</g>
			<g id="XMLID_3860_">
				<path id="XMLID_3861_" class="st0" d="M49.6,100.8c0-1,0-2,0-3c0-0.1,0-0.2-0.2-0.2c-0.5,0-1.1,0-1.6,0c-0.2,0-0.2-0.1-0.2-0.2
					c0-0.1,0-0.2,0.2-0.2c1.3,0,2.6,0,4,0c0.2,0,0.2,0.1,0.2,0.2c0,0.1,0,0.2-0.2,0.2c-0.5,0-1,0-1.5,0c-0.2,0-0.2,0.1-0.2,0.3
					c0,1.9,0,3.9,0,5.8c0,0.1,0,0.2,0,0.2c-0.1,0-0.3,0-0.4,0c-0.1,0,0-0.1,0-0.2C49.6,102.8,49.6,101.8,49.6,100.8z"/>
			</g>
			<g id="XMLID_3862_">
				<path id="XMLID_3863_" class="st0" d="M82.6,100.6c0-1,0-2.1,0-3.1c0-0.2,0.1-0.2,0.3-0.2c0.1,0,0.2,0,0.2,0.2c0,2,0,3.9,0,5.9
					c0,0.2,0,0.2,0.2,0.2c0.7,0,1.5,0,2.2,0c0.2,0,0.2,0,0.2,0.2c0,0.2-0.1,0.2-0.2,0.2c-0.9,0-1.8,0-2.7,0c-0.2,0-0.2,0-0.2-0.2
					C82.6,102.7,82.6,101.7,82.6,100.6z"/>
			</g>
		</g>
		<g id="XMLID_3864_">
			<g id="XMLID_3865_">
				<path id="XMLID_3866_" class="st0" d="M86.2,81.9c0-0.3,0-0.5,0-0.8c0-2.4,0-4.9,0-7.3c0-0.2,0.1-0.2,0.2-0.2
					c0.5,0,0.5,0,0.5,0.5c0,3,0,5.9,0,8.9c0,0.1,0.1,0.2-0.1,0.3c-0.2,0-0.4,0.1-0.5-0.1c-0.5-0.6-0.9-1.3-1.4-1.9
					c-1.4-1.9-2.8-3.8-4.2-5.7c-0.1-0.2-0.3-0.4-0.4-0.6c-0.1,0.1,0,0.2,0,0.2c0,2.6,0,5.2,0,7.8c0,0.2-0.1,0.3-0.3,0.3
					c-0.4,0-0.4,0-0.4-0.4c0-3,0-6,0-9c0-0.1-0.1-0.3,0.1-0.3c0.2,0,0.4-0.1,0.5,0.1c0.5,0.6,0.9,1.3,1.4,1.9
					c1.4,1.9,2.8,3.8,4.2,5.7C85.9,81.5,86.1,81.7,86.2,81.9C86.2,81.9,86.2,81.9,86.2,81.9C86.2,81.9,86.2,81.9,86.2,81.9
					C86.2,81.9,86.2,81.9,86.2,81.9z"/>
			</g>
			<g id="XMLID_3867_">
				<path id="XMLID_3868_" class="st0" d="M59.6,78.3c0,1-0.1,2-0.6,2.9c-0.8,1.5-2,2.2-3.6,2.3c-0.9,0.1-1.8-0.1-2.6-0.6
					c-1.1-0.6-1.7-1.6-2-2.8c-0.3-1.5-0.3-2.9,0.4-4.3c0.8-1.6,2.1-2.3,3.8-2.4c0.9,0,1.7,0.1,2.5,0.6c1.1,0.7,1.8,1.7,2,3
					C59.6,77.5,59.6,77.9,59.6,78.3z M58.9,78.4c0-0.3,0-0.6-0.1-0.9c-0.2-1.9-1.4-3.3-3.4-3.4c-1.3-0.1-2.4,0.3-3.3,1.4
					c-0.6,0.7-0.9,1.6-0.9,2.5c-0.1,1,0,2,0.5,2.9c0.8,1.5,2.1,2.1,3.6,2c1.5-0.1,2.5-0.8,3.1-2.2C58.8,79.9,58.9,79.2,58.9,78.4z"
					/>
			</g>
			<g id="XMLID_3871_">
				<path id="XMLID_3872_" class="st0" d="M73.9,78.3c0,1-0.2,2-0.7,2.9c-0.8,1.4-2,2.1-3.6,2.2c-0.9,0-1.8-0.1-2.6-0.6
					c-1-0.6-1.6-1.4-1.9-2.5c-0.5-1.5-0.4-3.1,0.3-4.6c0.8-1.6,2.1-2.3,3.8-2.4c0.9,0,1.8,0.1,2.5,0.6c1.1,0.7,1.8,1.7,2,3
					C73.8,77.4,73.9,77.9,73.9,78.3z M73.2,78.4c0-0.3,0-0.6-0.1-0.9c-0.2-1.9-1.4-3.3-3.4-3.4c-1.3-0.1-2.4,0.3-3.3,1.4
					c-0.6,0.7-0.9,1.6-0.9,2.5c-0.1,1,0,2,0.5,2.9c0.8,1.5,2.1,2.1,3.6,2c1.5-0.1,2.5-0.8,3.1-2.2C73.1,79.9,73.2,79.2,73.2,78.4z"
					/>
			</g>
			<g id="XMLID_3875_">
				<path id="XMLID_3876_" class="st0" d="M44.9,74.7c-0.5-0.2-1-0.4-1.5-0.5c-1.3-0.2-2.5-0.1-3.5,0.7c-0.9,0.7-1.4,1.7-1.5,2.8
					c-0.1,1-0.1,2.1,0.4,3.1c0.6,1.4,1.7,2,3.2,2.1c0.8,0,1.6-0.1,2.3-0.5c0.1-0.1,0.2-0.1,0.2-0.3c0-0.9,0-1.9,0-2.8
					c0-0.2-0.1-0.2-0.2-0.2c-0.6,0-1.2,0-1.9,0c-0.2,0-0.2,0-0.2-0.2c0-0.4,0-0.4,0.4-0.4c0.8,0,1.6,0,2.4,0c0.1,0,0.2,0,0.2,0.2
					c0,1.3,0,2.5,0,3.8c0,0.1,0,0.2-0.1,0.2c-1.4,0.7-2.8,1-4.3,0.6c-1.6-0.5-2.5-1.6-2.9-3.2c-0.3-1.3-0.3-2.7,0.3-4
					c0.8-1.7,2.2-2.6,4.1-2.7c0.8,0,1.7,0.1,2.4,0.4c0.1,0.1,0.2,0.1,0.2,0.3C44.8,74.3,44.9,74.5,44.9,74.7z"/>
			</g>
			<g id="XMLID_3877_">
				<path id="XMLID_3878_" class="st0" d="M24.8,83.3c0.2-0.5,0.4-0.9,0.5-1.4c1-2.7,2-5.3,3-8c0.1-0.2,0.2-0.2,0.3-0.2
					c0.4,0,0.4,0,0.5,0.4c1.1,3,2.3,6.1,3.4,9.1c0,0.1,0,0.1,0.1,0.2c-0.2,0-0.4,0-0.6,0c-0.1,0-0.1-0.1-0.2-0.2
					c-0.3-0.9-0.7-1.8-1-2.7c-0.1-0.2-0.1-0.2-0.3-0.2c-1.2,0-2.5,0-3.7,0c-0.2,0-0.3,0-0.3,0.2c-0.3,0.9-0.6,1.8-1,2.6
					c0,0.1-0.1,0.2-0.2,0.2C25.2,83.2,25,83.3,24.8,83.3z M30.6,79.6c-0.6-1.7-1.3-3.4-1.8-5.1c-0.6,1.7-1.2,3.4-1.9,5.1
					C28.1,79.6,29.4,79.6,30.6,79.6z"/>
			</g>
			<g id="XMLID_3881_">
				<path id="XMLID_3882_" class="st0" d="M92.8,82.2c0.5,0.3,0.9,0.5,1.4,0.6c0.6,0.1,1.2,0.1,1.8-0.1c0.6-0.2,1-0.6,1.1-1.2
					c0.1-0.7,0-1.3-0.5-1.8c-0.5-0.4-1-0.7-1.5-1c-0.6-0.3-1.1-0.7-1.6-1.2c-0.8-0.8-0.8-2.3,0-3.2c0.5-0.6,1.2-0.8,1.9-0.9
					c0.7-0.1,1.3,0,1.9,0.2c0.1,0,0.2,0.1,0.2,0.2c0,0.2,0.1,0.4,0,0.5c-0.1,0.1-0.3-0.1-0.5-0.1c-0.7-0.2-1.5-0.3-2.2-0.1
					c-0.7,0.2-1.1,0.6-1.2,1.3c-0.1,0.7,0,1.3,0.6,1.7c0.5,0.4,1.2,0.8,1.7,1.1c0.5,0.3,0.9,0.6,1.3,1c1.1,1.1,0.9,3.4-1.1,4
					C95.1,83.6,94,83.4,93,83c-0.1,0-0.2-0.1-0.1-0.2C92.8,82.6,92.8,82.4,92.8,82.2z"/>
			</g>
			<g id="XMLID_3883_">
				<path id="XMLID_3884_" class="st0" d="M16.2,78.2c0,1.4,0,2.9,0,4.3c0,0.2,0,0.2,0.2,0.2c1.1,0,2.3,0,3.4,0c0.2,0,0.2,0,0.2,0.2
					c0,0.4,0,0.4-0.4,0.4c-1.3,0-2.6,0-4,0c-0.2,0-0.2,0-0.2-0.2c0-3.1,0-6.2,0-9.3c0-0.1,0-0.2,0.2-0.2c0.5,0,0.5,0,0.5,0.5
					C16.2,75.4,16.2,76.8,16.2,78.2z"/>
			</g>
			<g id="XMLID_3885_">
				<path id="XMLID_3886_" class="st0" d="M86.2,81.9C86.2,81.9,86.2,81.9,86.2,81.9C86.2,81.9,86.2,81.9,86.2,81.9
					C86.2,81.9,86.2,81.9,86.2,81.9L86.2,81.9z"/>
			</g>
		</g>
	</g>
	<g id="XMLID_3887_">
		<g id="XMLID_3888_">
			<g id="XMLID_3889_">
				<path id="XMLID_3890_" class="st1" d="M87,16.9c-1,0.5-1.9,1-2.9,1.5c-2.2,1.2-4.5,2.3-6.7,3.5c0,0-0.1,0-0.1,0.1
					c-1.5,0.8-2.9,1.5-4.4,2.3c-0.6,0.3-1.2,0.6-1.8,0.9c-0.2,0.1-0.3,0.1-0.5,0c-1.2-0.6-2.5-1.2-3.7-1.9c-0.1,0-0.1-0.1-0.2-0.1
					c-0.6-0.3-1.3-0.6-1.9-1c-2.3-1.2-4.6-2.3-6.9-3.5c-0.8-0.4-1.5-0.8-2.3-1.2c-0.1-0.1-0.2-0.1-0.4,0c-0.5,0.3-1,0.6-1.5,0.8
					c-1.1,0.6-2.1,1.1-3.2,1.7c-3.2,1.7-6.4,3.4-9.6,5c-0.2,0.1-0.4,0.1-0.6,0c-4.5-2.4-9.1-4.7-13.6-7.1c-0.8-0.4-1.5-0.8-2.3-1.2
					c-0.2-0.1-0.2-0.1-0.1-0.3c0.9-1.6,1.7-3.2,2.5-4.8c0.1-0.2,0.2-0.2,0.3-0.1c3.6,1.9,7.3,3.8,10.9,5.8c0.7,0.4,1.5,0.8,2.2,1.2
					c0.1,0.1,0.2,0.1,0.4,0c2.2-1.2,4.5-2.3,6.7-3.5c1-0.5,1.9-1,2.9-1.5c0.9-0.4,1.7-0.9,2.6-1.3c0.3-0.1,0.5-0.3,0.8-0.4
					c0.6-0.4,1.2-0.6,1.8-1c0.1,0,0.1,0,0.2-0.1h0.1c0.9,0.5,1.8,0.9,2.7,1.3c2.1,1,4.1,2,6.2,3c0.7,0.4,1.5,0.7,2.2,1.1
					c0.4,0.2,0.9,0.4,1.3,0.6c1,0.5,1.9,0.9,2.8,1.4c0.2,0.1,0.3,0.1,0.5,0c1.8-0.9,3.6-1.8,5.4-2.7c0.1-0.1,0.2-0.1,0.3-0.1
					c0.3-0.2,0.6-0.3,0.9-0.5c2-1,4-2,6-3c0.2-0.1,0.5-0.4,0.7-0.3c0.2,0.1,0.2,0.4,0.4,0.6c0.7,1.4,1.3,2.8,2,4.2
					C87.2,16.7,87.2,16.8,87,16.9z"/>
			</g>
		</g>
		<g id="XMLID_3891_">
			<g id="XMLID_3892_">
				<path id="XMLID_3893_" class="st2" d="M87,28c-2.3,1.2-4.6,2.4-6.9,3.6c-1.6,0.9-3.3,1.7-4.9,2.6c-0.1,0-0.2,0.1-0.2,0.1
					c-1.2,0.6-2.4,1.3-3.6,1.9c-0.3,0.2-0.5,0.2-0.9,0c-1.1-0.6-2.3-1.2-3.5-1.8c-0.1,0-0.1-0.1-0.2-0.1c-0.9-0.4-1.7-0.9-2.5-1.3
					c-2.8-1.4-5.6-2.9-8.4-4.4c-0.2-0.1-0.3,0-0.5,0c-3.1,1.6-6.3,3.3-9.4,4.9c-1.8,0.9-3.6,1.8-5.4,2.8c-0.1,0.1-0.2,0.1-0.4,0
					c-4.9-2.5-9.8-5.1-14.7-7.6c-0.4-0.2-0.8-0.4-1.2-0.6c-0.1-0.1-0.2-0.1-0.1-0.3c0.9-1.6,1.7-3.2,2.5-4.9
					c0.1-0.2,0.2-0.2,0.3-0.1l7.6,4.2c1.9,1,3.7,2,5.6,3.1c0.2,0.1,0.3,0.1,0.5,0l14.7-7.9c0.1-0.1,0.2-0.1,0.3,0
					c3.7,1.8,7.4,3.6,11.1,5.5c0,0,0,0,0.1,0c1.1,0.6,2.3,1.1,3.4,1.7c0.3,0.2,0.6,0.2,0.9,0c1.2-0.6,2.3-1.2,3.5-1.8
					c0.7-0.4,1.4-0.7,2.1-1.1c2.4-1.2,4.8-2.4,7.2-3.6c0.2-0.1,0.3-0.1,0.4,0.1c0.8,1.5,1.6,3.1,2.5,4.6C87.2,27.8,87.2,27.9,87,28z
					"/>
			</g>
		</g>
		<g id="XMLID_3894_">
			<g id="XMLID_3895_">
				<path id="XMLID_3896_" class="st3" d="M86.7,39.4c-2.5,1.3-5.1,2.6-7.6,3.9c-0.1,0-0.2,0.1-0.2,0.1c-1.1,0.6-2.2,1.1-3.3,1.7
					c-1.4,0.7-2.7,1.4-4.1,2.1c-0.1,0-0.2,0.1-0.3,0.1c-0.2,0.2-0.5,0.1-0.7,0c-4-2.1-8-4.2-12-6.3c-0.9-0.5-1.8-0.9-2.6-1.4
					c-0.1-0.1-0.3-0.1-0.4,0c-5,2.6-9.9,5.2-14.9,7.8c-0.1,0.1-0.2,0.1-0.3,0c-4.3-2.3-8.7-4.6-13-6.9c-0.9-0.5-1.9-1-2.8-1.5
					c-0.2-0.1-0.2-0.1-0.1-0.3c0.8-1.4,1.6-2.9,2.4-4.3c0.1-0.2,0.2-0.2,0.4-0.1c4.4,2.4,8.8,4.7,13.2,7c0.2,0.1,0.3,0.1,0.5,0
					c4.9-2.6,9.8-5.2,14.7-7.9c0.2-0.1,0.3-0.1,0.4,0c5,2.6,10,5.2,15,7.9c0.1,0,0.2,0.1,0.3,0.1c0.7-0.4,1.4-0.8,2.2-1.2
					c1.8-0.9,3.6-1.9,5.3-2.8c0.1,0,0.1-0.1,0.2-0.1c0.6-0.4,1.3-0.7,2-1.1c1.2-0.7,2.5-1.3,3.7-2c0.3-0.2,0.3-0.1,0.4,0.1
					c0.7,1.4,1.4,2.8,2.1,4.3C87.2,39.1,87.2,39.1,86.7,39.4z"/>
			</g>
		</g>
		<g id="XMLID_3897_">
			<g id="XMLID_3898_">
				<path id="XMLID_3899_" class="st4" d="M87,50.2c-1.1,0.6-2.2,1.2-3.3,1.8c-1.7,0.9-3.5,1.8-5.2,2.8c0,0-0.1,0-0.2,0.1
					c-1.1,0.6-2.2,1.2-3.2,1.7c-1,0.5-2,1.1-3,1.6c-0.3,0.2-0.7,0.4-1,0.5c-0.1,0.1-0.2,0.1-0.3,0c-2.4-1.2-4.9-2.4-7.3-3.7
					c-2.5-1.3-5-2.5-7.6-3.8c-0.1-0.1-0.2-0.1-0.3,0c-2.4,1.2-4.7,2.4-7.1,3.6c-2.6,1.3-5.1,2.6-7.7,3.9c-0.2,0.1-0.3,0.1-0.5,0
					c-4.6-2.4-9.3-4.8-13.9-7.2c-0.7-0.3-1.3-0.7-2-1c-0.2-0.1-0.1-0.2-0.1-0.3c0.8-1.5,1.6-3,2.4-4.5c0.1-0.2,0.2-0.2,0.4-0.1
					c4.4,2.2,8.9,4.5,13.3,6.7c0.2,0.1,0.3,0.1,0.4,0c4.8-2.6,9.6-5.2,14.4-7.8c0.2-0.1,0.3-0.1,0.5,0c4.6,2.3,9.2,4.6,13.8,6.9
					c0.4,0.2,0.8,0.4,1.2,0.6c0.1,0.1,0.2,0.1,0.3,0c0.3-0.2,0.7-0.3,1.1-0.5c0.8-0.4,1.5-0.7,2.3-1.1c1.2-0.6,2.5-1.2,3.8-1.8
					c0,0,0.1,0,0.2-0.1c0.8-0.4,1.5-0.7,2.2-1.1c0.7-0.3,1.4-0.7,2.1-1c0.6-0.3,1.3-0.6,1.9-0.9c0.1-0.1,0.2,0,0.3,0.1
					c0.8,1.4,1.5,2.9,2.3,4.4C87.2,50,87.1,50.1,87,50.2z"/>
			</g>
		</g>
	</g>
</g>
</svg>
