<?xml version="1.0" encoding="utf-8"?>
<!-- Generator: Adobe Illustrator 19.0.0, SVG Export Plug-In . SVG Version: 6.00 Build 0)  -->
<svg version="1.1" id="Capa_1" xmlns="http://www.w3.org/2000/svg" xmlns:xlink="http://www.w3.org/1999/xlink" x="0px" y="0px"
	 viewBox="0 0 94 100.3" style="enable-background:new 0 0 94 100.3;" xml:space="preserve">
<style type="text/css">
	.st0{fill:#FFFFFF;}
	.st1{fill:#E5CF8B;}
</style>
<g id="XMLID_4578_">
	<g id="XMLID_4579_">
		<g id="XMLID_4580_">
			<g id="XMLID_4581_">
				<path id="XMLID_4582_" class="st0" d="M56.5,84.9c-1-1.1-2.1-2.2-3.1-3.3c-1.3-1.4-2.6-2.8-3.9-4.1c-0.2-0.2-0.3-0.5-0.7-0.4
					c-0.3,0.1-0.2,0.5-0.2,0.8c0,2.1,0,4.1,0,6.2c0,0.5,0,0.9-0.7,0.9c-0.6,0-0.8-0.3-0.8-0.9c0-3.5,0-6.9,0-10.4
					c0-0.1,0.1-0.2,0.3-0.4c1.8,2,3.6,4,5.4,5.9c0.5,0.5,1,1.1,1.5,1.6c0.2,0.2,0.4,0.6,0.8,0.4c0.3-0.1,0.2-0.5,0.2-0.8
					c0-2.1,0-4.1,0-6.2c0-0.8,0.3-1,1.1-0.9c0.5,0.1,0.5,0.5,0.5,0.9c0,3.5,0,6.9,0,10.4C56.7,84.8,56.6,84.8,56.5,84.9z"/>
				<path id="XMLID_4583_" class="st0" d="M64.1,79.1c0-1.6,0-3.1,0-4.7c0-0.8,0.2-1,1-1c1.5,0.1,3.1-0.1,4.6,0.3
					c1.3,0.3,2.3,0.9,2.9,2.1c1.2,2.1,1.2,4.4,0.2,6.5c-0.6,1.3-1.8,2.1-3.3,2.4c-1.5,0.3-3,0.2-4.4,0.3c-0.8,0-1-0.4-1-1.1
					C64.1,82.3,64.1,80.7,64.1,79.1z M65.5,79.1c0,1.2,0,2.4,0,3.6c0,0.4,0,0.8,0.6,0.9c3.8,0.9,6.6-1.7,5.9-5.5
					c-0.3-1.7-1.4-3-2.9-3.2c-0.9-0.1-1.7-0.1-2.6-0.2c-0.8-0.1-1.1,0.2-1.1,1.1C65.5,76.8,65.5,78,65.5,79.1z"/>
				<path id="XMLID_4586_" class="st0" d="M5.8,79c0-1.6,0-3.1,0-4.7c0-0.7,0.2-1,0.9-1c1.1,0.1,2.3-0.1,3.4,0.2
					c2,0.6,2.8,2.8,1.5,4.4c-0.4,0.6-0.3,0.8,0.1,1.3c1.8,1.8,1,4.7-1.5,5.4C9,85,7.8,84.9,6.5,84.9c-0.7,0-0.7-0.5-0.7-1
					c0-0.8,0-1.7,0-2.5C5.8,80.6,5.8,79.8,5.8,79z M7.1,81.6c0.2,0.8-0.6,2.2,1.3,2.1c2-0.1,3-0.7,3-2c0-1.3-1.1-2-2.9-2.1
					C6.5,79.4,7.3,80.7,7.1,81.6z M8.2,78.3c1.8,0,2.6-0.6,2.6-1.8c0-1.3-0.9-2-2.7-1.9c-1.9,0.1-0.7,1.6-0.9,2.5
					C6.9,78.1,7.4,78.5,8.2,78.3z"/>
				<path id="XMLID_4590_" class="st0" d="M26.7,84.8c-1.2,0.4-1.8,0-2.3-0.8c-0.8-1.1-1.6-2.2-2.4-3.3c-0.2-0.3-0.4-0.9-0.8-0.8
					c-0.6,0.2-0.3,0.8-0.3,1.2c0,0.9,0,1.9,0,2.8c0,0.5,0,0.9-0.7,0.9c-0.7,0-0.7-0.5-0.7-1c0-3.3,0-6.5,0-9.8
					c0-0.7,0.3-0.9,0.9-0.8c0.8,0,1.7,0,2.5,0c1.8,0.1,2.8,1,3,2.7c0.2,1.5-0.5,2.6-2.1,3.2c-0.8,0.3-0.8,0.6-0.3,1.2
					C24.5,81.8,25.5,83.3,26.7,84.8z M20.7,76.3c0.1,0.8-0.4,1.9,1.1,1.8c1.8-0.1,2.5-0.4,2.5-1.7c0-1.3-0.8-1.8-2.6-1.8
					C20.2,74.6,20.9,75.7,20.7,76.3z"/>
				<path id="XMLID_4593_" class="st0" d="M83.3,73.3c0.8-0.1,1.6,0.2,2.2,0.9c0.2,0.3,0.8,0.6,0.3,1c-0.4,0.4-0.8,0.6-1.3,0.1
					c-0.3-0.3-0.6-0.5-1-0.6c-0.9-0.2-1.6,0-2,0.8c-0.4,0.8-0.1,1.6,0.6,2c0.8,0.5,1.7,0.8,2.6,1.2c1.4,0.7,2.2,2,2,3.4
					c-0.2,1.5-1.2,2.6-2.5,2.9c-1.8,0.4-3.5-0.1-4.3-1.4c-0.2-0.3-0.6-0.8-0.2-1.2c0.5-0.4,0.9-0.6,1.3,0.3c0.5,1.1,1.6,1.5,2.7,1.1
					c1-0.3,1.6-1.2,1.4-2.3c-0.1-0.7-0.6-1.2-1.2-1.5c-0.7-0.4-1.5-0.7-2.2-1c-1.5-0.8-2.2-2.1-1.8-3.5C80.3,74,81.4,73.3,83.3,73.3
					z"/>
				<path id="XMLID_4594_" class="st0" d="M36,73.6c0.7,0.8,0.9,1.6,1.3,2.4c1.2,2.6,2.4,5.2,3.6,7.9c0.1,0.3,0.5,0.7,0.1,1
					c-0.4,0.2-1,0.2-1.3-0.4c-0.2-0.5-0.5-1-0.7-1.6c-0.2-0.3-0.2-0.8-0.5-1c-1.2-0.9-2.6-0.2-3.9-0.4c-0.6-0.1-0.8,0.4-1,0.9
					c-0.3,0.7-0.6,1.4-0.9,2.1c-0.3,0.6-0.8,0.6-1.2,0.4c-0.5-0.2-0.2-0.6-0.1-1C32.9,80.5,34.4,77.1,36,73.6z M36.1,76.5
					c-0.5,1.1-0.9,2-1.3,2.9c-0.1,0.3-0.3,0.7,0,0.8c0.9,0.3,1.8,0.1,2.7,0.1c0.2,0,0.4-0.1,0.4-0.4c0-0.1,0-0.2-0.1-0.4
					C37.1,78.6,36.9,77.5,36.1,76.5z"/>
			</g>
			<g id="XMLID_4597_">
				<path id="XMLID_4598_" class="st0" d="M2,95.9L2,95.9v-4.3h0.1h0.1v4.2h1.6v0.1v0.1H2z"/>
				<path id="XMLID_4600_" class="st0" d="M9.7,95C9.7,95,9.7,95,9.7,95c0,0.1,0,0.2,0,0.3c0,0.1,0,0.2-0.1,0.2
					c0,0.1-0.1,0.2-0.2,0.2c-0.1,0.1-0.2,0.1-0.3,0.2c-0.1,0-0.3,0.1-0.4,0.1c-0.1,0-0.3,0-0.4-0.1c-0.1,0-0.3-0.1-0.3-0.2
					c-0.1-0.1-0.1-0.2-0.2-0.2c0-0.1-0.1-0.2-0.1-0.2c0-0.1,0-0.1,0-0.2c0-0.1,0-0.1,0-0.1v-2.4c0-0.2,0-0.3,0.1-0.4
					c0-0.1,0.1-0.2,0.2-0.3c0,0,0.1-0.1,0.1-0.1c0.1,0,0.1-0.1,0.2-0.1c0.1,0,0.1,0,0.2,0c0.1,0,0.1,0,0.2,0c0.1,0,0.1,0,0.2,0
					c0.1,0,0.1,0,0.2,0c0.1,0,0.1,0,0.2,0.1c0.1,0,0.1,0.1,0.1,0.1c0.2,0.2,0.3,0.4,0.3,0.8V95z M9.6,92.5c0-0.1,0-0.3-0.1-0.4
					c0-0.1-0.1-0.2-0.1-0.3c0,0-0.1-0.1-0.1-0.1c-0.1,0-0.1-0.1-0.2-0.1s-0.1,0-0.2,0c-0.1,0-0.1,0-0.2,0c-0.1,0-0.2,0-0.3,0
					c-0.1,0-0.2,0.1-0.3,0.1C8.1,91.9,8,91.9,8,92c-0.1,0.1-0.1,0.3-0.1,0.4v2.4c0,0.1,0,0.2,0,0.3c0,0.1,0,0.1,0.1,0.2
					c0,0.1,0.1,0.2,0.1,0.2c0.1,0.1,0.2,0.1,0.3,0.2c0.1,0,0.2,0.1,0.4,0.1c0.1,0,0.1,0,0.2,0c0.1,0,0.1,0,0.2,0
					c0.1,0,0.1,0,0.2-0.1c0.1,0,0.1-0.1,0.1-0.1c0.1-0.1,0.1-0.1,0.1-0.2c0-0.1,0-0.1,0.1-0.2c0-0.1,0-0.1,0-0.2L9.6,92.5z"/>
				<path id="XMLID_4603_" class="st0" d="M20.7,95.9c-0.1,0-0.2,0-0.3,0c-0.1,0-0.3,0-0.4-0.1c-0.1,0-0.3-0.1-0.3-0.2
					c-0.1-0.1-0.1-0.2-0.2-0.2c0-0.1-0.1-0.2-0.1-0.2c0-0.1,0-0.1,0-0.2c0-0.1,0-0.1,0-0.1v-2.4c0-0.2,0-0.3,0.1-0.4
					s0.1-0.2,0.2-0.3c0,0,0.1-0.1,0.1-0.1c0.1,0,0.1-0.1,0.2-0.1c0.1,0,0.1,0,0.2,0c0.1,0,0.1,0,0.2,0c0.1,0,0.1,0,0.2,0
					c0.1,0,0.1,0,0.2,0c0.1,0,0.1,0,0.2,0.1c0.1,0,0.1,0.1,0.1,0.1c0.2,0.2,0.3,0.4,0.3,0.8V95c0,0,0,0,0,0.1c0,0.1,0,0.1,0,0.2
					c0,0.1,0,0.2-0.1,0.2c0,0.1-0.1,0.2-0.2,0.2c0,0,0,0-0.1,0.1l0.4,0.5h-0.2L21,95.8C20.9,95.9,20.8,95.9,20.7,95.9z M21.3,92.5
					c0-0.1,0-0.3-0.1-0.4c0-0.1-0.1-0.2-0.1-0.3c0,0-0.1-0.1-0.1-0.1c-0.1,0-0.1-0.1-0.2-0.1c-0.1,0-0.1,0-0.2,0c-0.1,0-0.1,0-0.2,0
					c-0.1,0-0.2,0-0.3,0c-0.1,0-0.2,0.1-0.3,0.1s-0.2,0.1-0.2,0.3c-0.1,0.1-0.1,0.3-0.1,0.4v2.4c0,0.1,0,0.2,0,0.3
					c0,0.1,0,0.1,0.1,0.2c0,0.1,0.1,0.2,0.1,0.2c0.1,0.1,0.2,0.1,0.3,0.2c0.1,0,0.2,0.1,0.4,0.1c0.1,0,0.1,0,0.2,0
					c0.1,0,0.1,0,0.2,0c0.1,0,0.1,0,0.2-0.1c0.1,0,0.1-0.1,0.1-0.1c0.1-0.1,0.1-0.1,0.1-0.2c0-0.1,0-0.1,0.1-0.2c0-0.1,0-0.1,0-0.2
					L21.3,92.5z"/>
				<path id="XMLID_4606_" class="st0" d="M27.4,94.9C27.4,94.9,27.4,95,27.4,94.9c0,0.1,0,0.2,0,0.3c0,0.1,0,0.2-0.1,0.2
					c0,0.1-0.1,0.2-0.2,0.2c-0.2,0.2-0.4,0.2-0.6,0.2c-0.3,0-0.5-0.1-0.6-0.2c-0.1-0.1-0.1-0.2-0.2-0.2c0-0.1-0.1-0.2-0.1-0.2
					s0-0.1,0-0.2c0-0.1,0-0.1,0-0.1v-3.3h0.1h0.1v3.4v0c0,0,0,0.1,0,0.1c0,0,0,0.1,0,0.1c0,0.1,0,0.1,0.1,0.2c0,0.1,0.1,0.1,0.1,0.2
					c0.1,0.1,0.3,0.2,0.5,0.2c0.2,0,0.4-0.1,0.6-0.2c0.1-0.1,0.1-0.1,0.1-0.2c0-0.1,0.1-0.1,0.1-0.2c0,0,0-0.1,0-0.1
					c0,0,0-0.1,0-0.1v0v-3.4h0.1h0.1V94.9z"/>
				<path id="XMLID_4608_" class="st0" d="M33.2,95.8L33.2,95.8v0.1h-1.7v-0.1v-4.2v-0.1h1.7v0.1v0h-1.5v2.3h1.2V94V94h-1.2v1.7
					H33.2z"/>
				<path id="XMLID_4610_" class="st0" d="M43.4,95.9L43.4,95.9h-0.1v-4.3v-0.1h0.1l1.7,3.8c0,0.1,0,0.1,0.1,0.1c0,0,0,0.1,0,0.1v-4
					h0.1h0.1v4.3h-0.1l-1.6-3.8c0,0,0-0.1-0.1-0.1c0-0.1,0-0.1-0.1-0.1L43.4,95.9z M43.4,91.6L43.4,91.6L43.4,91.6L43.4,91.6
					L43.4,91.6L43.4,91.6L43.4,91.6L43.4,91.6L43.4,91.6z M45.2,95.9L45.2,95.9L45.2,95.9L45.2,95.9L45.2,95.9L45.2,95.9z"/>
				<path id="XMLID_4614_" class="st0" d="M51.1,95C51.1,95,51.1,95,51.1,95c0,0.1,0,0.2,0,0.3c0,0.1,0,0.2-0.1,0.2
					c0,0.1-0.1,0.2-0.2,0.2c-0.1,0.1-0.2,0.1-0.3,0.2c-0.1,0-0.3,0.1-0.4,0.1c-0.1,0-0.3,0-0.4-0.1c-0.1,0-0.3-0.1-0.3-0.2
					c-0.1-0.1-0.1-0.2-0.2-0.2c0-0.1-0.1-0.2-0.1-0.2c0-0.1,0-0.1,0-0.2c0-0.1,0-0.1,0-0.1v-2.4c0-0.2,0-0.3,0.1-0.4
					s0.1-0.2,0.2-0.3c0,0,0.1-0.1,0.1-0.1c0.1,0,0.1-0.1,0.2-0.1c0.1,0,0.1,0,0.2,0c0.1,0,0.1,0,0.2,0c0.1,0,0.1,0,0.2,0
					c0.1,0,0.1,0,0.2,0c0.1,0,0.1,0,0.2,0.1c0.1,0,0.1,0.1,0.1,0.1c0.2,0.2,0.3,0.4,0.3,0.8V95z M51,92.5c0-0.1,0-0.3-0.1-0.4
					c0-0.1-0.1-0.2-0.1-0.3c0,0-0.1-0.1-0.1-0.1c-0.1,0-0.1-0.1-0.2-0.1c-0.1,0-0.1,0-0.2,0c-0.1,0-0.1,0-0.2,0c-0.1,0-0.2,0-0.3,0
					c-0.1,0-0.2,0.1-0.3,0.1c-0.1,0.1-0.2,0.1-0.2,0.3c-0.1,0.1-0.1,0.3-0.1,0.4v2.4c0,0.1,0,0.2,0,0.3c0,0.1,0,0.1,0.1,0.2
					c0,0.1,0.1,0.2,0.1,0.2c0.1,0.1,0.2,0.1,0.3,0.2c0.1,0,0.2,0.1,0.4,0.1c0.1,0,0.1,0,0.2,0c0.1,0,0.1,0,0.2,0
					c0.1,0,0.1,0,0.2-0.1c0.1,0,0.1-0.1,0.1-0.1c0.1-0.1,0.1-0.1,0.1-0.2c0-0.1,0-0.1,0.1-0.2c0-0.1,0-0.1,0-0.2L51,92.5z"/>
				<path id="XMLID_4617_" class="st0" d="M55.4,95.7c-0.1-0.1-0.2-0.2-0.2-0.4c0-0.1-0.1-0.3-0.1-0.5h0.1c0,0.2,0,0.3,0.1,0.5
					c0.1,0.1,0.1,0.2,0.2,0.3c0.1,0.1,0.2,0.1,0.3,0.1c0.1,0,0.2,0,0.3,0c0.1,0,0.2,0,0.3,0c0.1,0,0.2-0.1,0.3-0.1
					c0.1-0.1,0.1-0.2,0.2-0.3c0-0.1,0.1-0.2,0.1-0.4c0-0.2,0-0.3-0.1-0.5c-0.1-0.1-0.1-0.3-0.2-0.4c-0.1-0.1-0.2-0.2-0.3-0.3
					c-0.1-0.1-0.2-0.2-0.3-0.2c-0.1-0.1-0.2-0.1-0.3-0.2c-0.1-0.1-0.2-0.2-0.3-0.2c-0.2-0.2-0.3-0.4-0.3-0.7c0,0,0,0,0-0.1
					c0,0,0-0.1,0-0.2c0-0.1,0-0.1,0.1-0.2c0-0.1,0.1-0.2,0.1-0.2c0.2-0.2,0.4-0.3,0.6-0.3c0.3,0,0.5,0.1,0.6,0.3
					c0.1,0.1,0.1,0.2,0.1,0.2c0,0.1,0,0.2,0.1,0.2c0,0.1,0,0.1,0,0.2s0,0.1,0,0.1h-0.1c0-0.1,0-0.2,0-0.3c0-0.1,0-0.1,0-0.2
					c0-0.1-0.1-0.1-0.1-0.2c-0.1-0.1-0.1-0.1-0.2-0.2c-0.1,0-0.2-0.1-0.3-0.1c-0.2,0-0.4,0.1-0.6,0.2c-0.1,0.1-0.1,0.1-0.1,0.2
					c0,0.1,0,0.1-0.1,0.2s0,0.1,0,0.2c0,0.1,0,0.2,0.1,0.3c0,0.1,0.1,0.2,0.2,0.3c0.1,0.1,0.2,0.2,0.2,0.2c0.1,0.1,0.2,0.1,0.3,0.2
					c0.1,0.1,0.2,0.2,0.3,0.3c0.1,0.1,0.2,0.2,0.3,0.3c0.2,0.3,0.3,0.6,0.3,0.9c0,0.3-0.1,0.6-0.3,0.8c-0.2,0.1-0.4,0.2-0.7,0.2
					c-0.1,0-0.2,0-0.3,0C55.6,95.9,55.5,95.8,55.4,95.7z"/>
				<path id="XMLID_4619_" class="st0" d="M67.9,94v-0.1l0.8,0v1.1c0,0,0,0,0,0.1c0,0.1,0,0.1,0,0.2c0,0.1,0,0.1-0.1,0.2
					c0,0.1-0.1,0.2-0.1,0.2c-0.2,0.2-0.4,0.3-0.6,0.3c-0.3,0-0.5-0.1-0.6-0.2c-0.1-0.1-0.1-0.2-0.2-0.2c0-0.1-0.1-0.2-0.1-0.2
					c0-0.1,0-0.1,0-0.2s0-0.1,0-0.1v-2.4c0-0.3,0.1-0.6,0.3-0.7c0.1-0.1,0.2-0.1,0.3-0.2c0.1,0,0.2-0.1,0.3-0.1c0.1,0,0.2,0,0.3,0.1
					c0.1,0,0.2,0.1,0.3,0.2c0.1,0.1,0.2,0.2,0.2,0.3c0.1,0.1,0.1,0.3,0.1,0.5h-0.1c0-0.2,0-0.3-0.1-0.4c0-0.1-0.1-0.2-0.2-0.3
					c-0.1-0.1-0.1-0.1-0.2-0.2c-0.1,0-0.2-0.1-0.3-0.1c-0.1,0-0.2,0-0.3,0c-0.1,0-0.2,0.1-0.2,0.2c-0.1,0.1-0.1,0.2-0.2,0.3
					c0,0.1-0.1,0.2-0.1,0.4v2.5v0c0,0.1,0,0.2,0,0.3c0,0.1,0,0.1,0.1,0.2c0,0.1,0.1,0.2,0.1,0.2c0.1,0.1,0.3,0.2,0.5,0.2
					c0.2,0,0.4-0.1,0.5-0.2c0.1-0.1,0.1-0.1,0.1-0.2s0.1-0.1,0.1-0.2c0-0.1,0-0.1,0-0.2v0l0-1L67.9,94z"/>
				<path id="XMLID_4621_" class="st0" d="M74.6,94.9C74.6,94.9,74.6,95,74.6,94.9c0,0.1,0,0.2,0,0.3c0,0.1,0,0.2-0.1,0.2
					s-0.1,0.2-0.2,0.2c-0.2,0.2-0.4,0.2-0.6,0.2c-0.3,0-0.5-0.1-0.6-0.2c-0.1-0.1-0.1-0.2-0.2-0.2c0-0.1-0.1-0.2-0.1-0.2
					c0-0.1,0-0.1,0-0.2c0-0.1,0-0.1,0-0.1v-3.3h0.1H73v3.4v0c0,0,0,0.1,0,0.1c0,0,0,0.1,0,0.1c0,0.1,0,0.1,0.1,0.2
					c0,0.1,0.1,0.1,0.1,0.2c0.1,0.1,0.3,0.2,0.5,0.2c0.2,0,0.4-0.1,0.6-0.2c0.1-0.1,0.1-0.1,0.1-0.2c0-0.1,0.1-0.1,0.1-0.2
					c0,0,0-0.1,0-0.1c0,0,0-0.1,0-0.1v0v-3.4h0.1h0.1V94.9z"/>
				<path id="XMLID_4623_" class="st0" d="M79.2,95.7c-0.1-0.1-0.2-0.2-0.2-0.4c0-0.1-0.1-0.3-0.1-0.5H79c0,0.2,0,0.3,0.1,0.5
					c0.1,0.1,0.1,0.2,0.2,0.3c0.1,0.1,0.2,0.1,0.3,0.1c0.1,0,0.2,0,0.3,0c0.1,0,0.2,0,0.3,0c0.1,0,0.2-0.1,0.3-0.1
					c0.1-0.1,0.1-0.2,0.2-0.3c0-0.1,0.1-0.2,0.1-0.4c0-0.2,0-0.3-0.1-0.5c-0.1-0.1-0.1-0.3-0.2-0.4c-0.1-0.1-0.2-0.2-0.3-0.3
					c-0.1-0.1-0.2-0.2-0.3-0.2c-0.1-0.1-0.2-0.1-0.3-0.2c-0.1-0.1-0.2-0.2-0.3-0.2C79.1,93,79,92.7,79,92.5c0,0,0,0,0-0.1
					c0,0,0-0.1,0-0.2c0-0.1,0-0.1,0.1-0.2c0-0.1,0.1-0.2,0.1-0.2c0.2-0.2,0.4-0.3,0.6-0.3c0.3,0,0.5,0.1,0.6,0.3
					c0.1,0.1,0.1,0.2,0.1,0.2c0,0.1,0,0.2,0.1,0.2c0,0.1,0,0.1,0,0.2c0,0.1,0,0.1,0,0.1h-0.1c0-0.1,0-0.2,0-0.3c0-0.1,0-0.1,0-0.2
					c0-0.1-0.1-0.1-0.1-0.2c-0.1-0.1-0.1-0.1-0.2-0.2c-0.1,0-0.2-0.1-0.3-0.1c-0.2,0-0.4,0.1-0.6,0.2c-0.1,0.1-0.1,0.1-0.1,0.2
					c0,0.1,0,0.1-0.1,0.2s0,0.1,0,0.2c0,0.1,0,0.2,0.1,0.3c0,0.1,0.1,0.2,0.2,0.3c0.1,0.1,0.2,0.2,0.2,0.2c0.1,0.1,0.2,0.1,0.3,0.2
					c0.1,0.1,0.2,0.2,0.3,0.3c0.1,0.1,0.2,0.2,0.3,0.3c0.2,0.3,0.3,0.6,0.3,0.9c0,0.3-0.1,0.6-0.3,0.8c-0.2,0.1-0.4,0.2-0.7,0.2
					c-0.1,0-0.2,0-0.3,0C79.4,95.9,79.3,95.8,79.2,95.7z"/>
				<path id="XMLID_4625_" class="st0" d="M85.5,91.7h-1v-0.1v-0.1h2.1v0.1v0.1l0,0h-1v4.2h-0.1h-0.1V91.7z"/>
				<path id="XMLID_4627_" class="st0" d="M92,95.9h-0.1l-0.3-1.3h-1l-0.3,1.3h-0.1l0.9-4.3h0.1L92,95.9z M91.6,94.5l-0.5-2.6
					l-0.5,2.6H91.6z M91.1,91.6L91.1,91.6L91.1,91.6L91.1,91.6L91.1,91.6L91.1,91.6L91.1,91.6z"/>
			</g>
		</g>
	</g>
	<g id="XMLID_4631_">
		<path id="XMLID_4632_" class="st1" d="M60,53.7c-4.9,0-9.5-1.9-13-5.4c-3.4,3.4-8,5.4-13,5.4c-10.1,0-18.4-8.2-18.4-18.4
			S23.9,17,34.1,17c4.9,0,9.5,1.9,13,5.4c3.4-3.4,8-5.4,13-5.4c10.1,0,18.4,8.2,18.4,18.4S70.1,53.7,60,53.7z M47,42.6l1.5,1.8
			C51.3,48,55.5,50,60,50c8.1,0,14.7-6.6,14.7-14.7S68.1,20.7,60,20.7c-4.5,0-8.7,2-11.5,5.6L47,28.1l-1.5-1.8
			c-2.8-3.6-7-5.6-11.5-5.6c-8.1,0-14.7,6.6-14.7,14.7S26,50,34.1,50c4.5,0,8.7-2,11.5-5.6L47,42.6z"/>
		<g id="XMLID_4635_">
			<path id="XMLID_4636_" class="st1" d="M32.4,47.5c0.2-4.2,2.2-8,5.6-10.7l1.8-1.5L38,33.9c-3.3-2.6-5.3-6.5-5.6-10.7
				c-1.3,0.2-2.5,0.5-3.6,1.1c0.4,4.2,2.3,8.1,5.3,11c-3,3-4.8,6.8-5.3,11C29.9,46.9,31.1,47.3,32.4,47.5z"/>
			<path id="XMLID_4637_" class="st1" d="M60,35.3c3-3,4.8-6.8,5.3-11c-1.1-0.5-2.3-0.9-3.6-1.1c-0.2,4.2-2.2,8-5.6,10.7l-1.8,1.5
				l1.8,1.5c3.3,2.6,5.3,6.5,5.6,10.7c1.3-0.2,2.5-0.5,3.6-1.1C64.8,42.2,63,38.3,60,35.3z"/>
			<path id="XMLID_4638_" class="st1" d="M60,56.1c-0.2,0-0.4,0-0.6,0C56.8,60.2,52.2,63,47,63c-5.2,0-9.8-2.7-12.4-6.9
				c-0.2,0-0.4,0-0.6,0c-1.3,0-2.6-0.1-3.8-0.4c2.9,6.4,9.3,10.9,16.8,10.9c7.5,0,13.9-4.5,16.8-10.9C62.6,56,61.3,56.1,60,56.1z"/>
			<path id="XMLID_4639_" class="st1" d="M34.1,14.6c0.2,0,0.4,0,0.6,0c2.6-4.1,7.2-6.9,12.4-6.9c5.2,0,9.8,2.7,12.4,6.9
				c0.2,0,0.4,0,0.6,0c1.3,0,2.6,0.1,3.8,0.4C60.9,8.5,54.5,4,47,4c-7.5,0-13.9,4.5-16.8,10.9C31.5,14.7,32.8,14.6,34.1,14.6z"/>
		</g>
	</g>
</g>
</svg>
